<?xml version="1.0" encoding="utf-8" standalone="no"?>
<!DOCTYPE svg PUBLIC "-//W3C//DTD SVG 1.1//EN"
  "http://www.w3.org/Graphics/SVG/1.1/DTD/svg11.dtd">
<svg xmlns:xlink="http://www.w3.org/1999/xlink" width="479.29576pt" height="301.497085pt" viewBox="0 0 479.29576 301.497085" xmlns="http://www.w3.org/2000/svg" version="1.1">
 <metadata>
  <rdf:RDF xmlns:dc="http://purl.org/dc/elements/1.1/" xmlns:cc="http://creativecommons.org/ns#" xmlns:rdf="http://www.w3.org/1999/02/22-rdf-syntax-ns#">
   <cc:Work>
    <dc:type rdf:resource="http://purl.org/dc/dcmitype/StillImage"/>
    <dc:date>2026-07-08T08:47:09.734773</dc:date>
    <dc:format>image/svg+xml</dc:format>
    <dc:creator>
     <cc:Agent>
      <dc:title>Matplotlib v3.6.3, https://matplotlib.org/</dc:title>
     </cc:Agent>
    </dc:creator>
   </cc:Work>
  </rdf:RDF>
 </metadata>
 <defs>
  <style type="text/css">*{stroke-linejoin: round; stroke-linecap: butt}</style>
 </defs>
 <g id="figure_1">
  <g id="patch_1">
   <path d="M 0 301.497085 
L 479.29576 301.497085 
L 479.29576 0 
L 0 0 
z
" style="fill: #ffffff"/>
  </g>
  <g id="axes_1">
   <g id="patch_2">
    <path d="M 55.557031 262.00521 
L 416.617031 262.00521 
L 416.617031 33.877937 
L 55.557031 33.877937 
z
" style="fill: #ffffff"/>
   </g>
   <g id="matplotlib.axis_1">
    <g id="xtick_1">
     <g id="line2d_1">
      <path d="M 71.968849 262.00521 
L 71.968849 33.877937 
" clip-path="url(#p9dafed9980)" style="fill: none; stroke: #e1e0d9; stroke-opacity: 0.5; stroke-width: 0.8; stroke-linecap: square"/>
     </g>
     <g id="line2d_2">
      <defs>
       <path id="m0b02934657" d="M 0 0 
L 0 3.5 
" style="stroke: #898781; stroke-width: 0.8"/>
      </defs>
      <g>
       <use xlink:href="#m0b02934657" x="71.968849" y="262.00521" style="fill: #898781; stroke: #898781; stroke-width: 0.8"/>
      </g>
     </g>
     <g id="text_1">
      <!-- −2.0 -->
      <g style="fill: #898781" transform="translate(58.613303 277.363491) scale(0.11 -0.11)">
       <defs>
        <path id="DejaVuSans-2212" d="M 678 2272 
L 4684 2272 
L 4684 1741 
L 678 1741 
L 678 2272 
z
" transform="scale(0.015625)"/>
        <path id="DejaVuSans-32" d="M 1228 531 
L 3431 531 
L 3431 0 
L 469 0 
L 469 531 
Q 828 903 1448 1529 
Q 2069 2156 2228 2338 
Q 2531 2678 2651 2914 
Q 2772 3150 2772 3378 
Q 2772 3750 2511 3984 
Q 2250 4219 1831 4219 
Q 1534 4219 1204 4116 
Q 875 4013 500 3803 
L 500 4441 
Q 881 4594 1212 4672 
Q 1544 4750 1819 4750 
Q 2544 4750 2975 4387 
Q 3406 4025 3406 3419 
Q 3406 3131 3298 2873 
Q 3191 2616 2906 2266 
Q 2828 2175 2409 1742 
Q 1991 1309 1228 531 
z
" transform="scale(0.015625)"/>
        <path id="DejaVuSans-2e" d="M 684 794 
L 1344 794 
L 1344 0 
L 684 0 
L 684 794 
z
" transform="scale(0.015625)"/>
        <path id="DejaVuSans-30" d="M 2034 4250 
Q 1547 4250 1301 3770 
Q 1056 3291 1056 2328 
Q 1056 1369 1301 889 
Q 1547 409 2034 409 
Q 2525 409 2770 889 
Q 3016 1369 3016 2328 
Q 3016 3291 2770 3770 
Q 2525 4250 2034 4250 
z
M 2034 4750 
Q 2819 4750 3233 4129 
Q 3647 3509 3647 2328 
Q 3647 1150 3233 529 
Q 2819 -91 2034 -91 
Q 1250 -91 836 529 
Q 422 1150 422 2328 
Q 422 3509 836 4129 
Q 1250 4750 2034 4750 
z
" transform="scale(0.015625)"/>
       </defs>
       <use xlink:href="#DejaVuSans-2212"/>
       <use xlink:href="#DejaVuSans-32" x="83.789062"/>
       <use xlink:href="#DejaVuSans-2e" x="147.412109"/>
       <use xlink:href="#DejaVuSans-30" x="179.199219"/>
      </g>
     </g>
    </g>
    <g id="xtick_2">
     <g id="line2d_3">
      <path d="M 112.998395 262.00521 
L 112.998395 33.877937 
" clip-path="url(#p9dafed9980)" style="fill: none; stroke: #e1e0d9; stroke-opacity: 0.5; stroke-width: 0.8; stroke-linecap: square"/>
     </g>
     <g id="line2d_4">
      <g>
       <use xlink:href="#m0b02934657" x="112.998395" y="262.00521" style="fill: #898781; stroke: #898781; stroke-width: 0.8"/>
      </g>
     </g>
     <g id="text_2">
      <!-- −1.5 -->
      <g style="fill: #898781" transform="translate(99.642848 277.363491) scale(0.11 -0.11)">
       <defs>
        <path id="DejaVuSans-31" d="M 794 531 
L 1825 531 
L 1825 4091 
L 703 3866 
L 703 4441 
L 1819 4666 
L 2450 4666 
L 2450 531 
L 3481 531 
L 3481 0 
L 794 0 
L 794 531 
z
" transform="scale(0.015625)"/>
        <path id="DejaVuSans-35" d="M 691 4666 
L 3169 4666 
L 3169 4134 
L 1269 4134 
L 1269 2991 
Q 1406 3038 1543 3061 
Q 1681 3084 1819 3084 
Q 2600 3084 3056 2656 
Q 3513 2228 3513 1497 
Q 3513 744 3044 326 
Q 2575 -91 1722 -91 
Q 1428 -91 1123 -41 
Q 819 9 494 109 
L 494 744 
Q 775 591 1075 516 
Q 1375 441 1709 441 
Q 2250 441 2565 725 
Q 2881 1009 2881 1497 
Q 2881 1984 2565 2268 
Q 2250 2553 1709 2553 
Q 1456 2553 1204 2497 
Q 953 2441 691 2322 
L 691 4666 
z
" transform="scale(0.015625)"/>
       </defs>
       <use xlink:href="#DejaVuSans-2212"/>
       <use xlink:href="#DejaVuSans-31" x="83.789062"/>
       <use xlink:href="#DejaVuSans-2e" x="147.412109"/>
       <use xlink:href="#DejaVuSans-35" x="179.199219"/>
      </g>
     </g>
    </g>
    <g id="xtick_3">
     <g id="line2d_5">
      <path d="M 154.02794 262.00521 
L 154.02794 33.877937 
" clip-path="url(#p9dafed9980)" style="fill: none; stroke: #e1e0d9; stroke-opacity: 0.5; stroke-width: 0.8; stroke-linecap: square"/>
     </g>
     <g id="line2d_6">
      <g>
       <use xlink:href="#m0b02934657" x="154.02794" y="262.00521" style="fill: #898781; stroke: #898781; stroke-width: 0.8"/>
      </g>
     </g>
     <g id="text_3">
      <!-- −1.0 -->
      <g style="fill: #898781" transform="translate(140.672393 277.363491) scale(0.11 -0.11)">
       <use xlink:href="#DejaVuSans-2212"/>
       <use xlink:href="#DejaVuSans-31" x="83.789062"/>
       <use xlink:href="#DejaVuSans-2e" x="147.412109"/>
       <use xlink:href="#DejaVuSans-30" x="179.199219"/>
      </g>
     </g>
    </g>
    <g id="xtick_4">
     <g id="line2d_7">
      <path d="M 195.057486 262.00521 
L 195.057486 33.877937 
" clip-path="url(#p9dafed9980)" style="fill: none; stroke: #e1e0d9; stroke-opacity: 0.5; stroke-width: 0.8; stroke-linecap: square"/>
     </g>
     <g id="line2d_8">
      <g>
       <use xlink:href="#m0b02934657" x="195.057486" y="262.00521" style="fill: #898781; stroke: #898781; stroke-width: 0.8"/>
      </g>
     </g>
     <g id="text_4">
      <!-- −0.5 -->
      <g style="fill: #898781" transform="translate(181.701939 277.363491) scale(0.11 -0.11)">
       <use xlink:href="#DejaVuSans-2212"/>
       <use xlink:href="#DejaVuSans-30" x="83.789062"/>
       <use xlink:href="#DejaVuSans-2e" x="147.412109"/>
       <use xlink:href="#DejaVuSans-35" x="179.199219"/>
      </g>
     </g>
    </g>
    <g id="xtick_5">
     <g id="line2d_9">
      <path d="M 236.087031 262.00521 
L 236.087031 33.877937 
" clip-path="url(#p9dafed9980)" style="fill: none; stroke: #e1e0d9; stroke-opacity: 0.5; stroke-width: 0.8; stroke-linecap: square"/>
     </g>
     <g id="line2d_10">
      <g>
       <use xlink:href="#m0b02934657" x="236.087031" y="262.00521" style="fill: #898781; stroke: #898781; stroke-width: 0.8"/>
      </g>
     </g>
     <g id="text_5">
      <!-- 0.0 -->
      <g style="fill: #898781" transform="translate(227.340312 277.363491) scale(0.11 -0.11)">
       <use xlink:href="#DejaVuSans-30"/>
       <use xlink:href="#DejaVuSans-2e" x="63.623047"/>
       <use xlink:href="#DejaVuSans-30" x="95.410156"/>
      </g>
     </g>
    </g>
    <g id="xtick_6">
     <g id="line2d_11">
      <path d="M 277.116577 262.00521 
L 277.116577 33.877937 
" clip-path="url(#p9dafed9980)" style="fill: none; stroke: #e1e0d9; stroke-opacity: 0.5; stroke-width: 0.8; stroke-linecap: square"/>
     </g>
     <g id="line2d_12">
      <g>
       <use xlink:href="#m0b02934657" x="277.116577" y="262.00521" style="fill: #898781; stroke: #898781; stroke-width: 0.8"/>
      </g>
     </g>
     <g id="text_6">
      <!-- 0.5 -->
      <g style="fill: #898781" transform="translate(268.369858 277.363491) scale(0.11 -0.11)">
       <use xlink:href="#DejaVuSans-30"/>
       <use xlink:href="#DejaVuSans-2e" x="63.623047"/>
       <use xlink:href="#DejaVuSans-35" x="95.410156"/>
      </g>
     </g>
    </g>
    <g id="xtick_7">
     <g id="line2d_13">
      <path d="M 318.146122 262.00521 
L 318.146122 33.877937 
" clip-path="url(#p9dafed9980)" style="fill: none; stroke: #e1e0d9; stroke-opacity: 0.5; stroke-width: 0.8; stroke-linecap: square"/>
     </g>
     <g id="line2d_14">
      <g>
       <use xlink:href="#m0b02934657" x="318.146122" y="262.00521" style="fill: #898781; stroke: #898781; stroke-width: 0.8"/>
      </g>
     </g>
     <g id="text_7">
      <!-- 1.0 -->
      <g style="fill: #898781" transform="translate(309.399403 277.363491) scale(0.11 -0.11)">
       <use xlink:href="#DejaVuSans-31"/>
       <use xlink:href="#DejaVuSans-2e" x="63.623047"/>
       <use xlink:href="#DejaVuSans-30" x="95.410156"/>
      </g>
     </g>
    </g>
    <g id="xtick_8">
     <g id="line2d_15">
      <path d="M 359.175668 262.00521 
L 359.175668 33.877937 
" clip-path="url(#p9dafed9980)" style="fill: none; stroke: #e1e0d9; stroke-opacity: 0.5; stroke-width: 0.8; stroke-linecap: square"/>
     </g>
     <g id="line2d_16">
      <g>
       <use xlink:href="#m0b02934657" x="359.175668" y="262.00521" style="fill: #898781; stroke: #898781; stroke-width: 0.8"/>
      </g>
     </g>
     <g id="text_8">
      <!-- 1.5 -->
      <g style="fill: #898781" transform="translate(350.428949 277.363491) scale(0.11 -0.11)">
       <use xlink:href="#DejaVuSans-31"/>
       <use xlink:href="#DejaVuSans-2e" x="63.623047"/>
       <use xlink:href="#DejaVuSans-35" x="95.410156"/>
      </g>
     </g>
    </g>
    <g id="xtick_9">
     <g id="line2d_17">
      <path d="M 400.205213 262.00521 
L 400.205213 33.877937 
" clip-path="url(#p9dafed9980)" style="fill: none; stroke: #e1e0d9; stroke-opacity: 0.5; stroke-width: 0.8; stroke-linecap: square"/>
     </g>
     <g id="line2d_18">
      <g>
       <use xlink:href="#m0b02934657" x="400.205213" y="262.00521" style="fill: #898781; stroke: #898781; stroke-width: 0.8"/>
      </g>
     </g>
     <g id="text_9">
      <!-- 2.0 -->
      <g style="fill: #898781" transform="translate(391.458494 277.363491) scale(0.11 -0.11)">
       <use xlink:href="#DejaVuSans-32"/>
       <use xlink:href="#DejaVuSans-2e" x="63.623047"/>
       <use xlink:href="#DejaVuSans-30" x="95.410156"/>
      </g>
     </g>
    </g>
    <g id="text_10">
     <!-- strength added along the concept direction -->
     <g style="fill: #52514e" transform="translate(116.657109 292.009429) scale(0.11 -0.11)">
      <defs>
       <path id="DejaVuSans-73" d="M 2834 3397 
L 2834 2853 
Q 2591 2978 2328 3040 
Q 2066 3103 1784 3103 
Q 1356 3103 1142 2972 
Q 928 2841 928 2578 
Q 928 2378 1081 2264 
Q 1234 2150 1697 2047 
L 1894 2003 
Q 2506 1872 2764 1633 
Q 3022 1394 3022 966 
Q 3022 478 2636 193 
Q 2250 -91 1575 -91 
Q 1294 -91 989 -36 
Q 684 19 347 128 
L 347 722 
Q 666 556 975 473 
Q 1284 391 1588 391 
Q 1994 391 2212 530 
Q 2431 669 2431 922 
Q 2431 1156 2273 1281 
Q 2116 1406 1581 1522 
L 1381 1569 
Q 847 1681 609 1914 
Q 372 2147 372 2553 
Q 372 3047 722 3315 
Q 1072 3584 1716 3584 
Q 2034 3584 2315 3537 
Q 2597 3491 2834 3397 
z
" transform="scale(0.015625)"/>
       <path id="DejaVuSans-74" d="M 1172 4494 
L 1172 3500 
L 2356 3500 
L 2356 3053 
L 1172 3053 
L 1172 1153 
Q 1172 725 1289 603 
Q 1406 481 1766 481 
L 2356 481 
L 2356 0 
L 1766 0 
Q 1100 0 847 248 
Q 594 497 594 1153 
L 594 3053 
L 172 3053 
L 172 3500 
L 594 3500 
L 594 4494 
L 1172 4494 
z
" transform="scale(0.015625)"/>
       <path id="DejaVuSans-72" d="M 2631 2963 
Q 2534 3019 2420 3045 
Q 2306 3072 2169 3072 
Q 1681 3072 1420 2755 
Q 1159 2438 1159 1844 
L 1159 0 
L 581 0 
L 581 3500 
L 1159 3500 
L 1159 2956 
Q 1341 3275 1631 3429 
Q 1922 3584 2338 3584 
Q 2397 3584 2469 3576 
Q 2541 3569 2628 3553 
L 2631 2963 
z
" transform="scale(0.015625)"/>
       <path id="DejaVuSans-65" d="M 3597 1894 
L 3597 1613 
L 953 1613 
Q 991 1019 1311 708 
Q 1631 397 2203 397 
Q 2534 397 2845 478 
Q 3156 559 3463 722 
L 3463 178 
Q 3153 47 2828 -22 
Q 2503 -91 2169 -91 
Q 1331 -91 842 396 
Q 353 884 353 1716 
Q 353 2575 817 3079 
Q 1281 3584 2069 3584 
Q 2775 3584 3186 3129 
Q 3597 2675 3597 1894 
z
M 3022 2063 
Q 3016 2534 2758 2815 
Q 2500 3097 2075 3097 
Q 1594 3097 1305 2825 
Q 1016 2553 972 2059 
L 3022 2063 
z
" transform="scale(0.015625)"/>
       <path id="DejaVuSans-6e" d="M 3513 2113 
L 3513 0 
L 2938 0 
L 2938 2094 
Q 2938 2591 2744 2837 
Q 2550 3084 2163 3084 
Q 1697 3084 1428 2787 
Q 1159 2491 1159 1978 
L 1159 0 
L 581 0 
L 581 3500 
L 1159 3500 
L 1159 2956 
Q 1366 3272 1645 3428 
Q 1925 3584 2291 3584 
Q 2894 3584 3203 3211 
Q 3513 2838 3513 2113 
z
" transform="scale(0.015625)"/>
       <path id="DejaVuSans-67" d="M 2906 1791 
Q 2906 2416 2648 2759 
Q 2391 3103 1925 3103 
Q 1463 3103 1205 2759 
Q 947 2416 947 1791 
Q 947 1169 1205 825 
Q 1463 481 1925 481 
Q 2391 481 2648 825 
Q 2906 1169 2906 1791 
z
M 3481 434 
Q 3481 -459 3084 -895 
Q 2688 -1331 1869 -1331 
Q 1566 -1331 1297 -1286 
Q 1028 -1241 775 -1147 
L 775 -588 
Q 1028 -725 1275 -790 
Q 1522 -856 1778 -856 
Q 2344 -856 2625 -561 
Q 2906 -266 2906 331 
L 2906 616 
Q 2728 306 2450 153 
Q 2172 0 1784 0 
Q 1141 0 747 490 
Q 353 981 353 1791 
Q 353 2603 747 3093 
Q 1141 3584 1784 3584 
Q 2172 3584 2450 3431 
Q 2728 3278 2906 2969 
L 2906 3500 
L 3481 3500 
L 3481 434 
z
" transform="scale(0.015625)"/>
       <path id="DejaVuSans-68" d="M 3513 2113 
L 3513 0 
L 2938 0 
L 2938 2094 
Q 2938 2591 2744 2837 
Q 2550 3084 2163 3084 
Q 1697 3084 1428 2787 
Q 1159 2491 1159 1978 
L 1159 0 
L 581 0 
L 581 4863 
L 1159 4863 
L 1159 2956 
Q 1366 3272 1645 3428 
Q 1925 3584 2291 3584 
Q 2894 3584 3203 3211 
Q 3513 2838 3513 2113 
z
" transform="scale(0.015625)"/>
       <path id="DejaVuSans-20" transform="scale(0.015625)"/>
       <path id="DejaVuSans-61" d="M 2194 1759 
Q 1497 1759 1228 1600 
Q 959 1441 959 1056 
Q 959 750 1161 570 
Q 1363 391 1709 391 
Q 2188 391 2477 730 
Q 2766 1069 2766 1631 
L 2766 1759 
L 2194 1759 
z
M 3341 1997 
L 3341 0 
L 2766 0 
L 2766 531 
Q 2569 213 2275 61 
Q 1981 -91 1556 -91 
Q 1019 -91 701 211 
Q 384 513 384 1019 
Q 384 1609 779 1909 
Q 1175 2209 1959 2209 
L 2766 2209 
L 2766 2266 
Q 2766 2663 2505 2880 
Q 2244 3097 1772 3097 
Q 1472 3097 1187 3025 
Q 903 2953 641 2809 
L 641 3341 
Q 956 3463 1253 3523 
Q 1550 3584 1831 3584 
Q 2591 3584 2966 3190 
Q 3341 2797 3341 1997 
z
" transform="scale(0.015625)"/>
       <path id="DejaVuSans-64" d="M 2906 2969 
L 2906 4863 
L 3481 4863 
L 3481 0 
L 2906 0 
L 2906 525 
Q 2725 213 2448 61 
Q 2172 -91 1784 -91 
Q 1150 -91 751 415 
Q 353 922 353 1747 
Q 353 2572 751 3078 
Q 1150 3584 1784 3584 
Q 2172 3584 2448 3432 
Q 2725 3281 2906 2969 
z
M 947 1747 
Q 947 1113 1208 752 
Q 1469 391 1925 391 
Q 2381 391 2643 752 
Q 2906 1113 2906 1747 
Q 2906 2381 2643 2742 
Q 2381 3103 1925 3103 
Q 1469 3103 1208 2742 
Q 947 2381 947 1747 
z
" transform="scale(0.015625)"/>
       <path id="DejaVuSans-6c" d="M 603 4863 
L 1178 4863 
L 1178 0 
L 603 0 
L 603 4863 
z
" transform="scale(0.015625)"/>
       <path id="DejaVuSans-6f" d="M 1959 3097 
Q 1497 3097 1228 2736 
Q 959 2375 959 1747 
Q 959 1119 1226 758 
Q 1494 397 1959 397 
Q 2419 397 2687 759 
Q 2956 1122 2956 1747 
Q 2956 2369 2687 2733 
Q 2419 3097 1959 3097 
z
M 1959 3584 
Q 2709 3584 3137 3096 
Q 3566 2609 3566 1747 
Q 3566 888 3137 398 
Q 2709 -91 1959 -91 
Q 1206 -91 779 398 
Q 353 888 353 1747 
Q 353 2609 779 3096 
Q 1206 3584 1959 3584 
z
" transform="scale(0.015625)"/>
       <path id="DejaVuSans-63" d="M 3122 3366 
L 3122 2828 
Q 2878 2963 2633 3030 
Q 2388 3097 2138 3097 
Q 1578 3097 1268 2742 
Q 959 2388 959 1747 
Q 959 1106 1268 751 
Q 1578 397 2138 397 
Q 2388 397 2633 464 
Q 2878 531 3122 666 
L 3122 134 
Q 2881 22 2623 -34 
Q 2366 -91 2075 -91 
Q 1284 -91 818 406 
Q 353 903 353 1747 
Q 353 2603 823 3093 
Q 1294 3584 2113 3584 
Q 2378 3584 2631 3529 
Q 2884 3475 3122 3366 
z
" transform="scale(0.015625)"/>
       <path id="DejaVuSans-70" d="M 1159 525 
L 1159 -1331 
L 581 -1331 
L 581 3500 
L 1159 3500 
L 1159 2969 
Q 1341 3281 1617 3432 
Q 1894 3584 2278 3584 
Q 2916 3584 3314 3078 
Q 3713 2572 3713 1747 
Q 3713 922 3314 415 
Q 2916 -91 2278 -91 
Q 1894 -91 1617 61 
Q 1341 213 1159 525 
z
M 3116 1747 
Q 3116 2381 2855 2742 
Q 2594 3103 2138 3103 
Q 1681 3103 1420 2742 
Q 1159 2381 1159 1747 
Q 1159 1113 1420 752 
Q 1681 391 2138 391 
Q 2594 391 2855 752 
Q 3116 1113 3116 1747 
z
" transform="scale(0.015625)"/>
       <path id="DejaVuSans-69" d="M 603 3500 
L 1178 3500 
L 1178 0 
L 603 0 
L 603 3500 
z
M 603 4863 
L 1178 4863 
L 1178 4134 
L 603 4134 
L 603 4863 
z
" transform="scale(0.015625)"/>
      </defs>
      <use xlink:href="#DejaVuSans-73"/>
      <use xlink:href="#DejaVuSans-74" x="52.099609"/>
      <use xlink:href="#DejaVuSans-72" x="91.308594"/>
      <use xlink:href="#DejaVuSans-65" x="130.171875"/>
      <use xlink:href="#DejaVuSans-6e" x="191.695312"/>
      <use xlink:href="#DejaVuSans-67" x="255.074219"/>
      <use xlink:href="#DejaVuSans-74" x="318.550781"/>
      <use xlink:href="#DejaVuSans-68" x="357.759766"/>
      <use xlink:href="#DejaVuSans-20" x="421.138672"/>
      <use xlink:href="#DejaVuSans-61" x="452.925781"/>
      <use xlink:href="#DejaVuSans-64" x="514.205078"/>
      <use xlink:href="#DejaVuSans-64" x="577.681641"/>
      <use xlink:href="#DejaVuSans-65" x="641.158203"/>
      <use xlink:href="#DejaVuSans-64" x="702.681641"/>
      <use xlink:href="#DejaVuSans-20" x="766.158203"/>
      <use xlink:href="#DejaVuSans-61" x="797.945312"/>
      <use xlink:href="#DejaVuSans-6c" x="859.224609"/>
      <use xlink:href="#DejaVuSans-6f" x="887.007812"/>
      <use xlink:href="#DejaVuSans-6e" x="948.189453"/>
      <use xlink:href="#DejaVuSans-67" x="1011.568359"/>
      <use xlink:href="#DejaVuSans-20" x="1075.044922"/>
      <use xlink:href="#DejaVuSans-74" x="1106.832031"/>
      <use xlink:href="#DejaVuSans-68" x="1146.041016"/>
      <use xlink:href="#DejaVuSans-65" x="1209.419922"/>
      <use xlink:href="#DejaVuSans-20" x="1270.943359"/>
      <use xlink:href="#DejaVuSans-63" x="1302.730469"/>
      <use xlink:href="#DejaVuSans-6f" x="1357.710938"/>
      <use xlink:href="#DejaVuSans-6e" x="1418.892578"/>
      <use xlink:href="#DejaVuSans-63" x="1482.271484"/>
      <use xlink:href="#DejaVuSans-65" x="1537.251953"/>
      <use xlink:href="#DejaVuSans-70" x="1598.775391"/>
      <use xlink:href="#DejaVuSans-74" x="1662.251953"/>
      <use xlink:href="#DejaVuSans-20" x="1701.460938"/>
      <use xlink:href="#DejaVuSans-64" x="1733.248047"/>
      <use xlink:href="#DejaVuSans-69" x="1796.724609"/>
      <use xlink:href="#DejaVuSans-72" x="1824.507812"/>
      <use xlink:href="#DejaVuSans-65" x="1863.371094"/>
      <use xlink:href="#DejaVuSans-63" x="1924.894531"/>
      <use xlink:href="#DejaVuSans-74" x="1979.875"/>
      <use xlink:href="#DejaVuSans-69" x="2019.083984"/>
      <use xlink:href="#DejaVuSans-6f" x="2046.867188"/>
      <use xlink:href="#DejaVuSans-6e" x="2108.048828"/>
     </g>
    </g>
   </g>
   <g id="matplotlib.axis_2">
    <g id="ytick_1">
     <g id="line2d_19">
      <path d="M 55.557031 251.635789 
L 416.617031 251.635789 
" clip-path="url(#p9dafed9980)" style="fill: none; stroke: #e1e0d9; stroke-opacity: 0.5; stroke-width: 0.8; stroke-linecap: square"/>
     </g>
     <g id="line2d_20">
      <defs>
       <path id="mf03fa602f1" d="M 0 0 
L -3.5 0 
" style="stroke: #898781; stroke-width: 0.8"/>
      </defs>
      <g>
       <use xlink:href="#mf03fa602f1" x="55.557031" y="251.635789" style="fill: #898781; stroke: #898781; stroke-width: 0.8"/>
      </g>
     </g>
     <g id="text_11">
      <!-- −2.0 -->
      <g style="fill: #898781" transform="translate(21.845938 255.814929) scale(0.11 -0.11)">
       <use xlink:href="#DejaVuSans-2212"/>
       <use xlink:href="#DejaVuSans-32" x="83.789062"/>
       <use xlink:href="#DejaVuSans-2e" x="147.412109"/>
       <use xlink:href="#DejaVuSans-30" x="179.199219"/>
      </g>
     </g>
    </g>
    <g id="ytick_2">
     <g id="line2d_21">
      <path d="M 55.557031 225.762768 
L 416.617031 225.762768 
" clip-path="url(#p9dafed9980)" style="fill: none; stroke: #e1e0d9; stroke-opacity: 0.5; stroke-width: 0.8; stroke-linecap: square"/>
     </g>
     <g id="line2d_22">
      <g>
       <use xlink:href="#mf03fa602f1" x="55.557031" y="225.762768" style="fill: #898781; stroke: #898781; stroke-width: 0.8"/>
      </g>
     </g>
     <g id="text_12">
      <!-- −1.5 -->
      <g style="fill: #898781" transform="translate(21.845938 229.941909) scale(0.11 -0.11)">
       <use xlink:href="#DejaVuSans-2212"/>
       <use xlink:href="#DejaVuSans-31" x="83.789062"/>
       <use xlink:href="#DejaVuSans-2e" x="147.412109"/>
       <use xlink:href="#DejaVuSans-35" x="179.199219"/>
      </g>
     </g>
    </g>
    <g id="ytick_3">
     <g id="line2d_23">
      <path d="M 55.557031 199.889748 
L 416.617031 199.889748 
" clip-path="url(#p9dafed9980)" style="fill: none; stroke: #e1e0d9; stroke-opacity: 0.5; stroke-width: 0.8; stroke-linecap: square"/>
     </g>
     <g id="line2d_24">
      <g>
       <use xlink:href="#mf03fa602f1" x="55.557031" y="199.889748" style="fill: #898781; stroke: #898781; stroke-width: 0.8"/>
      </g>
     </g>
     <g id="text_13">
      <!-- −1.0 -->
      <g style="fill: #898781" transform="translate(21.845938 204.068888) scale(0.11 -0.11)">
       <use xlink:href="#DejaVuSans-2212"/>
       <use xlink:href="#DejaVuSans-31" x="83.789062"/>
       <use xlink:href="#DejaVuSans-2e" x="147.412109"/>
       <use xlink:href="#DejaVuSans-30" x="179.199219"/>
      </g>
     </g>
    </g>
    <g id="ytick_4">
     <g id="line2d_25">
      <path d="M 55.557031 174.016727 
L 416.617031 174.016727 
" clip-path="url(#p9dafed9980)" style="fill: none; stroke: #e1e0d9; stroke-opacity: 0.5; stroke-width: 0.8; stroke-linecap: square"/>
     </g>
     <g id="line2d_26">
      <g>
       <use xlink:href="#mf03fa602f1" x="55.557031" y="174.016727" style="fill: #898781; stroke: #898781; stroke-width: 0.8"/>
      </g>
     </g>
     <g id="text_14">
      <!-- −0.5 -->
      <g style="fill: #898781" transform="translate(21.845938 178.195868) scale(0.11 -0.11)">
       <use xlink:href="#DejaVuSans-2212"/>
       <use xlink:href="#DejaVuSans-30" x="83.789062"/>
       <use xlink:href="#DejaVuSans-2e" x="147.412109"/>
       <use xlink:href="#DejaVuSans-35" x="179.199219"/>
      </g>
     </g>
    </g>
    <g id="ytick_5">
     <g id="line2d_27">
      <path d="M 55.557031 148.143707 
L 416.617031 148.143707 
" clip-path="url(#p9dafed9980)" style="fill: none; stroke: #e1e0d9; stroke-opacity: 0.5; stroke-width: 0.8; stroke-linecap: square"/>
     </g>
     <g id="line2d_28">
      <g>
       <use xlink:href="#mf03fa602f1" x="55.557031" y="148.143707" style="fill: #898781; stroke: #898781; stroke-width: 0.8"/>
      </g>
     </g>
     <g id="text_15">
      <!-- 0.0 -->
      <g style="fill: #898781" transform="translate(31.063594 152.322847) scale(0.11 -0.11)">
       <use xlink:href="#DejaVuSans-30"/>
       <use xlink:href="#DejaVuSans-2e" x="63.623047"/>
       <use xlink:href="#DejaVuSans-30" x="95.410156"/>
      </g>
     </g>
    </g>
    <g id="ytick_6">
     <g id="line2d_29">
      <path d="M 55.557031 122.270686 
L 416.617031 122.270686 
" clip-path="url(#p9dafed9980)" style="fill: none; stroke: #e1e0d9; stroke-opacity: 0.5; stroke-width: 0.8; stroke-linecap: square"/>
     </g>
     <g id="line2d_30">
      <g>
       <use xlink:href="#mf03fa602f1" x="55.557031" y="122.270686" style="fill: #898781; stroke: #898781; stroke-width: 0.8"/>
      </g>
     </g>
     <g id="text_16">
      <!-- 0.5 -->
      <g style="fill: #898781" transform="translate(31.063594 126.449827) scale(0.11 -0.11)">
       <use xlink:href="#DejaVuSans-30"/>
       <use xlink:href="#DejaVuSans-2e" x="63.623047"/>
       <use xlink:href="#DejaVuSans-35" x="95.410156"/>
      </g>
     </g>
    </g>
    <g id="ytick_7">
     <g id="line2d_31">
      <path d="M 55.557031 96.397666 
L 416.617031 96.397666 
" clip-path="url(#p9dafed9980)" style="fill: none; stroke: #e1e0d9; stroke-opacity: 0.5; stroke-width: 0.8; stroke-linecap: square"/>
     </g>
     <g id="line2d_32">
      <g>
       <use xlink:href="#mf03fa602f1" x="55.557031" y="96.397666" style="fill: #898781; stroke: #898781; stroke-width: 0.8"/>
      </g>
     </g>
     <g id="text_17">
      <!-- 1.0 -->
      <g style="fill: #898781" transform="translate(31.063594 100.576807) scale(0.11 -0.11)">
       <use xlink:href="#DejaVuSans-31"/>
       <use xlink:href="#DejaVuSans-2e" x="63.623047"/>
       <use xlink:href="#DejaVuSans-30" x="95.410156"/>
      </g>
     </g>
    </g>
    <g id="ytick_8">
     <g id="line2d_33">
      <path d="M 55.557031 70.524645 
L 416.617031 70.524645 
" clip-path="url(#p9dafed9980)" style="fill: none; stroke: #e1e0d9; stroke-opacity: 0.5; stroke-width: 0.8; stroke-linecap: square"/>
     </g>
     <g id="line2d_34">
      <g>
       <use xlink:href="#mf03fa602f1" x="55.557031" y="70.524645" style="fill: #898781; stroke: #898781; stroke-width: 0.8"/>
      </g>
     </g>
     <g id="text_18">
      <!-- 1.5 -->
      <g style="fill: #898781" transform="translate(31.063594 74.703786) scale(0.11 -0.11)">
       <use xlink:href="#DejaVuSans-31"/>
       <use xlink:href="#DejaVuSans-2e" x="63.623047"/>
       <use xlink:href="#DejaVuSans-35" x="95.410156"/>
      </g>
     </g>
    </g>
    <g id="ytick_9">
     <g id="line2d_35">
      <path d="M 55.557031 44.651625 
L 416.617031 44.651625 
" clip-path="url(#p9dafed9980)" style="fill: none; stroke: #e1e0d9; stroke-opacity: 0.5; stroke-width: 0.8; stroke-linecap: square"/>
     </g>
     <g id="line2d_36">
      <g>
       <use xlink:href="#mf03fa602f1" x="55.557031" y="44.651625" style="fill: #898781; stroke: #898781; stroke-width: 0.8"/>
      </g>
     </g>
     <g id="text_19">
      <!-- 2.0 -->
      <g style="fill: #898781" transform="translate(31.063594 48.830766) scale(0.11 -0.11)">
       <use xlink:href="#DejaVuSans-32"/>
       <use xlink:href="#DejaVuSans-2e" x="63.623047"/>
       <use xlink:href="#DejaVuSans-30" x="95.410156"/>
      </g>
     </g>
    </g>
    <g id="text_20">
     <!-- change in reward -->
     <g style="fill: #52514e" transform="translate(15.558281 195.739152) rotate(-90) scale(0.11 -0.11)">
      <defs>
       <path id="DejaVuSans-77" d="M 269 3500 
L 844 3500 
L 1563 769 
L 2278 3500 
L 2956 3500 
L 3675 769 
L 4391 3500 
L 4966 3500 
L 4050 0 
L 3372 0 
L 2619 2869 
L 1863 0 
L 1184 0 
L 269 3500 
z
" transform="scale(0.015625)"/>
      </defs>
      <use xlink:href="#DejaVuSans-63"/>
      <use xlink:href="#DejaVuSans-68" x="54.980469"/>
      <use xlink:href="#DejaVuSans-61" x="118.359375"/>
      <use xlink:href="#DejaVuSans-6e" x="179.638672"/>
      <use xlink:href="#DejaVuSans-67" x="243.017578"/>
      <use xlink:href="#DejaVuSans-65" x="306.494141"/>
      <use xlink:href="#DejaVuSans-20" x="368.017578"/>
      <use xlink:href="#DejaVuSans-69" x="399.804688"/>
      <use xlink:href="#DejaVuSans-6e" x="427.587891"/>
      <use xlink:href="#DejaVuSans-20" x="490.966797"/>
      <use xlink:href="#DejaVuSans-72" x="522.753906"/>
      <use xlink:href="#DejaVuSans-65" x="561.617188"/>
      <use xlink:href="#DejaVuSans-77" x="623.140625"/>
      <use xlink:href="#DejaVuSans-61" x="704.927734"/>
      <use xlink:href="#DejaVuSans-72" x="766.207031"/>
      <use xlink:href="#DejaVuSans-64" x="805.570312"/>
     </g>
    </g>
   </g>
   <g id="line2d_37">
    <path d="M 55.557031 148.143707 
L 416.617031 148.143707 
" clip-path="url(#p9dafed9980)" style="fill: none; stroke: #c3c2b7; stroke-linecap: square"/>
   </g>
   <g id="line2d_38">
    <path d="M 236.087031 262.00521 
L 236.087031 33.877937 
" clip-path="url(#p9dafed9980)" style="fill: none; stroke: #e1e0d9; stroke-width: 0.8; stroke-linecap: square"/>
   </g>
   <g id="line2d_39">
    <path d="M 71.968849 245.167534 
L 154.02794 196.65562 
L 195.057486 172.399664 
L 277.116577 123.88775 
L 318.146122 98.823262 
L 400.205213 49.502816 
" clip-path="url(#p9dafed9980)" style="fill: none; stroke: #e1e0d9; stroke-width: 1.4; stroke-linecap: square"/>
   </g>
   <g id="line2d_40">
    <path d="M 71.968849 233.848087 
L 154.02794 190.187365 
L 195.057486 169.165536 
L 277.116577 126.313346 
L 318.146122 104.482985 
L 400.205213 60.822263 
" clip-path="url(#p9dafed9980)" style="fill: none; stroke: #e1e0d9; stroke-width: 1.4; stroke-linecap: square"/>
   </g>
   <g id="line2d_41">
    <path d="M 71.968849 232.231023 
L 154.02794 190.187365 
L 195.057486 169.165536 
L 277.116577 126.313346 
L 318.146122 104.482985 
L 400.205213 61.630795 
" clip-path="url(#p9dafed9980)" style="fill: none; stroke: #e1e0d9; stroke-width: 1.4; stroke-linecap: square"/>
   </g>
   <g id="line2d_42">
    <path d="M 71.968849 227.379832 
L 154.02794 186.953238 
L 195.057486 168.357004 
L 277.116577 127.93041 
L 318.146122 108.525644 
L 400.205213 68.503316 
" clip-path="url(#p9dafed9980)" style="fill: none; stroke: #e1e0d9; stroke-width: 1.4; stroke-linecap: square"/>
   </g>
   <g id="line2d_43">
    <path d="M 71.968849 222.528641 
L 154.02794 185.336174 
L 195.057486 167.548472 
L 277.116577 128.738941 
L 318.146122 110.142708 
L 400.205213 73.758773 
" clip-path="url(#p9dafed9980)" style="fill: none; stroke: #e1e0d9; stroke-width: 1.4; stroke-linecap: square"/>
   </g>
   <g id="patch_3">
    <path d="M 55.557031 262.00521 
L 55.557031 33.877937 
" style="fill: none; stroke: #c3c2b7; stroke-width: 0.9; stroke-linejoin: miter; stroke-linecap: square"/>
   </g>
   <g id="patch_4">
    <path d="M 55.557031 262.00521 
L 416.617031 262.00521 
" style="fill: none; stroke: #c3c2b7; stroke-width: 0.9; stroke-linejoin: miter; stroke-linecap: square"/>
   </g>
   <g id="line2d_44">
    <path d="M 71.968849 251.635789 
L 154.02794 199.889748 
L 195.057486 173.208195 
L 277.116577 122.270686 
L 318.146122 95.589134 
L 400.205213 44.247359 
" clip-path="url(#p9dafed9980)" style="fill: none; stroke: #2a78d6; stroke-width: 2.6; stroke-linecap: square"/>
    <defs>
     <path id="m643003cb45" d="M 0 2.5 
C 0.663008 2.5 1.29895 2.236584 1.767767 1.767767 
C 2.236584 1.29895 2.5 0.663008 2.5 0 
C 2.5 -0.663008 2.236584 -1.29895 1.767767 -1.767767 
C 1.29895 -2.236584 0.663008 -2.5 0 -2.5 
C -0.663008 -2.5 -1.29895 -2.236584 -1.767767 -1.767767 
C -2.236584 -1.29895 -2.5 -0.663008 -2.5 0 
C -2.5 0.663008 -2.236584 1.29895 -1.767767 1.767767 
C -1.29895 2.236584 -0.663008 2.5 0 2.5 
z
" style="stroke: #2a78d6"/>
    </defs>
    <g clip-path="url(#p9dafed9980)">
     <use xlink:href="#m643003cb45" x="71.968849" y="251.635789" style="fill: #2a78d6; stroke: #2a78d6"/>
     <use xlink:href="#m643003cb45" x="154.02794" y="199.889748" style="fill: #2a78d6; stroke: #2a78d6"/>
     <use xlink:href="#m643003cb45" x="195.057486" y="173.208195" style="fill: #2a78d6; stroke: #2a78d6"/>
     <use xlink:href="#m643003cb45" x="277.116577" y="122.270686" style="fill: #2a78d6; stroke: #2a78d6"/>
     <use xlink:href="#m643003cb45" x="318.146122" y="95.589134" style="fill: #2a78d6; stroke: #2a78d6"/>
     <use xlink:href="#m643003cb45" x="400.205213" y="44.247359" style="fill: #2a78d6; stroke: #2a78d6"/>
    </g>
   </g>
   <g id="text_21">
    <!--   agreement -->
    <g style="fill: #0b0b0b" transform="translate(400.205213 47.062671) scale(0.105 -0.105)">
     <defs>
      <path id="DejaVuSans-Bold-20" transform="scale(0.015625)"/>
      <path id="DejaVuSans-Bold-61" d="M 2106 1575 
Q 1756 1575 1579 1456 
Q 1403 1338 1403 1106 
Q 1403 894 1545 773 
Q 1688 653 1941 653 
Q 2256 653 2472 879 
Q 2688 1106 2688 1447 
L 2688 1575 
L 2106 1575 
z
M 3816 1997 
L 3816 0 
L 2688 0 
L 2688 519 
Q 2463 200 2181 54 
Q 1900 -91 1497 -91 
Q 953 -91 614 226 
Q 275 544 275 1050 
Q 275 1666 698 1953 
Q 1122 2241 2028 2241 
L 2688 2241 
L 2688 2328 
Q 2688 2594 2478 2717 
Q 2269 2841 1825 2841 
Q 1466 2841 1156 2769 
Q 847 2697 581 2553 
L 581 3406 
Q 941 3494 1303 3539 
Q 1666 3584 2028 3584 
Q 2975 3584 3395 3211 
Q 3816 2838 3816 1997 
z
" transform="scale(0.015625)"/>
      <path id="DejaVuSans-Bold-67" d="M 2919 594 
Q 2688 288 2409 144 
Q 2131 0 1766 0 
Q 1125 0 706 504 
Q 288 1009 288 1791 
Q 288 2575 706 3076 
Q 1125 3578 1766 3578 
Q 2131 3578 2409 3434 
Q 2688 3291 2919 2981 
L 2919 3500 
L 4044 3500 
L 4044 353 
Q 4044 -491 3511 -936 
Q 2978 -1381 1966 -1381 
Q 1638 -1381 1331 -1331 
Q 1025 -1281 716 -1178 
L 716 -306 
Q 1009 -475 1290 -558 
Q 1572 -641 1856 -641 
Q 2406 -641 2662 -400 
Q 2919 -159 2919 353 
L 2919 594 
z
M 2181 2772 
Q 1834 2772 1640 2515 
Q 1447 2259 1447 1791 
Q 1447 1309 1634 1061 
Q 1822 813 2181 813 
Q 2531 813 2725 1069 
Q 2919 1325 2919 1791 
Q 2919 2259 2725 2515 
Q 2531 2772 2181 2772 
z
" transform="scale(0.015625)"/>
      <path id="DejaVuSans-Bold-72" d="M 3138 2547 
Q 2991 2616 2845 2648 
Q 2700 2681 2553 2681 
Q 2122 2681 1889 2404 
Q 1656 2128 1656 1613 
L 1656 0 
L 538 0 
L 538 3500 
L 1656 3500 
L 1656 2925 
Q 1872 3269 2151 3426 
Q 2431 3584 2822 3584 
Q 2878 3584 2943 3579 
Q 3009 3575 3134 3559 
L 3138 2547 
z
" transform="scale(0.015625)"/>
      <path id="DejaVuSans-Bold-65" d="M 4031 1759 
L 4031 1441 
L 1416 1441 
Q 1456 1047 1700 850 
Q 1944 653 2381 653 
Q 2734 653 3104 758 
Q 3475 863 3866 1075 
L 3866 213 
Q 3469 63 3072 -14 
Q 2675 -91 2278 -91 
Q 1328 -91 801 392 
Q 275 875 275 1747 
Q 275 2603 792 3093 
Q 1309 3584 2216 3584 
Q 3041 3584 3536 3087 
Q 4031 2591 4031 1759 
z
M 2881 2131 
Q 2881 2450 2695 2645 
Q 2509 2841 2209 2841 
Q 1884 2841 1681 2658 
Q 1478 2475 1428 2131 
L 2881 2131 
z
" transform="scale(0.015625)"/>
      <path id="DejaVuSans-Bold-6d" d="M 3781 2919 
Q 3994 3244 4286 3414 
Q 4578 3584 4928 3584 
Q 5531 3584 5847 3212 
Q 6163 2841 6163 2131 
L 6163 0 
L 5038 0 
L 5038 1825 
Q 5041 1866 5042 1909 
Q 5044 1953 5044 2034 
Q 5044 2406 4934 2573 
Q 4825 2741 4581 2741 
Q 4263 2741 4089 2478 
Q 3916 2216 3909 1719 
L 3909 0 
L 2784 0 
L 2784 1825 
Q 2784 2406 2684 2573 
Q 2584 2741 2328 2741 
Q 2006 2741 1831 2477 
Q 1656 2213 1656 1722 
L 1656 0 
L 531 0 
L 531 3500 
L 1656 3500 
L 1656 2988 
Q 1863 3284 2130 3434 
Q 2397 3584 2719 3584 
Q 3081 3584 3359 3409 
Q 3638 3234 3781 2919 
z
" transform="scale(0.015625)"/>
      <path id="DejaVuSans-Bold-6e" d="M 4056 2131 
L 4056 0 
L 2931 0 
L 2931 347 
L 2931 1631 
Q 2931 2084 2911 2256 
Q 2891 2428 2841 2509 
Q 2775 2619 2662 2680 
Q 2550 2741 2406 2741 
Q 2056 2741 1856 2470 
Q 1656 2200 1656 1722 
L 1656 0 
L 538 0 
L 538 3500 
L 1656 3500 
L 1656 2988 
Q 1909 3294 2193 3439 
Q 2478 3584 2822 3584 
Q 3428 3584 3742 3212 
Q 4056 2841 4056 2131 
z
" transform="scale(0.015625)"/>
      <path id="DejaVuSans-Bold-74" d="M 1759 4494 
L 1759 3500 
L 2913 3500 
L 2913 2700 
L 1759 2700 
L 1759 1216 
Q 1759 972 1856 886 
Q 1953 800 2241 800 
L 2816 800 
L 2816 0 
L 1856 0 
Q 1194 0 917 276 
Q 641 553 641 1216 
L 641 2700 
L 84 2700 
L 84 3500 
L 641 3500 
L 641 4494 
L 1759 4494 
z
" transform="scale(0.015625)"/>
     </defs>
     <use xlink:href="#DejaVuSans-Bold-20"/>
     <use xlink:href="#DejaVuSans-Bold-20" x="34.814453"/>
     <use xlink:href="#DejaVuSans-Bold-61" x="69.628906"/>
     <use xlink:href="#DejaVuSans-Bold-67" x="137.109375"/>
     <use xlink:href="#DejaVuSans-Bold-72" x="208.691406"/>
     <use xlink:href="#DejaVuSans-Bold-65" x="258.007812"/>
     <use xlink:href="#DejaVuSans-Bold-65" x="325.830078"/>
     <use xlink:href="#DejaVuSans-Bold-6d" x="393.652344"/>
     <use xlink:href="#DejaVuSans-Bold-65" x="497.851562"/>
     <use xlink:href="#DejaVuSans-Bold-6e" x="565.673828"/>
     <use xlink:href="#DejaVuSans-Bold-74" x="636.865234"/>
    </g>
   </g>
   <g id="text_22">
    <!-- other concepts -->
    <g style="fill: #898781" transform="translate(391.999304 80.907958) scale(0.095 -0.095)">
     <use xlink:href="#DejaVuSans-6f"/>
     <use xlink:href="#DejaVuSans-74" x="61.181641"/>
     <use xlink:href="#DejaVuSans-68" x="100.390625"/>
     <use xlink:href="#DejaVuSans-65" x="163.769531"/>
     <use xlink:href="#DejaVuSans-72" x="225.292969"/>
     <use xlink:href="#DejaVuSans-20" x="266.40625"/>
     <use xlink:href="#DejaVuSans-63" x="298.193359"/>
     <use xlink:href="#DejaVuSans-6f" x="353.173828"/>
     <use xlink:href="#DejaVuSans-6e" x="414.355469"/>
     <use xlink:href="#DejaVuSans-63" x="477.734375"/>
     <use xlink:href="#DejaVuSans-65" x="532.714844"/>
     <use xlink:href="#DejaVuSans-70" x="594.238281"/>
     <use xlink:href="#DejaVuSans-74" x="657.714844"/>
     <use xlink:href="#DejaVuSans-73" x="696.923828"/>
    </g>
   </g>
   <g id="text_23">
    <!-- Push a concept into the activation, the reward follows -->
    <g style="fill: #0b0b0b" transform="translate(55.557031 15.558281) scale(0.11 -0.11)">
     <defs>
      <path id="DejaVuSans-50" d="M 1259 4147 
L 1259 2394 
L 2053 2394 
Q 2494 2394 2734 2622 
Q 2975 2850 2975 3272 
Q 2975 3691 2734 3919 
Q 2494 4147 2053 4147 
L 1259 4147 
z
M 628 4666 
L 2053 4666 
Q 2838 4666 3239 4311 
Q 3641 3956 3641 3272 
Q 3641 2581 3239 2228 
Q 2838 1875 2053 1875 
L 1259 1875 
L 1259 0 
L 628 0 
L 628 4666 
z
" transform="scale(0.015625)"/>
      <path id="DejaVuSans-75" d="M 544 1381 
L 544 3500 
L 1119 3500 
L 1119 1403 
Q 1119 906 1312 657 
Q 1506 409 1894 409 
Q 2359 409 2629 706 
Q 2900 1003 2900 1516 
L 2900 3500 
L 3475 3500 
L 3475 0 
L 2900 0 
L 2900 538 
Q 2691 219 2414 64 
Q 2138 -91 1772 -91 
Q 1169 -91 856 284 
Q 544 659 544 1381 
z
M 1991 3584 
L 1991 3584 
z
" transform="scale(0.015625)"/>
      <path id="DejaVuSans-76" d="M 191 3500 
L 800 3500 
L 1894 563 
L 2988 3500 
L 3597 3500 
L 2284 0 
L 1503 0 
L 191 3500 
z
" transform="scale(0.015625)"/>
      <path id="DejaVuSans-2c" d="M 750 794 
L 1409 794 
L 1409 256 
L 897 -744 
L 494 -744 
L 750 256 
L 750 794 
z
" transform="scale(0.015625)"/>
      <path id="DejaVuSans-66" d="M 2375 4863 
L 2375 4384 
L 1825 4384 
Q 1516 4384 1395 4259 
Q 1275 4134 1275 3809 
L 1275 3500 
L 2222 3500 
L 2222 3053 
L 1275 3053 
L 1275 0 
L 697 0 
L 697 3053 
L 147 3053 
L 147 3500 
L 697 3500 
L 697 3744 
Q 697 4328 969 4595 
Q 1241 4863 1831 4863 
L 2375 4863 
z
" transform="scale(0.015625)"/>
     </defs>
     <use xlink:href="#DejaVuSans-50"/>
     <use xlink:href="#DejaVuSans-75" x="58.552734"/>
     <use xlink:href="#DejaVuSans-73" x="121.931641"/>
     <use xlink:href="#DejaVuSans-68" x="174.03125"/>
     <use xlink:href="#DejaVuSans-20" x="237.410156"/>
     <use xlink:href="#DejaVuSans-61" x="269.197266"/>
     <use xlink:href="#DejaVuSans-20" x="330.476562"/>
     <use xlink:href="#DejaVuSans-63" x="362.263672"/>
     <use xlink:href="#DejaVuSans-6f" x="417.244141"/>
     <use xlink:href="#DejaVuSans-6e" x="478.425781"/>
     <use xlink:href="#DejaVuSans-63" x="541.804688"/>
     <use xlink:href="#DejaVuSans-65" x="596.785156"/>
     <use xlink:href="#DejaVuSans-70" x="658.308594"/>
     <use xlink:href="#DejaVuSans-74" x="721.785156"/>
     <use xlink:href="#DejaVuSans-20" x="760.994141"/>
     <use xlink:href="#DejaVuSans-69" x="792.78125"/>
     <use xlink:href="#DejaVuSans-6e" x="820.564453"/>
     <use xlink:href="#DejaVuSans-74" x="883.943359"/>
     <use xlink:href="#DejaVuSans-6f" x="923.152344"/>
     <use xlink:href="#DejaVuSans-20" x="984.333984"/>
     <use xlink:href="#DejaVuSans-74" x="1016.121094"/>
     <use xlink:href="#DejaVuSans-68" x="1055.330078"/>
     <use xlink:href="#DejaVuSans-65" x="1118.708984"/>
     <use xlink:href="#DejaVuSans-20" x="1180.232422"/>
     <use xlink:href="#DejaVuSans-61" x="1212.019531"/>
     <use xlink:href="#DejaVuSans-63" x="1273.298828"/>
     <use xlink:href="#DejaVuSans-74" x="1328.279297"/>
     <use xlink:href="#DejaVuSans-69" x="1367.488281"/>
     <use xlink:href="#DejaVuSans-76" x="1395.271484"/>
     <use xlink:href="#DejaVuSans-61" x="1454.451172"/>
     <use xlink:href="#DejaVuSans-74" x="1515.730469"/>
     <use xlink:href="#DejaVuSans-69" x="1554.939453"/>
     <use xlink:href="#DejaVuSans-6f" x="1582.722656"/>
     <use xlink:href="#DejaVuSans-6e" x="1643.904297"/>
     <use xlink:href="#DejaVuSans-2c" x="1707.283203"/>
     <use xlink:href="#DejaVuSans-20" x="1739.070312"/>
     <use xlink:href="#DejaVuSans-74" x="1770.857422"/>
     <use xlink:href="#DejaVuSans-68" x="1810.066406"/>
     <use xlink:href="#DejaVuSans-65" x="1873.445312"/>
     <use xlink:href="#DejaVuSans-20" x="1934.96875"/>
     <use xlink:href="#DejaVuSans-72" x="1966.755859"/>
     <use xlink:href="#DejaVuSans-65" x="2005.619141"/>
     <use xlink:href="#DejaVuSans-77" x="2067.142578"/>
     <use xlink:href="#DejaVuSans-61" x="2148.929688"/>
     <use xlink:href="#DejaVuSans-72" x="2210.208984"/>
     <use xlink:href="#DejaVuSans-64" x="2249.572266"/>
     <use xlink:href="#DejaVuSans-20" x="2313.048828"/>
     <use xlink:href="#DejaVuSans-66" x="2344.835938"/>
     <use xlink:href="#DejaVuSans-6f" x="2380.041016"/>
     <use xlink:href="#DejaVuSans-6c" x="2441.222656"/>
     <use xlink:href="#DejaVuSans-6c" x="2469.005859"/>
     <use xlink:href="#DejaVuSans-6f" x="2496.789062"/>
     <use xlink:href="#DejaVuSans-77" x="2557.970703"/>
     <use xlink:href="#DejaVuSans-73" x="2639.757812"/>
    </g>
    <!-- 'agreement' moves reward 1.00 per unit  (cosine with $w_r$ = 0.34) -->
    <g style="fill: #0b0b0b" transform="translate(55.557031 27.877937) scale(0.11 -0.11)">
     <defs>
      <path id="DejaVuSans-27" d="M 1147 4666 
L 1147 2931 
L 616 2931 
L 616 4666 
L 1147 4666 
z
" transform="scale(0.015625)"/>
      <path id="DejaVuSans-6d" d="M 3328 2828 
Q 3544 3216 3844 3400 
Q 4144 3584 4550 3584 
Q 5097 3584 5394 3201 
Q 5691 2819 5691 2113 
L 5691 0 
L 5113 0 
L 5113 2094 
Q 5113 2597 4934 2840 
Q 4756 3084 4391 3084 
Q 3944 3084 3684 2787 
Q 3425 2491 3425 1978 
L 3425 0 
L 2847 0 
L 2847 2094 
Q 2847 2600 2669 2842 
Q 2491 3084 2119 3084 
Q 1678 3084 1418 2786 
Q 1159 2488 1159 1978 
L 1159 0 
L 581 0 
L 581 3500 
L 1159 3500 
L 1159 2956 
Q 1356 3278 1631 3431 
Q 1906 3584 2284 3584 
Q 2666 3584 2933 3390 
Q 3200 3197 3328 2828 
z
" transform="scale(0.015625)"/>
      <path id="DejaVuSans-28" d="M 1984 4856 
Q 1566 4138 1362 3434 
Q 1159 2731 1159 2009 
Q 1159 1288 1364 580 
Q 1569 -128 1984 -844 
L 1484 -844 
Q 1016 -109 783 600 
Q 550 1309 550 2009 
Q 550 2706 781 3412 
Q 1013 4119 1484 4856 
L 1984 4856 
z
" transform="scale(0.015625)"/>
      <path id="DejaVuSans-Oblique-77" d="M 544 3500 
L 1113 3500 
L 1259 684 
L 2566 3500 
L 3231 3500 
L 3425 684 
L 4666 3500 
L 5241 3500 
L 3641 0 
L 2969 0 
L 2797 2900 
L 1459 0 
L 781 0 
L 544 3500 
z
" transform="scale(0.015625)"/>
      <path id="DejaVuSans-Oblique-72" d="M 2853 2969 
Q 2766 3016 2653 3041 
Q 2541 3066 2413 3066 
Q 1953 3066 1609 2717 
Q 1266 2369 1153 1784 
L 800 0 
L 225 0 
L 909 3500 
L 1484 3500 
L 1375 2956 
Q 1603 3259 1920 3421 
Q 2238 3584 2597 3584 
Q 2691 3584 2781 3573 
Q 2872 3563 2963 3538 
L 2853 2969 
z
" transform="scale(0.015625)"/>
      <path id="DejaVuSans-3d" d="M 678 2906 
L 4684 2906 
L 4684 2381 
L 678 2381 
L 678 2906 
z
M 678 1631 
L 4684 1631 
L 4684 1100 
L 678 1100 
L 678 1631 
z
" transform="scale(0.015625)"/>
      <path id="DejaVuSans-33" d="M 2597 2516 
Q 3050 2419 3304 2112 
Q 3559 1806 3559 1356 
Q 3559 666 3084 287 
Q 2609 -91 1734 -91 
Q 1441 -91 1130 -33 
Q 819 25 488 141 
L 488 750 
Q 750 597 1062 519 
Q 1375 441 1716 441 
Q 2309 441 2620 675 
Q 2931 909 2931 1356 
Q 2931 1769 2642 2001 
Q 2353 2234 1838 2234 
L 1294 2234 
L 1294 2753 
L 1863 2753 
Q 2328 2753 2575 2939 
Q 2822 3125 2822 3475 
Q 2822 3834 2567 4026 
Q 2313 4219 1838 4219 
Q 1578 4219 1281 4162 
Q 984 4106 628 3988 
L 628 4550 
Q 988 4650 1302 4700 
Q 1616 4750 1894 4750 
Q 2613 4750 3031 4423 
Q 3450 4097 3450 3541 
Q 3450 3153 3228 2886 
Q 3006 2619 2597 2516 
z
" transform="scale(0.015625)"/>
      <path id="DejaVuSans-34" d="M 2419 4116 
L 825 1625 
L 2419 1625 
L 2419 4116 
z
M 2253 4666 
L 3047 4666 
L 3047 1625 
L 3713 1625 
L 3713 1100 
L 3047 1100 
L 3047 0 
L 2419 0 
L 2419 1100 
L 313 1100 
L 313 1709 
L 2253 4666 
z
" transform="scale(0.015625)"/>
      <path id="DejaVuSans-29" d="M 513 4856 
L 1013 4856 
Q 1481 4119 1714 3412 
Q 1947 2706 1947 2009 
Q 1947 1309 1714 600 
Q 1481 -109 1013 -844 
L 513 -844 
Q 928 -128 1133 580 
Q 1338 1288 1338 2009 
Q 1338 2731 1133 3434 
Q 928 4138 513 4856 
z
" transform="scale(0.015625)"/>
     </defs>
     <use xlink:href="#DejaVuSans-27" transform="translate(0 0.015625)"/>
     <use xlink:href="#DejaVuSans-61" transform="translate(27.490234 0.015625)"/>
     <use xlink:href="#DejaVuSans-67" transform="translate(88.769531 0.015625)"/>
     <use xlink:href="#DejaVuSans-72" transform="translate(152.246094 0.015625)"/>
     <use xlink:href="#DejaVuSans-65" transform="translate(193.359375 0.015625)"/>
     <use xlink:href="#DejaVuSans-65" transform="translate(254.882812 0.015625)"/>
     <use xlink:href="#DejaVuSans-6d" transform="translate(316.40625 0.015625)"/>
     <use xlink:href="#DejaVuSans-65" transform="translate(413.818359 0.015625)"/>
     <use xlink:href="#DejaVuSans-6e" transform="translate(475.341797 0.015625)"/>
     <use xlink:href="#DejaVuSans-74" transform="translate(538.720703 0.015625)"/>
     <use xlink:href="#DejaVuSans-27" transform="translate(577.929688 0.015625)"/>
     <use xlink:href="#DejaVuSans-20" transform="translate(605.419922 0.015625)"/>
     <use xlink:href="#DejaVuSans-6d" transform="translate(637.207031 0.015625)"/>
     <use xlink:href="#DejaVuSans-6f" transform="translate(734.619141 0.015625)"/>
     <use xlink:href="#DejaVuSans-76" transform="translate(795.800781 0.015625)"/>
     <use xlink:href="#DejaVuSans-65" transform="translate(854.980469 0.015625)"/>
     <use xlink:href="#DejaVuSans-73" transform="translate(916.503906 0.015625)"/>
     <use xlink:href="#DejaVuSans-20" transform="translate(968.603516 0.015625)"/>
     <use xlink:href="#DejaVuSans-72" transform="translate(1000.390625 0.015625)"/>
     <use xlink:href="#DejaVuSans-65" transform="translate(1041.503906 0.015625)"/>
     <use xlink:href="#DejaVuSans-77" transform="translate(1103.027344 0.015625)"/>
     <use xlink:href="#DejaVuSans-61" transform="translate(1184.814453 0.015625)"/>
     <use xlink:href="#DejaVuSans-72" transform="translate(1246.09375 0.015625)"/>
     <use xlink:href="#DejaVuSans-64" transform="translate(1287.207031 0.015625)"/>
     <use xlink:href="#DejaVuSans-20" transform="translate(1350.683594 0.015625)"/>
     <use xlink:href="#DejaVuSans-31" transform="translate(1382.470703 0.015625)"/>
     <use xlink:href="#DejaVuSans-2e" transform="translate(1446.09375 0.015625)"/>
     <use xlink:href="#DejaVuSans-30" transform="translate(1477.880859 0.015625)"/>
     <use xlink:href="#DejaVuSans-30" transform="translate(1541.503906 0.015625)"/>
     <use xlink:href="#DejaVuSans-20" transform="translate(1605.126953 0.015625)"/>
     <use xlink:href="#DejaVuSans-70" transform="translate(1636.914062 0.015625)"/>
     <use xlink:href="#DejaVuSans-65" transform="translate(1700.390625 0.015625)"/>
     <use xlink:href="#DejaVuSans-72" transform="translate(1761.914062 0.015625)"/>
     <use xlink:href="#DejaVuSans-20" transform="translate(1803.027344 0.015625)"/>
     <use xlink:href="#DejaVuSans-75" transform="translate(1834.814453 0.015625)"/>
     <use xlink:href="#DejaVuSans-6e" transform="translate(1898.193359 0.015625)"/>
     <use xlink:href="#DejaVuSans-69" transform="translate(1961.572266 0.015625)"/>
     <use xlink:href="#DejaVuSans-74" transform="translate(1989.355469 0.015625)"/>
     <use xlink:href="#DejaVuSans-20" transform="translate(2028.564453 0.015625)"/>
     <use xlink:href="#DejaVuSans-20" transform="translate(2060.351562 0.015625)"/>
     <use xlink:href="#DejaVuSans-28" transform="translate(2092.138672 0.015625)"/>
     <use xlink:href="#DejaVuSans-63" transform="translate(2131.152344 0.015625)"/>
     <use xlink:href="#DejaVuSans-6f" transform="translate(2186.132812 0.015625)"/>
     <use xlink:href="#DejaVuSans-73" transform="translate(2247.314453 0.015625)"/>
     <use xlink:href="#DejaVuSans-69" transform="translate(2299.414062 0.015625)"/>
     <use xlink:href="#DejaVuSans-6e" transform="translate(2327.197266 0.015625)"/>
     <use xlink:href="#DejaVuSans-65" transform="translate(2390.576172 0.015625)"/>
     <use xlink:href="#DejaVuSans-20" transform="translate(2452.099609 0.015625)"/>
     <use xlink:href="#DejaVuSans-77" transform="translate(2483.886719 0.015625)"/>
     <use xlink:href="#DejaVuSans-69" transform="translate(2565.673828 0.015625)"/>
     <use xlink:href="#DejaVuSans-74" transform="translate(2593.457031 0.015625)"/>
     <use xlink:href="#DejaVuSans-68" transform="translate(2632.666016 0.015625)"/>
     <use xlink:href="#DejaVuSans-20" transform="translate(2696.044922 0.015625)"/>
     <use xlink:href="#DejaVuSans-Oblique-77" transform="translate(2727.832031 0.015625)"/>
     <use xlink:href="#DejaVuSans-Oblique-72" transform="translate(2809.619141 -16.390625) scale(0.7)"/>
     <use xlink:href="#DejaVuSans-20" transform="translate(2841.132812 0.015625)"/>
     <use xlink:href="#DejaVuSans-3d" transform="translate(2872.919922 0.015625)"/>
     <use xlink:href="#DejaVuSans-20" transform="translate(2956.708984 0.015625)"/>
     <use xlink:href="#DejaVuSans-30" transform="translate(2988.496094 0.015625)"/>
     <use xlink:href="#DejaVuSans-2e" transform="translate(3052.119141 0.015625)"/>
     <use xlink:href="#DejaVuSans-33" transform="translate(3083.90625 0.015625)"/>
     <use xlink:href="#DejaVuSans-34" transform="translate(3147.529297 0.015625)"/>
     <use xlink:href="#DejaVuSans-29" transform="translate(3211.152344 0.015625)"/>
    </g>
   </g>
  </g>
 </g>
 <defs>
  <clipPath id="p9dafed9980">
   <rect x="55.557031" y="33.877937" width="361.06" height="228.127273"/>
  </clipPath>
 </defs>
</svg>
