<?xml version="1.0" encoding="utf-8" standalone="no"?>
<!DOCTYPE svg PUBLIC "-//W3C//DTD SVG 1.1//EN"
  "http://www.w3.org/Graphics/SVG/1.1/DTD/svg11.dtd">
<svg xmlns:xlink="http://www.w3.org/1999/xlink" width="539.891875pt" height="295.2pt" viewBox="0 0 539.891875 295.2" xmlns="http://www.w3.org/2000/svg" version="1.1">
 <metadata>
  <rdf:RDF xmlns:dc="http://purl.org/dc/elements/1.1/" xmlns:cc="http://creativecommons.org/ns#" xmlns:rdf="http://www.w3.org/1999/02/22-rdf-syntax-ns#">
   <cc:Work>
    <dc:type rdf:resource="http://purl.org/dc/dcmitype/StillImage"/>
    <dc:date>2026-07-11T15:01:28.940157</dc:date>
    <dc:format>image/svg+xml</dc:format>
    <dc:creator>
     <cc:Agent>
      <dc:title>Matplotlib v3.11.0, https://matplotlib.org/</dc:title>
     </cc:Agent>
    </dc:creator>
   </cc:Work>
  </rdf:RDF>
 </metadata>
 <defs>
  <style type="text/css">*{stroke-linejoin: round; stroke-linecap: butt}</style>
 </defs>
 <g id="figure_1">
  <g id="patch_1">
   <path d="M 0 295.2 
L 539.891875 295.2 
L 539.891875 0 
L 0 0 
L 0 295.2 
z
" style="fill: none"/>
  </g>
  <g id="axes_1">
   <g id="patch_2">
    <path d="M 71.309375 252.800781 
L 532.691875 252.800781 
L 532.691875 24.340625 
L 71.309375 24.340625 
L 71.309375 252.800781 
z
" style="fill: none"/>
   </g>
   <g id="line2d_1">
    <path d="M 316.144787 252.800781 
L 316.144787 24.340625 
" clip-path="url(#pced0f7d0c7)" style="fill: none; stroke: #55565e; stroke-width: 1.2; stroke-linecap: square"/>
   </g>
   <g id="matplotlib.axis_1">
    <g id="xtick_1">
     <g id="line2d_2">
      <path d="M 96.816584 252.800781 
L 96.816584 24.340625 
" clip-path="url(#pced0f7d0c7)" style="fill: none; stroke: #3a3d44; stroke-opacity: 0.4; stroke-width: 0.8; stroke-linecap: square"/>
     </g>
     <g id="line2d_3">
      <defs>
       <path id="m57567ec2ad" d="M 0 0 
L 0 3.5 
" style="stroke: #9aa0aa; stroke-width: 0.8"/>
      </defs>
      <g>
       <use xlink:href="#m57567ec2ad" x="96.816584" y="252.800781" style="fill: #9aa0aa; stroke: #9aa0aa; stroke-width: 0.8"/>
      </g>
     </g>
     <g id="text_1">
      <!-- −8 -->
      <g style="fill: #9aa0aa" transform="translate(90.415803 269.488281) scale(0.1 -0.1)">
       <defs>
        <path id="Inter-Regular-602" d="M 3584 2600 
L 656 2600 
L 656 2063 
L 3584 2063 
L 3584 2600 
z
" transform="scale(0.015625)"/>
        <path id="Inter-Regular-549" d="M 1978 -63 
C 2916 -63 3578 478 3578 1238 
C 3578 1825 3175 2325 2669 2419 
L 2669 2444 
C 3109 2559 3403 2988 3403 3481 
C 3403 4191 2794 4719 1978 4719 
C 1150 4719 550 4191 550 3481 
C 550 2988 838 2559 1291 2444 
L 1291 2419 
C 769 2325 381 1825 381 1238 
C 381 478 1031 -63 1978 -63 
z
M 1978 453 
C 1350 453 966 775 966 1269 
C 966 1784 1391 2153 1978 2153 
C 2553 2153 2984 1784 2984 1269 
C 2984 775 2594 453 1978 453 
z
M 1978 2650 
C 1475 2650 1125 2966 1125 3438 
C 1125 3903 1463 4206 1978 4206 
C 2484 4206 2828 3903 2828 3438 
C 2828 2966 2469 2650 1978 2650 
z
" transform="scale(0.015625)"/>
       </defs>
       <use xlink:href="#Inter-Regular-602"/>
       <use xlink:href="#Inter-Regular-549" transform="translate(66.15625 0)"/>
      </g>
     </g>
    </g>
    <g id="xtick_2">
     <g id="line2d_4">
      <path d="M 151.648635 252.800781 
L 151.648635 24.340625 
" clip-path="url(#pced0f7d0c7)" style="fill: none; stroke: #3a3d44; stroke-opacity: 0.4; stroke-width: 0.8; stroke-linecap: square"/>
     </g>
     <g id="line2d_5">
      <g>
       <use xlink:href="#m57567ec2ad" x="151.648635" y="252.800781" style="fill: #9aa0aa; stroke: #9aa0aa; stroke-width: 0.8"/>
      </g>
     </g>
     <g id="text_2">
      <!-- −6 -->
      <g style="fill: #9aa0aa" transform="translate(145.240041 269.488281) scale(0.1 -0.1)">
       <defs>
        <path id="Inter-Regular-547" d="M 2019 -63 
C 2969 -63 3588 634 3588 1503 
C 3588 2403 2925 3044 2128 3044 
C 1644 3044 1231 2813 981 2425 
L 944 2425 
C 944 3544 1375 4194 2091 4194 
C 2575 4194 2866 3888 2969 3484 
L 3550 3484 
C 3438 4216 2872 4719 2091 4719 
C 1034 4719 381 3788 381 2150 
C 381 434 1241 -63 2019 -63 
z
M 2019 459 
C 1447 459 1028 947 1028 1497 
C 1028 2041 1469 2528 2034 2528 
C 2597 2528 3013 2072 3013 1503 
C 3013 922 2578 459 2019 459 
z
" transform="scale(0.015625)"/>
       </defs>
       <use xlink:href="#Inter-Regular-602"/>
       <use xlink:href="#Inter-Regular-547" transform="translate(66.15625 0)"/>
      </g>
     </g>
    </g>
    <g id="xtick_3">
     <g id="line2d_6">
      <path d="M 206.480685 252.800781 
L 206.480685 24.340625 
" clip-path="url(#pced0f7d0c7)" style="fill: none; stroke: #3a3d44; stroke-opacity: 0.4; stroke-width: 0.8; stroke-linecap: square"/>
     </g>
     <g id="line2d_7">
      <g>
       <use xlink:href="#m57567ec2ad" x="206.480685" y="252.800781" style="fill: #9aa0aa; stroke: #9aa0aa; stroke-width: 0.8"/>
      </g>
     </g>
     <g id="text_3">
      <!-- −4 -->
      <g style="fill: #9aa0aa" transform="translate(199.943185 269.488281) scale(0.1 -0.1)">
       <defs>
        <path id="Inter-Regular-544" d="M 375 947 
L 2566 947 
L 2566 0 
L 3134 0 
L 3134 947 
L 3766 947 
L 3766 1469 
L 3134 1469 
L 3134 4656 
L 2413 4656 
L 375 1431 
L 375 947 
z
M 2569 1469 
L 1009 1469 
L 1009 1506 
L 2531 3913 
L 2569 3913 
L 2569 1469 
z
" transform="scale(0.015625)"/>
       </defs>
       <use xlink:href="#Inter-Regular-602"/>
       <use xlink:href="#Inter-Regular-544" transform="translate(66.15625 0)"/>
      </g>
     </g>
    </g>
    <g id="xtick_4">
     <g id="line2d_8">
      <path d="M 261.312736 252.800781 
L 261.312736 24.340625 
" clip-path="url(#pced0f7d0c7)" style="fill: none; stroke: #3a3d44; stroke-opacity: 0.4; stroke-width: 0.8; stroke-linecap: square"/>
     </g>
     <g id="line2d_9">
      <g>
       <use xlink:href="#m57567ec2ad" x="261.312736" y="252.800781" style="fill: #9aa0aa; stroke: #9aa0aa; stroke-width: 0.8"/>
      </g>
     </g>
     <g id="text_4">
      <!-- −2 -->
      <g style="fill: #9aa0aa" transform="translate(255.124455 269.488281) scale(0.1 -0.1)">
       <defs>
        <path id="Inter-Regular-541" d="M 481 0 
L 3447 0 
L 3447 522 
L 1300 522 
L 1300 559 
L 2319 1644 
C 3141 2519 3369 2916 3369 3419 
C 3369 4147 2778 4719 1947 4719 
C 1119 4719 494 4159 494 3334 
L 1063 3334 
C 1063 3859 1400 4203 1931 4203 
C 2428 4203 2806 3900 2806 3413 
C 2806 2984 2544 2666 2028 2106 
L 481 428 
L 481 0 
z
" transform="scale(0.015625)"/>
       </defs>
       <use xlink:href="#Inter-Regular-602"/>
       <use xlink:href="#Inter-Regular-541" transform="translate(62.78125 0)"/>
      </g>
     </g>
    </g>
    <g id="xtick_5">
     <g id="line2d_10">
      <path d="M 316.144787 252.800781 
L 316.144787 24.340625 
" clip-path="url(#pced0f7d0c7)" style="fill: none; stroke: #3a3d44; stroke-opacity: 0.4; stroke-width: 0.8; stroke-linecap: square"/>
     </g>
     <g id="line2d_11">
      <g>
       <use xlink:href="#m57567ec2ad" x="316.144787" y="252.800781" style="fill: #9aa0aa; stroke: #9aa0aa; stroke-width: 0.8"/>
      </g>
     </g>
     <g id="text_5">
      <!-- 0 -->
      <g style="fill: #9aa0aa" transform="translate(312.990099 269.488281) scale(0.1 -0.1)">
       <defs>
        <path id="Inter-Regular-53f" d="M 2019 -63 
C 3059 -63 3656 809 3656 2325 
C 3656 3834 3050 4719 2019 4719 
C 988 4719 381 3834 381 2325 
C 381 806 981 -63 2019 -63 
z
M 2019 456 
C 1338 456 953 1144 953 2325 
C 953 3509 1338 4203 2019 4203 
C 2700 4203 3084 3513 3084 2325 
C 3084 1144 2700 456 2019 456 
z
" transform="scale(0.015625)"/>
       </defs>
       <use xlink:href="#Inter-Regular-53f"/>
      </g>
     </g>
    </g>
    <g id="xtick_6">
     <g id="line2d_12">
      <path d="M 370.976838 252.800781 
L 370.976838 24.340625 
" clip-path="url(#pced0f7d0c7)" style="fill: none; stroke: #3a3d44; stroke-opacity: 0.4; stroke-width: 0.8; stroke-linecap: square"/>
     </g>
     <g id="line2d_13">
      <g>
       <use xlink:href="#m57567ec2ad" x="370.976838" y="252.800781" style="fill: #9aa0aa; stroke: #9aa0aa; stroke-width: 0.8"/>
      </g>
     </g>
     <g id="text_6">
      <!-- 2 -->
      <g style="fill: #9aa0aa" transform="translate(367.927619 269.488281) scale(0.1 -0.1)">
       <use xlink:href="#Inter-Regular-541"/>
      </g>
     </g>
    </g>
    <g id="xtick_7">
     <g id="line2d_14">
      <path d="M 425.808888 252.800781 
L 425.808888 24.340625 
" clip-path="url(#pced0f7d0c7)" style="fill: none; stroke: #3a3d44; stroke-opacity: 0.4; stroke-width: 0.8; stroke-linecap: square"/>
     </g>
     <g id="line2d_15">
      <g>
       <use xlink:href="#m57567ec2ad" x="425.808888" y="252.800781" style="fill: #9aa0aa; stroke: #9aa0aa; stroke-width: 0.8"/>
      </g>
     </g>
     <g id="text_7">
      <!-- 4 -->
      <g style="fill: #9aa0aa" transform="translate(422.579201 269.488281) scale(0.1 -0.1)">
       <use xlink:href="#Inter-Regular-544"/>
      </g>
     </g>
    </g>
    <g id="xtick_8">
     <g id="line2d_16">
      <path d="M 480.640939 252.800781 
L 480.640939 24.340625 
" clip-path="url(#pced0f7d0c7)" style="fill: none; stroke: #3a3d44; stroke-opacity: 0.4; stroke-width: 0.8; stroke-linecap: square"/>
     </g>
     <g id="line2d_17">
      <g>
       <use xlink:href="#m57567ec2ad" x="480.640939" y="252.800781" style="fill: #9aa0aa; stroke: #9aa0aa; stroke-width: 0.8"/>
      </g>
     </g>
     <g id="text_8">
      <!-- 6 -->
      <g style="fill: #9aa0aa" transform="translate(477.540158 269.488281) scale(0.1 -0.1)">
       <use xlink:href="#Inter-Regular-547"/>
      </g>
     </g>
    </g>
    <g id="text_9">
     <!-- Cohen's d   (positive = the reward model prefers the hackable variant) -->
     <g style="fill: #e6e8eb" transform="translate(136.707656 285.587891) scale(0.1 -0.1)">
      <defs>
       <path id="Inter-Regular-49" d="M 2447 -63 
C 3400 -63 4163 519 4325 1466 
L 3731 1466 
C 3600 831 3056 488 2447 488 
C 1613 488 959 1134 959 2325 
C 959 3519 1609 4169 2447 4169 
C 3053 4169 3600 3828 3731 3191 
L 4325 3191 
C 4159 4150 3391 4719 2447 4719 
C 1253 4719 381 3803 381 2325 
C 381 850 1253 -63 2447 -63 
z
" transform="scale(0.015625)"/>
       <path id="Inter-Regular-318" d="M 1916 -75 
C 2869 -75 3513 647 3513 1725 
C 3513 2819 2869 3538 1916 3538 
C 966 3538 325 2819 325 1725 
C 325 647 966 -75 1916 -75 
z
M 1916 428 
C 1219 428 897 1038 897 1725 
C 897 2422 1219 3034 1916 3034 
C 2622 3034 2944 2419 2944 1725 
C 2944 1038 2622 428 1916 428 
z
" transform="scale(0.015625)"/>
       <path id="Inter-Regular-29f" d="M 1056 2094 
C 1056 2691 1434 3031 1938 3031 
C 2425 3031 2725 2709 2725 2172 
L 2725 0 
L 3291 0 
L 3291 2219 
C 3291 3103 2813 3538 2106 3538 
C 1650 3538 1284 3353 1056 2888 
L 1056 4656 
L 494 4656 
L 494 0 
L 1056 0 
L 1056 2094 
z
" transform="scale(0.015625)"/>
       <path id="Inter-Regular-267" d="M 1963 -75 
C 2678 -75 3200 284 3363 813 
L 2819 963 
C 2688 606 2378 425 1966 425 
C 1347 425 922 825 894 1556 
L 3419 1556 
L 3419 1791 
C 3419 3081 2638 3538 1897 3538 
C 944 3538 325 2791 325 1719 
C 325 644 950 -75 1963 -75 
z
M 897 2031 
C 931 2566 1297 3038 1897 3038 
C 2472 3038 2794 2625 2847 2031 
L 897 2031 
z
" transform="scale(0.015625)"/>
       <path id="Inter-Regular-307" d="M 1056 2094 
C 1056 2691 1434 3031 1938 3031 
C 2425 3031 2725 2709 2725 2172 
L 2725 0 
L 3288 0 
L 3288 2219 
C 3288 3103 2813 3538 2106 3538 
C 1638 3538 1263 3341 1038 2847 
L 1034 3494 
L 494 3494 
L 494 0 
L 1056 0 
L 1056 2094 
z
" transform="scale(0.015625)"/>
       <path id="Inter-Regular-5ce" d="M 725 2884 
L 1194 2884 
L 1263 4656 
L 656 4656 
L 725 2884 
z
" transform="scale(0.015625)"/>
       <path id="Inter-Regular-369" d="M 1681 -75 
C 2500 -75 3059 372 3059 984 
C 3059 1463 2763 1778 2128 1928 
L 1600 2053 
C 1191 2150 1013 2294 1013 2553 
C 1013 2844 1325 3059 1741 3059 
C 2191 3059 2388 2816 2484 2566 
L 2994 2697 
C 2834 3188 2456 3538 1738 3538 
C 994 3538 444 3119 444 2519 
C 444 2028 747 1716 1381 1566 
L 1963 1428 
C 2306 1347 2475 1188 2475 947 
C 2475 659 2163 419 1675 419 
C 1256 419 972 591 872 975 
L 338 847 
C 463 244 963 -75 1681 -75 
z
" transform="scale(0.015625)"/>
       <path id="Inter-Regular-6eb" transform="scale(0.015625)"/>
       <path id="Inter-Regular-256" d="M 1803 -75 
C 2469 -75 2703 347 2819 541 
L 2881 541 
L 2881 0 
L 3425 0 
L 3425 4656 
L 2863 4656 
L 2863 2934 
L 2819 2934 
C 2703 3119 2488 3538 1806 3538 
C 934 3538 325 2844 325 1738 
C 325 625 931 -75 1803 -75 
z
M 1888 428 
C 1234 428 897 1009 897 1744 
C 897 2469 1225 3034 1888 3034 
C 2531 3034 2869 2516 2869 1744 
C 2869 966 2522 428 1888 428 
z
" transform="scale(0.015625)"/>
       <path id="Inter-Regular-59f" d="M 681 1897 
C 681 984 956 31 1488 -872 
L 2034 -872 
C 1497 238 1253 1069 1253 1897 
C 1253 2809 1550 3956 2034 4941 
L 1488 4941 
C 1019 4169 681 2913 681 1897 
z
" transform="scale(0.015625)"/>
       <path id="Inter-Regular-34d" d="M 494 -1306 
L 1056 -1306 
L 1056 541 
L 1100 541 
C 1216 347 1450 -75 2116 -75 
C 2988 -75 3594 625 3594 1738 
C 3594 2844 2984 3538 2113 3538 
C 1431 3538 1216 3119 1100 2934 
L 1038 2934 
L 1038 3494 
L 494 3494 
L 494 -1306 
z
M 2031 428 
C 1397 428 1050 966 1050 1744 
C 1050 2516 1388 3034 2031 3034 
C 2694 3034 3022 2469 3022 1744 
C 3022 1009 2684 428 2031 428 
z
" transform="scale(0.015625)"/>
       <path id="Inter-Regular-2b2" d="M 494 0 
L 1056 0 
L 1056 3494 
L 494 3494 
L 494 0 
z
M 778 4066 
C 994 4066 1172 4231 1172 4438 
C 1172 4644 994 4809 778 4809 
C 566 4809 388 4644 388 4438 
C 388 4231 566 4066 778 4066 
z
" transform="scale(0.015625)"/>
       <path id="Inter-Regular-37b" d="M 1869 3494 
L 1150 3494 
L 1150 4325 
L 588 4325 
L 588 3494 
L 63 3494 
L 63 3013 
L 588 3013 
L 588 863 
C 588 291 944 -44 1547 -44 
C 1691 -44 1850 -22 1966 19 
L 1850 494 
C 1756 475 1634 456 1563 456 
C 1266 456 1150 594 1150 906 
L 1150 3013 
L 1869 3013 
L 1869 3494 
z
" transform="scale(0.015625)"/>
       <path id="Inter-Regular-3d6" d="M 1503 0 
L 2094 0 
L 3428 3494 
L 2813 3494 
L 2069 1422 
C 1959 1119 1878 813 1800 522 
C 1719 813 1638 1119 1528 1422 
L 784 3494 
L 169 3494 
L 1503 0 
z
" transform="scale(0.015625)"/>
       <path id="Inter-Regular-5f2" d="M 706 884 
L 3531 884 
L 3531 1403 
L 706 1403 
L 706 884 
z
M 706 2241 
L 3531 2241 
L 3531 2759 
L 706 2759 
L 706 2241 
z
" transform="scale(0.015625)"/>
       <path id="Inter-Regular-356" d="M 494 0 
L 1056 0 
L 1056 2188 
C 1056 2659 1425 3000 1928 3000 
C 2078 3000 2231 2975 2266 2969 
L 2266 3534 
C 2200 3538 2063 3544 1981 3544 
C 1566 3544 1203 3309 1075 2956 
L 1038 2956 
L 1038 3494 
L 494 3494 
L 494 0 
z
" transform="scale(0.015625)"/>
       <path id="Inter-Regular-3da" d="M 1278 0 
L 1838 0 
L 2291 1581 
C 2403 1972 2513 2409 2619 2853 
C 2725 2406 2831 1981 2947 1581 
L 3400 0 
L 3959 0 
L 5019 3494 
L 4422 3494 
L 3997 1969 
C 3891 1588 3775 1147 3659 613 
C 3550 1153 3438 1597 3338 1969 
L 2925 3494 
L 2325 3494 
L 1906 1969 
C 1800 1581 1688 1134 1575 603 
C 1459 1159 1341 1603 1241 1969 
L 816 3494 
L 219 3494 
L 1278 0 
z
" transform="scale(0.015625)"/>
       <path id="Inter-Regular-1fc" d="M 1472 -81 
C 2063 -81 2391 228 2509 475 
L 2547 475 
L 2547 0 
L 3100 0 
L 3100 2303 
C 3100 3394 2259 3538 1791 3538 
C 1250 3538 650 3344 381 2709 
L 922 2531 
C 1031 2775 1303 3044 1806 3044 
C 2291 3044 2538 2794 2538 2359 
L 2538 2341 
C 2538 2081 2263 2100 1641 2022 
C 994 1941 281 1794 281 994 
C 281 306 809 -81 1472 -81 
z
M 1569 416 
C 1150 416 847 603 847 966 
C 847 1363 1206 1494 1616 1547 
C 1831 1575 2444 1638 2538 1747 
L 2538 1263 
C 2538 834 2191 416 1569 416 
z
" transform="scale(0.015625)"/>
       <path id="Inter-Regular-300" d="M 494 0 
L 1056 0 
L 1056 2200 
C 1056 2756 1428 3044 1838 3044 
C 2231 3044 2522 2784 2522 2397 
L 2522 0 
L 3084 0 
L 3084 2281 
C 3084 2722 3372 3044 3844 3044 
C 4219 3044 4547 2844 4547 2341 
L 4547 0 
L 5113 0 
L 5113 2356 
C 5113 3166 4619 3556 4013 3556 
C 3506 3556 3078 3284 2913 2844 
C 2788 3275 2481 3556 2022 3556 
C 1609 3556 1216 3325 1044 2853 
L 1041 3494 
L 494 3494 
L 494 0 
z
" transform="scale(0.015625)"/>
       <path id="Inter-Regular-2e2" d="M 1056 4656 
L 494 4656 
L 494 0 
L 1056 0 
L 1056 4656 
z
" transform="scale(0.015625)"/>
       <path id="Inter-Regular-288" d="M 2119 3494 
L 1313 3494 
L 1313 3834 
C 1313 4172 1463 4353 1809 4353 
C 1966 4353 2053 4319 2113 4300 
L 2269 4781 
C 2184 4819 2009 4875 1744 4875 
C 1234 4875 750 4566 750 3959 
L 750 3494 
L 63 3494 
L 63 3013 
L 750 3013 
L 750 0 
L 1313 0 
L 1313 3013 
L 2119 3013 
L 2119 3494 
z
" transform="scale(0.015625)"/>
       <path id="Inter-Regular-24b" d="M 1916 -75 
C 2600 -75 3156 297 3344 919 
L 2806 1072 
C 2703 694 2384 428 1916 428 
C 1219 428 897 1038 897 1725 
C 897 2422 1219 3034 1916 3034 
C 2375 3034 2688 2778 2791 2419 
L 3331 2572 
C 3141 3181 2591 3538 1916 3538 
C 966 3538 325 2819 325 1725 
C 325 647 966 -75 1916 -75 
z
" transform="scale(0.015625)"/>
       <path id="Inter-Regular-2d9" d="M 494 0 
L 1056 0 
L 1056 1288 
L 1425 1634 
L 2703 0 
L 3425 0 
L 1853 1994 
L 3316 3494 
L 2619 3494 
L 1125 1953 
L 1056 1953 
L 1056 4656 
L 494 4656 
L 494 0 
z
" transform="scale(0.015625)"/>
       <path id="Inter-Regular-243" d="M 2116 -75 
C 2988 -75 3594 625 3594 1738 
C 3594 2844 2984 3538 2113 3538 
C 1431 3538 1216 3119 1100 2934 
L 1056 2934 
L 1056 4656 
L 494 4656 
L 494 0 
L 1038 0 
L 1038 541 
L 1100 541 
C 1216 347 1450 -75 2116 -75 
z
M 2031 428 
C 1397 428 1050 966 1050 1744 
C 1050 2516 1388 3034 2031 3034 
C 2694 3034 3022 2469 3022 1744 
C 3022 1009 2684 428 2031 428 
z
" transform="scale(0.015625)"/>
       <path id="Inter-Regular-5a0" d="M 300 -872 
L 847 -872 
C 1369 16 1653 969 1653 1897 
C 1653 2909 1316 4172 847 4941 
L 300 4941 
C 784 3956 1081 2809 1081 1897 
C 1081 1094 853 269 300 -872 
z
" transform="scale(0.015625)"/>
      </defs>
      <use xlink:href="#Inter-Regular-49"/>
      <use xlink:href="#Inter-Regular-318" transform="translate(73.046875 0)"/>
      <use xlink:href="#Inter-Regular-29f" transform="translate(133.015625 0)"/>
      <use xlink:href="#Inter-Regular-267" transform="translate(192.140625 0)"/>
      <use xlink:href="#Inter-Regular-307" transform="translate(250.4375 0)"/>
      <use xlink:href="#Inter-Regular-5ce" transform="translate(309.515625 0)"/>
      <use xlink:href="#Inter-Regular-369" transform="translate(339.5 0)"/>
      <use xlink:href="#Inter-Regular-6eb" transform="translate(392.28125 0)"/>
      <use xlink:href="#Inter-Regular-256" transform="translate(420.40625 0)"/>
      <use xlink:href="#Inter-Regular-6eb" transform="translate(481.640625 0)"/>
      <use xlink:href="#Inter-Regular-6eb" transform="translate(509.765625 0)"/>
      <use xlink:href="#Inter-Regular-6eb" transform="translate(537.890625 0)"/>
      <use xlink:href="#Inter-Regular-59f" transform="translate(566.015625 0)"/>
      <use xlink:href="#Inter-Regular-34d" transform="translate(602.484375 0)"/>
      <use xlink:href="#Inter-Regular-318" transform="translate(663.71875 0)"/>
      <use xlink:href="#Inter-Regular-369" transform="translate(723.6875 0)"/>
      <use xlink:href="#Inter-Regular-2b2" transform="translate(776.46875 0)"/>
      <use xlink:href="#Inter-Regular-37b" transform="translate(800.6875 0)"/>
      <use xlink:href="#Inter-Regular-2b2" transform="translate(833.40625 0)"/>
      <use xlink:href="#Inter-Regular-3d6" transform="translate(857.625 0)"/>
      <use xlink:href="#Inter-Regular-267" transform="translate(911.875 0)"/>
      <use xlink:href="#Inter-Regular-6eb" transform="translate(970.171875 0)"/>
      <use xlink:href="#Inter-Regular-5f2" transform="translate(998.296875 0)"/>
      <use xlink:href="#Inter-Regular-6eb" transform="translate(1064.453125 0)"/>
      <use xlink:href="#Inter-Regular-37b" transform="translate(1092.578125 0)"/>
      <use xlink:href="#Inter-Regular-29f" transform="translate(1125.296875 0)"/>
      <use xlink:href="#Inter-Regular-267" transform="translate(1184.421875 0)"/>
      <use xlink:href="#Inter-Regular-6eb" transform="translate(1242.71875 0)"/>
      <use xlink:href="#Inter-Regular-356" transform="translate(1270.84375 0)"/>
      <use xlink:href="#Inter-Regular-267" transform="translate(1306.828125 0)"/>
      <use xlink:href="#Inter-Regular-3da" transform="translate(1363.3125 0)"/>
      <use xlink:href="#Inter-Regular-1fc" transform="translate(1445.15625 0)"/>
      <use xlink:href="#Inter-Regular-356" transform="translate(1501.3125 0)"/>
      <use xlink:href="#Inter-Regular-256" transform="translate(1537.296875 0)"/>
      <use xlink:href="#Inter-Regular-6eb" transform="translate(1598.53125 0)"/>
      <use xlink:href="#Inter-Regular-300" transform="translate(1626.65625 0)"/>
      <use xlink:href="#Inter-Regular-318" transform="translate(1714.25 0)"/>
      <use xlink:href="#Inter-Regular-256" transform="translate(1774.21875 0)"/>
      <use xlink:href="#Inter-Regular-267" transform="translate(1835.453125 0)"/>
      <use xlink:href="#Inter-Regular-2e2" transform="translate(1893.75 0)"/>
      <use xlink:href="#Inter-Regular-6eb" transform="translate(1917.96875 0)"/>
      <use xlink:href="#Inter-Regular-34d" transform="translate(1946.09375 0)"/>
      <use xlink:href="#Inter-Regular-356" transform="translate(2007.328125 0)"/>
      <use xlink:href="#Inter-Regular-267" transform="translate(2043.3125 0)"/>
      <use xlink:href="#Inter-Regular-288" transform="translate(2101.609375 0)"/>
      <use xlink:href="#Inter-Regular-267" transform="translate(2135.703125 0)"/>
      <use xlink:href="#Inter-Regular-356" transform="translate(2194 0)"/>
      <use xlink:href="#Inter-Regular-369" transform="translate(2231.640625 0)"/>
      <use xlink:href="#Inter-Regular-6eb" transform="translate(2284.421875 0)"/>
      <use xlink:href="#Inter-Regular-37b" transform="translate(2312.546875 0)"/>
      <use xlink:href="#Inter-Regular-29f" transform="translate(2345.265625 0)"/>
      <use xlink:href="#Inter-Regular-267" transform="translate(2404.390625 0)"/>
      <use xlink:href="#Inter-Regular-6eb" transform="translate(2462.6875 0)"/>
      <use xlink:href="#Inter-Regular-29f" transform="translate(2490.8125 0)"/>
      <use xlink:href="#Inter-Regular-1fc" transform="translate(2549.9375 0)"/>
      <use xlink:href="#Inter-Regular-24b" transform="translate(2606.09375 0)"/>
      <use xlink:href="#Inter-Regular-2d9" transform="translate(2663.21875 0)"/>
      <use xlink:href="#Inter-Regular-1fc" transform="translate(2718.109375 0)"/>
      <use xlink:href="#Inter-Regular-243" transform="translate(2774.265625 0)"/>
      <use xlink:href="#Inter-Regular-2e2" transform="translate(2835.5 0)"/>
      <use xlink:href="#Inter-Regular-267" transform="translate(2859.71875 0)"/>
      <use xlink:href="#Inter-Regular-6eb" transform="translate(2918.015625 0)"/>
      <use xlink:href="#Inter-Regular-3d6" transform="translate(2946.140625 0)"/>
      <use xlink:href="#Inter-Regular-1fc" transform="translate(3001.859375 0)"/>
      <use xlink:href="#Inter-Regular-356" transform="translate(3058.015625 0)"/>
      <use xlink:href="#Inter-Regular-2b2" transform="translate(3097.21875 0)"/>
      <use xlink:href="#Inter-Regular-1fc" transform="translate(3121.4375 0)"/>
      <use xlink:href="#Inter-Regular-307" transform="translate(3177.59375 0)"/>
      <use xlink:href="#Inter-Regular-37b" transform="translate(3236.671875 0)"/>
      <use xlink:href="#Inter-Regular-5a0" transform="translate(3269.390625 0)"/>
     </g>
    </g>
   </g>
   <g id="matplotlib.axis_2">
    <g id="ytick_1">
     <g id="line2d_18">
      <defs>
       <path id="m77a6846f6d" d="M 0 0 
L -3.5 0 
" style="stroke: #9aa0aa; stroke-width: 0.8"/>
      </defs>
      <g>
       <use xlink:href="#m77a6846f6d" x="71.309375" y="50.56602" style="fill: #9aa0aa; stroke: #9aa0aa; stroke-width: 0.8"/>
      </g>
     </g>
     <g id="text_10">
      <!-- length -->
      <g style="fill: #9aa0aa" transform="translate(34.832813 55.40977) scale(0.1 -0.1)">
       <defs>
        <path id="Inter-Regular-293" d="M 1909 -1381 
C 2759 -1381 3431 -994 3431 -91 
L 3431 3494 
L 2884 3494 
L 2884 2934 
L 2831 2934 
C 2713 3122 2488 3538 1813 3538 
C 941 3538 325 2844 325 1763 
C 325 666 963 56 1800 56 
C 2475 56 2697 441 2816 641 
L 2869 641 
L 2869 -59 
C 2869 -634 2466 -891 1909 -891 
C 1294 -891 1075 -578 928 -375 
L 472 -669 
C 688 -1053 1134 -1381 1909 -1381 
z
M 1894 556 
C 1238 556 897 1056 897 1775 
C 897 2472 1228 3034 1894 3034 
C 2538 3034 2875 2516 2875 1775 
C 2875 1013 2528 556 1894 556 
z
" transform="scale(0.015625)"/>
       </defs>
       <use xlink:href="#Inter-Regular-2e2"/>
       <use xlink:href="#Inter-Regular-267" transform="translate(24.21875 0)"/>
       <use xlink:href="#Inter-Regular-307" transform="translate(82.515625 0)"/>
       <use xlink:href="#Inter-Regular-293" transform="translate(141.59375 0)"/>
       <use xlink:href="#Inter-Regular-37b" transform="translate(202.921875 0)"/>
       <use xlink:href="#Inter-Regular-29f" transform="translate(235.640625 0)"/>
      </g>
     </g>
    </g>
    <g id="ytick_2">
     <g id="line2d_19">
      <g>
       <use xlink:href="#m77a6846f6d" x="71.309375" y="94.568362" style="fill: #9aa0aa; stroke: #9aa0aa; stroke-width: 0.8"/>
      </g>
     </g>
     <g id="text_11">
      <!-- confidence -->
      <g style="fill: #9aa0aa" transform="translate(11.165625 99.412112) scale(0.1 -0.1)">
       <use xlink:href="#Inter-Regular-24b"/>
       <use xlink:href="#Inter-Regular-318" transform="translate(57.125 0)"/>
       <use xlink:href="#Inter-Regular-307" transform="translate(117.09375 0)"/>
       <use xlink:href="#Inter-Regular-288" transform="translate(176.171875 0)"/>
       <use xlink:href="#Inter-Regular-2b2" transform="translate(213.1875 0)"/>
       <use xlink:href="#Inter-Regular-256" transform="translate(237.40625 0)"/>
       <use xlink:href="#Inter-Regular-267" transform="translate(298.640625 0)"/>
       <use xlink:href="#Inter-Regular-307" transform="translate(356.9375 0)"/>
       <use xlink:href="#Inter-Regular-24b" transform="translate(416.015625 0)"/>
       <use xlink:href="#Inter-Regular-267" transform="translate(473.140625 0)"/>
      </g>
     </g>
    </g>
    <g id="ytick_3">
     <g id="line2d_20">
      <g>
       <use xlink:href="#m77a6846f6d" x="71.309375" y="138.570703" style="fill: #9aa0aa; stroke: #9aa0aa; stroke-width: 0.8"/>
      </g>
     </g>
     <g id="text_12">
      <!-- formatting -->
      <g style="fill: #9aa0aa" transform="translate(15.845312 143.414453) scale(0.1 -0.1)">
       <use xlink:href="#Inter-Regular-288"/>
       <use xlink:href="#Inter-Regular-318" transform="translate(34.09375 0)"/>
       <use xlink:href="#Inter-Regular-356" transform="translate(94.0625 0)"/>
       <use xlink:href="#Inter-Regular-300" transform="translate(133.265625 0)"/>
       <use xlink:href="#Inter-Regular-1fc" transform="translate(220.859375 0)"/>
       <use xlink:href="#Inter-Regular-37b" transform="translate(277.015625 0)"/>
       <use xlink:href="#Inter-Regular-37b" transform="translate(307.296875 0)"/>
       <use xlink:href="#Inter-Regular-2b2" transform="translate(340.015625 0)"/>
       <use xlink:href="#Inter-Regular-307" transform="translate(364.234375 0)"/>
       <use xlink:href="#Inter-Regular-293" transform="translate(423.3125 0)"/>
      </g>
     </g>
    </g>
    <g id="ytick_4">
     <g id="line2d_21">
      <g>
       <use xlink:href="#m77a6846f6d" x="71.309375" y="182.573044" style="fill: #9aa0aa; stroke: #9aa0aa; stroke-width: 0.8"/>
      </g>
     </g>
     <g id="text_13">
      <!-- repetition -->
      <g style="fill: #9aa0aa" transform="translate(19.635937 187.416794) scale(0.1 -0.1)">
       <use xlink:href="#Inter-Regular-356"/>
       <use xlink:href="#Inter-Regular-267" transform="translate(35.984375 0)"/>
       <use xlink:href="#Inter-Regular-34d" transform="translate(94.28125 0)"/>
       <use xlink:href="#Inter-Regular-267" transform="translate(155.515625 0)"/>
       <use xlink:href="#Inter-Regular-37b" transform="translate(213.8125 0)"/>
       <use xlink:href="#Inter-Regular-2b2" transform="translate(246.53125 0)"/>
       <use xlink:href="#Inter-Regular-37b" transform="translate(270.75 0)"/>
       <use xlink:href="#Inter-Regular-2b2" transform="translate(303.46875 0)"/>
       <use xlink:href="#Inter-Regular-318" transform="translate(327.6875 0)"/>
       <use xlink:href="#Inter-Regular-307" transform="translate(387.65625 0)"/>
      </g>
     </g>
    </g>
    <g id="ytick_5">
     <g id="line2d_22">
      <g>
       <use xlink:href="#m77a6846f6d" x="71.309375" y="226.575386" style="fill: #9aa0aa; stroke: #9aa0aa; stroke-width: 0.8"/>
      </g>
     </g>
     <g id="text_14">
      <!-- sycophancy -->
      <g style="fill: #9aa0aa" transform="translate(7.2 231.419136) scale(0.1 -0.1)">
       <defs>
        <path id="Inter-Regular-3e8" d="M 438 -1266 
C 497 -1294 650 -1331 850 -1331 
C 1344 -1331 1681 -1078 1894 -522 
L 3428 3494 
L 2816 3494 
L 2066 1422 
C 1956 1119 1875 816 1797 525 
C 1716 816 1638 1116 1528 1422 
L 784 3494 
L 169 3494 
L 1503 -19 
L 1403 -309 
C 1231 -809 984 -884 641 -794 
L 581 -778 
L 438 -1266 
z
" transform="scale(0.015625)"/>
       </defs>
       <use xlink:href="#Inter-Regular-369"/>
       <use xlink:href="#Inter-Regular-3e8" transform="translate(52.78125 0)"/>
       <use xlink:href="#Inter-Regular-24b" transform="translate(107.03125 0)"/>
       <use xlink:href="#Inter-Regular-318" transform="translate(164.15625 0)"/>
       <use xlink:href="#Inter-Regular-34d" transform="translate(224.125 0)"/>
       <use xlink:href="#Inter-Regular-29f" transform="translate(285.359375 0)"/>
       <use xlink:href="#Inter-Regular-1fc" transform="translate(344.484375 0)"/>
       <use xlink:href="#Inter-Regular-307" transform="translate(400.640625 0)"/>
       <use xlink:href="#Inter-Regular-24b" transform="translate(459.71875 0)"/>
       <use xlink:href="#Inter-Regular-3e8" transform="translate(514.890625 0)"/>
      </g>
     </g>
    </g>
   </g>
   <g id="patch_3">
    <path d="M 316.144787 50.56602 
L 285.207915 50.56602 
L 285.207915 34.725178 
L 316.144787 34.725178 
z
" clip-path="url(#pced0f7d0c7)" style="fill: #5598e7"/>
   </g>
   <g id="patch_4">
    <path d="M 316.144787 94.568362 
L 256.019024 94.568362 
L 256.019024 78.727519 
L 316.144787 78.727519 
z
" clip-path="url(#pced0f7d0c7)" style="fill: #5598e7"/>
   </g>
   <g id="patch_5">
    <path d="M 316.144787 138.570703 
L 292.329167 138.570703 
L 292.329167 122.72986 
L 316.144787 122.72986 
z
" clip-path="url(#pced0f7d0c7)" style="fill: #5598e7"/>
   </g>
   <g id="patch_6">
    <path d="M 316.144787 182.573044 
L 207.338815 182.573044 
L 207.338815 166.732202 
L 316.144787 166.732202 
z
" clip-path="url(#pced0f7d0c7)" style="fill: #5598e7"/>
   </g>
   <g id="patch_7">
    <path d="M 316.144787 226.575386 
L 164.05421 226.575386 
L 164.05421 210.734543 
L 316.144787 210.734543 
z
" clip-path="url(#pced0f7d0c7)" style="fill: #5598e7"/>
   </g>
   <g id="patch_8">
    <path d="M 316.144787 66.406863 
L 315.815213 66.406863 
L 315.815213 50.56602 
L 316.144787 50.56602 
z
" clip-path="url(#pced0f7d0c7)" style="fill: #f98a5c"/>
   </g>
   <g id="patch_9">
    <path d="M 316.144787 110.409205 
L 396.869299 110.409205 
L 396.869299 94.568362 
L 316.144787 94.568362 
z
" clip-path="url(#pced0f7d0c7)" style="fill: #f98a5c"/>
   </g>
   <g id="patch_10">
    <path d="M 316.144787 154.411546 
L 340.5118 154.411546 
L 340.5118 138.570703 
L 316.144787 138.570703 
z
" clip-path="url(#pced0f7d0c7)" style="fill: #f98a5c"/>
   </g>
   <g id="patch_11">
    <path d="M 316.144787 198.413887 
L 511.719943 198.413887 
L 511.719943 182.573044 
L 316.144787 182.573044 
z
" clip-path="url(#pced0f7d0c7)" style="fill: #f98a5c"/>
   </g>
   <g id="patch_12">
    <path d="M 316.144787 242.416229 
L 92.281307 242.416229 
L 92.281307 226.575386 
L 316.144787 226.575386 
z
" clip-path="url(#pced0f7d0c7)" style="fill: #f98a5c"/>
   </g>
   <g id="patch_13">
    <path d="M 71.309375 252.800781 
L 71.309375 24.340625 
" style="fill: none; stroke: #3a3d44; stroke-width: 0.8; stroke-linejoin: miter; stroke-linecap: square"/>
   </g>
   <g id="patch_14">
    <path d="M 71.309375 252.800781 
L 532.691875 252.800781 
" style="fill: none; stroke: #3a3d44; stroke-width: 0.8; stroke-linejoin: miter; stroke-linecap: square"/>
   </g>
   <g id="text_15">
    <!-- flip   -->
    <g style="fill: #f0716f" transform="translate(514.296719 97.842288) scale(0.09 -0.09)">
     <defs>
      <path id="Inter-Bold-288" d="M 2344 3494 
L 1613 3494 
L 1613 3731 
C 1613 3975 1719 4119 2003 4119 
C 2125 4119 2238 4094 2316 4072 
L 2484 4778 
C 2369 4813 2106 4875 1813 4875 
C 1166 4875 678 4506 678 3763 
L 678 3494 
L 63 3494 
L 63 2778 
L 678 2778 
L 678 0 
L 1613 0 
L 1613 2778 
L 2344 2778 
L 2344 3494 
z
" transform="scale(0.015625)"/>
      <path id="Inter-Bold-2e2" d="M 1338 4656 
L 400 4656 
L 400 0 
L 1338 0 
L 1338 4656 
z
" transform="scale(0.015625)"/>
      <path id="Inter-Bold-2b2" d="M 400 0 
L 1338 0 
L 1338 3494 
L 400 3494 
L 400 0 
z
M 869 3950 
C 1150 3950 1384 4163 1384 4431 
C 1384 4697 1150 4913 869 4913 
C 584 4913 353 4697 353 4431 
C 353 4163 584 3950 869 3950 
z
" transform="scale(0.015625)"/>
      <path id="Inter-Bold-34d" d="M 400 -1306 
L 1338 -1306 
L 1338 559 
L 1366 559 
C 1497 278 1784 -59 2356 -59 
C 3163 -59 3778 578 3778 1741 
C 3778 2934 3138 3538 2363 3538 
C 1769 3538 1494 3184 1366 2906 
L 1322 2906 
L 1322 3494 
L 400 3494 
L 400 -1306 
z
M 2069 694 
C 1591 694 1316 1113 1316 1744 
C 1316 2378 1588 2788 2069 2788 
C 2559 2788 2819 2356 2819 1744 
C 2819 1128 2556 694 2069 694 
z
" transform="scale(0.015625)"/>
      <path id="Inter-Bold-6eb" transform="scale(0.015625)"/>
     </defs>
     <use xlink:href="#Inter-Bold-288"/>
     <use xlink:href="#Inter-Bold-2e2" transform="translate(39.796875 0)"/>
     <use xlink:href="#Inter-Bold-2b2" transform="translate(66.890625 0)"/>
     <use xlink:href="#Inter-Bold-34d" transform="translate(93.984375 0)"/>
     <use xlink:href="#Inter-Bold-6eb" transform="translate(157.015625 0)"/>
     <use xlink:href="#Inter-Bold-6eb" transform="translate(180.703125 0)"/>
    </g>
   </g>
   <g id="text_16">
    <!-- flip   -->
    <g style="fill: #f0716f" transform="translate(514.296719 141.844629) scale(0.09 -0.09)">
     <use xlink:href="#Inter-Bold-288"/>
     <use xlink:href="#Inter-Bold-2e2" transform="translate(39.796875 0)"/>
     <use xlink:href="#Inter-Bold-2b2" transform="translate(66.890625 0)"/>
     <use xlink:href="#Inter-Bold-34d" transform="translate(93.984375 0)"/>
     <use xlink:href="#Inter-Bold-6eb" transform="translate(157.015625 0)"/>
     <use xlink:href="#Inter-Bold-6eb" transform="translate(180.703125 0)"/>
    </g>
   </g>
   <g id="text_17">
    <!-- flip   -->
    <g style="fill: #f0716f" transform="translate(514.296719 185.84697) scale(0.09 -0.09)">
     <use xlink:href="#Inter-Bold-288"/>
     <use xlink:href="#Inter-Bold-2e2" transform="translate(39.796875 0)"/>
     <use xlink:href="#Inter-Bold-2b2" transform="translate(66.890625 0)"/>
     <use xlink:href="#Inter-Bold-34d" transform="translate(93.984375 0)"/>
     <use xlink:href="#Inter-Bold-6eb" transform="translate(157.015625 0)"/>
     <use xlink:href="#Inter-Bold-6eb" transform="translate(180.703125 0)"/>
    </g>
   </g>
   <g id="text_18">
    <!-- The same surface feature flips sign between models -->
    <g style="fill: #e6e8eb" transform="translate(71.309375 18.340625) scale(0.115 -0.115)">
     <defs>
      <path id="Inter-Regular-19c" d="M 306 4131 
L 1772 4131 
L 1772 0 
L 2366 0 
L 2366 4131 
L 3825 4131 
L 3825 4656 
L 306 4656 
L 306 4131 
z
" transform="scale(0.015625)"/>
      <path id="Inter-Regular-395" d="M 1678 -44 
C 2138 -44 2519 144 2747 653 
L 2747 0 
L 3291 0 
L 3291 3494 
L 2725 3494 
L 2725 1400 
C 2725 803 2347 463 1847 463 
C 1359 463 1056 784 1056 1322 
L 1056 3494 
L 494 3494 
L 494 1275 
C 494 391 972 -44 1678 -44 
z
" transform="scale(0.015625)"/>
     </defs>
     <use xlink:href="#Inter-Regular-19c"/>
     <use xlink:href="#Inter-Regular-29f" transform="translate(64.546875 0)"/>
     <use xlink:href="#Inter-Regular-267" transform="translate(123.671875 0)"/>
     <use xlink:href="#Inter-Regular-6eb" transform="translate(181.96875 0)"/>
     <use xlink:href="#Inter-Regular-369" transform="translate(210.09375 0)"/>
     <use xlink:href="#Inter-Regular-1fc" transform="translate(262.875 0)"/>
     <use xlink:href="#Inter-Regular-300" transform="translate(319.03125 0)"/>
     <use xlink:href="#Inter-Regular-267" transform="translate(406.625 0)"/>
     <use xlink:href="#Inter-Regular-6eb" transform="translate(464.921875 0)"/>
     <use xlink:href="#Inter-Regular-369" transform="translate(493.046875 0)"/>
     <use xlink:href="#Inter-Regular-395" transform="translate(545.828125 0)"/>
     <use xlink:href="#Inter-Regular-356" transform="translate(604.953125 0)"/>
     <use xlink:href="#Inter-Regular-288" transform="translate(644.15625 0)"/>
     <use xlink:href="#Inter-Regular-1fc" transform="translate(679.609375 0)"/>
     <use xlink:href="#Inter-Regular-24b" transform="translate(735.765625 0)"/>
     <use xlink:href="#Inter-Regular-267" transform="translate(792.890625 0)"/>
     <use xlink:href="#Inter-Regular-6eb" transform="translate(851.1875 0)"/>
     <use xlink:href="#Inter-Regular-288" transform="translate(879.3125 0)"/>
     <use xlink:href="#Inter-Regular-267" transform="translate(913.40625 0)"/>
     <use xlink:href="#Inter-Regular-1fc" transform="translate(972.6875 0)"/>
     <use xlink:href="#Inter-Regular-37b" transform="translate(1028.84375 0)"/>
     <use xlink:href="#Inter-Regular-395" transform="translate(1061.5625 0)"/>
     <use xlink:href="#Inter-Regular-356" transform="translate(1120.6875 0)"/>
     <use xlink:href="#Inter-Regular-267" transform="translate(1156.671875 0)"/>
     <use xlink:href="#Inter-Regular-6eb" transform="translate(1214.96875 0)"/>
     <use xlink:href="#Inter-Regular-288" transform="translate(1243.09375 0)"/>
     <use xlink:href="#Inter-Regular-2e2" transform="translate(1280.109375 0)"/>
     <use xlink:href="#Inter-Regular-2b2" transform="translate(1304.328125 0)"/>
     <use xlink:href="#Inter-Regular-34d" transform="translate(1328.546875 0)"/>
     <use xlink:href="#Inter-Regular-369" transform="translate(1389.78125 0)"/>
     <use xlink:href="#Inter-Regular-6eb" transform="translate(1442.5625 0)"/>
     <use xlink:href="#Inter-Regular-369" transform="translate(1470.6875 0)"/>
     <use xlink:href="#Inter-Regular-2b2" transform="translate(1523.46875 0)"/>
     <use xlink:href="#Inter-Regular-293" transform="translate(1547.6875 0)"/>
     <use xlink:href="#Inter-Regular-307" transform="translate(1609.015625 0)"/>
     <use xlink:href="#Inter-Regular-6eb" transform="translate(1668.09375 0)"/>
     <use xlink:href="#Inter-Regular-243" transform="translate(1696.21875 0)"/>
     <use xlink:href="#Inter-Regular-267" transform="translate(1757.453125 0)"/>
     <use xlink:href="#Inter-Regular-37b" transform="translate(1815.75 0)"/>
     <use xlink:href="#Inter-Regular-3da" transform="translate(1849.9375 0)"/>
     <use xlink:href="#Inter-Regular-267" transform="translate(1929.96875 0)"/>
     <use xlink:href="#Inter-Regular-267" transform="translate(1988.265625 0)"/>
     <use xlink:href="#Inter-Regular-307" transform="translate(2046.5625 0)"/>
     <use xlink:href="#Inter-Regular-6eb" transform="translate(2105.640625 0)"/>
     <use xlink:href="#Inter-Regular-300" transform="translate(2133.765625 0)"/>
     <use xlink:href="#Inter-Regular-318" transform="translate(2221.359375 0)"/>
     <use xlink:href="#Inter-Regular-256" transform="translate(2281.328125 0)"/>
     <use xlink:href="#Inter-Regular-267" transform="translate(2342.5625 0)"/>
     <use xlink:href="#Inter-Regular-2e2" transform="translate(2400.859375 0)"/>
     <use xlink:href="#Inter-Regular-369" transform="translate(2425.078125 0)"/>
    </g>
   </g>
   <g id="legend_1">
    <g id="patch_15">
     <path d="M 454.646563 224.289062 
L 474.646563 224.289062 
L 474.646563 217.289062 
L 454.646563 217.289062 
z
" style="fill: #5598e7"/>
    </g>
    <g id="text_19">
     <!-- Skywork -->
     <g style="fill: #e6e8eb" transform="translate(482.646563 224.289062) scale(0.1 -0.1)">
      <defs>
       <path id="Inter-Regular-18e" d="M 2053 -81 
C 3128 -81 3744 506 3744 1269 
C 3744 2138 2925 2419 2425 2556 
L 1959 2684 
C 1619 2778 1072 2950 1072 3438 
C 1072 3875 1472 4194 2075 4194 
C 2628 4194 3047 3934 3100 3481 
L 3681 3481 
C 3653 4184 3013 4719 2094 4719 
C 1194 4719 494 4197 494 3409 
C 494 2791 931 2406 1681 2194 
L 2244 2034 
C 2741 1894 3166 1728 3166 1278 
C 3166 781 2684 450 2053 450 
C 1506 450 1019 691 972 1219 
L 363 1219 
C 416 438 1044 -81 2053 -81 
z
" transform="scale(0.015625)"/>
      </defs>
      <use xlink:href="#Inter-Regular-18e"/>
      <use xlink:href="#Inter-Regular-2d9" transform="translate(64.15625 0)"/>
      <use xlink:href="#Inter-Regular-3e8" transform="translate(119.046875 0)"/>
      <use xlink:href="#Inter-Regular-3da" transform="translate(175.25 0)"/>
      <use xlink:href="#Inter-Regular-318" transform="translate(255.28125 0)"/>
      <use xlink:href="#Inter-Regular-356" transform="translate(315.25 0)"/>
      <use xlink:href="#Inter-Regular-2d9" transform="translate(354.453125 0)"/>
     </g>
    </g>
    <g id="patch_16">
     <path d="M 454.646563 241.388672 
L 474.646563 241.388672 
L 474.646563 234.388672 
L 454.646563 234.388672 
z
" style="fill: #f98a5c"/>
    </g>
    <g id="text_20">
     <!-- ArmoRM -->
     <g style="fill: #e6e8eb" transform="translate(482.646563 241.388672) scale(0.1 -0.1)">
      <defs>
       <path id="Inter-Regular-2" d="M 163 0 
L 794 0 
L 1244 1300 
L 3163 1300 
L 3628 0 
L 4253 0 
L 2541 4656 
L 1853 4656 
L 163 0 
z
M 1425 1819 
L 1753 2763 
C 1853 3050 1997 3494 2194 4181 
C 2391 3506 2528 3075 2641 2763 
L 2978 1819 
L 1425 1819 
z
" transform="scale(0.015625)"/>
       <path id="Inter-Regular-181" d="M 563 0 
L 1156 0 
L 1156 1806 
L 2159 1806 
C 2197 1806 2231 1806 2269 1809 
L 3238 0 
L 3925 0 
L 2881 1916 
C 3469 2122 3744 2600 3744 3219 
C 3744 4050 3244 4656 2156 4656 
L 563 4656 
L 563 0 
z
M 1156 2334 
L 1156 4134 
L 2125 4134 
C 2866 4134 3153 3772 3153 3219 
C 3153 2672 2866 2334 2131 2334 
L 1156 2334 
z
" transform="scale(0.015625)"/>
       <path id="Inter-Regular-125" d="M 563 0 
L 1128 0 
L 1128 2659 
C 1128 3019 1116 3569 1106 4013 
C 1291 3466 1472 2922 1575 2659 
L 2631 0 
L 3147 0 
L 4188 2659 
C 4294 2931 4488 3491 4656 4022 
C 4644 3538 4634 3003 4634 2659 
L 4634 0 
L 5219 0 
L 5219 4656 
L 4372 4656 
L 3241 1719 
C 3150 1484 3006 1025 2897 659 
C 2788 1038 2641 1494 2553 1719 
L 1406 4656 
L 563 4656 
L 563 0 
z
" transform="scale(0.015625)"/>
      </defs>
      <use xlink:href="#Inter-Regular-2"/>
      <use xlink:href="#Inter-Regular-356" transform="translate(69 0)"/>
      <use xlink:href="#Inter-Regular-300" transform="translate(108.203125 0)"/>
      <use xlink:href="#Inter-Regular-318" transform="translate(195.796875 0)"/>
      <use xlink:href="#Inter-Regular-181" transform="translate(255.765625 0)"/>
      <use xlink:href="#Inter-Regular-125" transform="translate(320.125 0)"/>
     </g>
    </g>
   </g>
  </g>
 </g>
 <defs>
  <clipPath id="pced0f7d0c7">
   <rect x="71.309375" y="24.340625" width="461.3825" height="228.460156"/>
  </clipPath>
 </defs>
</svg>
