<?xml version="1.0" encoding="utf-8" standalone="no"?>
<!DOCTYPE svg PUBLIC "-//W3C//DTD SVG 1.1//EN"
  "http://www.w3.org/Graphics/SVG/1.1/DTD/svg11.dtd">
<svg xmlns:xlink="http://www.w3.org/1999/xlink" width="525.079375pt" height="295.2pt" viewBox="0 0 525.079375 295.2" xmlns="http://www.w3.org/2000/svg" version="1.1">
 <metadata>
  <rdf:RDF xmlns:dc="http://purl.org/dc/elements/1.1/" xmlns:cc="http://creativecommons.org/ns#" xmlns:rdf="http://www.w3.org/1999/02/22-rdf-syntax-ns#">
   <cc:Work>
    <dc:type rdf:resource="http://purl.org/dc/dcmitype/StillImage"/>
    <dc:date>2026-07-11T15:01:28.456134</dc:date>
    <dc:format>image/svg+xml</dc:format>
    <dc:creator>
     <cc:Agent>
      <dc:title>Matplotlib v3.11.0, https://matplotlib.org/</dc:title>
     </cc:Agent>
    </dc:creator>
   </cc:Work>
  </rdf:RDF>
 </metadata>
 <defs>
  <style type="text/css">*{stroke-linejoin: round; stroke-linecap: butt}</style>
 </defs>
 <g id="figure_1">
  <g id="patch_1">
   <path d="M 0 295.2 
L 525.079375 295.2 
L 525.079375 0 
L 0 0 
L 0 295.2 
z
" style="fill: none"/>
  </g>
  <g id="axes_1">
   <g id="patch_2">
    <path d="M 37.446875 252.800781 
L 517.879375 252.800781 
L 517.879375 24.340625 
L 37.446875 24.340625 
L 37.446875 252.800781 
z
" style="fill: none"/>
   </g>
   <g id="line2d_1">
    <path d="M 37.446875 136.442549 
L 517.879375 136.442549 
" clip-path="url(#pf87697f9ca)" style="fill: none; stroke-dasharray: 0.8,1.32; stroke-dashoffset: 0; stroke: #9aa0aa; stroke-width: 0.8"/>
   </g>
   <g id="matplotlib.axis_1">
    <g id="xtick_1">
     <g id="line2d_2">
      <defs>
       <path id="m3700744ac0" d="M 0 0 
L 0 3.5 
" style="stroke: #9aa0aa; stroke-width: 0.8"/>
      </defs>
      <g>
       <use xlink:href="#m3700744ac0" x="72.933366" y="252.800781" style="fill: #9aa0aa; stroke: #9aa0aa; stroke-width: 0.8"/>
      </g>
     </g>
     <g id="text_1">
      <!-- 0 -->
      <g style="fill: #9aa0aa" transform="translate(69.778679 269.488281) scale(0.1 -0.1)">
       <defs>
        <path id="Inter-Regular-53f" d="M 2019 -63 
C 3059 -63 3656 809 3656 2325 
C 3656 3834 3050 4719 2019 4719 
C 988 4719 381 3834 381 2325 
C 381 806 981 -63 2019 -63 
z
M 2019 456 
C 1338 456 953 1144 953 2325 
C 953 3509 1338 4203 2019 4203 
C 2700 4203 3084 3513 3084 2325 
C 3084 1144 2700 456 2019 456 
z
" transform="scale(0.015625)"/>
       </defs>
       <use xlink:href="#Inter-Regular-53f"/>
      </g>
     </g>
    </g>
    <g id="xtick_2">
     <g id="line2d_3">
      <g>
       <use xlink:href="#m3700744ac0" x="141.176619" y="252.800781" style="fill: #9aa0aa; stroke: #9aa0aa; stroke-width: 0.8"/>
      </g>
     </g>
     <g id="text_2">
      <!-- 5 -->
      <g style="fill: #9aa0aa" transform="translate(138.136776 269.488281) scale(0.1 -0.1)">
       <defs>
        <path id="Inter-Regular-545" d="M 1956 -63 
C 2853 -63 3509 594 3509 1488 
C 3509 2388 2881 3047 2028 3047 
C 1706 3047 1397 2934 1206 2775 
L 1181 2775 
L 1341 4134 
L 3291 4134 
L 3291 4656 
L 841 4656 
L 566 2350 
L 1122 2281 
C 1306 2422 1631 2525 1919 2525 
C 2503 2525 2928 2078 2928 1478 
C 2928 888 2519 459 1956 459 
C 1488 459 1106 759 1069 1175 
L 494 1175 
C 525 463 1138 -63 1956 -63 
z
" transform="scale(0.015625)"/>
       </defs>
       <use xlink:href="#Inter-Regular-545"/>
      </g>
     </g>
    </g>
    <g id="xtick_3">
     <g id="line2d_4">
      <g>
       <use xlink:href="#m3700744ac0" x="209.419872" y="252.800781" style="fill: #9aa0aa; stroke: #9aa0aa; stroke-width: 0.8"/>
      </g>
     </g>
     <g id="text_3">
      <!-- 10 -->
      <g style="fill: #9aa0aa" transform="translate(204.231591 269.488281) scale(0.1 -0.1)">
       <defs>
        <path id="Inter-Regular-540" d="M 2041 4656 
L 1313 4656 
L 300 3909 
L 300 3272 
L 1425 4106 
L 1456 4106 
L 1456 0 
L 2041 0 
L 2041 4656 
z
" transform="scale(0.015625)"/>
       </defs>
       <use xlink:href="#Inter-Regular-540"/>
       <use xlink:href="#Inter-Regular-53f" transform="translate(40.671875 0)"/>
      </g>
     </g>
    </g>
    <g id="xtick_4">
     <g id="line2d_5">
      <g>
       <use xlink:href="#m3700744ac0" x="277.663125" y="252.800781" style="fill: #9aa0aa; stroke: #9aa0aa; stroke-width: 0.8"/>
      </g>
     </g>
     <g id="text_4">
      <!-- 15 -->
      <g style="fill: #9aa0aa" transform="translate(272.589688 269.488281) scale(0.1 -0.1)">
       <use xlink:href="#Inter-Regular-540"/>
       <use xlink:href="#Inter-Regular-545" transform="translate(40.671875 0)"/>
      </g>
     </g>
    </g>
    <g id="xtick_5">
     <g id="line2d_6">
      <g>
       <use xlink:href="#m3700744ac0" x="345.906378" y="252.800781" style="fill: #9aa0aa; stroke: #9aa0aa; stroke-width: 0.8"/>
      </g>
     </g>
     <g id="text_5">
      <!-- 20 -->
      <g style="fill: #9aa0aa" transform="translate(339.702472 269.488281) scale(0.1 -0.1)">
       <defs>
        <path id="Inter-Regular-541" d="M 481 0 
L 3447 0 
L 3447 522 
L 1300 522 
L 1300 559 
L 2319 1644 
C 3141 2519 3369 2916 3369 3419 
C 3369 4147 2778 4719 1947 4719 
C 1119 4719 494 4159 494 3334 
L 1063 3334 
C 1063 3859 1400 4203 1931 4203 
C 2428 4203 2806 3900 2806 3413 
C 2806 2984 2544 2666 2028 2106 
L 481 428 
L 481 0 
z
" transform="scale(0.015625)"/>
       </defs>
       <use xlink:href="#Inter-Regular-541"/>
       <use xlink:href="#Inter-Regular-53f" transform="translate(60.984375 0)"/>
      </g>
     </g>
    </g>
    <g id="xtick_6">
     <g id="line2d_7">
      <g>
       <use xlink:href="#m3700744ac0" x="414.149631" y="252.800781" style="fill: #9aa0aa; stroke: #9aa0aa; stroke-width: 0.8"/>
      </g>
     </g>
     <g id="text_6">
      <!-- 25 -->
      <g style="fill: #9aa0aa" transform="translate(408.060568 269.488281) scale(0.1 -0.1)">
       <use xlink:href="#Inter-Regular-541"/>
       <use xlink:href="#Inter-Regular-545" transform="translate(60.984375 0)"/>
      </g>
     </g>
    </g>
    <g id="xtick_7">
     <g id="line2d_8">
      <g>
       <use xlink:href="#m3700744ac0" x="482.392884" y="252.800781" style="fill: #9aa0aa; stroke: #9aa0aa; stroke-width: 0.8"/>
      </g>
     </g>
     <g id="text_7">
      <!-- 30 -->
      <g style="fill: #9aa0aa" transform="translate(476.149915 269.488281) scale(0.1 -0.1)">
       <defs>
        <path id="Inter-Regular-543" d="M 1984 -63 
C 2897 -63 3572 503 3572 1266 
C 3572 1853 3225 2284 2631 2381 
L 2631 2419 
C 3106 2559 3403 2944 3403 3469 
C 3403 4131 2872 4719 2003 4719 
C 1184 4719 516 4216 491 3484 
L 1063 3484 
C 1081 3938 1516 4203 1991 4203 
C 2497 4203 2822 3900 2822 3438 
C 2822 2956 2447 2644 1903 2644 
L 1525 2644 
L 1525 2128 
L 1903 2128 
C 2594 2128 2984 1775 2984 1272 
C 2984 788 2559 459 1975 459 
C 1444 459 1025 731 991 1175 
L 391 1175 
C 422 438 1072 -63 1984 -63 
z
" transform="scale(0.015625)"/>
       </defs>
       <use xlink:href="#Inter-Regular-543"/>
       <use xlink:href="#Inter-Regular-53f" transform="translate(61.765625 0)"/>
      </g>
     </g>
    </g>
    <g id="text_8">
     <!-- layer -->
     <g style="fill: #e6e8eb" transform="translate(266.208438 285.587891) scale(0.1 -0.1)">
      <defs>
       <path id="Inter-Regular-2e2" d="M 1056 4656 
L 494 4656 
L 494 0 
L 1056 0 
L 1056 4656 
z
" transform="scale(0.015625)"/>
       <path id="Inter-Regular-1fc" d="M 1472 -81 
C 2063 -81 2391 228 2509 475 
L 2547 475 
L 2547 0 
L 3100 0 
L 3100 2303 
C 3100 3394 2259 3538 1791 3538 
C 1250 3538 650 3344 381 2709 
L 922 2531 
C 1031 2775 1303 3044 1806 3044 
C 2291 3044 2538 2794 2538 2359 
L 2538 2341 
C 2538 2081 2263 2100 1641 2022 
C 994 1941 281 1794 281 994 
C 281 306 809 -81 1472 -81 
z
M 1569 416 
C 1150 416 847 603 847 966 
C 847 1363 1206 1494 1616 1547 
C 1831 1575 2444 1638 2538 1747 
L 2538 1263 
C 2538 834 2191 416 1569 416 
z
" transform="scale(0.015625)"/>
       <path id="Inter-Regular-3e8" d="M 438 -1266 
C 497 -1294 650 -1331 850 -1331 
C 1344 -1331 1681 -1078 1894 -522 
L 3428 3494 
L 2816 3494 
L 2066 1422 
C 1956 1119 1875 816 1797 525 
C 1716 816 1638 1116 1528 1422 
L 784 3494 
L 169 3494 
L 1503 -19 
L 1403 -309 
C 1231 -809 984 -884 641 -794 
L 581 -778 
L 438 -1266 
z
" transform="scale(0.015625)"/>
       <path id="Inter-Regular-267" d="M 1963 -75 
C 2678 -75 3200 284 3363 813 
L 2819 963 
C 2688 606 2378 425 1966 425 
C 1347 425 922 825 894 1556 
L 3419 1556 
L 3419 1791 
C 3419 3081 2638 3538 1897 3538 
C 944 3538 325 2791 325 1719 
C 325 644 950 -75 1963 -75 
z
M 897 2031 
C 931 2566 1297 3038 1897 3038 
C 2472 3038 2794 2625 2847 2031 
L 897 2031 
z
" transform="scale(0.015625)"/>
       <path id="Inter-Regular-356" d="M 494 0 
L 1056 0 
L 1056 2188 
C 1056 2659 1425 3000 1928 3000 
C 2078 3000 2231 2975 2266 2969 
L 2266 3534 
C 2200 3538 2063 3544 1981 3544 
C 1566 3544 1203 3309 1075 2956 
L 1038 2956 
L 1038 3494 
L 494 3494 
L 494 0 
z
" transform="scale(0.015625)"/>
      </defs>
      <use xlink:href="#Inter-Regular-2e2"/>
      <use xlink:href="#Inter-Regular-1fc" transform="translate(24.21875 0)"/>
      <use xlink:href="#Inter-Regular-3e8" transform="translate(78.90625 0)"/>
      <use xlink:href="#Inter-Regular-267" transform="translate(133.15625 0)"/>
      <use xlink:href="#Inter-Regular-356" transform="translate(191.453125 0)"/>
     </g>
    </g>
   </g>
   <g id="matplotlib.axis_2">
    <g id="ytick_1">
     <g id="line2d_9">
      <path d="M 37.446875 238.159921 
L 517.879375 238.159921 
" clip-path="url(#pf87697f9ca)" style="fill: none; stroke: #3a3d44; stroke-opacity: 0.5; stroke-width: 0.8; stroke-linecap: square"/>
     </g>
     <g id="line2d_10">
      <defs>
       <path id="m5392803104" d="M 0 0 
L -3.5 0 
" style="stroke: #9aa0aa; stroke-width: 0.8"/>
      </defs>
      <g>
       <use xlink:href="#m5392803104" x="37.446875" y="238.159921" style="fill: #9aa0aa; stroke: #9aa0aa; stroke-width: 0.8"/>
      </g>
     </g>
     <g id="text_9">
      <!-- 0 -->
      <g style="fill: #9aa0aa" transform="translate(24.1375 243.003671) scale(0.1 -0.1)">
       <use xlink:href="#Inter-Regular-53f"/>
      </g>
     </g>
    </g>
    <g id="ytick_2">
     <g id="line2d_11">
      <path d="M 37.446875 189.534852 
L 517.879375 189.534852 
" clip-path="url(#pf87697f9ca)" style="fill: none; stroke: #3a3d44; stroke-opacity: 0.5; stroke-width: 0.8; stroke-linecap: square"/>
     </g>
     <g id="line2d_12">
      <g>
       <use xlink:href="#m5392803104" x="37.446875" y="189.534852" style="fill: #9aa0aa; stroke: #9aa0aa; stroke-width: 0.8"/>
      </g>
     </g>
     <g id="text_10">
      <!-- 2 -->
      <g style="fill: #9aa0aa" transform="translate(24.348438 194.378602) scale(0.1 -0.1)">
       <use xlink:href="#Inter-Regular-541"/>
      </g>
     </g>
    </g>
    <g id="ytick_3">
     <g id="line2d_13">
      <path d="M 37.446875 140.909784 
L 517.879375 140.909784 
" clip-path="url(#pf87697f9ca)" style="fill: none; stroke: #3a3d44; stroke-opacity: 0.5; stroke-width: 0.8; stroke-linecap: square"/>
     </g>
     <g id="line2d_14">
      <g>
       <use xlink:href="#m5392803104" x="37.446875" y="140.909784" style="fill: #9aa0aa; stroke: #9aa0aa; stroke-width: 0.8"/>
      </g>
     </g>
     <g id="text_11">
      <!-- 4 -->
      <g style="fill: #9aa0aa" transform="translate(23.9875 145.753534) scale(0.1 -0.1)">
       <defs>
        <path id="Inter-Regular-544" d="M 375 947 
L 2566 947 
L 2566 0 
L 3134 0 
L 3134 947 
L 3766 947 
L 3766 1469 
L 3134 1469 
L 3134 4656 
L 2413 4656 
L 375 1431 
L 375 947 
z
M 2569 1469 
L 1009 1469 
L 1009 1506 
L 2531 3913 
L 2569 3913 
L 2569 1469 
z
" transform="scale(0.015625)"/>
       </defs>
       <use xlink:href="#Inter-Regular-544"/>
      </g>
     </g>
    </g>
    <g id="ytick_4">
     <g id="line2d_15">
      <path d="M 37.446875 92.284715 
L 517.879375 92.284715 
" clip-path="url(#pf87697f9ca)" style="fill: none; stroke: #3a3d44; stroke-opacity: 0.5; stroke-width: 0.8; stroke-linecap: square"/>
     </g>
     <g id="line2d_16">
      <g>
       <use xlink:href="#m5392803104" x="37.446875" y="92.284715" style="fill: #9aa0aa; stroke: #9aa0aa; stroke-width: 0.8"/>
      </g>
     </g>
     <g id="text_12">
      <!-- 6 -->
      <g style="fill: #9aa0aa" transform="translate(24.245313 97.128465) scale(0.1 -0.1)">
       <defs>
        <path id="Inter-Regular-547" d="M 2019 -63 
C 2969 -63 3588 634 3588 1503 
C 3588 2403 2925 3044 2128 3044 
C 1644 3044 1231 2813 981 2425 
L 944 2425 
C 944 3544 1375 4194 2091 4194 
C 2575 4194 2866 3888 2969 3484 
L 3550 3484 
C 3438 4216 2872 4719 2091 4719 
C 1034 4719 381 3788 381 2150 
C 381 434 1241 -63 2019 -63 
z
M 2019 459 
C 1447 459 1028 947 1028 1497 
C 1028 2041 1469 2528 2034 2528 
C 2597 2528 3013 2072 3013 1503 
C 3013 922 2578 459 2019 459 
z
" transform="scale(0.015625)"/>
       </defs>
       <use xlink:href="#Inter-Regular-547"/>
      </g>
     </g>
    </g>
    <g id="ytick_5">
     <g id="line2d_17">
      <path d="M 37.446875 43.659646 
L 517.879375 43.659646 
" clip-path="url(#pf87697f9ca)" style="fill: none; stroke: #3a3d44; stroke-opacity: 0.5; stroke-width: 0.8; stroke-linecap: square"/>
     </g>
     <g id="line2d_18">
      <g>
       <use xlink:href="#m5392803104" x="37.446875" y="43.659646" style="fill: #9aa0aa; stroke: #9aa0aa; stroke-width: 0.8"/>
      </g>
     </g>
     <g id="text_13">
      <!-- 8 -->
      <g style="fill: #9aa0aa" transform="translate(24.260938 48.503396) scale(0.1 -0.1)">
       <defs>
        <path id="Inter-Regular-549" d="M 1978 -63 
C 2916 -63 3578 478 3578 1238 
C 3578 1825 3175 2325 2669 2419 
L 2669 2444 
C 3109 2559 3403 2988 3403 3481 
C 3403 4191 2794 4719 1978 4719 
C 1150 4719 550 4191 550 3481 
C 550 2988 838 2559 1291 2444 
L 1291 2419 
C 769 2325 381 1825 381 1238 
C 381 478 1031 -63 1978 -63 
z
M 1978 453 
C 1350 453 966 775 966 1269 
C 966 1784 1391 2153 1978 2153 
C 2553 2153 2984 1784 2984 1269 
C 2984 775 2594 453 1978 453 
z
M 1978 2650 
C 1475 2650 1125 2966 1125 3438 
C 1125 3903 1463 4206 1978 4206 
C 2484 4206 2828 3903 2828 3438 
C 2828 2966 2469 2650 1978 2650 
z
" transform="scale(0.015625)"/>
       </defs>
       <use xlink:href="#Inter-Regular-549"/>
      </g>
     </g>
    </g>
    <g id="text_14">
     <!-- margin  $\Delta = w_r^\top(h_{\rm chosen}-h_{\rm rejected})$ -->
     <g style="fill: #e6e8eb" transform="translate(16.8875 219.570703) rotate(-90) scale(0.1 -0.1)">
      <defs>
       <path id="Inter-Regular-300" d="M 494 0 
L 1056 0 
L 1056 2200 
C 1056 2756 1428 3044 1838 3044 
C 2231 3044 2522 2784 2522 2397 
L 2522 0 
L 3084 0 
L 3084 2281 
C 3084 2722 3372 3044 3844 3044 
C 4219 3044 4547 2844 4547 2341 
L 4547 0 
L 5113 0 
L 5113 2356 
C 5113 3166 4619 3556 4013 3556 
C 3506 3556 3078 3284 2913 2844 
C 2788 3275 2481 3556 2022 3556 
C 1609 3556 1216 3325 1044 2853 
L 1041 3494 
L 494 3494 
L 494 0 
z
" transform="scale(0.015625)"/>
       <path id="Inter-Regular-293" d="M 1909 -1381 
C 2759 -1381 3431 -994 3431 -91 
L 3431 3494 
L 2884 3494 
L 2884 2934 
L 2831 2934 
C 2713 3122 2488 3538 1813 3538 
C 941 3538 325 2844 325 1763 
C 325 666 963 56 1800 56 
C 2475 56 2697 441 2816 641 
L 2869 641 
L 2869 -59 
C 2869 -634 2466 -891 1909 -891 
C 1294 -891 1075 -578 928 -375 
L 472 -669 
C 688 -1053 1134 -1381 1909 -1381 
z
M 1894 556 
C 1238 556 897 1056 897 1775 
C 897 2472 1228 3034 1894 3034 
C 2538 3034 2875 2516 2875 1775 
C 2875 1013 2528 556 1894 556 
z
" transform="scale(0.015625)"/>
       <path id="Inter-Regular-2b2" d="M 494 0 
L 1056 0 
L 1056 3494 
L 494 3494 
L 494 0 
z
M 778 4066 
C 994 4066 1172 4231 1172 4438 
C 1172 4644 994 4809 778 4809 
C 566 4809 388 4644 388 4438 
C 388 4231 566 4066 778 4066 
z
" transform="scale(0.015625)"/>
       <path id="Inter-Regular-307" d="M 1056 2094 
C 1056 2691 1434 3031 1938 3031 
C 2425 3031 2725 2709 2725 2172 
L 2725 0 
L 3288 0 
L 3288 2219 
C 3288 3103 2813 3538 2106 3538 
C 1638 3538 1263 3341 1038 2847 
L 1034 3494 
L 494 3494 
L 494 0 
L 1056 0 
L 1056 2094 
z
" transform="scale(0.015625)"/>
       <path id="Inter-Regular-6eb" transform="scale(0.015625)"/>
       <path id="DejaVuSans-329" d="M 2188 4044 
L 906 525 
L 3472 525 
L 2188 4044 
z
M 50 0 
L 1831 4666 
L 2547 4666 
L 4325 0 
L 50 0 
z
" transform="scale(0.015625)"/>
       <path id="DejaVuSans-20" d="M 678 2906 
L 4684 2906 
L 4684 2381 
L 678 2381 
L 678 2906 
z
M 678 1631 
L 4684 1631 
L 4684 1100 
L 678 1100 
L 678 1631 
z
" transform="scale(0.015625)"/>
       <path id="DejaVuSans-Oblique-5a" d="M 544 3500 
L 1113 3500 
L 1259 684 
L 2566 3500 
L 3231 3500 
L 3425 684 
L 4666 3500 
L 5241 3500 
L 3641 0 
L 2969 0 
L 2797 2900 
L 1459 0 
L 781 0 
L 544 3500 
z
" transform="scale(0.015625)"/>
       <path id="DejaVuSans-d2e" d="M 5028 4481 
L 5028 4084 
L 2988 4084 
L 2988 0 
L 2588 0 
L 2588 4084 
L 547 4084 
L 547 4481 
L 5028 4481 
z
" transform="scale(0.015625)"/>
       <path id="DejaVuSans-Oblique-55" d="M 2853 2969 
Q 2766 3016 2653 3041 
Q 2541 3066 2413 3066 
Q 1953 3066 1609 2717 
Q 1266 2369 1153 1784 
L 800 0 
L 225 0 
L 909 3500 
L 1484 3500 
L 1375 2956 
Q 1603 3259 1920 3421 
Q 2238 3584 2597 3584 
Q 2691 3584 2781 3573 
Q 2872 3563 2963 3538 
L 2853 2969 
z
" transform="scale(0.015625)"/>
       <path id="DejaVuSans-b" d="M 1984 4856 
Q 1566 4138 1362 3434 
Q 1159 2731 1159 2009 
Q 1159 1288 1364 580 
Q 1569 -128 1984 -844 
L 1484 -844 
Q 1016 -109 783 600 
Q 550 1309 550 2009 
Q 550 2706 781 3412 
Q 1013 4119 1484 4856 
L 1984 4856 
z
" transform="scale(0.015625)"/>
       <path id="DejaVuSans-Oblique-4b" d="M 3566 2113 
L 3156 0 
L 2578 0 
L 2988 2091 
Q 3016 2238 3031 2350 
Q 3047 2463 3047 2528 
Q 3047 2791 2881 2937 
Q 2716 3084 2419 3084 
Q 1956 3084 1617 2771 
Q 1278 2459 1178 1941 
L 800 0 
L 225 0 
L 1172 4863 
L 1747 4863 
L 1375 2950 
Q 1594 3244 1934 3414 
Q 2275 3584 2650 3584 
Q 3113 3584 3367 3334 
Q 3622 3084 3622 2631 
Q 3622 2519 3608 2391 
Q 3594 2263 3566 2113 
z
" transform="scale(0.015625)"/>
       <path id="DejaVuSans-46" d="M 3122 3366 
L 3122 2828 
Q 2878 2963 2633 3030 
Q 2388 3097 2138 3097 
Q 1578 3097 1268 2742 
Q 959 2388 959 1747 
Q 959 1106 1268 751 
Q 1578 397 2138 397 
Q 2388 397 2633 464 
Q 2878 531 3122 666 
L 3122 134 
Q 2881 22 2623 -34 
Q 2366 -91 2075 -91 
Q 1284 -91 818 406 
Q 353 903 353 1747 
Q 353 2603 823 3093 
Q 1294 3584 2113 3584 
Q 2378 3584 2631 3529 
Q 2884 3475 3122 3366 
z
" transform="scale(0.015625)"/>
       <path id="DejaVuSans-4b" d="M 3513 2113 
L 3513 0 
L 2938 0 
L 2938 2094 
Q 2938 2591 2744 2837 
Q 2550 3084 2163 3084 
Q 1697 3084 1428 2787 
Q 1159 2491 1159 1978 
L 1159 0 
L 581 0 
L 581 4863 
L 1159 4863 
L 1159 2956 
Q 1366 3272 1645 3428 
Q 1925 3584 2291 3584 
Q 2894 3584 3203 3211 
Q 3513 2838 3513 2113 
z
" transform="scale(0.015625)"/>
       <path id="DejaVuSans-52" d="M 1959 3097 
Q 1497 3097 1228 2736 
Q 959 2375 959 1747 
Q 959 1119 1226 758 
Q 1494 397 1959 397 
Q 2419 397 2687 759 
Q 2956 1122 2956 1747 
Q 2956 2369 2687 2733 
Q 2419 3097 1959 3097 
z
M 1959 3584 
Q 2709 3584 3137 3096 
Q 3566 2609 3566 1747 
Q 3566 888 3137 398 
Q 2709 -91 1959 -91 
Q 1206 -91 779 398 
Q 353 888 353 1747 
Q 353 2609 779 3096 
Q 1206 3584 1959 3584 
z
" transform="scale(0.015625)"/>
       <path id="DejaVuSans-56" d="M 2834 3397 
L 2834 2853 
Q 2591 2978 2328 3040 
Q 2066 3103 1784 3103 
Q 1356 3103 1142 2972 
Q 928 2841 928 2578 
Q 928 2378 1081 2264 
Q 1234 2150 1697 2047 
L 1894 2003 
Q 2506 1872 2764 1633 
Q 3022 1394 3022 966 
Q 3022 478 2636 193 
Q 2250 -91 1575 -91 
Q 1294 -91 989 -36 
Q 684 19 347 128 
L 347 722 
Q 666 556 975 473 
Q 1284 391 1588 391 
Q 1994 391 2212 530 
Q 2431 669 2431 922 
Q 2431 1156 2273 1281 
Q 2116 1406 1581 1522 
L 1381 1569 
Q 847 1681 609 1914 
Q 372 2147 372 2553 
Q 372 3047 722 3315 
Q 1072 3584 1716 3584 
Q 2034 3584 2315 3537 
Q 2597 3491 2834 3397 
z
" transform="scale(0.015625)"/>
       <path id="DejaVuSans-48" d="M 3597 1894 
L 3597 1613 
L 953 1613 
Q 991 1019 1311 708 
Q 1631 397 2203 397 
Q 2534 397 2845 478 
Q 3156 559 3463 722 
L 3463 178 
Q 3153 47 2828 -22 
Q 2503 -91 2169 -91 
Q 1331 -91 842 396 
Q 353 884 353 1716 
Q 353 2575 817 3079 
Q 1281 3584 2069 3584 
Q 2775 3584 3186 3129 
Q 3597 2675 3597 1894 
z
M 3022 2063 
Q 3016 2534 2758 2815 
Q 2500 3097 2075 3097 
Q 1594 3097 1305 2825 
Q 1016 2553 972 2059 
L 3022 2063 
z
" transform="scale(0.015625)"/>
       <path id="DejaVuSans-51" d="M 3513 2113 
L 3513 0 
L 2938 0 
L 2938 2094 
Q 2938 2591 2744 2837 
Q 2550 3084 2163 3084 
Q 1697 3084 1428 2787 
Q 1159 2491 1159 1978 
L 1159 0 
L 581 0 
L 581 3500 
L 1159 3500 
L 1159 2956 
Q 1366 3272 1645 3428 
Q 1925 3584 2291 3584 
Q 2894 3584 3203 3211 
Q 3513 2838 3513 2113 
z
" transform="scale(0.015625)"/>
       <path id="DejaVuSans-c9c" d="M 678 2272 
L 4684 2272 
L 4684 1741 
L 678 1741 
L 678 2272 
z
" transform="scale(0.015625)"/>
       <path id="DejaVuSans-55" d="M 2631 2963 
Q 2534 3019 2420 3045 
Q 2306 3072 2169 3072 
Q 1681 3072 1420 2755 
Q 1159 2438 1159 1844 
L 1159 0 
L 581 0 
L 581 3500 
L 1159 3500 
L 1159 2956 
Q 1341 3275 1631 3429 
Q 1922 3584 2338 3584 
Q 2397 3584 2469 3576 
Q 2541 3569 2628 3553 
L 2631 2963 
z
" transform="scale(0.015625)"/>
       <path id="DejaVuSans-4d" d="M 603 3500 
L 1178 3500 
L 1178 -63 
Q 1178 -731 923 -1031 
Q 669 -1331 103 -1331 
L -116 -1331 
L -116 -844 
L 38 -844 
Q 366 -844 484 -692 
Q 603 -541 603 -63 
L 603 3500 
z
M 603 4863 
L 1178 4863 
L 1178 4134 
L 603 4134 
L 603 4863 
z
" transform="scale(0.015625)"/>
       <path id="DejaVuSans-57" d="M 1172 4494 
L 1172 3500 
L 2356 3500 
L 2356 3053 
L 1172 3053 
L 1172 1153 
Q 1172 725 1289 603 
Q 1406 481 1766 481 
L 2356 481 
L 2356 0 
L 1766 0 
Q 1100 0 847 248 
Q 594 497 594 1153 
L 594 3053 
L 172 3053 
L 172 3500 
L 594 3500 
L 594 4494 
L 1172 4494 
z
" transform="scale(0.015625)"/>
       <path id="DejaVuSans-47" d="M 2906 2969 
L 2906 4863 
L 3481 4863 
L 3481 0 
L 2906 0 
L 2906 525 
Q 2725 213 2448 61 
Q 2172 -91 1784 -91 
Q 1150 -91 751 415 
Q 353 922 353 1747 
Q 353 2572 751 3078 
Q 1150 3584 1784 3584 
Q 2172 3584 2448 3432 
Q 2725 3281 2906 2969 
z
M 947 1747 
Q 947 1113 1208 752 
Q 1469 391 1925 391 
Q 2381 391 2643 752 
Q 2906 1113 2906 1747 
Q 2906 2381 2643 2742 
Q 2381 3103 1925 3103 
Q 1469 3103 1208 2742 
Q 947 2381 947 1747 
z
" transform="scale(0.015625)"/>
       <path id="DejaVuSans-c" d="M 513 4856 
L 1013 4856 
Q 1481 4119 1714 3412 
Q 1947 2706 1947 2009 
Q 1947 1309 1714 600 
Q 1481 -109 1013 -844 
L 513 -844 
Q 928 -128 1133 580 
Q 1338 1288 1338 2009 
Q 1338 2731 1133 3434 
Q 928 4138 513 4856 
z
" transform="scale(0.015625)"/>
      </defs>
      <use xlink:href="#Inter-Regular-300" transform="translate(0 0.689063)"/>
      <use xlink:href="#Inter-Regular-1fc" transform="translate(87.597656 0.689063)"/>
      <use xlink:href="#Inter-Regular-356" transform="translate(143.75 0.689063)"/>
      <use xlink:href="#Inter-Regular-293" transform="translate(181.396484 0.689063)"/>
      <use xlink:href="#Inter-Regular-2b2" transform="translate(242.724609 0.689063)"/>
      <use xlink:href="#Inter-Regular-307" transform="translate(266.943359 0.689063)"/>
      <use xlink:href="#Inter-Regular-6eb" transform="translate(326.025391 0.689063)"/>
      <use xlink:href="#Inter-Regular-6eb" transform="translate(354.150391 0.689063)"/>
      <use xlink:href="#DejaVuSans-329" transform="translate(382.275391 0.689063)"/>
      <use xlink:href="#DejaVuSans-20" transform="translate(470.166016 0.689063)"/>
      <use xlink:href="#DejaVuSans-Oblique-5a" transform="translate(573.4375 0.689063)"/>
      <use xlink:href="#DejaVuSans-d2e" transform="translate(673.328451 41.989063) scale(0.7)"/>
      <use xlink:href="#DejaVuSans-Oblique-55" transform="translate(655.224609 -30.210938) scale(0.7)"/>
      <use xlink:href="#DejaVuSans-b" transform="translate(750.677083 0.689063)"/>
      <use xlink:href="#DejaVuSans-Oblique-4b" transform="translate(789.690755 0.689063)"/>
      <use xlink:href="#DejaVuSans-46" transform="translate(853.069661 -14.310889) scale(0.7)"/>
      <use xlink:href="#DejaVuSans-4b" transform="translate(891.55599 -14.310889) scale(0.7)"/>
      <use xlink:href="#DejaVuSans-52" transform="translate(935.921224 -14.310889) scale(0.7)"/>
      <use xlink:href="#DejaVuSans-56" transform="translate(978.748372 -14.310889) scale(0.7)"/>
      <use xlink:href="#DejaVuSans-48" transform="translate(1015.218099 -14.310889) scale(0.7)"/>
      <use xlink:href="#DejaVuSans-51" transform="translate(1058.284505 -14.310889) scale(0.7)"/>
      <use xlink:href="#DejaVuSans-c9c" transform="translate(1124.866536 0.689063)"/>
      <use xlink:href="#DejaVuSans-Oblique-4b" transform="translate(1228.138021 0.689063)"/>
      <use xlink:href="#DejaVuSans-55" transform="translate(1291.516927 -14.310889) scale(0.7)"/>
      <use xlink:href="#DejaVuSans-48" transform="translate(1318.896224 -14.310889) scale(0.7)"/>
      <use xlink:href="#DejaVuSans-4d" transform="translate(1361.96263 -14.310889) scale(0.7)"/>
      <use xlink:href="#DejaVuSans-48" transform="translate(1381.410872 -14.310889) scale(0.7)"/>
      <use xlink:href="#DejaVuSans-46" transform="translate(1424.477279 -14.310889) scale(0.7)"/>
      <use xlink:href="#DejaVuSans-57" transform="translate(1462.963607 -14.310889) scale(0.7)"/>
      <use xlink:href="#DejaVuSans-48" transform="translate(1490.409896 -14.310889) scale(0.7)"/>
      <use xlink:href="#DejaVuSans-47" transform="translate(1533.476302 -14.310889) scale(0.7)"/>
      <use xlink:href="#DejaVuSans-c" transform="translate(1580.644271 0.689063)"/>
     </g>
    </g>
   </g>
   <g id="line2d_19">
    <path d="M 37.446875 238.159921 
L 517.879375 238.159921 
" clip-path="url(#pf87697f9ca)" style="fill: none; stroke: #55565e; stroke-linecap: square"/>
   </g>
   <g id="line2d_20">
    <path d="M 482.392884 252.800781 
L 482.392884 24.340625 
" clip-path="url(#pf87697f9ca)" style="fill: none; stroke-dasharray: 5.55,2.4; stroke-dashoffset: 0; stroke: #f98a5c; stroke-width: 1.5"/>
   </g>
   <g id="patch_3">
    <path d="M 37.446875 252.800781 
L 37.446875 24.340625 
" style="fill: none; stroke: #3a3d44; stroke-width: 0.8; stroke-linejoin: miter; stroke-linecap: square"/>
   </g>
   <g id="patch_4">
    <path d="M 37.446875 252.800781 
L 517.879375 252.800781 
" style="fill: none; stroke: #3a3d44; stroke-width: 0.8; stroke-linejoin: miter; stroke-linecap: square"/>
   </g>
   <g id="line2d_21">
    <path d="M 59.284716 238.394451 
L 72.933366 239.066907 
L 86.582017 238.196049 
L 100.230668 240.039884 
L 113.879318 239.177 
L 127.527969 239.692218 
L 141.176619 239.298734 
L 154.82527 242.025675 
L 168.47392 241.694154 
L 182.122571 240.258777 
L 195.771222 241.559432 
L 209.419872 238.900726 
L 223.068523 233.875186 
L 236.717173 237.602592 
L 250.365824 236.689321 
L 264.014474 239.438798 
L 277.663125 238.660999 
L 291.311776 238.161734 
L 304.960426 233.442429 
L 318.609077 242.416229 
L 332.257727 235.461387 
L 345.906378 239.026072 
L 359.555028 232.007061 
L 373.203679 224.938184 
L 386.85233 220.047085 
L 400.50098 212.948473 
L 414.149631 210.172254 
L 427.798281 193.484417 
L 441.446932 240.578982 
L 455.095582 182.266947 
L 468.744233 151.290254 
L 482.392884 114.455377 
L 496.041534 34.725178 
" clip-path="url(#pf87697f9ca)" style="fill: none; stroke: #5598e7; stroke-width: 2.4; stroke-linecap: square"/>
   </g>
   <g id="patch_5">
    <path d="M 347.430882 109.658811 
Q 413.92957 122.855736 479.11228 135.791501 
" style="fill: none; stroke: #f98a5c; stroke-width: 1.2; stroke-linecap: round"/>
    <path d="M 475.578111 133.051127 
L 479.11228 135.791501 
L 474.79948 136.974612 
" style="fill: none; stroke: #f98a5c; stroke-width: 1.2; stroke-linecap: round"/>
   </g>
   <g id="text_15">
    <!-- crystallizes at -->
    <g style="fill: #f98a5c" transform="translate(277.663125 99.930771) scale(0.1 -0.1)">
     <defs>
      <path id="Inter-Regular-24b" d="M 1916 -75 
C 2600 -75 3156 297 3344 919 
L 2806 1072 
C 2703 694 2384 428 1916 428 
C 1219 428 897 1038 897 1725 
C 897 2422 1219 3034 1916 3034 
C 2375 3034 2688 2778 2791 2419 
L 3331 2572 
C 3141 3181 2591 3538 1916 3538 
C 966 3538 325 2819 325 1725 
C 325 647 966 -75 1916 -75 
z
" transform="scale(0.015625)"/>
      <path id="Inter-Regular-369" d="M 1681 -75 
C 2500 -75 3059 372 3059 984 
C 3059 1463 2763 1778 2128 1928 
L 1600 2053 
C 1191 2150 1013 2294 1013 2553 
C 1013 2844 1325 3059 1741 3059 
C 2191 3059 2388 2816 2484 2566 
L 2994 2697 
C 2834 3188 2456 3538 1738 3538 
C 994 3538 444 3119 444 2519 
C 444 2028 747 1716 1381 1566 
L 1963 1428 
C 2306 1347 2475 1188 2475 947 
C 2475 659 2163 419 1675 419 
C 1256 419 972 591 872 975 
L 338 847 
C 463 244 963 -75 1681 -75 
z
" transform="scale(0.015625)"/>
      <path id="Inter-Regular-37b" d="M 1869 3494 
L 1150 3494 
L 1150 4325 
L 588 4325 
L 588 3494 
L 63 3494 
L 63 3013 
L 588 3013 
L 588 863 
C 588 291 944 -44 1547 -44 
C 1691 -44 1850 -22 1966 19 
L 1850 494 
C 1756 475 1634 456 1563 456 
C 1266 456 1150 594 1150 906 
L 1150 3013 
L 1869 3013 
L 1869 3494 
z
" transform="scale(0.015625)"/>
      <path id="Inter-Regular-400" d="M 394 0 
L 3141 0 
L 3141 522 
L 1175 522 
L 1175 556 
L 3078 3047 
L 3078 3494 
L 456 3494 
L 456 2972 
L 2353 2972 
L 2353 2938 
L 394 419 
L 394 0 
z
" transform="scale(0.015625)"/>
     </defs>
     <use xlink:href="#Inter-Regular-24b"/>
     <use xlink:href="#Inter-Regular-356" transform="translate(57.125 0)"/>
     <use xlink:href="#Inter-Regular-3e8" transform="translate(96.328125 0)"/>
     <use xlink:href="#Inter-Regular-369" transform="translate(152.53125 0)"/>
     <use xlink:href="#Inter-Regular-37b" transform="translate(205.3125 0)"/>
     <use xlink:href="#Inter-Regular-1fc" transform="translate(238.515625 0)"/>
     <use xlink:href="#Inter-Regular-2e2" transform="translate(294.671875 0)"/>
     <use xlink:href="#Inter-Regular-2e2" transform="translate(318.890625 0)"/>
     <use xlink:href="#Inter-Regular-2b2" transform="translate(343.109375 0)"/>
     <use xlink:href="#Inter-Regular-400" transform="translate(367.328125 0)"/>
     <use xlink:href="#Inter-Regular-267" transform="translate(421.078125 0)"/>
     <use xlink:href="#Inter-Regular-369" transform="translate(479.375 0)"/>
     <use xlink:href="#Inter-Regular-6eb" transform="translate(532.15625 0)"/>
     <use xlink:href="#Inter-Regular-1fc" transform="translate(560.28125 0)"/>
     <use xlink:href="#Inter-Regular-37b" transform="translate(616.4375 0)"/>
    </g>
    <!-- layer 30 of 32 -->
    <g style="fill: #f98a5c" transform="translate(277.663125 112.03038) scale(0.1 -0.1)">
     <defs>
      <path id="Inter-Regular-318" d="M 1916 -75 
C 2869 -75 3513 647 3513 1725 
C 3513 2819 2869 3538 1916 3538 
C 966 3538 325 2819 325 1725 
C 325 647 966 -75 1916 -75 
z
M 1916 428 
C 1219 428 897 1038 897 1725 
C 897 2422 1219 3034 1916 3034 
C 2622 3034 2944 2419 2944 1725 
C 2944 1038 2622 428 1916 428 
z
" transform="scale(0.015625)"/>
      <path id="Inter-Regular-288" d="M 2119 3494 
L 1313 3494 
L 1313 3834 
C 1313 4172 1463 4353 1809 4353 
C 1966 4353 2053 4319 2113 4300 
L 2269 4781 
C 2184 4819 2009 4875 1744 4875 
C 1234 4875 750 4566 750 3959 
L 750 3494 
L 63 3494 
L 63 3013 
L 750 3013 
L 750 0 
L 1313 0 
L 1313 3013 
L 2119 3013 
L 2119 3494 
z
" transform="scale(0.015625)"/>
     </defs>
     <use xlink:href="#Inter-Regular-2e2"/>
     <use xlink:href="#Inter-Regular-1fc" transform="translate(24.21875 0)"/>
     <use xlink:href="#Inter-Regular-3e8" transform="translate(78.90625 0)"/>
     <use xlink:href="#Inter-Regular-267" transform="translate(133.15625 0)"/>
     <use xlink:href="#Inter-Regular-356" transform="translate(191.453125 0)"/>
     <use xlink:href="#Inter-Regular-6eb" transform="translate(229.09375 0)"/>
     <use xlink:href="#Inter-Regular-543" transform="translate(257.21875 0)"/>
     <use xlink:href="#Inter-Regular-53f" transform="translate(318.984375 0)"/>
     <use xlink:href="#Inter-Regular-6eb" transform="translate(382.078125 0)"/>
     <use xlink:href="#Inter-Regular-318" transform="translate(410.203125 0)"/>
     <use xlink:href="#Inter-Regular-288" transform="translate(470.171875 0)"/>
     <use xlink:href="#Inter-Regular-6eb" transform="translate(507.1875 0)"/>
     <use xlink:href="#Inter-Regular-543" transform="translate(535.3125 0)"/>
     <use xlink:href="#Inter-Regular-541" transform="translate(597.078125 0)"/>
    </g>
   </g>
   <g id="text_16">
    <!-- half the final margin -->
    <g style="fill: #9aa0aa" transform="translate(100.230668 126.717536) scale(0.09 -0.09)">
     <defs>
      <path id="Inter-Regular-29f" d="M 1056 2094 
C 1056 2691 1434 3031 1938 3031 
C 2425 3031 2725 2709 2725 2172 
L 2725 0 
L 3291 0 
L 3291 2219 
C 3291 3103 2813 3538 2106 3538 
C 1650 3538 1284 3353 1056 2888 
L 1056 4656 
L 494 4656 
L 494 0 
L 1056 0 
L 1056 2094 
z
" transform="scale(0.015625)"/>
     </defs>
     <use xlink:href="#Inter-Regular-29f"/>
     <use xlink:href="#Inter-Regular-1fc" transform="translate(59.125 0)"/>
     <use xlink:href="#Inter-Regular-2e2" transform="translate(115.28125 0)"/>
     <use xlink:href="#Inter-Regular-288" transform="translate(139.5 0)"/>
     <use xlink:href="#Inter-Regular-6eb" transform="translate(176.515625 0)"/>
     <use xlink:href="#Inter-Regular-37b" transform="translate(204.640625 0)"/>
     <use xlink:href="#Inter-Regular-29f" transform="translate(237.359375 0)"/>
     <use xlink:href="#Inter-Regular-267" transform="translate(296.484375 0)"/>
     <use xlink:href="#Inter-Regular-6eb" transform="translate(354.78125 0)"/>
     <use xlink:href="#Inter-Regular-288" transform="translate(382.90625 0)"/>
     <use xlink:href="#Inter-Regular-2b2" transform="translate(419.921875 0)"/>
     <use xlink:href="#Inter-Regular-307" transform="translate(444.140625 0)"/>
     <use xlink:href="#Inter-Regular-1fc" transform="translate(503.21875 0)"/>
     <use xlink:href="#Inter-Regular-2e2" transform="translate(559.375 0)"/>
     <use xlink:href="#Inter-Regular-6eb" transform="translate(583.59375 0)"/>
     <use xlink:href="#Inter-Regular-300" transform="translate(611.71875 0)"/>
     <use xlink:href="#Inter-Regular-1fc" transform="translate(699.3125 0)"/>
     <use xlink:href="#Inter-Regular-356" transform="translate(755.46875 0)"/>
     <use xlink:href="#Inter-Regular-293" transform="translate(791.453125 0)"/>
     <use xlink:href="#Inter-Regular-2b2" transform="translate(852.78125 0)"/>
     <use xlink:href="#Inter-Regular-307" transform="translate(877 0)"/>
    </g>
   </g>
   <g id="text_17">
    <!-- The margin stays near zero for two-thirds of the network, then forms late -->
    <g style="fill: #e6e8eb" transform="translate(37.446875 18.340625) scale(0.115 -0.115)">
     <defs>
      <path id="Inter-Regular-19c" d="M 306 4131 
L 1772 4131 
L 1772 0 
L 2366 0 
L 2366 4131 
L 3825 4131 
L 3825 4656 
L 306 4656 
L 306 4131 
z
" transform="scale(0.015625)"/>
      <path id="Inter-Regular-3da" d="M 1278 0 
L 1838 0 
L 2291 1581 
C 2403 1972 2513 2409 2619 2853 
C 2725 2406 2831 1981 2947 1581 
L 3400 0 
L 3959 0 
L 5019 3494 
L 4422 3494 
L 3997 1969 
C 3891 1588 3775 1147 3659 613 
C 3550 1153 3438 1597 3338 1969 
L 2925 3494 
L 2325 3494 
L 1906 1969 
C 1800 1581 1688 1134 1575 603 
C 1459 1159 1341 1603 1241 1969 
L 816 3494 
L 219 3494 
L 1278 0 
z
" transform="scale(0.015625)"/>
      <path id="Inter-Regular-5b5" d="M 2494 2247 
L 450 2247 
L 450 1728 
L 2494 1728 
L 2494 2247 
z
" transform="scale(0.015625)"/>
      <path id="Inter-Regular-256" d="M 1803 -75 
C 2469 -75 2703 347 2819 541 
L 2881 541 
L 2881 0 
L 3425 0 
L 3425 4656 
L 2863 4656 
L 2863 2934 
L 2819 2934 
C 2703 3119 2488 3538 1806 3538 
C 934 3538 325 2844 325 1738 
C 325 625 931 -75 1803 -75 
z
M 1888 428 
C 1234 428 897 1009 897 1744 
C 897 2469 1225 3034 1888 3034 
C 2531 3034 2869 2516 2869 1744 
C 2869 966 2522 428 1888 428 
z
" transform="scale(0.015625)"/>
      <path id="Inter-Regular-2d9" d="M 494 0 
L 1056 0 
L 1056 1288 
L 1425 1634 
L 2703 0 
L 3425 0 
L 1853 1994 
L 3316 3494 
L 2619 3494 
L 1125 1953 
L 1056 1953 
L 1056 4656 
L 494 4656 
L 494 0 
z
" transform="scale(0.015625)"/>
      <path id="Inter-Regular-5df" d="M 400 -1122 
L 831 -1122 
L 1319 650 
L 675 650 
L 400 -1122 
z
" transform="scale(0.015625)"/>
     </defs>
     <use xlink:href="#Inter-Regular-19c"/>
     <use xlink:href="#Inter-Regular-29f" transform="translate(64.546875 0)"/>
     <use xlink:href="#Inter-Regular-267" transform="translate(123.671875 0)"/>
     <use xlink:href="#Inter-Regular-6eb" transform="translate(181.96875 0)"/>
     <use xlink:href="#Inter-Regular-300" transform="translate(210.09375 0)"/>
     <use xlink:href="#Inter-Regular-1fc" transform="translate(297.6875 0)"/>
     <use xlink:href="#Inter-Regular-356" transform="translate(353.84375 0)"/>
     <use xlink:href="#Inter-Regular-293" transform="translate(389.828125 0)"/>
     <use xlink:href="#Inter-Regular-2b2" transform="translate(451.15625 0)"/>
     <use xlink:href="#Inter-Regular-307" transform="translate(475.375 0)"/>
     <use xlink:href="#Inter-Regular-6eb" transform="translate(534.453125 0)"/>
     <use xlink:href="#Inter-Regular-369" transform="translate(562.578125 0)"/>
     <use xlink:href="#Inter-Regular-37b" transform="translate(615.359375 0)"/>
     <use xlink:href="#Inter-Regular-1fc" transform="translate(648.5625 0)"/>
     <use xlink:href="#Inter-Regular-3e8" transform="translate(703.25 0)"/>
     <use xlink:href="#Inter-Regular-369" transform="translate(759.453125 0)"/>
     <use xlink:href="#Inter-Regular-6eb" transform="translate(812.234375 0)"/>
     <use xlink:href="#Inter-Regular-307" transform="translate(840.359375 0)"/>
     <use xlink:href="#Inter-Regular-267" transform="translate(899.4375 0)"/>
     <use xlink:href="#Inter-Regular-1fc" transform="translate(958.71875 0)"/>
     <use xlink:href="#Inter-Regular-356" transform="translate(1014.875 0)"/>
     <use xlink:href="#Inter-Regular-6eb" transform="translate(1052.515625 0)"/>
     <use xlink:href="#Inter-Regular-400" transform="translate(1080.640625 0)"/>
     <use xlink:href="#Inter-Regular-267" transform="translate(1134.390625 0)"/>
     <use xlink:href="#Inter-Regular-356" transform="translate(1192.6875 0)"/>
     <use xlink:href="#Inter-Regular-318" transform="translate(1228.671875 0)"/>
     <use xlink:href="#Inter-Regular-6eb" transform="translate(1288.640625 0)"/>
     <use xlink:href="#Inter-Regular-288" transform="translate(1316.765625 0)"/>
     <use xlink:href="#Inter-Regular-318" transform="translate(1350.859375 0)"/>
     <use xlink:href="#Inter-Regular-356" transform="translate(1410.828125 0)"/>
     <use xlink:href="#Inter-Regular-6eb" transform="translate(1448.46875 0)"/>
     <use xlink:href="#Inter-Regular-37b" transform="translate(1476.59375 0)"/>
     <use xlink:href="#Inter-Regular-3da" transform="translate(1510.78125 0)"/>
     <use xlink:href="#Inter-Regular-318" transform="translate(1590.8125 0)"/>
     <use xlink:href="#Inter-Regular-5b5" transform="translate(1650.78125 0)"/>
     <use xlink:href="#Inter-Regular-37b" transform="translate(1696.78125 0)"/>
     <use xlink:href="#Inter-Regular-29f" transform="translate(1729.5 0)"/>
     <use xlink:href="#Inter-Regular-2b2" transform="translate(1788.625 0)"/>
     <use xlink:href="#Inter-Regular-356" transform="translate(1812.84375 0)"/>
     <use xlink:href="#Inter-Regular-256" transform="translate(1848.828125 0)"/>
     <use xlink:href="#Inter-Regular-369" transform="translate(1910.0625 0)"/>
     <use xlink:href="#Inter-Regular-6eb" transform="translate(1962.84375 0)"/>
     <use xlink:href="#Inter-Regular-318" transform="translate(1990.96875 0)"/>
     <use xlink:href="#Inter-Regular-288" transform="translate(2050.9375 0)"/>
     <use xlink:href="#Inter-Regular-6eb" transform="translate(2087.953125 0)"/>
     <use xlink:href="#Inter-Regular-37b" transform="translate(2116.078125 0)"/>
     <use xlink:href="#Inter-Regular-29f" transform="translate(2148.796875 0)"/>
     <use xlink:href="#Inter-Regular-267" transform="translate(2207.921875 0)"/>
     <use xlink:href="#Inter-Regular-6eb" transform="translate(2266.21875 0)"/>
     <use xlink:href="#Inter-Regular-307" transform="translate(2294.34375 0)"/>
     <use xlink:href="#Inter-Regular-267" transform="translate(2353.421875 0)"/>
     <use xlink:href="#Inter-Regular-37b" transform="translate(2411.71875 0)"/>
     <use xlink:href="#Inter-Regular-3da" transform="translate(2445.90625 0)"/>
     <use xlink:href="#Inter-Regular-318" transform="translate(2525.9375 0)"/>
     <use xlink:href="#Inter-Regular-356" transform="translate(2585.90625 0)"/>
     <use xlink:href="#Inter-Regular-2d9" transform="translate(2625.109375 0)"/>
     <use xlink:href="#Inter-Regular-5df" transform="translate(2680 0)"/>
     <use xlink:href="#Inter-Regular-6eb" transform="translate(2708.8125 0)"/>
     <use xlink:href="#Inter-Regular-37b" transform="translate(2736.9375 0)"/>
     <use xlink:href="#Inter-Regular-29f" transform="translate(2769.65625 0)"/>
     <use xlink:href="#Inter-Regular-267" transform="translate(2828.78125 0)"/>
     <use xlink:href="#Inter-Regular-307" transform="translate(2887.078125 0)"/>
     <use xlink:href="#Inter-Regular-6eb" transform="translate(2946.15625 0)"/>
     <use xlink:href="#Inter-Regular-288" transform="translate(2974.28125 0)"/>
     <use xlink:href="#Inter-Regular-318" transform="translate(3008.375 0)"/>
     <use xlink:href="#Inter-Regular-356" transform="translate(3068.34375 0)"/>
     <use xlink:href="#Inter-Regular-300" transform="translate(3107.546875 0)"/>
     <use xlink:href="#Inter-Regular-369" transform="translate(3195.140625 0)"/>
     <use xlink:href="#Inter-Regular-6eb" transform="translate(3247.921875 0)"/>
     <use xlink:href="#Inter-Regular-2e2" transform="translate(3276.046875 0)"/>
     <use xlink:href="#Inter-Regular-1fc" transform="translate(3300.265625 0)"/>
     <use xlink:href="#Inter-Regular-37b" transform="translate(3356.421875 0)"/>
     <use xlink:href="#Inter-Regular-267" transform="translate(3388.171875 0)"/>
    </g>
   </g>
   <g id="PathCollection_1">
    <defs>
     <path id="m3c2fa02509" d="M 0 1.936492 
C 0.513564 1.936492 1.006162 1.732451 1.369306 1.369306 
C 1.732451 1.006162 1.936492 0.513564 1.936492 0 
C 1.936492 -0.513564 1.732451 -1.006162 1.369306 -1.369306 
C 1.006162 -1.732451 0.513564 -1.936492 0 -1.936492 
C -0.513564 -1.936492 -1.006162 -1.732451 -1.369306 -1.369306 
C -1.732451 -1.006162 -1.936492 -0.513564 -1.936492 0 
C -1.936492 0.513564 -1.732451 1.006162 -1.369306 1.369306 
C -1.006162 1.732451 -0.513564 1.936492 0 1.936492 
z
" style="stroke: #1d1e22; stroke-width: 0.4"/>
    </defs>
    <g clip-path="url(#pf87697f9ca)">
     <use xlink:href="#m3c2fa02509" x="59.284716" y="238.394451" style="fill: #5598e7; stroke: #1d1e22; stroke-width: 0.4"/>
     <use xlink:href="#m3c2fa02509" x="72.933366" y="239.066907" style="fill: #5598e7; stroke: #1d1e22; stroke-width: 0.4"/>
     <use xlink:href="#m3c2fa02509" x="86.582017" y="238.196049" style="fill: #5598e7; stroke: #1d1e22; stroke-width: 0.4"/>
     <use xlink:href="#m3c2fa02509" x="100.230668" y="240.039884" style="fill: #5598e7; stroke: #1d1e22; stroke-width: 0.4"/>
     <use xlink:href="#m3c2fa02509" x="113.879318" y="239.177" style="fill: #5598e7; stroke: #1d1e22; stroke-width: 0.4"/>
     <use xlink:href="#m3c2fa02509" x="127.527969" y="239.692218" style="fill: #5598e7; stroke: #1d1e22; stroke-width: 0.4"/>
     <use xlink:href="#m3c2fa02509" x="141.176619" y="239.298734" style="fill: #5598e7; stroke: #1d1e22; stroke-width: 0.4"/>
     <use xlink:href="#m3c2fa02509" x="154.82527" y="242.025675" style="fill: #5598e7; stroke: #1d1e22; stroke-width: 0.4"/>
     <use xlink:href="#m3c2fa02509" x="168.47392" y="241.694154" style="fill: #5598e7; stroke: #1d1e22; stroke-width: 0.4"/>
     <use xlink:href="#m3c2fa02509" x="182.122571" y="240.258777" style="fill: #5598e7; stroke: #1d1e22; stroke-width: 0.4"/>
     <use xlink:href="#m3c2fa02509" x="195.771222" y="241.559432" style="fill: #5598e7; stroke: #1d1e22; stroke-width: 0.4"/>
     <use xlink:href="#m3c2fa02509" x="209.419872" y="238.900726" style="fill: #5598e7; stroke: #1d1e22; stroke-width: 0.4"/>
     <use xlink:href="#m3c2fa02509" x="223.068523" y="233.875186" style="fill: #5598e7; stroke: #1d1e22; stroke-width: 0.4"/>
     <use xlink:href="#m3c2fa02509" x="236.717173" y="237.602592" style="fill: #5598e7; stroke: #1d1e22; stroke-width: 0.4"/>
     <use xlink:href="#m3c2fa02509" x="250.365824" y="236.689321" style="fill: #5598e7; stroke: #1d1e22; stroke-width: 0.4"/>
     <use xlink:href="#m3c2fa02509" x="264.014474" y="239.438798" style="fill: #5598e7; stroke: #1d1e22; stroke-width: 0.4"/>
     <use xlink:href="#m3c2fa02509" x="277.663125" y="238.660999" style="fill: #5598e7; stroke: #1d1e22; stroke-width: 0.4"/>
     <use xlink:href="#m3c2fa02509" x="291.311776" y="238.161734" style="fill: #5598e7; stroke: #1d1e22; stroke-width: 0.4"/>
     <use xlink:href="#m3c2fa02509" x="304.960426" y="233.442429" style="fill: #5598e7; stroke: #1d1e22; stroke-width: 0.4"/>
     <use xlink:href="#m3c2fa02509" x="318.609077" y="242.416229" style="fill: #5598e7; stroke: #1d1e22; stroke-width: 0.4"/>
     <use xlink:href="#m3c2fa02509" x="332.257727" y="235.461387" style="fill: #5598e7; stroke: #1d1e22; stroke-width: 0.4"/>
     <use xlink:href="#m3c2fa02509" x="345.906378" y="239.026072" style="fill: #5598e7; stroke: #1d1e22; stroke-width: 0.4"/>
     <use xlink:href="#m3c2fa02509" x="359.555028" y="232.007061" style="fill: #5598e7; stroke: #1d1e22; stroke-width: 0.4"/>
     <use xlink:href="#m3c2fa02509" x="373.203679" y="224.938184" style="fill: #5598e7; stroke: #1d1e22; stroke-width: 0.4"/>
     <use xlink:href="#m3c2fa02509" x="386.85233" y="220.047085" style="fill: #5598e7; stroke: #1d1e22; stroke-width: 0.4"/>
     <use xlink:href="#m3c2fa02509" x="400.50098" y="212.948473" style="fill: #5598e7; stroke: #1d1e22; stroke-width: 0.4"/>
     <use xlink:href="#m3c2fa02509" x="414.149631" y="210.172254" style="fill: #5598e7; stroke: #1d1e22; stroke-width: 0.4"/>
     <use xlink:href="#m3c2fa02509" x="427.798281" y="193.484417" style="fill: #5598e7; stroke: #1d1e22; stroke-width: 0.4"/>
     <use xlink:href="#m3c2fa02509" x="441.446932" y="240.578982" style="fill: #5598e7; stroke: #1d1e22; stroke-width: 0.4"/>
     <use xlink:href="#m3c2fa02509" x="455.095582" y="182.266947" style="fill: #5598e7; stroke: #1d1e22; stroke-width: 0.4"/>
     <use xlink:href="#m3c2fa02509" x="468.744233" y="151.290254" style="fill: #5598e7; stroke: #1d1e22; stroke-width: 0.4"/>
     <use xlink:href="#m3c2fa02509" x="482.392884" y="114.455377" style="fill: #5598e7; stroke: #1d1e22; stroke-width: 0.4"/>
     <use xlink:href="#m3c2fa02509" x="496.041534" y="34.725178" style="fill: #5598e7; stroke: #1d1e22; stroke-width: 0.4"/>
    </g>
   </g>
  </g>
 </g>
 <defs>
  <clipPath id="pf87697f9ca">
   <rect x="37.446875" y="24.340625" width="480.4325" height="228.460156"/>
  </clipPath>
 </defs>
</svg>
