<?xml version="1.0" encoding="utf-8" standalone="no"?>
<!DOCTYPE svg PUBLIC "-//W3C//DTD SVG 1.1//EN"
  "http://www.w3.org/Graphics/SVG/1.1/DTD/svg11.dtd">
<svg xmlns:xlink="http://www.w3.org/1999/xlink" width="451.32214pt" height="275.942805pt" viewBox="0 0 451.32214 275.942805" xmlns="http://www.w3.org/2000/svg" version="1.1">
 <metadata>
  <rdf:RDF xmlns:dc="http://purl.org/dc/elements/1.1/" xmlns:cc="http://creativecommons.org/ns#" xmlns:rdf="http://www.w3.org/1999/02/22-rdf-syntax-ns#">
   <cc:Work>
    <dc:type rdf:resource="http://purl.org/dc/dcmitype/StillImage"/>
    <dc:date>2026-07-08T08:47:09.450779</dc:date>
    <dc:format>image/svg+xml</dc:format>
    <dc:creator>
     <cc:Agent>
      <dc:title>Matplotlib v3.6.3, https://matplotlib.org/</dc:title>
     </cc:Agent>
    </dc:creator>
   </cc:Work>
  </rdf:RDF>
 </metadata>
 <defs>
  <style type="text/css">*{stroke-linejoin: round; stroke-linecap: butt}</style>
 </defs>
 <g id="figure_1">
  <g id="patch_1">
   <path d="M 0 275.942805 
L 451.32214 275.942805 
L 451.32214 0 
L 0 0 
z
" style="fill: #ffffff"/>
  </g>
  <g id="axes_1">
   <g id="patch_2">
    <path d="M 57.54625 236.45093 
L 435.450147 236.45093 
L 435.450147 21.938203 
L 57.54625 21.938203 
z
" style="fill: #ffffff"/>
   </g>
   <g id="patch_3">
    <path d="M 57.54625 226.700352 
L 131.831998 226.700352 
L 131.831998 213.37658 
L 57.54625 213.37658 
z
" clip-path="url(#p4cdb58dc86)" style="fill: #eb6834"/>
   </g>
   <g id="patch_4">
    <path d="M 57.54625 206.512819 
L 133.572632 206.512819 
L 133.572632 193.189047 
L 57.54625 193.189047 
z
" clip-path="url(#p4cdb58dc86)" style="fill: #eb6834"/>
   </g>
   <g id="patch_5">
    <path d="M 57.54625 186.325286 
L 160.486944 186.325286 
L 160.486944 173.001514 
L 57.54625 173.001514 
z
" clip-path="url(#p4cdb58dc86)" style="fill: #eb6834"/>
   </g>
   <g id="patch_6">
    <path d="M 57.54625 166.137752 
L 169.264978 166.137752 
L 169.264978 152.813981 
L 57.54625 152.813981 
z
" clip-path="url(#p4cdb58dc86)" style="fill: #eb6834"/>
   </g>
   <g id="patch_7">
    <path d="M 57.54625 145.950219 
L 170.4254 145.950219 
L 170.4254 132.626447 
L 57.54625 132.626447 
z
" clip-path="url(#p4cdb58dc86)" style="fill: #eb6834"/>
   </g>
   <g id="patch_8">
    <path d="M 57.54625 125.762686 
L 179.783645 125.762686 
L 179.783645 112.438914 
L 57.54625 112.438914 
z
" clip-path="url(#p4cdb58dc86)" style="fill: #eb6834"/>
   </g>
   <g id="patch_9">
    <path d="M 57.54625 105.575153 
L 212.537502 105.575153 
L 212.537502 92.251381 
L 57.54625 92.251381 
z
" clip-path="url(#p4cdb58dc86)" style="fill: #eb6834"/>
   </g>
   <g id="patch_10">
    <path d="M 57.54625 85.38762 
L 221.895747 85.38762 
L 221.895747 72.063848 
L 57.54625 72.063848 
z
" clip-path="url(#p4cdb58dc86)" style="fill: #eb6834"/>
   </g>
   <g id="patch_11">
    <path d="M 57.54625 65.200087 
L 350.571614 65.200087 
L 350.571614 51.876315 
L 57.54625 51.876315 
z
" clip-path="url(#p4cdb58dc86)" style="fill: #eb6834"/>
   </g>
   <g id="patch_12">
    <path d="M 57.54625 45.012554 
L 383.325471 45.012554 
L 383.325471 31.688782 
L 57.54625 31.688782 
z
" clip-path="url(#p4cdb58dc86)" style="fill: #eb6834"/>
   </g>
   <g id="matplotlib.axis_1">
    <g id="xtick_1">
     <g id="line2d_1">
      <path d="M 57.54625 236.45093 
L 57.54625 21.938203 
" clip-path="url(#p4cdb58dc86)" style="fill: none; stroke: #e1e0d9; stroke-opacity: 0.6; stroke-width: 0.8; stroke-linecap: square"/>
     </g>
     <g id="line2d_2">
      <defs>
       <path id="m48ea7b1a78" d="M 0 0 
L 0 3.5 
" style="stroke: #898781; stroke-width: 0.8"/>
      </defs>
      <g>
       <use xlink:href="#m48ea7b1a78" x="57.54625" y="236.45093" style="fill: #898781; stroke: #898781; stroke-width: 0.8"/>
      </g>
     </g>
     <g id="text_1">
      <!-- 0.0 -->
      <g style="fill: #898781" transform="translate(48.799531 251.809212) scale(0.11 -0.11)">
       <defs>
        <path id="DejaVuSans-30" d="M 2034 4250 
Q 1547 4250 1301 3770 
Q 1056 3291 1056 2328 
Q 1056 1369 1301 889 
Q 1547 409 2034 409 
Q 2525 409 2770 889 
Q 3016 1369 3016 2328 
Q 3016 3291 2770 3770 
Q 2525 4250 2034 4250 
z
M 2034 4750 
Q 2819 4750 3233 4129 
Q 3647 3509 3647 2328 
Q 3647 1150 3233 529 
Q 2819 -91 2034 -91 
Q 1250 -91 836 529 
Q 422 1150 422 2328 
Q 422 3509 836 4129 
Q 1250 4750 2034 4750 
z
" transform="scale(0.015625)"/>
        <path id="DejaVuSans-2e" d="M 684 794 
L 1344 794 
L 1344 0 
L 684 0 
L 684 794 
z
" transform="scale(0.015625)"/>
       </defs>
       <use xlink:href="#DejaVuSans-30"/>
       <use xlink:href="#DejaVuSans-2e" x="63.623047"/>
       <use xlink:href="#DejaVuSans-30" x="95.410156"/>
      </g>
     </g>
    </g>
    <g id="xtick_2">
     <g id="line2d_3">
      <path d="M 104.337474 236.45093 
L 104.337474 21.938203 
" clip-path="url(#p4cdb58dc86)" style="fill: none; stroke: #e1e0d9; stroke-opacity: 0.6; stroke-width: 0.8; stroke-linecap: square"/>
     </g>
     <g id="line2d_4">
      <g>
       <use xlink:href="#m48ea7b1a78" x="104.337474" y="236.45093" style="fill: #898781; stroke: #898781; stroke-width: 0.8"/>
      </g>
     </g>
     <g id="text_2">
      <!-- 2.5 -->
      <g style="fill: #898781" transform="translate(95.590756 251.809212) scale(0.11 -0.11)">
       <defs>
        <path id="DejaVuSans-32" d="M 1228 531 
L 3431 531 
L 3431 0 
L 469 0 
L 469 531 
Q 828 903 1448 1529 
Q 2069 2156 2228 2338 
Q 2531 2678 2651 2914 
Q 2772 3150 2772 3378 
Q 2772 3750 2511 3984 
Q 2250 4219 1831 4219 
Q 1534 4219 1204 4116 
Q 875 4013 500 3803 
L 500 4441 
Q 881 4594 1212 4672 
Q 1544 4750 1819 4750 
Q 2544 4750 2975 4387 
Q 3406 4025 3406 3419 
Q 3406 3131 3298 2873 
Q 3191 2616 2906 2266 
Q 2828 2175 2409 1742 
Q 1991 1309 1228 531 
z
" transform="scale(0.015625)"/>
        <path id="DejaVuSans-35" d="M 691 4666 
L 3169 4666 
L 3169 4134 
L 1269 4134 
L 1269 2991 
Q 1406 3038 1543 3061 
Q 1681 3084 1819 3084 
Q 2600 3084 3056 2656 
Q 3513 2228 3513 1497 
Q 3513 744 3044 326 
Q 2575 -91 1722 -91 
Q 1428 -91 1123 -41 
Q 819 9 494 109 
L 494 744 
Q 775 591 1075 516 
Q 1375 441 1709 441 
Q 2250 441 2565 725 
Q 2881 1009 2881 1497 
Q 2881 1984 2565 2268 
Q 2250 2553 1709 2553 
Q 1456 2553 1204 2497 
Q 953 2441 691 2322 
L 691 4666 
z
" transform="scale(0.015625)"/>
       </defs>
       <use xlink:href="#DejaVuSans-32"/>
       <use xlink:href="#DejaVuSans-2e" x="63.623047"/>
       <use xlink:href="#DejaVuSans-35" x="95.410156"/>
      </g>
     </g>
    </g>
    <g id="xtick_3">
     <g id="line2d_5">
      <path d="M 151.128699 236.45093 
L 151.128699 21.938203 
" clip-path="url(#p4cdb58dc86)" style="fill: none; stroke: #e1e0d9; stroke-opacity: 0.6; stroke-width: 0.8; stroke-linecap: square"/>
     </g>
     <g id="line2d_6">
      <g>
       <use xlink:href="#m48ea7b1a78" x="151.128699" y="236.45093" style="fill: #898781; stroke: #898781; stroke-width: 0.8"/>
      </g>
     </g>
     <g id="text_3">
      <!-- 5.0 -->
      <g style="fill: #898781" transform="translate(142.38198 251.809212) scale(0.11 -0.11)">
       <use xlink:href="#DejaVuSans-35"/>
       <use xlink:href="#DejaVuSans-2e" x="63.623047"/>
       <use xlink:href="#DejaVuSans-30" x="95.410156"/>
      </g>
     </g>
    </g>
    <g id="xtick_4">
     <g id="line2d_7">
      <path d="M 197.919923 236.45093 
L 197.919923 21.938203 
" clip-path="url(#p4cdb58dc86)" style="fill: none; stroke: #e1e0d9; stroke-opacity: 0.6; stroke-width: 0.8; stroke-linecap: square"/>
     </g>
     <g id="line2d_8">
      <g>
       <use xlink:href="#m48ea7b1a78" x="197.919923" y="236.45093" style="fill: #898781; stroke: #898781; stroke-width: 0.8"/>
      </g>
     </g>
     <g id="text_4">
      <!-- 7.5 -->
      <g style="fill: #898781" transform="translate(189.173205 251.809212) scale(0.11 -0.11)">
       <defs>
        <path id="DejaVuSans-37" d="M 525 4666 
L 3525 4666 
L 3525 4397 
L 1831 0 
L 1172 0 
L 2766 4134 
L 525 4134 
L 525 4666 
z
" transform="scale(0.015625)"/>
       </defs>
       <use xlink:href="#DejaVuSans-37"/>
       <use xlink:href="#DejaVuSans-2e" x="63.623047"/>
       <use xlink:href="#DejaVuSans-35" x="95.410156"/>
      </g>
     </g>
    </g>
    <g id="xtick_5">
     <g id="line2d_9">
      <path d="M 244.711148 236.45093 
L 244.711148 21.938203 
" clip-path="url(#p4cdb58dc86)" style="fill: none; stroke: #e1e0d9; stroke-opacity: 0.6; stroke-width: 0.8; stroke-linecap: square"/>
     </g>
     <g id="line2d_10">
      <g>
       <use xlink:href="#m48ea7b1a78" x="244.711148" y="236.45093" style="fill: #898781; stroke: #898781; stroke-width: 0.8"/>
      </g>
     </g>
     <g id="text_5">
      <!-- 10.0 -->
      <g style="fill: #898781" transform="translate(232.465054 251.809212) scale(0.11 -0.11)">
       <defs>
        <path id="DejaVuSans-31" d="M 794 531 
L 1825 531 
L 1825 4091 
L 703 3866 
L 703 4441 
L 1819 4666 
L 2450 4666 
L 2450 531 
L 3481 531 
L 3481 0 
L 794 0 
L 794 531 
z
" transform="scale(0.015625)"/>
       </defs>
       <use xlink:href="#DejaVuSans-31"/>
       <use xlink:href="#DejaVuSans-30" x="63.623047"/>
       <use xlink:href="#DejaVuSans-2e" x="127.246094"/>
       <use xlink:href="#DejaVuSans-30" x="159.033203"/>
      </g>
     </g>
    </g>
    <g id="xtick_6">
     <g id="line2d_11">
      <path d="M 291.502372 236.45093 
L 291.502372 21.938203 
" clip-path="url(#p4cdb58dc86)" style="fill: none; stroke: #e1e0d9; stroke-opacity: 0.6; stroke-width: 0.8; stroke-linecap: square"/>
     </g>
     <g id="line2d_12">
      <g>
       <use xlink:href="#m48ea7b1a78" x="291.502372" y="236.45093" style="fill: #898781; stroke: #898781; stroke-width: 0.8"/>
      </g>
     </g>
     <g id="text_6">
      <!-- 12.5 -->
      <g style="fill: #898781" transform="translate(279.256279 251.809212) scale(0.11 -0.11)">
       <use xlink:href="#DejaVuSans-31"/>
       <use xlink:href="#DejaVuSans-32" x="63.623047"/>
       <use xlink:href="#DejaVuSans-2e" x="127.246094"/>
       <use xlink:href="#DejaVuSans-35" x="159.033203"/>
      </g>
     </g>
    </g>
    <g id="xtick_7">
     <g id="line2d_13">
      <path d="M 338.293597 236.45093 
L 338.293597 21.938203 
" clip-path="url(#p4cdb58dc86)" style="fill: none; stroke: #e1e0d9; stroke-opacity: 0.6; stroke-width: 0.8; stroke-linecap: square"/>
     </g>
     <g id="line2d_14">
      <g>
       <use xlink:href="#m48ea7b1a78" x="338.293597" y="236.45093" style="fill: #898781; stroke: #898781; stroke-width: 0.8"/>
      </g>
     </g>
     <g id="text_7">
      <!-- 15.0 -->
      <g style="fill: #898781" transform="translate(326.047503 251.809212) scale(0.11 -0.11)">
       <use xlink:href="#DejaVuSans-31"/>
       <use xlink:href="#DejaVuSans-35" x="63.623047"/>
       <use xlink:href="#DejaVuSans-2e" x="127.246094"/>
       <use xlink:href="#DejaVuSans-30" x="159.033203"/>
      </g>
     </g>
    </g>
    <g id="xtick_8">
     <g id="line2d_15">
      <path d="M 385.084821 236.45093 
L 385.084821 21.938203 
" clip-path="url(#p4cdb58dc86)" style="fill: none; stroke: #e1e0d9; stroke-opacity: 0.6; stroke-width: 0.8; stroke-linecap: square"/>
     </g>
     <g id="line2d_16">
      <g>
       <use xlink:href="#m48ea7b1a78" x="385.084821" y="236.45093" style="fill: #898781; stroke: #898781; stroke-width: 0.8"/>
      </g>
     </g>
     <g id="text_8">
      <!-- 17.5 -->
      <g style="fill: #898781" transform="translate(372.838728 251.809212) scale(0.11 -0.11)">
       <use xlink:href="#DejaVuSans-31"/>
       <use xlink:href="#DejaVuSans-37" x="63.623047"/>
       <use xlink:href="#DejaVuSans-2e" x="127.246094"/>
       <use xlink:href="#DejaVuSans-35" x="159.033203"/>
      </g>
     </g>
    </g>
    <g id="xtick_9">
     <g id="line2d_17">
      <path d="M 431.876046 236.45093 
L 431.876046 21.938203 
" clip-path="url(#p4cdb58dc86)" style="fill: none; stroke: #e1e0d9; stroke-opacity: 0.6; stroke-width: 0.8; stroke-linecap: square"/>
     </g>
     <g id="line2d_18">
      <g>
       <use xlink:href="#m48ea7b1a78" x="431.876046" y="236.45093" style="fill: #898781; stroke: #898781; stroke-width: 0.8"/>
      </g>
     </g>
     <g id="text_9">
      <!-- 20.0 -->
      <g style="fill: #898781" transform="translate(419.629952 251.809212) scale(0.11 -0.11)">
       <use xlink:href="#DejaVuSans-32"/>
       <use xlink:href="#DejaVuSans-30" x="63.623047"/>
       <use xlink:href="#DejaVuSans-2e" x="127.246094"/>
       <use xlink:href="#DejaVuSans-30" x="159.033203"/>
      </g>
     </g>
    </g>
    <g id="text_10">
     <!-- patch effect on the margin -->
     <g style="fill: #52514e" transform="translate(172.882417 266.455149) scale(0.11 -0.11)">
      <defs>
       <path id="DejaVuSans-70" d="M 1159 525 
L 1159 -1331 
L 581 -1331 
L 581 3500 
L 1159 3500 
L 1159 2969 
Q 1341 3281 1617 3432 
Q 1894 3584 2278 3584 
Q 2916 3584 3314 3078 
Q 3713 2572 3713 1747 
Q 3713 922 3314 415 
Q 2916 -91 2278 -91 
Q 1894 -91 1617 61 
Q 1341 213 1159 525 
z
M 3116 1747 
Q 3116 2381 2855 2742 
Q 2594 3103 2138 3103 
Q 1681 3103 1420 2742 
Q 1159 2381 1159 1747 
Q 1159 1113 1420 752 
Q 1681 391 2138 391 
Q 2594 391 2855 752 
Q 3116 1113 3116 1747 
z
" transform="scale(0.015625)"/>
       <path id="DejaVuSans-61" d="M 2194 1759 
Q 1497 1759 1228 1600 
Q 959 1441 959 1056 
Q 959 750 1161 570 
Q 1363 391 1709 391 
Q 2188 391 2477 730 
Q 2766 1069 2766 1631 
L 2766 1759 
L 2194 1759 
z
M 3341 1997 
L 3341 0 
L 2766 0 
L 2766 531 
Q 2569 213 2275 61 
Q 1981 -91 1556 -91 
Q 1019 -91 701 211 
Q 384 513 384 1019 
Q 384 1609 779 1909 
Q 1175 2209 1959 2209 
L 2766 2209 
L 2766 2266 
Q 2766 2663 2505 2880 
Q 2244 3097 1772 3097 
Q 1472 3097 1187 3025 
Q 903 2953 641 2809 
L 641 3341 
Q 956 3463 1253 3523 
Q 1550 3584 1831 3584 
Q 2591 3584 2966 3190 
Q 3341 2797 3341 1997 
z
" transform="scale(0.015625)"/>
       <path id="DejaVuSans-74" d="M 1172 4494 
L 1172 3500 
L 2356 3500 
L 2356 3053 
L 1172 3053 
L 1172 1153 
Q 1172 725 1289 603 
Q 1406 481 1766 481 
L 2356 481 
L 2356 0 
L 1766 0 
Q 1100 0 847 248 
Q 594 497 594 1153 
L 594 3053 
L 172 3053 
L 172 3500 
L 594 3500 
L 594 4494 
L 1172 4494 
z
" transform="scale(0.015625)"/>
       <path id="DejaVuSans-63" d="M 3122 3366 
L 3122 2828 
Q 2878 2963 2633 3030 
Q 2388 3097 2138 3097 
Q 1578 3097 1268 2742 
Q 959 2388 959 1747 
Q 959 1106 1268 751 
Q 1578 397 2138 397 
Q 2388 397 2633 464 
Q 2878 531 3122 666 
L 3122 134 
Q 2881 22 2623 -34 
Q 2366 -91 2075 -91 
Q 1284 -91 818 406 
Q 353 903 353 1747 
Q 353 2603 823 3093 
Q 1294 3584 2113 3584 
Q 2378 3584 2631 3529 
Q 2884 3475 3122 3366 
z
" transform="scale(0.015625)"/>
       <path id="DejaVuSans-68" d="M 3513 2113 
L 3513 0 
L 2938 0 
L 2938 2094 
Q 2938 2591 2744 2837 
Q 2550 3084 2163 3084 
Q 1697 3084 1428 2787 
Q 1159 2491 1159 1978 
L 1159 0 
L 581 0 
L 581 4863 
L 1159 4863 
L 1159 2956 
Q 1366 3272 1645 3428 
Q 1925 3584 2291 3584 
Q 2894 3584 3203 3211 
Q 3513 2838 3513 2113 
z
" transform="scale(0.015625)"/>
       <path id="DejaVuSans-20" transform="scale(0.015625)"/>
       <path id="DejaVuSans-65" d="M 3597 1894 
L 3597 1613 
L 953 1613 
Q 991 1019 1311 708 
Q 1631 397 2203 397 
Q 2534 397 2845 478 
Q 3156 559 3463 722 
L 3463 178 
Q 3153 47 2828 -22 
Q 2503 -91 2169 -91 
Q 1331 -91 842 396 
Q 353 884 353 1716 
Q 353 2575 817 3079 
Q 1281 3584 2069 3584 
Q 2775 3584 3186 3129 
Q 3597 2675 3597 1894 
z
M 3022 2063 
Q 3016 2534 2758 2815 
Q 2500 3097 2075 3097 
Q 1594 3097 1305 2825 
Q 1016 2553 972 2059 
L 3022 2063 
z
" transform="scale(0.015625)"/>
       <path id="DejaVuSans-66" d="M 2375 4863 
L 2375 4384 
L 1825 4384 
Q 1516 4384 1395 4259 
Q 1275 4134 1275 3809 
L 1275 3500 
L 2222 3500 
L 2222 3053 
L 1275 3053 
L 1275 0 
L 697 0 
L 697 3053 
L 147 3053 
L 147 3500 
L 697 3500 
L 697 3744 
Q 697 4328 969 4595 
Q 1241 4863 1831 4863 
L 2375 4863 
z
" transform="scale(0.015625)"/>
       <path id="DejaVuSans-6f" d="M 1959 3097 
Q 1497 3097 1228 2736 
Q 959 2375 959 1747 
Q 959 1119 1226 758 
Q 1494 397 1959 397 
Q 2419 397 2687 759 
Q 2956 1122 2956 1747 
Q 2956 2369 2687 2733 
Q 2419 3097 1959 3097 
z
M 1959 3584 
Q 2709 3584 3137 3096 
Q 3566 2609 3566 1747 
Q 3566 888 3137 398 
Q 2709 -91 1959 -91 
Q 1206 -91 779 398 
Q 353 888 353 1747 
Q 353 2609 779 3096 
Q 1206 3584 1959 3584 
z
" transform="scale(0.015625)"/>
       <path id="DejaVuSans-6e" d="M 3513 2113 
L 3513 0 
L 2938 0 
L 2938 2094 
Q 2938 2591 2744 2837 
Q 2550 3084 2163 3084 
Q 1697 3084 1428 2787 
Q 1159 2491 1159 1978 
L 1159 0 
L 581 0 
L 581 3500 
L 1159 3500 
L 1159 2956 
Q 1366 3272 1645 3428 
Q 1925 3584 2291 3584 
Q 2894 3584 3203 3211 
Q 3513 2838 3513 2113 
z
" transform="scale(0.015625)"/>
       <path id="DejaVuSans-6d" d="M 3328 2828 
Q 3544 3216 3844 3400 
Q 4144 3584 4550 3584 
Q 5097 3584 5394 3201 
Q 5691 2819 5691 2113 
L 5691 0 
L 5113 0 
L 5113 2094 
Q 5113 2597 4934 2840 
Q 4756 3084 4391 3084 
Q 3944 3084 3684 2787 
Q 3425 2491 3425 1978 
L 3425 0 
L 2847 0 
L 2847 2094 
Q 2847 2600 2669 2842 
Q 2491 3084 2119 3084 
Q 1678 3084 1418 2786 
Q 1159 2488 1159 1978 
L 1159 0 
L 581 0 
L 581 3500 
L 1159 3500 
L 1159 2956 
Q 1356 3278 1631 3431 
Q 1906 3584 2284 3584 
Q 2666 3584 2933 3390 
Q 3200 3197 3328 2828 
z
" transform="scale(0.015625)"/>
       <path id="DejaVuSans-72" d="M 2631 2963 
Q 2534 3019 2420 3045 
Q 2306 3072 2169 3072 
Q 1681 3072 1420 2755 
Q 1159 2438 1159 1844 
L 1159 0 
L 581 0 
L 581 3500 
L 1159 3500 
L 1159 2956 
Q 1341 3275 1631 3429 
Q 1922 3584 2338 3584 
Q 2397 3584 2469 3576 
Q 2541 3569 2628 3553 
L 2631 2963 
z
" transform="scale(0.015625)"/>
       <path id="DejaVuSans-67" d="M 2906 1791 
Q 2906 2416 2648 2759 
Q 2391 3103 1925 3103 
Q 1463 3103 1205 2759 
Q 947 2416 947 1791 
Q 947 1169 1205 825 
Q 1463 481 1925 481 
Q 2391 481 2648 825 
Q 2906 1169 2906 1791 
z
M 3481 434 
Q 3481 -459 3084 -895 
Q 2688 -1331 1869 -1331 
Q 1566 -1331 1297 -1286 
Q 1028 -1241 775 -1147 
L 775 -588 
Q 1028 -725 1275 -790 
Q 1522 -856 1778 -856 
Q 2344 -856 2625 -561 
Q 2906 -266 2906 331 
L 2906 616 
Q 2728 306 2450 153 
Q 2172 0 1784 0 
Q 1141 0 747 490 
Q 353 981 353 1791 
Q 353 2603 747 3093 
Q 1141 3584 1784 3584 
Q 2172 3584 2450 3431 
Q 2728 3278 2906 2969 
L 2906 3500 
L 3481 3500 
L 3481 434 
z
" transform="scale(0.015625)"/>
       <path id="DejaVuSans-69" d="M 603 3500 
L 1178 3500 
L 1178 0 
L 603 0 
L 603 3500 
z
M 603 4863 
L 1178 4863 
L 1178 4134 
L 603 4134 
L 603 4863 
z
" transform="scale(0.015625)"/>
      </defs>
      <use xlink:href="#DejaVuSans-70"/>
      <use xlink:href="#DejaVuSans-61" x="63.476562"/>
      <use xlink:href="#DejaVuSans-74" x="124.755859"/>
      <use xlink:href="#DejaVuSans-63" x="163.964844"/>
      <use xlink:href="#DejaVuSans-68" x="218.945312"/>
      <use xlink:href="#DejaVuSans-20" x="282.324219"/>
      <use xlink:href="#DejaVuSans-65" x="314.111328"/>
      <use xlink:href="#DejaVuSans-66" x="375.634766"/>
      <use xlink:href="#DejaVuSans-66" x="410.839844"/>
      <use xlink:href="#DejaVuSans-65" x="446.044922"/>
      <use xlink:href="#DejaVuSans-63" x="507.568359"/>
      <use xlink:href="#DejaVuSans-74" x="562.548828"/>
      <use xlink:href="#DejaVuSans-20" x="601.757812"/>
      <use xlink:href="#DejaVuSans-6f" x="633.544922"/>
      <use xlink:href="#DejaVuSans-6e" x="694.726562"/>
      <use xlink:href="#DejaVuSans-20" x="758.105469"/>
      <use xlink:href="#DejaVuSans-74" x="789.892578"/>
      <use xlink:href="#DejaVuSans-68" x="829.101562"/>
      <use xlink:href="#DejaVuSans-65" x="892.480469"/>
      <use xlink:href="#DejaVuSans-20" x="954.003906"/>
      <use xlink:href="#DejaVuSans-6d" x="985.791016"/>
      <use xlink:href="#DejaVuSans-61" x="1083.203125"/>
      <use xlink:href="#DejaVuSans-72" x="1144.482422"/>
      <use xlink:href="#DejaVuSans-67" x="1183.845703"/>
      <use xlink:href="#DejaVuSans-69" x="1247.322266"/>
      <use xlink:href="#DejaVuSans-6e" x="1275.105469"/>
     </g>
    </g>
   </g>
   <g id="matplotlib.axis_2">
    <g id="ytick_1">
     <g id="line2d_19">
      <defs>
       <path id="md61f800fdc" d="M 0 0 
L -3.5 0 
" style="stroke: #898781; stroke-width: 0.8"/>
      </defs>
      <g>
       <use xlink:href="#md61f800fdc" x="57.54625" y="220.038466" style="fill: #898781; stroke: #898781; stroke-width: 0.8"/>
      </g>
     </g>
     <g id="text_11">
      <!-- attn_L9 -->
      <g style="fill: #898781" transform="translate(12.618281 223.37831) scale(0.09 -0.09)">
       <defs>
        <path id="DejaVuSansMono-61" d="M 2194 1759 
L 2003 1759 
Q 1500 1759 1245 1582 
Q 991 1406 991 1056 
Q 991 741 1181 566 
Q 1372 391 1709 391 
Q 2184 391 2456 720 
Q 2728 1050 2731 1631 
L 2731 1759 
L 2194 1759 
z
M 3309 1997 
L 3309 0 
L 2731 0 
L 2731 519 
Q 2547 206 2267 57 
Q 1988 -91 1588 -91 
Q 1053 -91 734 211 
Q 416 513 416 1019 
Q 416 1603 808 1906 
Q 1200 2209 1959 2209 
L 2731 2209 
L 2731 2300 
Q 2728 2719 2518 2908 
Q 2309 3097 1850 3097 
Q 1556 3097 1256 3012 
Q 956 2928 672 2766 
L 672 3341 
Q 991 3463 1283 3523 
Q 1575 3584 1850 3584 
Q 2284 3584 2592 3456 
Q 2900 3328 3091 3072 
Q 3209 2916 3259 2686 
Q 3309 2456 3309 1997 
z
" transform="scale(0.015625)"/>
        <path id="DejaVuSansMono-74" d="M 1919 4494 
L 1919 3500 
L 3225 3500 
L 3225 3053 
L 1919 3053 
L 1919 1153 
Q 1919 766 2066 612 
Q 2213 459 2578 459 
L 3225 459 
L 3225 0 
L 2522 0 
Q 1875 0 1609 259 
Q 1344 519 1344 1153 
L 1344 3053 
L 409 3053 
L 409 3500 
L 1344 3500 
L 1344 4494 
L 1919 4494 
z
" transform="scale(0.015625)"/>
        <path id="DejaVuSansMono-6e" d="M 3284 2169 
L 3284 0 
L 2706 0 
L 2706 2169 
Q 2706 2641 2540 2862 
Q 2375 3084 2022 3084 
Q 1619 3084 1401 2798 
Q 1184 2513 1184 1978 
L 1184 0 
L 609 0 
L 609 3500 
L 1184 3500 
L 1184 2975 
Q 1338 3275 1600 3429 
Q 1863 3584 2222 3584 
Q 2756 3584 3020 3232 
Q 3284 2881 3284 2169 
z
" transform="scale(0.015625)"/>
        <path id="DejaVuSansMono-5f" d="M 3853 -1259 
L 3853 -1509 
L 0 -1509 
L 0 -1259 
L 3853 -1259 
z
" transform="scale(0.015625)"/>
        <path id="DejaVuSansMono-4c" d="M 672 4666 
L 1306 4666 
L 1306 531 
L 3559 531 
L 3559 0 
L 672 0 
L 672 4666 
z
" transform="scale(0.015625)"/>
        <path id="DejaVuSansMono-39" d="M 1863 2069 
Q 2266 2069 2495 2359 
Q 2725 2650 2725 3163 
Q 2725 3675 2495 3965 
Q 2266 4256 1863 4256 
Q 1444 4256 1231 3979 
Q 1019 3703 1019 3163 
Q 1019 2619 1230 2344 
Q 1441 2069 1863 2069 
z
M 738 97 
L 738 678 
Q 934 563 1156 502 
Q 1378 441 1619 441 
Q 2219 441 2526 892 
Q 2834 1344 2834 2222 
Q 2688 1909 2422 1742 
Q 2156 1575 1813 1575 
Q 1138 1575 767 1990 
Q 397 2406 397 3169 
Q 397 3922 776 4336 
Q 1156 4750 1850 4750 
Q 2663 4750 3041 4165 
Q 3419 3581 3419 2328 
Q 3419 1150 2964 529 
Q 2509 -91 1644 -91 
Q 1416 -91 1184 -42 
Q 953 6 738 97 
z
" transform="scale(0.015625)"/>
       </defs>
       <use xlink:href="#DejaVuSansMono-61"/>
       <use xlink:href="#DejaVuSansMono-74" x="60.205078"/>
       <use xlink:href="#DejaVuSansMono-74" x="120.410156"/>
       <use xlink:href="#DejaVuSansMono-6e" x="180.615234"/>
       <use xlink:href="#DejaVuSansMono-5f" x="240.820312"/>
       <use xlink:href="#DejaVuSansMono-4c" x="301.025391"/>
       <use xlink:href="#DejaVuSansMono-39" x="361.230469"/>
      </g>
     </g>
    </g>
    <g id="ytick_2">
     <g id="line2d_20">
      <g>
       <use xlink:href="#md61f800fdc" x="57.54625" y="199.850933" style="fill: #898781; stroke: #898781; stroke-width: 0.8"/>
      </g>
     </g>
     <g id="text_12">
      <!-- attn_L8 -->
      <g style="fill: #898781" transform="translate(12.618281 203.190777) scale(0.09 -0.09)">
       <defs>
        <path id="DejaVuSansMono-38" d="M 1925 2216 
Q 1503 2216 1273 1980 
Q 1044 1744 1044 1313 
Q 1044 881 1276 642 
Q 1509 403 1925 403 
Q 2350 403 2579 639 
Q 2809 875 2809 1313 
Q 2809 1741 2576 1978 
Q 2344 2216 1925 2216 
z
M 1375 2478 
Q 972 2581 745 2862 
Q 519 3144 519 3541 
Q 519 4097 897 4423 
Q 1275 4750 1925 4750 
Q 2578 4750 2956 4423 
Q 3334 4097 3334 3541 
Q 3334 3144 3107 2862 
Q 2881 2581 2478 2478 
Q 2947 2375 3195 2062 
Q 3444 1750 3444 1253 
Q 3444 622 3041 265 
Q 2638 -91 1925 -91 
Q 1213 -91 811 264 
Q 409 619 409 1247 
Q 409 1747 657 2061 
Q 906 2375 1375 2478 
z
M 1147 3481 
Q 1147 3106 1347 2909 
Q 1547 2713 1925 2713 
Q 2306 2713 2506 2909 
Q 2706 3106 2706 3481 
Q 2706 3863 2507 4063 
Q 2309 4263 1925 4263 
Q 1547 4263 1347 4061 
Q 1147 3859 1147 3481 
z
" transform="scale(0.015625)"/>
       </defs>
       <use xlink:href="#DejaVuSansMono-61"/>
       <use xlink:href="#DejaVuSansMono-74" x="60.205078"/>
       <use xlink:href="#DejaVuSansMono-74" x="120.410156"/>
       <use xlink:href="#DejaVuSansMono-6e" x="180.615234"/>
       <use xlink:href="#DejaVuSansMono-5f" x="240.820312"/>
       <use xlink:href="#DejaVuSansMono-4c" x="301.025391"/>
       <use xlink:href="#DejaVuSansMono-38" x="361.230469"/>
      </g>
     </g>
    </g>
    <g id="ytick_3">
     <g id="line2d_21">
      <g>
       <use xlink:href="#md61f800fdc" x="57.54625" y="179.6634" style="fill: #898781; stroke: #898781; stroke-width: 0.8"/>
      </g>
     </g>
     <g id="text_13">
      <!-- mlp_L10 -->
      <g style="fill: #898781" transform="translate(12.618281 183.106603) scale(0.09 -0.09)">
       <defs>
        <path id="DejaVuSansMono-6d" d="M 2113 3144 
Q 2219 3369 2383 3476 
Q 2547 3584 2778 3584 
Q 3200 3584 3373 3257 
Q 3547 2931 3547 2028 
L 3547 0 
L 3022 0 
L 3022 2003 
Q 3022 2744 2939 2923 
Q 2856 3103 2638 3103 
Q 2388 3103 2295 2911 
Q 2203 2719 2203 2003 
L 2203 0 
L 1678 0 
L 1678 2003 
Q 1678 2753 1589 2928 
Q 1500 3103 1269 3103 
Q 1041 3103 952 2911 
Q 863 2719 863 2003 
L 863 0 
L 341 0 
L 341 3500 
L 863 3500 
L 863 3200 
Q 966 3388 1120 3486 
Q 1275 3584 1472 3584 
Q 1709 3584 1867 3475 
Q 2025 3366 2113 3144 
z
" transform="scale(0.015625)"/>
        <path id="DejaVuSansMono-6c" d="M 1997 1269 
Q 1997 881 2139 684 
Q 2281 488 2559 488 
L 3231 488 
L 3231 0 
L 2503 0 
Q 1988 0 1705 331 
Q 1422 663 1422 1269 
L 1422 4447 
L 500 4447 
L 500 4897 
L 1997 4897 
L 1997 1269 
z
" transform="scale(0.015625)"/>
        <path id="DejaVuSansMono-70" d="M 1172 441 
L 1172 -1331 
L 594 -1331 
L 594 3500 
L 1172 3500 
L 1172 3053 
Q 1316 3313 1555 3448 
Q 1794 3584 2106 3584 
Q 2741 3584 3102 3093 
Q 3463 2603 3463 1734 
Q 3463 881 3100 395 
Q 2738 -91 2106 -91 
Q 1788 -91 1548 45 
Q 1309 181 1172 441 
z
M 2859 1747 
Q 2859 2416 2648 2756 
Q 2438 3097 2022 3097 
Q 1603 3097 1387 2755 
Q 1172 2413 1172 1747 
Q 1172 1084 1387 740 
Q 1603 397 2022 397 
Q 2438 397 2648 737 
Q 2859 1078 2859 1747 
z
" transform="scale(0.015625)"/>
        <path id="DejaVuSansMono-31" d="M 844 531 
L 1825 531 
L 1825 4097 
L 769 3859 
L 769 4434 
L 1819 4666 
L 2450 4666 
L 2450 531 
L 3419 531 
L 3419 0 
L 844 0 
L 844 531 
z
" transform="scale(0.015625)"/>
        <path id="DejaVuSansMono-30" d="M 1509 2344 
Q 1509 2516 1629 2641 
Q 1750 2766 1919 2766 
Q 2094 2766 2219 2641 
Q 2344 2516 2344 2344 
Q 2344 2169 2220 2047 
Q 2097 1925 1919 1925 
Q 1744 1925 1626 2044 
Q 1509 2163 1509 2344 
z
M 1925 4250 
Q 1484 4250 1267 3775 
Q 1050 3300 1050 2328 
Q 1050 1359 1267 884 
Q 1484 409 1925 409 
Q 2369 409 2586 884 
Q 2803 1359 2803 2328 
Q 2803 3300 2586 3775 
Q 2369 4250 1925 4250 
z
M 1925 4750 
Q 2672 4750 3055 4137 
Q 3438 3525 3438 2328 
Q 3438 1134 3055 521 
Q 2672 -91 1925 -91 
Q 1178 -91 797 521 
Q 416 1134 416 2328 
Q 416 3525 797 4137 
Q 1178 4750 1925 4750 
z
" transform="scale(0.015625)"/>
       </defs>
       <use xlink:href="#DejaVuSansMono-6d"/>
       <use xlink:href="#DejaVuSansMono-6c" x="60.205078"/>
       <use xlink:href="#DejaVuSansMono-70" x="120.410156"/>
       <use xlink:href="#DejaVuSansMono-5f" x="180.615234"/>
       <use xlink:href="#DejaVuSansMono-4c" x="240.820312"/>
       <use xlink:href="#DejaVuSansMono-31" x="301.025391"/>
       <use xlink:href="#DejaVuSansMono-30" x="361.230469"/>
      </g>
     </g>
    </g>
    <g id="ytick_4">
     <g id="line2d_22">
      <g>
       <use xlink:href="#md61f800fdc" x="57.54625" y="159.475866" style="fill: #898781; stroke: #898781; stroke-width: 0.8"/>
      </g>
     </g>
     <g id="text_14">
      <!-- attn_L11 -->
      <g style="fill: #898781" transform="translate(7.2 162.793913) scale(0.09 -0.09)">
       <use xlink:href="#DejaVuSansMono-61"/>
       <use xlink:href="#DejaVuSansMono-74" x="60.205078"/>
       <use xlink:href="#DejaVuSansMono-74" x="120.410156"/>
       <use xlink:href="#DejaVuSansMono-6e" x="180.615234"/>
       <use xlink:href="#DejaVuSansMono-5f" x="240.820312"/>
       <use xlink:href="#DejaVuSansMono-4c" x="301.025391"/>
       <use xlink:href="#DejaVuSansMono-31" x="361.230469"/>
       <use xlink:href="#DejaVuSansMono-31" x="421.435547"/>
      </g>
     </g>
    </g>
    <g id="ytick_5">
     <g id="line2d_23">
      <g>
       <use xlink:href="#md61f800fdc" x="57.54625" y="139.288333" style="fill: #898781; stroke: #898781; stroke-width: 0.8"/>
      </g>
     </g>
     <g id="text_15">
      <!-- mlp_L9 -->
      <g style="fill: #898781" transform="translate(18.036563 142.731536) scale(0.09 -0.09)">
       <use xlink:href="#DejaVuSansMono-6d"/>
       <use xlink:href="#DejaVuSansMono-6c" x="60.205078"/>
       <use xlink:href="#DejaVuSansMono-70" x="120.410156"/>
       <use xlink:href="#DejaVuSansMono-5f" x="180.615234"/>
       <use xlink:href="#DejaVuSansMono-4c" x="240.820312"/>
       <use xlink:href="#DejaVuSansMono-39" x="301.025391"/>
      </g>
     </g>
    </g>
    <g id="ytick_6">
     <g id="line2d_24">
      <g>
       <use xlink:href="#md61f800fdc" x="57.54625" y="119.1008" style="fill: #898781; stroke: #898781; stroke-width: 0.8"/>
      </g>
     </g>
     <g id="text_16">
      <!-- mlp_L5 -->
      <g style="fill: #898781" transform="translate(18.036563 122.544003) scale(0.09 -0.09)">
       <defs>
        <path id="DejaVuSansMono-35" d="M 647 4666 
L 3009 4666 
L 3009 4134 
L 1222 4134 
L 1222 2988 
Q 1356 3038 1492 3061 
Q 1628 3084 1766 3084 
Q 2491 3084 2916 2656 
Q 3341 2228 3341 1497 
Q 3341 759 2895 334 
Q 2450 -91 1678 -91 
Q 1306 -91 998 -41 
Q 691 9 447 109 
L 447 750 
Q 734 594 1025 517 
Q 1316 441 1619 441 
Q 2141 441 2423 716 
Q 2706 991 2706 1497 
Q 2706 1997 2414 2275 
Q 2122 2553 1600 2553 
Q 1347 2553 1106 2495 
Q 866 2438 647 2322 
L 647 4666 
z
" transform="scale(0.015625)"/>
       </defs>
       <use xlink:href="#DejaVuSansMono-6d"/>
       <use xlink:href="#DejaVuSansMono-6c" x="60.205078"/>
       <use xlink:href="#DejaVuSansMono-70" x="120.410156"/>
       <use xlink:href="#DejaVuSansMono-5f" x="180.615234"/>
       <use xlink:href="#DejaVuSansMono-4c" x="240.820312"/>
       <use xlink:href="#DejaVuSansMono-35" x="301.025391"/>
      </g>
     </g>
    </g>
    <g id="ytick_7">
     <g id="line2d_25">
      <g>
       <use xlink:href="#md61f800fdc" x="57.54625" y="98.913267" style="fill: #898781; stroke: #898781; stroke-width: 0.8"/>
      </g>
     </g>
     <g id="text_17">
      <!-- mlp_L7 -->
      <g style="fill: #898781" transform="translate(18.036563 102.35647) scale(0.09 -0.09)">
       <defs>
        <path id="DejaVuSansMono-37" d="M 434 4666 
L 3372 4666 
L 3372 4397 
L 1703 0 
L 1044 0 
L 2669 4134 
L 434 4134 
L 434 4666 
z
" transform="scale(0.015625)"/>
       </defs>
       <use xlink:href="#DejaVuSansMono-6d"/>
       <use xlink:href="#DejaVuSansMono-6c" x="60.205078"/>
       <use xlink:href="#DejaVuSansMono-70" x="120.410156"/>
       <use xlink:href="#DejaVuSansMono-5f" x="180.615234"/>
       <use xlink:href="#DejaVuSansMono-4c" x="240.820312"/>
       <use xlink:href="#DejaVuSansMono-37" x="301.025391"/>
      </g>
     </g>
    </g>
    <g id="ytick_8">
     <g id="line2d_26">
      <g>
       <use xlink:href="#md61f800fdc" x="57.54625" y="78.725734" style="fill: #898781; stroke: #898781; stroke-width: 0.8"/>
      </g>
     </g>
     <g id="text_18">
      <!-- mlp_L4 -->
      <g style="fill: #898781" transform="translate(18.036563 82.168937) scale(0.09 -0.09)">
       <defs>
        <path id="DejaVuSansMono-34" d="M 2297 4091 
L 825 1625 
L 2297 1625 
L 2297 4091 
z
M 2194 4666 
L 2925 4666 
L 2925 1625 
L 3547 1625 
L 3547 1113 
L 2925 1113 
L 2925 0 
L 2297 0 
L 2297 1113 
L 319 1113 
L 319 1709 
L 2194 4666 
z
" transform="scale(0.015625)"/>
       </defs>
       <use xlink:href="#DejaVuSansMono-6d"/>
       <use xlink:href="#DejaVuSansMono-6c" x="60.205078"/>
       <use xlink:href="#DejaVuSansMono-70" x="120.410156"/>
       <use xlink:href="#DejaVuSansMono-5f" x="180.615234"/>
       <use xlink:href="#DejaVuSansMono-4c" x="240.820312"/>
       <use xlink:href="#DejaVuSansMono-34" x="301.025391"/>
      </g>
     </g>
    </g>
    <g id="ytick_9">
     <g id="line2d_27">
      <g>
       <use xlink:href="#md61f800fdc" x="57.54625" y="58.538201" style="fill: #898781; stroke: #898781; stroke-width: 0.8"/>
      </g>
     </g>
     <g id="text_19">
      <!-- mlp_L6 -->
      <g style="fill: #898781" transform="translate(18.036563 61.981404) scale(0.09 -0.09)">
       <defs>
        <path id="DejaVuSansMono-36" d="M 3097 4563 
L 3097 3981 
Q 2900 4097 2678 4158 
Q 2456 4219 2216 4219 
Q 1616 4219 1306 3767 
Q 997 3316 997 2438 
Q 1147 2750 1412 2917 
Q 1678 3084 2022 3084 
Q 2697 3084 3067 2670 
Q 3438 2256 3438 1497 
Q 3438 741 3056 325 
Q 2675 -91 1984 -91 
Q 1172 -91 794 492 
Q 416 1075 416 2328 
Q 416 3509 870 4129 
Q 1325 4750 2188 4750 
Q 2419 4750 2650 4701 
Q 2881 4653 3097 4563 
z
M 1972 2591 
Q 1569 2591 1337 2300 
Q 1106 2009 1106 1497 
Q 1106 984 1337 693 
Q 1569 403 1972 403 
Q 2391 403 2603 679 
Q 2816 956 2816 1497 
Q 2816 2041 2603 2316 
Q 2391 2591 1972 2591 
z
" transform="scale(0.015625)"/>
       </defs>
       <use xlink:href="#DejaVuSansMono-6d"/>
       <use xlink:href="#DejaVuSansMono-6c" x="60.205078"/>
       <use xlink:href="#DejaVuSansMono-70" x="120.410156"/>
       <use xlink:href="#DejaVuSansMono-5f" x="180.615234"/>
       <use xlink:href="#DejaVuSansMono-4c" x="240.820312"/>
       <use xlink:href="#DejaVuSansMono-36" x="301.025391"/>
      </g>
     </g>
    </g>
    <g id="ytick_10">
     <g id="line2d_28">
      <g>
       <use xlink:href="#md61f800fdc" x="57.54625" y="38.350668" style="fill: #898781; stroke: #898781; stroke-width: 0.8"/>
      </g>
     </g>
     <g id="text_20">
      <!-- mlp_L0 -->
      <g style="fill: #898781" transform="translate(18.036563 41.793871) scale(0.09 -0.09)">
       <use xlink:href="#DejaVuSansMono-6d"/>
       <use xlink:href="#DejaVuSansMono-6c" x="60.205078"/>
       <use xlink:href="#DejaVuSansMono-70" x="120.410156"/>
       <use xlink:href="#DejaVuSansMono-5f" x="180.615234"/>
       <use xlink:href="#DejaVuSansMono-4c" x="240.820312"/>
       <use xlink:href="#DejaVuSansMono-30" x="301.025391"/>
      </g>
     </g>
    </g>
   </g>
   <g id="patch_13">
    <path d="M 57.54625 236.45093 
L 57.54625 21.938203 
" style="fill: none; stroke: #c3c2b7; stroke-width: 0.9; stroke-linejoin: miter; stroke-linecap: square"/>
   </g>
   <g id="patch_14">
    <path d="M 57.54625 236.45093 
L 435.450147 236.45093 
" style="fill: none; stroke: #c3c2b7; stroke-width: 0.9; stroke-linejoin: miter; stroke-linecap: square"/>
   </g>
   <g id="text_21">
    <!--   3.97 -->
    <g style="fill: #52514e" transform="translate(131.831998 222.383935) scale(0.085 -0.085)">
     <defs>
      <path id="DejaVuSans-33" d="M 2597 2516 
Q 3050 2419 3304 2112 
Q 3559 1806 3559 1356 
Q 3559 666 3084 287 
Q 2609 -91 1734 -91 
Q 1441 -91 1130 -33 
Q 819 25 488 141 
L 488 750 
Q 750 597 1062 519 
Q 1375 441 1716 441 
Q 2309 441 2620 675 
Q 2931 909 2931 1356 
Q 2931 1769 2642 2001 
Q 2353 2234 1838 2234 
L 1294 2234 
L 1294 2753 
L 1863 2753 
Q 2328 2753 2575 2939 
Q 2822 3125 2822 3475 
Q 2822 3834 2567 4026 
Q 2313 4219 1838 4219 
Q 1578 4219 1281 4162 
Q 984 4106 628 3988 
L 628 4550 
Q 988 4650 1302 4700 
Q 1616 4750 1894 4750 
Q 2613 4750 3031 4423 
Q 3450 4097 3450 3541 
Q 3450 3153 3228 2886 
Q 3006 2619 2597 2516 
z
" transform="scale(0.015625)"/>
      <path id="DejaVuSans-39" d="M 703 97 
L 703 672 
Q 941 559 1184 500 
Q 1428 441 1663 441 
Q 2288 441 2617 861 
Q 2947 1281 2994 2138 
Q 2813 1869 2534 1725 
Q 2256 1581 1919 1581 
Q 1219 1581 811 2004 
Q 403 2428 403 3163 
Q 403 3881 828 4315 
Q 1253 4750 1959 4750 
Q 2769 4750 3195 4129 
Q 3622 3509 3622 2328 
Q 3622 1225 3098 567 
Q 2575 -91 1691 -91 
Q 1453 -91 1209 -44 
Q 966 3 703 97 
z
M 1959 2075 
Q 2384 2075 2632 2365 
Q 2881 2656 2881 3163 
Q 2881 3666 2632 3958 
Q 2384 4250 1959 4250 
Q 1534 4250 1286 3958 
Q 1038 3666 1038 3163 
Q 1038 2656 1286 2365 
Q 1534 2075 1959 2075 
z
" transform="scale(0.015625)"/>
     </defs>
     <use xlink:href="#DejaVuSans-20"/>
     <use xlink:href="#DejaVuSans-20" x="31.787109"/>
     <use xlink:href="#DejaVuSans-33" x="63.574219"/>
     <use xlink:href="#DejaVuSans-2e" x="127.197266"/>
     <use xlink:href="#DejaVuSans-39" x="158.984375"/>
     <use xlink:href="#DejaVuSans-37" x="222.607422"/>
    </g>
   </g>
   <g id="text_22">
    <!--   4.06 -->
    <g style="fill: #52514e" transform="translate(133.572632 202.196402) scale(0.085 -0.085)">
     <defs>
      <path id="DejaVuSans-34" d="M 2419 4116 
L 825 1625 
L 2419 1625 
L 2419 4116 
z
M 2253 4666 
L 3047 4666 
L 3047 1625 
L 3713 1625 
L 3713 1100 
L 3047 1100 
L 3047 0 
L 2419 0 
L 2419 1100 
L 313 1100 
L 313 1709 
L 2253 4666 
z
" transform="scale(0.015625)"/>
      <path id="DejaVuSans-36" d="M 2113 2584 
Q 1688 2584 1439 2293 
Q 1191 2003 1191 1497 
Q 1191 994 1439 701 
Q 1688 409 2113 409 
Q 2538 409 2786 701 
Q 3034 994 3034 1497 
Q 3034 2003 2786 2293 
Q 2538 2584 2113 2584 
z
M 3366 4563 
L 3366 3988 
Q 3128 4100 2886 4159 
Q 2644 4219 2406 4219 
Q 1781 4219 1451 3797 
Q 1122 3375 1075 2522 
Q 1259 2794 1537 2939 
Q 1816 3084 2150 3084 
Q 2853 3084 3261 2657 
Q 3669 2231 3669 1497 
Q 3669 778 3244 343 
Q 2819 -91 2113 -91 
Q 1303 -91 875 529 
Q 447 1150 447 2328 
Q 447 3434 972 4092 
Q 1497 4750 2381 4750 
Q 2619 4750 2861 4703 
Q 3103 4656 3366 4563 
z
" transform="scale(0.015625)"/>
     </defs>
     <use xlink:href="#DejaVuSans-20"/>
     <use xlink:href="#DejaVuSans-20" x="31.787109"/>
     <use xlink:href="#DejaVuSans-34" x="63.574219"/>
     <use xlink:href="#DejaVuSans-2e" x="127.197266"/>
     <use xlink:href="#DejaVuSans-30" x="158.984375"/>
     <use xlink:href="#DejaVuSans-36" x="222.607422"/>
    </g>
   </g>
   <g id="text_23">
    <!--   5.50 -->
    <g style="fill: #52514e" transform="translate(160.486944 182.008868) scale(0.085 -0.085)">
     <use xlink:href="#DejaVuSans-20"/>
     <use xlink:href="#DejaVuSans-20" x="31.787109"/>
     <use xlink:href="#DejaVuSans-35" x="63.574219"/>
     <use xlink:href="#DejaVuSans-2e" x="127.197266"/>
     <use xlink:href="#DejaVuSans-35" x="158.984375"/>
     <use xlink:href="#DejaVuSans-30" x="222.607422"/>
    </g>
   </g>
   <g id="text_24">
    <!--   5.97 -->
    <g style="fill: #52514e" transform="translate(169.264978 161.821335) scale(0.085 -0.085)">
     <use xlink:href="#DejaVuSans-20"/>
     <use xlink:href="#DejaVuSans-20" x="31.787109"/>
     <use xlink:href="#DejaVuSans-35" x="63.574219"/>
     <use xlink:href="#DejaVuSans-2e" x="127.197266"/>
     <use xlink:href="#DejaVuSans-39" x="158.984375"/>
     <use xlink:href="#DejaVuSans-37" x="222.607422"/>
    </g>
   </g>
   <g id="text_25">
    <!--   6.03 -->
    <g style="fill: #52514e" transform="translate(170.4254 141.633802) scale(0.085 -0.085)">
     <use xlink:href="#DejaVuSans-20"/>
     <use xlink:href="#DejaVuSans-20" x="31.787109"/>
     <use xlink:href="#DejaVuSans-36" x="63.574219"/>
     <use xlink:href="#DejaVuSans-2e" x="127.197266"/>
     <use xlink:href="#DejaVuSans-30" x="158.984375"/>
     <use xlink:href="#DejaVuSans-33" x="222.607422"/>
    </g>
   </g>
   <g id="text_26">
    <!--   6.53 -->
    <g style="fill: #52514e" transform="translate(179.783645 121.446269) scale(0.085 -0.085)">
     <use xlink:href="#DejaVuSans-20"/>
     <use xlink:href="#DejaVuSans-20" x="31.787109"/>
     <use xlink:href="#DejaVuSans-36" x="63.574219"/>
     <use xlink:href="#DejaVuSans-2e" x="127.197266"/>
     <use xlink:href="#DejaVuSans-35" x="158.984375"/>
     <use xlink:href="#DejaVuSans-33" x="222.607422"/>
    </g>
   </g>
   <g id="text_27">
    <!--   8.28 -->
    <g style="fill: #52514e" transform="translate(212.537502 101.258736) scale(0.085 -0.085)">
     <defs>
      <path id="DejaVuSans-38" d="M 2034 2216 
Q 1584 2216 1326 1975 
Q 1069 1734 1069 1313 
Q 1069 891 1326 650 
Q 1584 409 2034 409 
Q 2484 409 2743 651 
Q 3003 894 3003 1313 
Q 3003 1734 2745 1975 
Q 2488 2216 2034 2216 
z
M 1403 2484 
Q 997 2584 770 2862 
Q 544 3141 544 3541 
Q 544 4100 942 4425 
Q 1341 4750 2034 4750 
Q 2731 4750 3128 4425 
Q 3525 4100 3525 3541 
Q 3525 3141 3298 2862 
Q 3072 2584 2669 2484 
Q 3125 2378 3379 2068 
Q 3634 1759 3634 1313 
Q 3634 634 3220 271 
Q 2806 -91 2034 -91 
Q 1263 -91 848 271 
Q 434 634 434 1313 
Q 434 1759 690 2068 
Q 947 2378 1403 2484 
z
M 1172 3481 
Q 1172 3119 1398 2916 
Q 1625 2713 2034 2713 
Q 2441 2713 2670 2916 
Q 2900 3119 2900 3481 
Q 2900 3844 2670 4047 
Q 2441 4250 2034 4250 
Q 1625 4250 1398 4047 
Q 1172 3844 1172 3481 
z
" transform="scale(0.015625)"/>
     </defs>
     <use xlink:href="#DejaVuSans-20"/>
     <use xlink:href="#DejaVuSans-20" x="31.787109"/>
     <use xlink:href="#DejaVuSans-38" x="63.574219"/>
     <use xlink:href="#DejaVuSans-2e" x="127.197266"/>
     <use xlink:href="#DejaVuSans-32" x="158.984375"/>
     <use xlink:href="#DejaVuSans-38" x="222.607422"/>
    </g>
   </g>
   <g id="text_28">
    <!--   8.78 -->
    <g style="fill: #52514e" transform="translate(221.895747 81.071203) scale(0.085 -0.085)">
     <use xlink:href="#DejaVuSans-20"/>
     <use xlink:href="#DejaVuSans-20" x="31.787109"/>
     <use xlink:href="#DejaVuSans-38" x="63.574219"/>
     <use xlink:href="#DejaVuSans-2e" x="127.197266"/>
     <use xlink:href="#DejaVuSans-37" x="158.984375"/>
     <use xlink:href="#DejaVuSans-38" x="222.607422"/>
    </g>
   </g>
   <g id="text_29">
    <!--   15.66 -->
    <g style="fill: #52514e" transform="translate(350.571614 60.883669) scale(0.085 -0.085)">
     <use xlink:href="#DejaVuSans-20"/>
     <use xlink:href="#DejaVuSans-20" x="31.787109"/>
     <use xlink:href="#DejaVuSans-31" x="63.574219"/>
     <use xlink:href="#DejaVuSans-35" x="127.197266"/>
     <use xlink:href="#DejaVuSans-2e" x="190.820312"/>
     <use xlink:href="#DejaVuSans-36" x="222.607422"/>
     <use xlink:href="#DejaVuSans-36" x="286.230469"/>
    </g>
   </g>
   <g id="text_30">
    <!--   17.41 -->
    <g style="fill: #52514e" transform="translate(383.325471 40.696136) scale(0.085 -0.085)">
     <use xlink:href="#DejaVuSans-20"/>
     <use xlink:href="#DejaVuSans-20" x="31.787109"/>
     <use xlink:href="#DejaVuSans-31" x="63.574219"/>
     <use xlink:href="#DejaVuSans-37" x="127.197266"/>
     <use xlink:href="#DejaVuSans-2e" x="190.820312"/>
     <use xlink:href="#DejaVuSans-34" x="222.607422"/>
     <use xlink:href="#DejaVuSans-31" x="286.230469"/>
    </g>
   </g>
   <g id="text_31">
    <!-- Patching says the early layers carry the cause -->
    <g style="fill: #0b0b0b" transform="translate(57.54625 15.938203) scale(0.115 -0.115)">
     <defs>
      <path id="DejaVuSans-50" d="M 1259 4147 
L 1259 2394 
L 2053 2394 
Q 2494 2394 2734 2622 
Q 2975 2850 2975 3272 
Q 2975 3691 2734 3919 
Q 2494 4147 2053 4147 
L 1259 4147 
z
M 628 4666 
L 2053 4666 
Q 2838 4666 3239 4311 
Q 3641 3956 3641 3272 
Q 3641 2581 3239 2228 
Q 2838 1875 2053 1875 
L 1259 1875 
L 1259 0 
L 628 0 
L 628 4666 
z
" transform="scale(0.015625)"/>
      <path id="DejaVuSans-73" d="M 2834 3397 
L 2834 2853 
Q 2591 2978 2328 3040 
Q 2066 3103 1784 3103 
Q 1356 3103 1142 2972 
Q 928 2841 928 2578 
Q 928 2378 1081 2264 
Q 1234 2150 1697 2047 
L 1894 2003 
Q 2506 1872 2764 1633 
Q 3022 1394 3022 966 
Q 3022 478 2636 193 
Q 2250 -91 1575 -91 
Q 1294 -91 989 -36 
Q 684 19 347 128 
L 347 722 
Q 666 556 975 473 
Q 1284 391 1588 391 
Q 1994 391 2212 530 
Q 2431 669 2431 922 
Q 2431 1156 2273 1281 
Q 2116 1406 1581 1522 
L 1381 1569 
Q 847 1681 609 1914 
Q 372 2147 372 2553 
Q 372 3047 722 3315 
Q 1072 3584 1716 3584 
Q 2034 3584 2315 3537 
Q 2597 3491 2834 3397 
z
" transform="scale(0.015625)"/>
      <path id="DejaVuSans-79" d="M 2059 -325 
Q 1816 -950 1584 -1140 
Q 1353 -1331 966 -1331 
L 506 -1331 
L 506 -850 
L 844 -850 
Q 1081 -850 1212 -737 
Q 1344 -625 1503 -206 
L 1606 56 
L 191 3500 
L 800 3500 
L 1894 763 
L 2988 3500 
L 3597 3500 
L 2059 -325 
z
" transform="scale(0.015625)"/>
      <path id="DejaVuSans-6c" d="M 603 4863 
L 1178 4863 
L 1178 0 
L 603 0 
L 603 4863 
z
" transform="scale(0.015625)"/>
      <path id="DejaVuSans-75" d="M 544 1381 
L 544 3500 
L 1119 3500 
L 1119 1403 
Q 1119 906 1312 657 
Q 1506 409 1894 409 
Q 2359 409 2629 706 
Q 2900 1003 2900 1516 
L 2900 3500 
L 3475 3500 
L 3475 0 
L 2900 0 
L 2900 538 
Q 2691 219 2414 64 
Q 2138 -91 1772 -91 
Q 1169 -91 856 284 
Q 544 659 544 1381 
z
M 1991 3584 
L 1991 3584 
z
" transform="scale(0.015625)"/>
     </defs>
     <use xlink:href="#DejaVuSans-50"/>
     <use xlink:href="#DejaVuSans-61" x="55.802734"/>
     <use xlink:href="#DejaVuSans-74" x="117.082031"/>
     <use xlink:href="#DejaVuSans-63" x="156.291016"/>
     <use xlink:href="#DejaVuSans-68" x="211.271484"/>
     <use xlink:href="#DejaVuSans-69" x="274.650391"/>
     <use xlink:href="#DejaVuSans-6e" x="302.433594"/>
     <use xlink:href="#DejaVuSans-67" x="365.8125"/>
     <use xlink:href="#DejaVuSans-20" x="429.289062"/>
     <use xlink:href="#DejaVuSans-73" x="461.076172"/>
     <use xlink:href="#DejaVuSans-61" x="513.175781"/>
     <use xlink:href="#DejaVuSans-79" x="574.455078"/>
     <use xlink:href="#DejaVuSans-73" x="633.634766"/>
     <use xlink:href="#DejaVuSans-20" x="685.734375"/>
     <use xlink:href="#DejaVuSans-74" x="717.521484"/>
     <use xlink:href="#DejaVuSans-68" x="756.730469"/>
     <use xlink:href="#DejaVuSans-65" x="820.109375"/>
     <use xlink:href="#DejaVuSans-20" x="881.632812"/>
     <use xlink:href="#DejaVuSans-65" x="913.419922"/>
     <use xlink:href="#DejaVuSans-61" x="974.943359"/>
     <use xlink:href="#DejaVuSans-72" x="1036.222656"/>
     <use xlink:href="#DejaVuSans-6c" x="1077.335938"/>
     <use xlink:href="#DejaVuSans-79" x="1105.119141"/>
     <use xlink:href="#DejaVuSans-20" x="1164.298828"/>
     <use xlink:href="#DejaVuSans-6c" x="1196.085938"/>
     <use xlink:href="#DejaVuSans-61" x="1223.869141"/>
     <use xlink:href="#DejaVuSans-79" x="1285.148438"/>
     <use xlink:href="#DejaVuSans-65" x="1344.328125"/>
     <use xlink:href="#DejaVuSans-72" x="1405.851562"/>
     <use xlink:href="#DejaVuSans-73" x="1446.964844"/>
     <use xlink:href="#DejaVuSans-20" x="1499.064453"/>
     <use xlink:href="#DejaVuSans-63" x="1530.851562"/>
     <use xlink:href="#DejaVuSans-61" x="1585.832031"/>
     <use xlink:href="#DejaVuSans-72" x="1647.111328"/>
     <use xlink:href="#DejaVuSans-72" x="1686.474609"/>
     <use xlink:href="#DejaVuSans-79" x="1727.587891"/>
     <use xlink:href="#DejaVuSans-20" x="1786.767578"/>
     <use xlink:href="#DejaVuSans-74" x="1818.554688"/>
     <use xlink:href="#DejaVuSans-68" x="1857.763672"/>
     <use xlink:href="#DejaVuSans-65" x="1921.142578"/>
     <use xlink:href="#DejaVuSans-20" x="1982.666016"/>
     <use xlink:href="#DejaVuSans-63" x="2014.453125"/>
     <use xlink:href="#DejaVuSans-61" x="2069.433594"/>
     <use xlink:href="#DejaVuSans-75" x="2130.712891"/>
     <use xlink:href="#DejaVuSans-73" x="2194.091797"/>
     <use xlink:href="#DejaVuSans-65" x="2246.191406"/>
    </g>
   </g>
  </g>
 </g>
 <defs>
  <clipPath id="p4cdb58dc86">
   <rect x="57.54625" y="21.938203" width="377.903897" height="214.512727"/>
  </clipPath>
 </defs>
</svg>
