<?xml version="1.0" encoding="utf-8" standalone="no"?>
<!DOCTYPE svg PUBLIC "-//W3C//DTD SVG 1.1//EN"
  "http://www.w3.org/Graphics/SVG/1.1/DTD/svg11.dtd">
<svg xmlns:xlink="http://www.w3.org/1999/xlink" width="450.86625pt" height="280.8pt" viewBox="0 0 450.86625 280.8" xmlns="http://www.w3.org/2000/svg" version="1.1">
 <metadata>
  <rdf:RDF xmlns:dc="http://purl.org/dc/elements/1.1/" xmlns:cc="http://creativecommons.org/ns#" xmlns:rdf="http://www.w3.org/1999/02/22-rdf-syntax-ns#">
   <cc:Work>
    <dc:type rdf:resource="http://purl.org/dc/dcmitype/StillImage"/>
    <dc:date>2026-07-11T15:01:28.881464</dc:date>
    <dc:format>image/svg+xml</dc:format>
    <dc:creator>
     <cc:Agent>
      <dc:title>Matplotlib v3.11.0, https://matplotlib.org/</dc:title>
     </cc:Agent>
    </dc:creator>
   </cc:Work>
  </rdf:RDF>
 </metadata>
 <defs>
  <style type="text/css">*{stroke-linejoin: round; stroke-linecap: butt}</style>
 </defs>
 <g id="figure_1">
  <g id="patch_1">
   <path d="M 0 280.8 
L 450.86625 280.8 
L 450.86625 0 
L 0 0 
L 0 280.8 
z
" style="fill: none"/>
  </g>
  <g id="axes_1">
   <g id="patch_2">
    <path d="M 57.54625 238.400781 
L 443.66625 238.400781 
L 443.66625 24.340625 
L 57.54625 24.340625 
L 57.54625 238.400781 
z
" style="fill: none"/>
   </g>
   <g id="patch_3">
    <path d="M 57.54625 228.670774 
L 122.846146 228.670774 
L 122.846146 215.375112 
L 57.54625 215.375112 
z
" clip-path="url(#pd3546a5f5d)" style="fill: #f59e0b"/>
   </g>
   <g id="patch_4">
    <path d="M 57.54625 208.525832 
L 122.848503 208.525832 
L 122.848503 195.23017 
L 57.54625 195.23017 
z
" clip-path="url(#pd3546a5f5d)" style="fill: #f59e0b"/>
   </g>
   <g id="patch_5">
    <path d="M 57.54625 188.38089 
L 123.928398 188.38089 
L 123.928398 175.085228 
L 57.54625 175.085228 
z
" clip-path="url(#pd3546a5f5d)" style="fill: #f59e0b"/>
   </g>
   <g id="patch_6">
    <path d="M 57.54625 168.235947 
L 124.363093 168.235947 
L 124.363093 154.940286 
L 57.54625 154.940286 
z
" clip-path="url(#pd3546a5f5d)" style="fill: #f59e0b"/>
   </g>
   <g id="patch_7">
    <path d="M 57.54625 148.091005 
L 127.025322 148.091005 
L 127.025322 134.795343 
L 57.54625 134.795343 
z
" clip-path="url(#pd3546a5f5d)" style="fill: #f59e0b"/>
   </g>
   <g id="patch_8">
    <path d="M 57.54625 127.946063 
L 132.42398 127.946063 
L 132.42398 114.650401 
L 57.54625 114.650401 
z
" clip-path="url(#pd3546a5f5d)" style="fill: #f59e0b"/>
   </g>
   <g id="patch_9">
    <path d="M 57.54625 107.801121 
L 133.88669 107.801121 
L 133.88669 94.505459 
L 57.54625 94.505459 
z
" clip-path="url(#pd3546a5f5d)" style="fill: #f59e0b"/>
   </g>
   <g id="patch_10">
    <path d="M 57.54625 87.656178 
L 144.827478 87.656178 
L 144.827478 74.360517 
L 57.54625 74.360517 
z
" clip-path="url(#pd3546a5f5d)" style="fill: #f59e0b"/>
   </g>
   <g id="patch_11">
    <path d="M 57.54625 67.511236 
L 165.039733 67.511236 
L 165.039733 54.215574 
L 57.54625 54.215574 
z
" clip-path="url(#pd3546a5f5d)" style="fill: #f59e0b"/>
   </g>
   <g id="patch_12">
    <path d="M 57.54625 47.366294 
L 390.408319 47.366294 
L 390.408319 34.070632 
L 57.54625 34.070632 
z
" clip-path="url(#pd3546a5f5d)" style="fill: #f59e0b"/>
   </g>
   <g id="matplotlib.axis_1">
    <g id="xtick_1">
     <g id="line2d_1">
      <path d="M 57.54625 238.400781 
L 57.54625 24.340625 
" clip-path="url(#pd3546a5f5d)" style="fill: none; stroke: #3a3d44; stroke-opacity: 0.4; stroke-width: 0.8; stroke-linecap: square"/>
     </g>
     <g id="line2d_2">
      <defs>
       <path id="mb300021d7e" d="M 0 0 
L 0 3.5 
" style="stroke: #9aa0aa; stroke-width: 0.8"/>
      </defs>
      <g>
       <use xlink:href="#mb300021d7e" x="57.54625" y="238.400781" style="fill: #9aa0aa; stroke: #9aa0aa; stroke-width: 0.8"/>
      </g>
     </g>
     <g id="text_1">
      <!-- 0 -->
      <g style="fill: #9aa0aa" transform="translate(54.391562 255.088281) scale(0.1 -0.1)">
       <defs>
        <path id="Inter-Regular-53f" d="M 2019 -63 
C 3059 -63 3656 809 3656 2325 
C 3656 3834 3050 4719 2019 4719 
C 988 4719 381 3834 381 2325 
C 381 806 981 -63 2019 -63 
z
M 2019 456 
C 1338 456 953 1144 953 2325 
C 953 3509 1338 4203 2019 4203 
C 2700 4203 3084 3513 3084 2325 
C 3084 1144 2700 456 2019 456 
z
" transform="scale(0.015625)"/>
       </defs>
       <use xlink:href="#Inter-Regular-53f"/>
      </g>
     </g>
    </g>
    <g id="xtick_2">
     <g id="line2d_3">
      <path d="M 106.676027 238.400781 
L 106.676027 24.340625 
" clip-path="url(#pd3546a5f5d)" style="fill: none; stroke: #3a3d44; stroke-opacity: 0.4; stroke-width: 0.8; stroke-linecap: square"/>
     </g>
     <g id="line2d_4">
      <g>
       <use xlink:href="#mb300021d7e" x="106.676027" y="238.400781" style="fill: #9aa0aa; stroke: #9aa0aa; stroke-width: 0.8"/>
      </g>
     </g>
     <g id="text_2">
      <!-- 2 -->
      <g style="fill: #9aa0aa" transform="translate(103.626808 255.088281) scale(0.1 -0.1)">
       <defs>
        <path id="Inter-Regular-541" d="M 481 0 
L 3447 0 
L 3447 522 
L 1300 522 
L 1300 559 
L 2319 1644 
C 3141 2519 3369 2916 3369 3419 
C 3369 4147 2778 4719 1947 4719 
C 1119 4719 494 4159 494 3334 
L 1063 3334 
C 1063 3859 1400 4203 1931 4203 
C 2428 4203 2806 3900 2806 3413 
C 2806 2984 2544 2666 2028 2106 
L 481 428 
L 481 0 
z
" transform="scale(0.015625)"/>
       </defs>
       <use xlink:href="#Inter-Regular-541"/>
      </g>
     </g>
    </g>
    <g id="xtick_3">
     <g id="line2d_5">
      <path d="M 155.805804 238.400781 
L 155.805804 24.340625 
" clip-path="url(#pd3546a5f5d)" style="fill: none; stroke: #3a3d44; stroke-opacity: 0.4; stroke-width: 0.8; stroke-linecap: square"/>
     </g>
     <g id="line2d_6">
      <g>
       <use xlink:href="#mb300021d7e" x="155.805804" y="238.400781" style="fill: #9aa0aa; stroke: #9aa0aa; stroke-width: 0.8"/>
      </g>
     </g>
     <g id="text_3">
      <!-- 4 -->
      <g style="fill: #9aa0aa" transform="translate(152.576116 255.088281) scale(0.1 -0.1)">
       <defs>
        <path id="Inter-Regular-544" d="M 375 947 
L 2566 947 
L 2566 0 
L 3134 0 
L 3134 947 
L 3766 947 
L 3766 1469 
L 3134 1469 
L 3134 4656 
L 2413 4656 
L 375 1431 
L 375 947 
z
M 2569 1469 
L 1009 1469 
L 1009 1506 
L 2531 3913 
L 2569 3913 
L 2569 1469 
z
" transform="scale(0.015625)"/>
       </defs>
       <use xlink:href="#Inter-Regular-544"/>
      </g>
     </g>
    </g>
    <g id="xtick_4">
     <g id="line2d_7">
      <path d="M 204.935581 238.400781 
L 204.935581 24.340625 
" clip-path="url(#pd3546a5f5d)" style="fill: none; stroke: #3a3d44; stroke-opacity: 0.4; stroke-width: 0.8; stroke-linecap: square"/>
     </g>
     <g id="line2d_8">
      <g>
       <use xlink:href="#mb300021d7e" x="204.935581" y="238.400781" style="fill: #9aa0aa; stroke: #9aa0aa; stroke-width: 0.8"/>
      </g>
     </g>
     <g id="text_4">
      <!-- 6 -->
      <g style="fill: #9aa0aa" transform="translate(201.8348 255.088281) scale(0.1 -0.1)">
       <defs>
        <path id="Inter-Regular-547" d="M 2019 -63 
C 2969 -63 3588 634 3588 1503 
C 3588 2403 2925 3044 2128 3044 
C 1644 3044 1231 2813 981 2425 
L 944 2425 
C 944 3544 1375 4194 2091 4194 
C 2575 4194 2866 3888 2969 3484 
L 3550 3484 
C 3438 4216 2872 4719 2091 4719 
C 1034 4719 381 3788 381 2150 
C 381 434 1241 -63 2019 -63 
z
M 2019 459 
C 1447 459 1028 947 1028 1497 
C 1028 2041 1469 2528 2034 2528 
C 2597 2528 3013 2072 3013 1503 
C 3013 922 2578 459 2019 459 
z
" transform="scale(0.015625)"/>
       </defs>
       <use xlink:href="#Inter-Regular-547"/>
      </g>
     </g>
    </g>
    <g id="xtick_5">
     <g id="line2d_9">
      <path d="M 254.065358 238.400781 
L 254.065358 24.340625 
" clip-path="url(#pd3546a5f5d)" style="fill: none; stroke: #3a3d44; stroke-opacity: 0.4; stroke-width: 0.8; stroke-linecap: square"/>
     </g>
     <g id="line2d_10">
      <g>
       <use xlink:href="#mb300021d7e" x="254.065358" y="238.400781" style="fill: #9aa0aa; stroke: #9aa0aa; stroke-width: 0.8"/>
      </g>
     </g>
     <g id="text_5">
      <!-- 8 -->
      <g style="fill: #9aa0aa" transform="translate(250.972389 255.088281) scale(0.1 -0.1)">
       <defs>
        <path id="Inter-Regular-549" d="M 1978 -63 
C 2916 -63 3578 478 3578 1238 
C 3578 1825 3175 2325 2669 2419 
L 2669 2444 
C 3109 2559 3403 2988 3403 3481 
C 3403 4191 2794 4719 1978 4719 
C 1150 4719 550 4191 550 3481 
C 550 2988 838 2559 1291 2444 
L 1291 2419 
C 769 2325 381 1825 381 1238 
C 381 478 1031 -63 1978 -63 
z
M 1978 453 
C 1350 453 966 775 966 1269 
C 966 1784 1391 2153 1978 2153 
C 2553 2153 2984 1784 2984 1269 
C 2984 775 2594 453 1978 453 
z
M 1978 2650 
C 1475 2650 1125 2966 1125 3438 
C 1125 3903 1463 4206 1978 4206 
C 2484 4206 2828 3903 2828 3438 
C 2828 2966 2469 2650 1978 2650 
z
" transform="scale(0.015625)"/>
       </defs>
       <use xlink:href="#Inter-Regular-549"/>
      </g>
     </g>
    </g>
    <g id="xtick_6">
     <g id="line2d_11">
      <path d="M 303.195135 238.400781 
L 303.195135 24.340625 
" clip-path="url(#pd3546a5f5d)" style="fill: none; stroke: #3a3d44; stroke-opacity: 0.4; stroke-width: 0.8; stroke-linecap: square"/>
     </g>
     <g id="line2d_12">
      <g>
       <use xlink:href="#mb300021d7e" x="303.195135" y="238.400781" style="fill: #9aa0aa; stroke: #9aa0aa; stroke-width: 0.8"/>
      </g>
     </g>
     <g id="text_6">
      <!-- 10 -->
      <g style="fill: #9aa0aa" transform="translate(298.006854 255.088281) scale(0.1 -0.1)">
       <defs>
        <path id="Inter-Regular-540" d="M 2041 4656 
L 1313 4656 
L 300 3909 
L 300 3272 
L 1425 4106 
L 1456 4106 
L 1456 0 
L 2041 0 
L 2041 4656 
z
" transform="scale(0.015625)"/>
       </defs>
       <use xlink:href="#Inter-Regular-540"/>
       <use xlink:href="#Inter-Regular-53f" transform="translate(40.671875 0)"/>
      </g>
     </g>
    </g>
    <g id="xtick_7">
     <g id="line2d_13">
      <path d="M 352.324912 238.400781 
L 352.324912 24.340625 
" clip-path="url(#pd3546a5f5d)" style="fill: none; stroke: #3a3d44; stroke-opacity: 0.4; stroke-width: 0.8; stroke-linecap: square"/>
     </g>
     <g id="line2d_14">
      <g>
       <use xlink:href="#mb300021d7e" x="352.324912" y="238.400781" style="fill: #9aa0aa; stroke: #9aa0aa; stroke-width: 0.8"/>
      </g>
     </g>
     <g id="text_7">
      <!-- 12 -->
      <g style="fill: #9aa0aa" transform="translate(347.242099 255.088281) scale(0.1 -0.1)">
       <use xlink:href="#Inter-Regular-540"/>
       <use xlink:href="#Inter-Regular-541" transform="translate(40.671875 0)"/>
      </g>
     </g>
    </g>
    <g id="xtick_8">
     <g id="line2d_15">
      <path d="M 401.454689 238.400781 
L 401.454689 24.340625 
" clip-path="url(#pd3546a5f5d)" style="fill: none; stroke: #3a3d44; stroke-opacity: 0.4; stroke-width: 0.8; stroke-linecap: square"/>
     </g>
     <g id="line2d_16">
      <g>
       <use xlink:href="#mb300021d7e" x="401.454689" y="238.400781" style="fill: #9aa0aa; stroke: #9aa0aa; stroke-width: 0.8"/>
      </g>
     </g>
     <g id="text_8">
      <!-- 14 -->
      <g style="fill: #9aa0aa" transform="translate(396.191408 255.088281) scale(0.1 -0.1)">
       <use xlink:href="#Inter-Regular-540"/>
       <use xlink:href="#Inter-Regular-544" transform="translate(40.671875 0)"/>
      </g>
     </g>
    </g>
    <g id="text_9">
     <!-- mean patch effect on the margin -->
     <g style="fill: #e6e8eb" transform="translate(173.791406 271.187891) scale(0.1 -0.1)">
      <defs>
       <path id="Inter-Regular-300" d="M 494 0 
L 1056 0 
L 1056 2200 
C 1056 2756 1428 3044 1838 3044 
C 2231 3044 2522 2784 2522 2397 
L 2522 0 
L 3084 0 
L 3084 2281 
C 3084 2722 3372 3044 3844 3044 
C 4219 3044 4547 2844 4547 2341 
L 4547 0 
L 5113 0 
L 5113 2356 
C 5113 3166 4619 3556 4013 3556 
C 3506 3556 3078 3284 2913 2844 
C 2788 3275 2481 3556 2022 3556 
C 1609 3556 1216 3325 1044 2853 
L 1041 3494 
L 494 3494 
L 494 0 
z
" transform="scale(0.015625)"/>
       <path id="Inter-Regular-267" d="M 1963 -75 
C 2678 -75 3200 284 3363 813 
L 2819 963 
C 2688 606 2378 425 1966 425 
C 1347 425 922 825 894 1556 
L 3419 1556 
L 3419 1791 
C 3419 3081 2638 3538 1897 3538 
C 944 3538 325 2791 325 1719 
C 325 644 950 -75 1963 -75 
z
M 897 2031 
C 931 2566 1297 3038 1897 3038 
C 2472 3038 2794 2625 2847 2031 
L 897 2031 
z
" transform="scale(0.015625)"/>
       <path id="Inter-Regular-1fc" d="M 1472 -81 
C 2063 -81 2391 228 2509 475 
L 2547 475 
L 2547 0 
L 3100 0 
L 3100 2303 
C 3100 3394 2259 3538 1791 3538 
C 1250 3538 650 3344 381 2709 
L 922 2531 
C 1031 2775 1303 3044 1806 3044 
C 2291 3044 2538 2794 2538 2359 
L 2538 2341 
C 2538 2081 2263 2100 1641 2022 
C 994 1941 281 1794 281 994 
C 281 306 809 -81 1472 -81 
z
M 1569 416 
C 1150 416 847 603 847 966 
C 847 1363 1206 1494 1616 1547 
C 1831 1575 2444 1638 2538 1747 
L 2538 1263 
C 2538 834 2191 416 1569 416 
z
" transform="scale(0.015625)"/>
       <path id="Inter-Regular-307" d="M 1056 2094 
C 1056 2691 1434 3031 1938 3031 
C 2425 3031 2725 2709 2725 2172 
L 2725 0 
L 3288 0 
L 3288 2219 
C 3288 3103 2813 3538 2106 3538 
C 1638 3538 1263 3341 1038 2847 
L 1034 3494 
L 494 3494 
L 494 0 
L 1056 0 
L 1056 2094 
z
" transform="scale(0.015625)"/>
       <path id="Inter-Regular-6eb" transform="scale(0.015625)"/>
       <path id="Inter-Regular-34d" d="M 494 -1306 
L 1056 -1306 
L 1056 541 
L 1100 541 
C 1216 347 1450 -75 2116 -75 
C 2988 -75 3594 625 3594 1738 
C 3594 2844 2984 3538 2113 3538 
C 1431 3538 1216 3119 1100 2934 
L 1038 2934 
L 1038 3494 
L 494 3494 
L 494 -1306 
z
M 2031 428 
C 1397 428 1050 966 1050 1744 
C 1050 2516 1388 3034 2031 3034 
C 2694 3034 3022 2469 3022 1744 
C 3022 1009 2684 428 2031 428 
z
" transform="scale(0.015625)"/>
       <path id="Inter-Regular-37b" d="M 1869 3494 
L 1150 3494 
L 1150 4325 
L 588 4325 
L 588 3494 
L 63 3494 
L 63 3013 
L 588 3013 
L 588 863 
C 588 291 944 -44 1547 -44 
C 1691 -44 1850 -22 1966 19 
L 1850 494 
C 1756 475 1634 456 1563 456 
C 1266 456 1150 594 1150 906 
L 1150 3013 
L 1869 3013 
L 1869 3494 
z
" transform="scale(0.015625)"/>
       <path id="Inter-Regular-24b" d="M 1916 -75 
C 2600 -75 3156 297 3344 919 
L 2806 1072 
C 2703 694 2384 428 1916 428 
C 1219 428 897 1038 897 1725 
C 897 2422 1219 3034 1916 3034 
C 2375 3034 2688 2778 2791 2419 
L 3331 2572 
C 3141 3181 2591 3538 1916 3538 
C 966 3538 325 2819 325 1725 
C 325 647 966 -75 1916 -75 
z
" transform="scale(0.015625)"/>
       <path id="Inter-Regular-29f" d="M 1056 2094 
C 1056 2691 1434 3031 1938 3031 
C 2425 3031 2725 2709 2725 2172 
L 2725 0 
L 3291 0 
L 3291 2219 
C 3291 3103 2813 3538 2106 3538 
C 1650 3538 1284 3353 1056 2888 
L 1056 4656 
L 494 4656 
L 494 0 
L 1056 0 
L 1056 2094 
z
" transform="scale(0.015625)"/>
       <path id="Inter-Regular-288" d="M 2119 3494 
L 1313 3494 
L 1313 3834 
C 1313 4172 1463 4353 1809 4353 
C 1966 4353 2053 4319 2113 4300 
L 2269 4781 
C 2184 4819 2009 4875 1744 4875 
C 1234 4875 750 4566 750 3959 
L 750 3494 
L 63 3494 
L 63 3013 
L 750 3013 
L 750 0 
L 1313 0 
L 1313 3013 
L 2119 3013 
L 2119 3494 
z
" transform="scale(0.015625)"/>
       <path id="Inter-Regular-318" d="M 1916 -75 
C 2869 -75 3513 647 3513 1725 
C 3513 2819 2869 3538 1916 3538 
C 966 3538 325 2819 325 1725 
C 325 647 966 -75 1916 -75 
z
M 1916 428 
C 1219 428 897 1038 897 1725 
C 897 2422 1219 3034 1916 3034 
C 2622 3034 2944 2419 2944 1725 
C 2944 1038 2622 428 1916 428 
z
" transform="scale(0.015625)"/>
       <path id="Inter-Regular-356" d="M 494 0 
L 1056 0 
L 1056 2188 
C 1056 2659 1425 3000 1928 3000 
C 2078 3000 2231 2975 2266 2969 
L 2266 3534 
C 2200 3538 2063 3544 1981 3544 
C 1566 3544 1203 3309 1075 2956 
L 1038 2956 
L 1038 3494 
L 494 3494 
L 494 0 
z
" transform="scale(0.015625)"/>
       <path id="Inter-Regular-293" d="M 1909 -1381 
C 2759 -1381 3431 -994 3431 -91 
L 3431 3494 
L 2884 3494 
L 2884 2934 
L 2831 2934 
C 2713 3122 2488 3538 1813 3538 
C 941 3538 325 2844 325 1763 
C 325 666 963 56 1800 56 
C 2475 56 2697 441 2816 641 
L 2869 641 
L 2869 -59 
C 2869 -634 2466 -891 1909 -891 
C 1294 -891 1075 -578 928 -375 
L 472 -669 
C 688 -1053 1134 -1381 1909 -1381 
z
M 1894 556 
C 1238 556 897 1056 897 1775 
C 897 2472 1228 3034 1894 3034 
C 2538 3034 2875 2516 2875 1775 
C 2875 1013 2528 556 1894 556 
z
" transform="scale(0.015625)"/>
       <path id="Inter-Regular-2b2" d="M 494 0 
L 1056 0 
L 1056 3494 
L 494 3494 
L 494 0 
z
M 778 4066 
C 994 4066 1172 4231 1172 4438 
C 1172 4644 994 4809 778 4809 
C 566 4809 388 4644 388 4438 
C 388 4231 566 4066 778 4066 
z
" transform="scale(0.015625)"/>
      </defs>
      <use xlink:href="#Inter-Regular-300"/>
      <use xlink:href="#Inter-Regular-267" transform="translate(87.59375 0)"/>
      <use xlink:href="#Inter-Regular-1fc" transform="translate(146.875 0)"/>
      <use xlink:href="#Inter-Regular-307" transform="translate(203.03125 0)"/>
      <use xlink:href="#Inter-Regular-6eb" transform="translate(262.109375 0)"/>
      <use xlink:href="#Inter-Regular-34d" transform="translate(290.234375 0)"/>
      <use xlink:href="#Inter-Regular-1fc" transform="translate(352.453125 0)"/>
      <use xlink:href="#Inter-Regular-37b" transform="translate(408.609375 0)"/>
      <use xlink:href="#Inter-Regular-24b" transform="translate(440.359375 0)"/>
      <use xlink:href="#Inter-Regular-29f" transform="translate(497.484375 0)"/>
      <use xlink:href="#Inter-Regular-6eb" transform="translate(556.609375 0)"/>
      <use xlink:href="#Inter-Regular-267" transform="translate(584.734375 0)"/>
      <use xlink:href="#Inter-Regular-288" transform="translate(643.03125 0)"/>
      <use xlink:href="#Inter-Regular-288" transform="translate(676.140625 0)"/>
      <use xlink:href="#Inter-Regular-267" transform="translate(710.234375 0)"/>
      <use xlink:href="#Inter-Regular-24b" transform="translate(768.53125 0)"/>
      <use xlink:href="#Inter-Regular-37b" transform="translate(825.65625 0)"/>
      <use xlink:href="#Inter-Regular-6eb" transform="translate(858.375 0)"/>
      <use xlink:href="#Inter-Regular-318" transform="translate(886.5 0)"/>
      <use xlink:href="#Inter-Regular-307" transform="translate(946.46875 0)"/>
      <use xlink:href="#Inter-Regular-6eb" transform="translate(1005.546875 0)"/>
      <use xlink:href="#Inter-Regular-37b" transform="translate(1033.671875 0)"/>
      <use xlink:href="#Inter-Regular-29f" transform="translate(1066.390625 0)"/>
      <use xlink:href="#Inter-Regular-267" transform="translate(1125.515625 0)"/>
      <use xlink:href="#Inter-Regular-6eb" transform="translate(1183.8125 0)"/>
      <use xlink:href="#Inter-Regular-300" transform="translate(1211.9375 0)"/>
      <use xlink:href="#Inter-Regular-1fc" transform="translate(1299.53125 0)"/>
      <use xlink:href="#Inter-Regular-356" transform="translate(1355.6875 0)"/>
      <use xlink:href="#Inter-Regular-293" transform="translate(1391.671875 0)"/>
      <use xlink:href="#Inter-Regular-2b2" transform="translate(1453 0)"/>
      <use xlink:href="#Inter-Regular-307" transform="translate(1477.21875 0)"/>
     </g>
    </g>
   </g>
   <g id="matplotlib.axis_2">
    <g id="ytick_1">
     <g id="line2d_17">
      <defs>
       <path id="m9417d2bad9" d="M 0 0 
L -3.5 0 
" style="stroke: #9aa0aa; stroke-width: 0.8"/>
      </defs>
      <g>
       <use xlink:href="#m9417d2bad9" x="57.54625" y="222.022943" style="fill: #9aa0aa; stroke: #9aa0aa; stroke-width: 0.8"/>
      </g>
     </g>
     <g id="text_10">
      <!-- mlp_L5 -->
      <g style="fill: #9aa0aa" transform="translate(18.036563 225.466146) scale(0.09 -0.09)">
       <defs>
        <path id="DejaVuSansMono-50" d="M 2113 3144 
Q 2219 3369 2383 3476 
Q 2547 3584 2778 3584 
Q 3200 3584 3373 3257 
Q 3547 2931 3547 2028 
L 3547 0 
L 3022 0 
L 3022 2003 
Q 3022 2744 2939 2923 
Q 2856 3103 2638 3103 
Q 2388 3103 2295 2911 
Q 2203 2719 2203 2003 
L 2203 0 
L 1678 0 
L 1678 2003 
Q 1678 2753 1589 2928 
Q 1500 3103 1269 3103 
Q 1041 3103 952 2911 
Q 863 2719 863 2003 
L 863 0 
L 341 0 
L 341 3500 
L 863 3500 
L 863 3200 
Q 966 3388 1120 3486 
Q 1275 3584 1472 3584 
Q 1709 3584 1867 3475 
Q 2025 3366 2113 3144 
z
" transform="scale(0.015625)"/>
        <path id="DejaVuSansMono-4f" d="M 1997 1269 
Q 1997 881 2139 684 
Q 2281 488 2559 488 
L 3231 488 
L 3231 0 
L 2503 0 
Q 1988 0 1705 331 
Q 1422 663 1422 1269 
L 1422 4447 
L 500 4447 
L 500 4897 
L 1997 4897 
L 1997 1269 
z
" transform="scale(0.015625)"/>
        <path id="DejaVuSansMono-53" d="M 1172 441 
L 1172 -1331 
L 594 -1331 
L 594 3500 
L 1172 3500 
L 1172 3053 
Q 1316 3313 1555 3448 
Q 1794 3584 2106 3584 
Q 2741 3584 3102 3093 
Q 3463 2603 3463 1734 
Q 3463 881 3100 395 
Q 2738 -91 2106 -91 
Q 1788 -91 1548 45 
Q 1309 181 1172 441 
z
M 2859 1747 
Q 2859 2416 2648 2756 
Q 2438 3097 2022 3097 
Q 1603 3097 1387 2755 
Q 1172 2413 1172 1747 
Q 1172 1084 1387 740 
Q 1603 397 2022 397 
Q 2438 397 2648 737 
Q 2859 1078 2859 1747 
z
" transform="scale(0.015625)"/>
        <path id="DejaVuSansMono-42" d="M 3853 -1259 
L 3853 -1509 
L 0 -1509 
L 0 -1259 
L 3853 -1259 
z
" transform="scale(0.015625)"/>
        <path id="DejaVuSansMono-2f" d="M 672 4666 
L 1306 4666 
L 1306 531 
L 3559 531 
L 3559 0 
L 672 0 
L 672 4666 
z
" transform="scale(0.015625)"/>
        <path id="DejaVuSansMono-18" d="M 647 4666 
L 3009 4666 
L 3009 4134 
L 1222 4134 
L 1222 2988 
Q 1356 3038 1492 3061 
Q 1628 3084 1766 3084 
Q 2491 3084 2916 2656 
Q 3341 2228 3341 1497 
Q 3341 759 2895 334 
Q 2450 -91 1678 -91 
Q 1306 -91 998 -41 
Q 691 9 447 109 
L 447 750 
Q 734 594 1025 517 
Q 1316 441 1619 441 
Q 2141 441 2423 716 
Q 2706 991 2706 1497 
Q 2706 1997 2414 2275 
Q 2122 2553 1600 2553 
Q 1347 2553 1106 2495 
Q 866 2438 647 2322 
L 647 4666 
z
" transform="scale(0.015625)"/>
       </defs>
       <use xlink:href="#DejaVuSansMono-50"/>
       <use xlink:href="#DejaVuSansMono-4f" transform="translate(60.203125 0)"/>
       <use xlink:href="#DejaVuSansMono-53" transform="translate(120.40625 0)"/>
       <use xlink:href="#DejaVuSansMono-42" transform="translate(180.609375 0)"/>
       <use xlink:href="#DejaVuSansMono-2f" transform="translate(240.8125 0)"/>
       <use xlink:href="#DejaVuSansMono-18" transform="translate(301.015625 0)"/>
      </g>
     </g>
    </g>
    <g id="ytick_2">
     <g id="line2d_18">
      <g>
       <use xlink:href="#m9417d2bad9" x="57.54625" y="201.878001" style="fill: #9aa0aa; stroke: #9aa0aa; stroke-width: 0.8"/>
      </g>
     </g>
     <g id="text_11">
      <!-- mlp_L3 -->
      <g style="fill: #9aa0aa" transform="translate(18.036563 205.321204) scale(0.09 -0.09)">
       <defs>
        <path id="DejaVuSansMono-16" d="M 2425 2497 
Q 2884 2375 3128 2064 
Q 3372 1753 3372 1288 
Q 3372 644 2939 276 
Q 2506 -91 1741 -91 
Q 1419 -91 1084 -31 
Q 750 28 428 141 
L 428 769 
Q 747 603 1056 522 
Q 1366 441 1672 441 
Q 2191 441 2469 675 
Q 2747 909 2747 1350 
Q 2747 1756 2469 1995 
Q 2191 2234 1716 2234 
L 1234 2234 
L 1234 2753 
L 1716 2753 
Q 2150 2753 2394 2943 
Q 2638 3134 2638 3475 
Q 2638 3834 2411 4026 
Q 2184 4219 1766 4219 
Q 1488 4219 1191 4156 
Q 894 4094 569 3969 
L 569 4550 
Q 947 4650 1242 4700 
Q 1538 4750 1766 4750 
Q 2447 4750 2855 4408 
Q 3263 4066 3263 3500 
Q 3263 3116 3048 2859 
Q 2834 2603 2425 2497 
z
" transform="scale(0.015625)"/>
       </defs>
       <use xlink:href="#DejaVuSansMono-50"/>
       <use xlink:href="#DejaVuSansMono-4f" transform="translate(60.203125 0)"/>
       <use xlink:href="#DejaVuSansMono-53" transform="translate(120.40625 0)"/>
       <use xlink:href="#DejaVuSansMono-42" transform="translate(180.609375 0)"/>
       <use xlink:href="#DejaVuSansMono-2f" transform="translate(240.8125 0)"/>
       <use xlink:href="#DejaVuSansMono-16" transform="translate(301.015625 0)"/>
      </g>
     </g>
    </g>
    <g id="ytick_3">
     <g id="line2d_19">
      <g>
       <use xlink:href="#m9417d2bad9" x="57.54625" y="181.733059" style="fill: #9aa0aa; stroke: #9aa0aa; stroke-width: 0.8"/>
      </g>
     </g>
     <g id="text_12">
      <!-- mlp_L4 -->
      <g style="fill: #9aa0aa" transform="translate(18.036563 185.176262) scale(0.09 -0.09)">
       <defs>
        <path id="DejaVuSansMono-17" d="M 2297 4091 
L 825 1625 
L 2297 1625 
L 2297 4091 
z
M 2194 4666 
L 2925 4666 
L 2925 1625 
L 3547 1625 
L 3547 1113 
L 2925 1113 
L 2925 0 
L 2297 0 
L 2297 1113 
L 319 1113 
L 319 1709 
L 2194 4666 
z
" transform="scale(0.015625)"/>
       </defs>
       <use xlink:href="#DejaVuSansMono-50"/>
       <use xlink:href="#DejaVuSansMono-4f" transform="translate(60.203125 0)"/>
       <use xlink:href="#DejaVuSansMono-53" transform="translate(120.40625 0)"/>
       <use xlink:href="#DejaVuSansMono-42" transform="translate(180.609375 0)"/>
       <use xlink:href="#DejaVuSansMono-2f" transform="translate(240.8125 0)"/>
       <use xlink:href="#DejaVuSansMono-17" transform="translate(301.015625 0)"/>
      </g>
     </g>
    </g>
    <g id="ytick_4">
     <g id="line2d_20">
      <g>
       <use xlink:href="#m9417d2bad9" x="57.54625" y="161.588116" style="fill: #9aa0aa; stroke: #9aa0aa; stroke-width: 0.8"/>
      </g>
     </g>
     <g id="text_13">
      <!-- mlp_L7 -->
      <g style="fill: #9aa0aa" transform="translate(18.036563 165.03132) scale(0.09 -0.09)">
       <defs>
        <path id="DejaVuSansMono-1a" d="M 434 4666 
L 3372 4666 
L 3372 4397 
L 1703 0 
L 1044 0 
L 2669 4134 
L 434 4134 
L 434 4666 
z
" transform="scale(0.015625)"/>
       </defs>
       <use xlink:href="#DejaVuSansMono-50"/>
       <use xlink:href="#DejaVuSansMono-4f" transform="translate(60.203125 0)"/>
       <use xlink:href="#DejaVuSansMono-53" transform="translate(120.40625 0)"/>
       <use xlink:href="#DejaVuSansMono-42" transform="translate(180.609375 0)"/>
       <use xlink:href="#DejaVuSansMono-2f" transform="translate(240.8125 0)"/>
       <use xlink:href="#DejaVuSansMono-1a" transform="translate(301.015625 0)"/>
      </g>
     </g>
    </g>
    <g id="ytick_5">
     <g id="line2d_21">
      <g>
       <use xlink:href="#m9417d2bad9" x="57.54625" y="141.443174" style="fill: #9aa0aa; stroke: #9aa0aa; stroke-width: 0.8"/>
      </g>
     </g>
     <g id="text_14">
      <!-- attn_L12 -->
      <g style="fill: #9aa0aa" transform="translate(7.2 144.86212) scale(0.09 -0.09)">
       <defs>
        <path id="DejaVuSansMono-44" d="M 2194 1759 
L 2003 1759 
Q 1500 1759 1245 1582 
Q 991 1406 991 1056 
Q 991 741 1181 566 
Q 1372 391 1709 391 
Q 2184 391 2456 720 
Q 2728 1050 2731 1631 
L 2731 1759 
L 2194 1759 
z
M 3309 1997 
L 3309 0 
L 2731 0 
L 2731 519 
Q 2547 206 2267 57 
Q 1988 -91 1588 -91 
Q 1053 -91 734 211 
Q 416 513 416 1019 
Q 416 1603 808 1906 
Q 1200 2209 1959 2209 
L 2731 2209 
L 2731 2300 
Q 2728 2719 2518 2908 
Q 2309 3097 1850 3097 
Q 1556 3097 1256 3012 
Q 956 2928 672 2766 
L 672 3341 
Q 991 3463 1283 3523 
Q 1575 3584 1850 3584 
Q 2284 3584 2592 3456 
Q 2900 3328 3091 3072 
Q 3209 2916 3259 2686 
Q 3309 2456 3309 1997 
z
" transform="scale(0.015625)"/>
        <path id="DejaVuSansMono-57" d="M 1919 4494 
L 1919 3500 
L 3225 3500 
L 3225 3053 
L 1919 3053 
L 1919 1153 
Q 1919 766 2066 612 
Q 2213 459 2578 459 
L 3225 459 
L 3225 0 
L 2522 0 
Q 1875 0 1609 259 
Q 1344 519 1344 1153 
L 1344 3053 
L 409 3053 
L 409 3500 
L 1344 3500 
L 1344 4494 
L 1919 4494 
z
" transform="scale(0.015625)"/>
        <path id="DejaVuSansMono-51" d="M 3284 2169 
L 3284 0 
L 2706 0 
L 2706 2169 
Q 2706 2641 2540 2862 
Q 2375 3084 2022 3084 
Q 1619 3084 1401 2798 
Q 1184 2513 1184 1978 
L 1184 0 
L 609 0 
L 609 3500 
L 1184 3500 
L 1184 2975 
Q 1338 3275 1600 3429 
Q 1863 3584 2222 3584 
Q 2756 3584 3020 3232 
Q 3284 2881 3284 2169 
z
" transform="scale(0.015625)"/>
        <path id="DejaVuSansMono-14" d="M 844 531 
L 1825 531 
L 1825 4097 
L 769 3859 
L 769 4434 
L 1819 4666 
L 2450 4666 
L 2450 531 
L 3419 531 
L 3419 0 
L 844 0 
L 844 531 
z
" transform="scale(0.015625)"/>
        <path id="DejaVuSansMono-15" d="M 1166 531 
L 3309 531 
L 3309 0 
L 475 0 
L 475 531 
Q 1059 1147 1496 1619 
Q 1934 2091 2100 2284 
Q 2413 2666 2522 2902 
Q 2631 3138 2631 3384 
Q 2631 3775 2401 3997 
Q 2172 4219 1772 4219 
Q 1488 4219 1175 4116 
Q 863 4013 513 3803 
L 513 4441 
Q 834 4594 1145 4672 
Q 1456 4750 1759 4750 
Q 2444 4750 2861 4386 
Q 3278 4022 3278 3431 
Q 3278 3131 3139 2831 
Q 3000 2531 2688 2169 
Q 2513 1966 2180 1606 
Q 1847 1247 1166 531 
z
" transform="scale(0.015625)"/>
       </defs>
       <use xlink:href="#DejaVuSansMono-44"/>
       <use xlink:href="#DejaVuSansMono-57" transform="translate(60.203125 0)"/>
       <use xlink:href="#DejaVuSansMono-57" transform="translate(120.40625 0)"/>
       <use xlink:href="#DejaVuSansMono-51" transform="translate(180.609375 0)"/>
       <use xlink:href="#DejaVuSansMono-42" transform="translate(240.8125 0)"/>
       <use xlink:href="#DejaVuSansMono-2f" transform="translate(301.015625 0)"/>
       <use xlink:href="#DejaVuSansMono-14" transform="translate(361.21875 0)"/>
       <use xlink:href="#DejaVuSansMono-15" transform="translate(421.421875 0)"/>
      </g>
     </g>
    </g>
    <g id="ytick_6">
     <g id="line2d_22">
      <g>
       <use xlink:href="#m9417d2bad9" x="57.54625" y="121.298232" style="fill: #9aa0aa; stroke: #9aa0aa; stroke-width: 0.8"/>
      </g>
     </g>
     <g id="text_15">
      <!-- attn_L11 -->
      <g style="fill: #9aa0aa" transform="translate(7.2 124.717177) scale(0.09 -0.09)">
       <use xlink:href="#DejaVuSansMono-44"/>
       <use xlink:href="#DejaVuSansMono-57" transform="translate(60.203125 0)"/>
       <use xlink:href="#DejaVuSansMono-57" transform="translate(120.40625 0)"/>
       <use xlink:href="#DejaVuSansMono-51" transform="translate(180.609375 0)"/>
       <use xlink:href="#DejaVuSansMono-42" transform="translate(240.8125 0)"/>
       <use xlink:href="#DejaVuSansMono-2f" transform="translate(301.015625 0)"/>
       <use xlink:href="#DejaVuSansMono-14" transform="translate(361.21875 0)"/>
       <use xlink:href="#DejaVuSansMono-14" transform="translate(421.421875 0)"/>
      </g>
     </g>
    </g>
    <g id="ytick_7">
     <g id="line2d_23">
      <g>
       <use xlink:href="#m9417d2bad9" x="57.54625" y="101.15329" style="fill: #9aa0aa; stroke: #9aa0aa; stroke-width: 0.8"/>
      </g>
     </g>
     <g id="text_16">
      <!-- mlp_L1 -->
      <g style="fill: #9aa0aa" transform="translate(18.036563 104.596493) scale(0.09 -0.09)">
       <use xlink:href="#DejaVuSansMono-50"/>
       <use xlink:href="#DejaVuSansMono-4f" transform="translate(60.203125 0)"/>
       <use xlink:href="#DejaVuSansMono-53" transform="translate(120.40625 0)"/>
       <use xlink:href="#DejaVuSansMono-42" transform="translate(180.609375 0)"/>
       <use xlink:href="#DejaVuSansMono-2f" transform="translate(240.8125 0)"/>
       <use xlink:href="#DejaVuSansMono-14" transform="translate(301.015625 0)"/>
      </g>
     </g>
    </g>
    <g id="ytick_8">
     <g id="line2d_24">
      <g>
       <use xlink:href="#m9417d2bad9" x="57.54625" y="81.008348" style="fill: #9aa0aa; stroke: #9aa0aa; stroke-width: 0.8"/>
      </g>
     </g>
     <g id="text_17">
      <!-- attn_L0 -->
      <g style="fill: #9aa0aa" transform="translate(12.618281 84.427293) scale(0.09 -0.09)">
       <defs>
        <path id="DejaVuSansMono-13" d="M 1509 2344 
Q 1509 2516 1629 2641 
Q 1750 2766 1919 2766 
Q 2094 2766 2219 2641 
Q 2344 2516 2344 2344 
Q 2344 2169 2220 2047 
Q 2097 1925 1919 1925 
Q 1744 1925 1626 2044 
Q 1509 2163 1509 2344 
z
M 1925 4250 
Q 1484 4250 1267 3775 
Q 1050 3300 1050 2328 
Q 1050 1359 1267 884 
Q 1484 409 1925 409 
Q 2369 409 2586 884 
Q 2803 1359 2803 2328 
Q 2803 3300 2586 3775 
Q 2369 4250 1925 4250 
z
M 1925 4750 
Q 2672 4750 3055 4137 
Q 3438 3525 3438 2328 
Q 3438 1134 3055 521 
Q 2672 -91 1925 -91 
Q 1178 -91 797 521 
Q 416 1134 416 2328 
Q 416 3525 797 4137 
Q 1178 4750 1925 4750 
z
" transform="scale(0.015625)"/>
       </defs>
       <use xlink:href="#DejaVuSansMono-44"/>
       <use xlink:href="#DejaVuSansMono-57" transform="translate(60.203125 0)"/>
       <use xlink:href="#DejaVuSansMono-57" transform="translate(120.40625 0)"/>
       <use xlink:href="#DejaVuSansMono-51" transform="translate(180.609375 0)"/>
       <use xlink:href="#DejaVuSansMono-42" transform="translate(240.8125 0)"/>
       <use xlink:href="#DejaVuSansMono-2f" transform="translate(301.015625 0)"/>
       <use xlink:href="#DejaVuSansMono-13" transform="translate(361.21875 0)"/>
      </g>
     </g>
    </g>
    <g id="ytick_9">
     <g id="line2d_25">
      <g>
       <use xlink:href="#m9417d2bad9" x="57.54625" y="60.863405" style="fill: #9aa0aa; stroke: #9aa0aa; stroke-width: 0.8"/>
      </g>
     </g>
     <g id="text_18">
      <!-- mlp_L2 -->
      <g style="fill: #9aa0aa" transform="translate(18.036563 64.306608) scale(0.09 -0.09)">
       <use xlink:href="#DejaVuSansMono-50"/>
       <use xlink:href="#DejaVuSansMono-4f" transform="translate(60.203125 0)"/>
       <use xlink:href="#DejaVuSansMono-53" transform="translate(120.40625 0)"/>
       <use xlink:href="#DejaVuSansMono-42" transform="translate(180.609375 0)"/>
       <use xlink:href="#DejaVuSansMono-2f" transform="translate(240.8125 0)"/>
       <use xlink:href="#DejaVuSansMono-15" transform="translate(301.015625 0)"/>
      </g>
     </g>
    </g>
    <g id="ytick_10">
     <g id="line2d_26">
      <g>
       <use xlink:href="#m9417d2bad9" x="57.54625" y="40.718463" style="fill: #9aa0aa; stroke: #9aa0aa; stroke-width: 0.8"/>
      </g>
     </g>
     <g id="text_19">
      <!-- mlp_L0 -->
      <g style="fill: #9aa0aa" transform="translate(18.036563 44.161666) scale(0.09 -0.09)">
       <use xlink:href="#DejaVuSansMono-50"/>
       <use xlink:href="#DejaVuSansMono-4f" transform="translate(60.203125 0)"/>
       <use xlink:href="#DejaVuSansMono-53" transform="translate(120.40625 0)"/>
       <use xlink:href="#DejaVuSansMono-42" transform="translate(180.609375 0)"/>
       <use xlink:href="#DejaVuSansMono-2f" transform="translate(240.8125 0)"/>
       <use xlink:href="#DejaVuSansMono-13" transform="translate(301.015625 0)"/>
      </g>
     </g>
    </g>
   </g>
   <g id="patch_13">
    <path d="M 57.54625 238.400781 
L 57.54625 24.340625 
" style="fill: none; stroke: #3a3d44; stroke-width: 0.8; stroke-linejoin: miter; stroke-linecap: square"/>
   </g>
   <g id="patch_14">
    <path d="M 57.54625 238.400781 
L 443.66625 238.400781 
" style="fill: none; stroke: #3a3d44; stroke-width: 0.8; stroke-linejoin: miter; stroke-linecap: square"/>
   </g>
   <g id="text_20">
    <!--   2.66 -->
    <g style="fill: #b7bdc7" transform="translate(122.846146 225.114984) scale(0.085 -0.085)">
     <defs>
      <path id="Inter-Regular-5e0" d="M 922 -41 
C 1156 -41 1344 147 1344 381 
C 1344 616 1156 803 922 803 
C 688 803 500 616 500 381 
C 500 147 688 -41 922 -41 
z
" transform="scale(0.015625)"/>
     </defs>
     <use xlink:href="#Inter-Regular-6eb"/>
     <use xlink:href="#Inter-Regular-6eb" transform="translate(28.125 0)"/>
     <use xlink:href="#Inter-Regular-541" transform="translate(56.25 0)"/>
     <use xlink:href="#Inter-Regular-5e0" transform="translate(117.234375 0)"/>
     <use xlink:href="#Inter-Regular-547" transform="translate(143.515625 0)"/>
     <use xlink:href="#Inter-Regular-547" transform="translate(205.53125 0)"/>
    </g>
   </g>
   <g id="text_21">
    <!--   2.66 -->
    <g style="fill: #b7bdc7" transform="translate(122.848503 204.970042) scale(0.085 -0.085)">
     <use xlink:href="#Inter-Regular-6eb"/>
     <use xlink:href="#Inter-Regular-6eb" transform="translate(28.125 0)"/>
     <use xlink:href="#Inter-Regular-541" transform="translate(56.25 0)"/>
     <use xlink:href="#Inter-Regular-5e0" transform="translate(117.234375 0)"/>
     <use xlink:href="#Inter-Regular-547" transform="translate(143.515625 0)"/>
     <use xlink:href="#Inter-Regular-547" transform="translate(205.53125 0)"/>
    </g>
   </g>
   <g id="text_22">
    <!--   2.70 -->
    <g style="fill: #b7bdc7" transform="translate(123.928398 184.8251) scale(0.085 -0.085)">
     <defs>
      <path id="Inter-Regular-548" d="M 625 0 
L 1250 0 
L 3316 4103 
L 3316 4656 
L 306 4656 
L 306 4134 
L 2694 4134 
L 2694 4097 
L 625 0 
z
" transform="scale(0.015625)"/>
     </defs>
     <use xlink:href="#Inter-Regular-6eb"/>
     <use xlink:href="#Inter-Regular-6eb" transform="translate(28.125 0)"/>
     <use xlink:href="#Inter-Regular-541" transform="translate(56.25 0)"/>
     <use xlink:href="#Inter-Regular-5e0" transform="translate(117.234375 0)"/>
     <use xlink:href="#Inter-Regular-548" transform="translate(144.625 0)"/>
     <use xlink:href="#Inter-Regular-53f" transform="translate(199.65625 0)"/>
    </g>
   </g>
   <g id="text_23">
    <!--   2.72 -->
    <g style="fill: #b7bdc7" transform="translate(124.363093 164.680158) scale(0.085 -0.085)">
     <use xlink:href="#Inter-Regular-6eb"/>
     <use xlink:href="#Inter-Regular-6eb" transform="translate(28.125 0)"/>
     <use xlink:href="#Inter-Regular-541" transform="translate(56.25 0)"/>
     <use xlink:href="#Inter-Regular-5e0" transform="translate(117.234375 0)"/>
     <use xlink:href="#Inter-Regular-548" transform="translate(144.625 0)"/>
     <use xlink:href="#Inter-Regular-541" transform="translate(201.21875 0)"/>
    </g>
   </g>
   <g id="text_24">
    <!--   2.83 -->
    <g style="fill: #b7bdc7" transform="translate(127.025322 144.535215) scale(0.085 -0.085)">
     <defs>
      <path id="Inter-Regular-543" d="M 1984 -63 
C 2897 -63 3572 503 3572 1266 
C 3572 1853 3225 2284 2631 2381 
L 2631 2419 
C 3106 2559 3403 2944 3403 3469 
C 3403 4131 2872 4719 2003 4719 
C 1184 4719 516 4216 491 3484 
L 1063 3484 
C 1081 3938 1516 4203 1991 4203 
C 2497 4203 2822 3900 2822 3438 
C 2822 2956 2447 2644 1903 2644 
L 1525 2644 
L 1525 2128 
L 1903 2128 
C 2594 2128 2984 1775 2984 1272 
C 2984 788 2559 459 1975 459 
C 1444 459 1025 731 991 1175 
L 391 1175 
C 422 438 1072 -63 1984 -63 
z
" transform="scale(0.015625)"/>
     </defs>
     <use xlink:href="#Inter-Regular-6eb"/>
     <use xlink:href="#Inter-Regular-6eb" transform="translate(28.125 0)"/>
     <use xlink:href="#Inter-Regular-541" transform="translate(56.25 0)"/>
     <use xlink:href="#Inter-Regular-5e0" transform="translate(117.234375 0)"/>
     <use xlink:href="#Inter-Regular-549" transform="translate(143.796875 0)"/>
     <use xlink:href="#Inter-Regular-543" transform="translate(205.65625 0)"/>
    </g>
   </g>
   <g id="text_25">
    <!--   3.05 -->
    <g style="fill: #b7bdc7" transform="translate(132.42398 124.390273) scale(0.085 -0.085)">
     <defs>
      <path id="Inter-Regular-545" d="M 1956 -63 
C 2853 -63 3509 594 3509 1488 
C 3509 2388 2881 3047 2028 3047 
C 1706 3047 1397 2934 1206 2775 
L 1181 2775 
L 1341 4134 
L 3291 4134 
L 3291 4656 
L 841 4656 
L 566 2350 
L 1122 2281 
C 1306 2422 1631 2525 1919 2525 
C 2503 2525 2928 2078 2928 1478 
C 2928 888 2519 459 1956 459 
C 1488 459 1106 759 1069 1175 
L 494 1175 
C 525 463 1138 -63 1956 -63 
z
" transform="scale(0.015625)"/>
     </defs>
     <use xlink:href="#Inter-Regular-6eb"/>
     <use xlink:href="#Inter-Regular-6eb" transform="translate(28.125 0)"/>
     <use xlink:href="#Inter-Regular-543" transform="translate(56.25 0)"/>
     <use xlink:href="#Inter-Regular-5e0" transform="translate(115.765625 0)"/>
     <use xlink:href="#Inter-Regular-53f" transform="translate(142.046875 0)"/>
     <use xlink:href="#Inter-Regular-545" transform="translate(205.140625 0)"/>
    </g>
   </g>
   <g id="text_26">
    <!--   3.11 -->
    <g style="fill: #b7bdc7" transform="translate(133.88669 104.245331) scale(0.085 -0.085)">
     <use xlink:href="#Inter-Regular-6eb"/>
     <use xlink:href="#Inter-Regular-6eb" transform="translate(28.125 0)"/>
     <use xlink:href="#Inter-Regular-543" transform="translate(56.25 0)"/>
     <use xlink:href="#Inter-Regular-5e0" transform="translate(115.765625 0)"/>
     <use xlink:href="#Inter-Regular-540" transform="translate(135.9375 0)"/>
     <use xlink:href="#Inter-Regular-540" transform="translate(176.609375 0)"/>
    </g>
   </g>
   <g id="text_27">
    <!--   3.55 -->
    <g style="fill: #b7bdc7" transform="translate(144.827478 84.100389) scale(0.085 -0.085)">
     <use xlink:href="#Inter-Regular-6eb"/>
     <use xlink:href="#Inter-Regular-6eb" transform="translate(28.125 0)"/>
     <use xlink:href="#Inter-Regular-543" transform="translate(56.25 0)"/>
     <use xlink:href="#Inter-Regular-5e0" transform="translate(115.765625 0)"/>
     <use xlink:href="#Inter-Regular-545" transform="translate(143.15625 0)"/>
     <use xlink:href="#Inter-Regular-545" transform="translate(203.953125 0)"/>
    </g>
   </g>
   <g id="text_28">
    <!--   4.38 -->
    <g style="fill: #b7bdc7" transform="translate(165.039733 63.955446) scale(0.085 -0.085)">
     <use xlink:href="#Inter-Regular-6eb"/>
     <use xlink:href="#Inter-Regular-6eb" transform="translate(28.125 0)"/>
     <use xlink:href="#Inter-Regular-544" transform="translate(56.25 0)"/>
     <use xlink:href="#Inter-Regular-5e0" transform="translate(117.46875 0)"/>
     <use xlink:href="#Inter-Regular-543" transform="translate(143.59375 0)"/>
     <use xlink:href="#Inter-Regular-549" transform="translate(205.359375 0)"/>
    </g>
   </g>
   <g id="text_29">
    <!--   13.55 -->
    <g style="fill: #b7bdc7" transform="translate(390.408319 43.810504) scale(0.085 -0.085)">
     <use xlink:href="#Inter-Regular-6eb"/>
     <use xlink:href="#Inter-Regular-6eb" transform="translate(28.125 0)"/>
     <use xlink:href="#Inter-Regular-540" transform="translate(56.25 0)"/>
     <use xlink:href="#Inter-Regular-543" transform="translate(96.921875 0)"/>
     <use xlink:href="#Inter-Regular-5e0" transform="translate(156.4375 0)"/>
     <use xlink:href="#Inter-Regular-545" transform="translate(183.828125 0)"/>
     <use xlink:href="#Inter-Regular-545" transform="translate(244.625 0)"/>
    </g>
   </g>
   <g id="text_30">
    <!-- Patching says the early layers carry the cause -->
    <g style="fill: #e6e8eb" transform="translate(57.54625 18.340625) scale(0.115 -0.115)">
     <defs>
      <path id="Inter-Regular-178" d="M 563 0 
L 1156 0 
L 1156 1684 
L 2159 1684 
C 3244 1684 3744 2344 3744 3175 
C 3744 4003 3244 4656 2156 4656 
L 563 4656 
L 563 0 
z
M 1156 2206 
L 1156 4134 
L 2125 4134 
C 2869 4134 3153 3725 3153 3175 
C 3153 2622 2869 2206 2131 2206 
L 1156 2206 
z
" transform="scale(0.015625)"/>
      <path id="Inter-Regular-369" d="M 1681 -75 
C 2500 -75 3059 372 3059 984 
C 3059 1463 2763 1778 2128 1928 
L 1600 2053 
C 1191 2150 1013 2294 1013 2553 
C 1013 2844 1325 3059 1741 3059 
C 2191 3059 2388 2816 2484 2566 
L 2994 2697 
C 2834 3188 2456 3538 1738 3538 
C 994 3538 444 3119 444 2519 
C 444 2028 747 1716 1381 1566 
L 1963 1428 
C 2306 1347 2475 1188 2475 947 
C 2475 659 2163 419 1675 419 
C 1256 419 972 591 872 975 
L 338 847 
C 463 244 963 -75 1681 -75 
z
" transform="scale(0.015625)"/>
      <path id="Inter-Regular-3e8" d="M 438 -1266 
C 497 -1294 650 -1331 850 -1331 
C 1344 -1331 1681 -1078 1894 -522 
L 3428 3494 
L 2816 3494 
L 2066 1422 
C 1956 1119 1875 816 1797 525 
C 1716 816 1638 1116 1528 1422 
L 784 3494 
L 169 3494 
L 1503 -19 
L 1403 -309 
C 1231 -809 984 -884 641 -794 
L 581 -778 
L 438 -1266 
z
" transform="scale(0.015625)"/>
      <path id="Inter-Regular-2e2" d="M 1056 4656 
L 494 4656 
L 494 0 
L 1056 0 
L 1056 4656 
z
" transform="scale(0.015625)"/>
      <path id="Inter-Regular-395" d="M 1678 -44 
C 2138 -44 2519 144 2747 653 
L 2747 0 
L 3291 0 
L 3291 3494 
L 2725 3494 
L 2725 1400 
C 2725 803 2347 463 1847 463 
C 1359 463 1056 784 1056 1322 
L 1056 3494 
L 494 3494 
L 494 1275 
C 494 391 972 -44 1678 -44 
z
" transform="scale(0.015625)"/>
     </defs>
     <use xlink:href="#Inter-Regular-178"/>
     <use xlink:href="#Inter-Regular-1fc" transform="translate(63.875 0)"/>
     <use xlink:href="#Inter-Regular-37b" transform="translate(120.03125 0)"/>
     <use xlink:href="#Inter-Regular-24b" transform="translate(151.78125 0)"/>
     <use xlink:href="#Inter-Regular-29f" transform="translate(208.90625 0)"/>
     <use xlink:href="#Inter-Regular-2b2" transform="translate(268.03125 0)"/>
     <use xlink:href="#Inter-Regular-307" transform="translate(292.25 0)"/>
     <use xlink:href="#Inter-Regular-293" transform="translate(351.328125 0)"/>
     <use xlink:href="#Inter-Regular-6eb" transform="translate(412.65625 0)"/>
     <use xlink:href="#Inter-Regular-369" transform="translate(440.78125 0)"/>
     <use xlink:href="#Inter-Regular-1fc" transform="translate(493.5625 0)"/>
     <use xlink:href="#Inter-Regular-3e8" transform="translate(548.25 0)"/>
     <use xlink:href="#Inter-Regular-369" transform="translate(604.453125 0)"/>
     <use xlink:href="#Inter-Regular-6eb" transform="translate(657.234375 0)"/>
     <use xlink:href="#Inter-Regular-37b" transform="translate(685.359375 0)"/>
     <use xlink:href="#Inter-Regular-29f" transform="translate(718.078125 0)"/>
     <use xlink:href="#Inter-Regular-267" transform="translate(777.203125 0)"/>
     <use xlink:href="#Inter-Regular-6eb" transform="translate(835.5 0)"/>
     <use xlink:href="#Inter-Regular-267" transform="translate(863.625 0)"/>
     <use xlink:href="#Inter-Regular-1fc" transform="translate(922.90625 0)"/>
     <use xlink:href="#Inter-Regular-356" transform="translate(979.0625 0)"/>
     <use xlink:href="#Inter-Regular-2e2" transform="translate(1018.265625 0)"/>
     <use xlink:href="#Inter-Regular-3e8" transform="translate(1042.96875 0)"/>
     <use xlink:href="#Inter-Regular-6eb" transform="translate(1099.171875 0)"/>
     <use xlink:href="#Inter-Regular-2e2" transform="translate(1127.296875 0)"/>
     <use xlink:href="#Inter-Regular-1fc" transform="translate(1151.515625 0)"/>
     <use xlink:href="#Inter-Regular-3e8" transform="translate(1206.203125 0)"/>
     <use xlink:href="#Inter-Regular-267" transform="translate(1260.453125 0)"/>
     <use xlink:href="#Inter-Regular-356" transform="translate(1318.75 0)"/>
     <use xlink:href="#Inter-Regular-369" transform="translate(1356.390625 0)"/>
     <use xlink:href="#Inter-Regular-6eb" transform="translate(1409.171875 0)"/>
     <use xlink:href="#Inter-Regular-24b" transform="translate(1437.296875 0)"/>
     <use xlink:href="#Inter-Regular-1fc" transform="translate(1495.40625 0)"/>
     <use xlink:href="#Inter-Regular-356" transform="translate(1551.5625 0)"/>
     <use xlink:href="#Inter-Regular-356" transform="translate(1590.765625 0)"/>
     <use xlink:href="#Inter-Regular-3e8" transform="translate(1629.96875 0)"/>
     <use xlink:href="#Inter-Regular-6eb" transform="translate(1686.171875 0)"/>
     <use xlink:href="#Inter-Regular-37b" transform="translate(1714.296875 0)"/>
     <use xlink:href="#Inter-Regular-29f" transform="translate(1747.015625 0)"/>
     <use xlink:href="#Inter-Regular-267" transform="translate(1806.140625 0)"/>
     <use xlink:href="#Inter-Regular-6eb" transform="translate(1864.4375 0)"/>
     <use xlink:href="#Inter-Regular-24b" transform="translate(1892.5625 0)"/>
     <use xlink:href="#Inter-Regular-1fc" transform="translate(1950.671875 0)"/>
     <use xlink:href="#Inter-Regular-395" transform="translate(2006.828125 0)"/>
     <use xlink:href="#Inter-Regular-369" transform="translate(2065.953125 0)"/>
     <use xlink:href="#Inter-Regular-267" transform="translate(2118.734375 0)"/>
    </g>
   </g>
  </g>
 </g>
 <defs>
  <clipPath id="pd3546a5f5d">
   <rect x="57.54625" y="24.340625" width="386.12" height="214.060156"/>
  </clipPath>
 </defs>
</svg>
