<?xml version="1.0" encoding="UTF-8"?>
<svg xmlns="http://www.w3.org/2000/svg" xmlns:xlink="http://www.w3.org/1999/xlink" width="445.787" height="188.102" viewBox="0 0 445.787 188.102">
<defs>
<g>
<g id="glyph-0-0">
<path d="M 0.65625 0 L 4.90625 0 L 4.90625 -0.984375 L 1.828125 -0.984375 L 1.828125 -2.796875 L 4.65625 -2.796875 L 4.65625 -3.78125 L 1.828125 -3.78125 L 1.828125 -5.53125 L 4.890625 -5.53125 L 4.890625 -6.515625 L 0.65625 -6.515625 Z M 0.65625 0 "/>
</g>
<g id="glyph-0-1">
<path d="M 0.234375 0 L 1.578125 0 L 2.578125 -1.46875 C 2.90625 -1.921875 3.046875 -2.1875 3.21875 -2.53125 C 3.40625 -2.171875 3.546875 -1.921875 3.859375 -1.46875 L 4.84375 0 L 6.21875 0 L 3.90625 -3.375 L 6.046875 -6.515625 L 4.71875 -6.515625 L 3.921875 -5.328125 C 3.59375 -4.828125 3.4375 -4.5 3.234375 -4.125 C 3.046875 -4.5 2.890625 -4.828125 2.5625 -5.328125 L 1.765625 -6.515625 L 0.421875 -6.515625 L 2.578125 -3.328125 Z M 0.234375 0 "/>
</g>
<g id="glyph-0-2">
<path d="M 0.65625 0 L 1.828125 0 L 1.828125 -2.203125 L 3.078125 -2.203125 C 4.578125 -2.203125 5.390625 -3.109375 5.390625 -4.359375 C 5.390625 -5.609375 4.59375 -6.515625 3.09375 -6.515625 L 0.65625 -6.515625 Z M 1.828125 -3.171875 L 1.828125 -5.53125 L 2.90625 -5.53125 C 3.8125 -5.53125 4.203125 -5.0625 4.203125 -4.359375 C 4.203125 -3.671875 3.8125 -3.171875 2.921875 -3.171875 Z M 1.828125 -3.171875 "/>
</g>
<g id="glyph-0-3">
<path d="M 0.65625 0 L 4.703125 0 L 4.703125 -0.984375 L 1.828125 -0.984375 L 1.828125 -6.515625 L 0.65625 -6.515625 Z M 0.65625 0 "/>
</g>
<g id="glyph-0-4">
<path d="M 3.453125 0.09375 C 5.15625 0.09375 6.4375 -1.15625 6.4375 -3.25 C 6.4375 -5.359375 5.15625 -6.609375 3.453125 -6.609375 C 1.734375 -6.609375 0.453125 -5.359375 0.453125 -3.25 C 0.453125 -1.15625 1.734375 0.09375 3.453125 0.09375 Z M 3.453125 -0.953125 C 2.375 -0.953125 1.625 -1.765625 1.625 -3.25 C 1.625 -4.75 2.375 -5.5625 3.453125 -5.5625 C 4.5 -5.5625 5.265625 -4.75 5.265625 -3.25 C 5.265625 -1.765625 4.5 -0.953125 3.453125 -0.953125 Z M 3.453125 -0.953125 "/>
</g>
<g id="glyph-0-5">
<path d="M 0.65625 0 L 1.828125 0 L 1.828125 -2.390625 L 3.046875 -2.390625 L 4.328125 0 L 5.625 0 L 4.21875 -2.59375 C 4.984375 -2.890625 5.390625 -3.546875 5.390625 -4.4375 C 5.390625 -5.671875 4.59375 -6.515625 3.09375 -6.515625 L 0.65625 -6.515625 Z M 1.828125 -3.359375 L 1.828125 -5.53125 L 2.90625 -5.53125 C 3.796875 -5.53125 4.203125 -5.125 4.203125 -4.4375 C 4.203125 -3.734375 3.796875 -3.359375 2.921875 -3.359375 Z M 1.828125 -3.359375 "/>
</g>
<g id="glyph-0-6">
<path d="M 0.21875 0 L 1.5 0 L 2.03125 -1.609375 L 4.46875 -1.609375 L 5.015625 0 L 6.296875 0 L 3.984375 -6.515625 L 2.5 -6.515625 Z M 2.34375 -2.5625 L 2.609375 -3.390625 C 2.796875 -3.96875 3 -4.703125 3.21875 -5.609375 C 3.46875 -4.703125 3.671875 -3.984375 3.859375 -3.390625 L 4.140625 -2.5625 Z M 2.34375 -2.5625 "/>
</g>
<g id="glyph-0-7">
<path d="M 0.359375 -5.53125 L 2.375 -5.53125 L 2.375 0 L 3.546875 0 L 3.546875 -5.53125 L 5.546875 -5.53125 L 5.546875 -6.515625 L 0.359375 -6.515625 Z M 0.359375 -5.53125 "/>
</g>
<g id="glyph-0-8">
<path d="M 2.625 0 L 3.796875 0 L 3.796875 -2.53125 L 6.171875 -6.515625 L 4.8125 -6.515625 L 3.671875 -4.46875 C 3.5 -4.15625 3.359375 -3.875 3.21875 -3.5 C 3.078125 -3.859375 2.921875 -4.140625 2.75 -4.46875 L 1.578125 -6.515625 L 0.21875 -6.515625 L 2.625 -2.53125 Z M 2.625 0 "/>
</g>
<g id="glyph-0-9">
<path d="M 3.4375 0.09375 C 4.96875 0.09375 6 -0.921875 6.1875 -2.171875 L 5 -2.171875 C 4.859375 -1.40625 4.21875 -0.953125 3.453125 -0.953125 C 2.390625 -0.953125 1.625 -1.765625 1.625 -3.25 C 1.625 -4.734375 2.390625 -5.5625 3.453125 -5.5625 C 4.234375 -5.5625 4.859375 -5.125 5 -4.34375 L 6.1875 -4.34375 C 5.96875 -5.78125 4.859375 -6.609375 3.4375 -6.609375 C 1.734375 -6.609375 0.453125 -5.359375 0.453125 -3.25 C 0.453125 -1.15625 1.71875 0.09375 3.4375 0.09375 Z M 3.4375 0.09375 "/>
</g>
<g id="glyph-0-10">
<path d="M 1.828125 -6.515625 L 0.65625 -6.515625 L 0.65625 0 L 1.828125 0 Z M 1.828125 -6.515625 "/>
</g>
<g id="glyph-0-11">
<path d="M 0.65625 0 L 3.28125 0 C 4.78125 0 5.515625 -0.765625 5.515625 -1.78125 C 5.515625 -2.765625 4.8125 -3.34375 4.109375 -3.375 L 4.109375 -3.4375 C 4.75 -3.59375 5.25 -4.03125 5.25 -4.828125 C 5.25 -5.796875 4.5625 -6.515625 3.15625 -6.515625 L 0.65625 -6.515625 Z M 1.828125 -0.96875 L 1.828125 -2.890625 L 3.140625 -2.890625 C 3.875 -2.890625 4.328125 -2.453125 4.328125 -1.859375 C 4.328125 -1.34375 3.96875 -0.96875 3.109375 -0.96875 Z M 1.828125 -3.734375 L 1.828125 -5.546875 L 3.03125 -5.546875 C 3.734375 -5.546875 4.09375 -5.1875 4.09375 -4.671875 C 4.09375 -4.09375 3.625 -3.734375 3 -3.734375 Z M 1.828125 -3.734375 "/>
</g>
<g id="glyph-0-12">
<path d="M 2.859375 0 C 4.84375 0 6.015625 -1.234375 6.015625 -3.265625 C 6.015625 -5.296875 4.84375 -6.515625 2.90625 -6.515625 L 0.65625 -6.515625 L 0.65625 0 Z M 1.828125 -1.015625 L 1.828125 -5.515625 L 2.828125 -5.515625 C 4.171875 -5.515625 4.859375 -4.765625 4.859375 -3.265625 C 4.859375 -1.765625 4.171875 -1.015625 2.796875 -1.015625 Z M 1.828125 -1.015625 "/>
</g>
<g id="glyph-0-13">
<path d="M 3.46875 0.09375 C 5.078125 0.09375 6.234375 -0.953125 6.234375 -2.625 L 6.234375 -3.40625 L 3.59375 -3.40625 L 3.59375 -2.484375 L 5.09375 -2.484375 C 5.078125 -1.546875 4.453125 -0.953125 3.46875 -0.953125 C 2.375 -0.953125 1.625 -1.78125 1.625 -3.265625 C 1.625 -4.734375 2.390625 -5.5625 3.453125 -5.5625 C 4.234375 -5.5625 4.765625 -5.125 4.984375 -4.4375 L 6.171875 -4.4375 C 5.96875 -5.71875 4.875 -6.609375 3.4375 -6.609375 C 1.734375 -6.609375 0.453125 -5.34375 0.453125 -3.25 C 0.453125 -1.1875 1.671875 0.09375 3.46875 0.09375 Z M 3.46875 0.09375 "/>
</g>
<g id="glyph-0-14">
<path d="M 2.9375 0.09375 C 4.5 0.09375 5.40625 -0.6875 5.40625 -1.828125 C 5.40625 -2.96875 4.46875 -3.46875 3.5 -3.703125 L 2.890625 -3.859375 C 2.359375 -3.984375 1.78125 -4.203125 1.78125 -4.75 C 1.78125 -5.25 2.21875 -5.609375 2.953125 -5.609375 C 3.65625 -5.609375 4.140625 -5.296875 4.1875 -4.734375 L 5.328125 -4.734375 C 5.296875 -5.828125 4.359375 -6.609375 2.96875 -6.609375 C 1.609375 -6.609375 0.59375 -5.84375 0.59375 -4.6875 C 0.59375 -3.765625 1.234375 -3.21875 2.328125 -2.9375 L 3.0625 -2.75 C 3.765625 -2.5625 4.25 -2.34375 4.25 -1.84375 C 4.25 -1.28125 3.703125 -0.890625 2.9375 -0.890625 C 2.203125 -0.890625 1.625 -1.234375 1.5625 -1.921875 L 0.421875 -1.921875 C 0.46875 -0.625 1.421875 0.09375 2.9375 0.09375 Z M 2.9375 0.09375 "/>
</g>
<g id="glyph-0-15">
<path d="M 2.453125 0.09375 C 3.734375 0.09375 4.546875 -0.640625 4.546875 -1.921875 L 4.546875 -6.515625 L 3.375 -6.515625 L 3.375 -1.921875 C 3.375 -1.234375 3.015625 -0.875 2.453125 -0.875 C 1.875 -0.875 1.515625 -1.234375 1.515625 -1.921875 L 1.515625 -2.296875 L 0.34375 -2.296875 L 0.34375 -1.921875 C 0.34375 -0.640625 1.15625 0.09375 2.453125 0.09375 Z M 2.453125 0.09375 "/>
</g>
<g id="glyph-0-16">
<path d="M 3.296875 0.09375 C 4.890625 0.09375 5.9375 -0.859375 5.9375 -2.265625 L 5.9375 -6.515625 L 4.765625 -6.515625 L 4.765625 -2.359375 C 4.765625 -1.546875 4.203125 -0.953125 3.296875 -0.953125 C 2.390625 -0.953125 1.828125 -1.546875 1.828125 -2.359375 L 1.828125 -6.515625 L 0.65625 -6.515625 L 0.65625 -2.265625 C 0.65625 -0.859375 1.703125 0.09375 3.296875 0.09375 Z M 3.296875 0.09375 "/>
</g>
<g id="glyph-1-0">
<path d="M 1.609375 0.09375 C 2.25 0.09375 2.609375 -0.25 2.734375 -0.515625 L 2.78125 -0.515625 L 2.78125 0 L 3.375 0 L 3.375 -2.515625 C 3.375 -3.703125 2.46875 -3.859375 1.953125 -3.859375 C 1.359375 -3.859375 0.703125 -3.640625 0.421875 -2.953125 L 1 -2.765625 C 1.125 -3.03125 1.421875 -3.3125 1.96875 -3.3125 C 2.5 -3.3125 2.765625 -3.046875 2.765625 -2.578125 L 2.765625 -2.546875 C 2.765625 -2.265625 2.46875 -2.28125 1.78125 -2.203125 C 1.078125 -2.109375 0.3125 -1.953125 0.3125 -1.078125 C 0.3125 -0.328125 0.875 0.09375 1.609375 0.09375 Z M 1.703125 -0.453125 C 1.25 -0.453125 0.921875 -0.65625 0.921875 -1.046875 C 0.921875 -1.484375 1.3125 -1.625 1.765625 -1.6875 C 2 -1.71875 2.65625 -1.78125 2.765625 -1.90625 L 2.765625 -1.375 C 2.765625 -0.90625 2.390625 -0.453125 1.703125 -0.453125 Z M 1.703125 -0.453125 "/>
</g>
<g id="glyph-1-1">
<path d="M 2.3125 0.078125 C 3.25 0.078125 3.921875 -0.6875 3.921875 -1.890625 C 3.921875 -3.09375 3.25 -3.859375 2.296875 -3.859375 C 1.5625 -3.859375 1.328125 -3.40625 1.203125 -3.203125 L 1.15625 -3.203125 L 1.15625 -5.078125 L 0.53125 -5.078125 L 0.53125 0 L 1.125 0 L 1.125 -0.59375 L 1.203125 -0.59375 C 1.328125 -0.375 1.578125 0.078125 2.3125 0.078125 Z M 2.21875 -0.46875 C 1.515625 -0.46875 1.140625 -1.046875 1.140625 -1.90625 C 1.140625 -2.734375 1.515625 -3.3125 2.21875 -3.3125 C 2.9375 -3.3125 3.296875 -2.6875 3.296875 -1.90625 C 3.296875 -1.09375 2.921875 -0.46875 2.21875 -0.46875 Z M 2.21875 -0.46875 "/>
</g>
<g id="glyph-1-2">
<path d="M 0.53125 0 L 1.15625 0 L 1.15625 -2.390625 C 1.15625 -2.90625 1.546875 -3.265625 2.109375 -3.265625 C 2.265625 -3.265625 2.4375 -3.25 2.46875 -3.234375 L 2.46875 -3.859375 C 2.390625 -3.859375 2.25 -3.859375 2.15625 -3.859375 C 1.703125 -3.859375 1.3125 -3.609375 1.171875 -3.21875 L 1.125 -3.21875 L 1.125 -3.8125 L 0.53125 -3.8125 Z M 0.53125 0 "/>
</g>
<g id="glyph-1-3">
<path d="M 2.140625 0.078125 C 2.921875 0.078125 3.484375 -0.3125 3.671875 -0.890625 L 3.078125 -1.046875 C 2.921875 -0.65625 2.59375 -0.46875 2.140625 -0.46875 C 1.46875 -0.46875 1 -0.90625 0.96875 -1.703125 L 3.71875 -1.703125 L 3.71875 -1.953125 C 3.71875 -3.359375 2.875 -3.859375 2.0625 -3.859375 C 1.03125 -3.859375 0.359375 -3.046875 0.359375 -1.875 C 0.359375 -0.703125 1.03125 0.078125 2.140625 0.078125 Z M 0.984375 -2.21875 C 1.015625 -2.796875 1.40625 -3.3125 2.0625 -3.3125 C 2.6875 -3.3125 3.046875 -2.859375 3.109375 -2.21875 Z M 0.984375 -2.21875 "/>
</g>
<g id="glyph-1-4">
<path d="M 0.53125 0 L 1.15625 0 L 1.15625 -2.390625 C 1.15625 -3 1.5625 -3.3125 2 -3.3125 C 2.4375 -3.3125 2.75 -3.03125 2.75 -2.609375 L 2.75 0 L 3.359375 0 L 3.359375 -2.484375 C 3.359375 -2.96875 3.671875 -3.3125 4.1875 -3.3125 C 4.59375 -3.3125 4.953125 -3.09375 4.953125 -2.546875 L 4.953125 0 L 5.578125 0 L 5.578125 -2.5625 C 5.578125 -3.453125 5.03125 -3.875 4.375 -3.875 C 3.828125 -3.875 3.359375 -3.578125 3.171875 -3.09375 C 3.03125 -3.5625 2.703125 -3.875 2.203125 -3.875 C 1.75 -3.875 1.328125 -3.625 1.140625 -3.109375 L 1.140625 -3.8125 L 0.53125 -3.8125 Z M 0.53125 0 "/>
</g>
<g id="glyph-1-5">
<path d="M 1.828125 0.078125 C 2.71875 0.078125 3.328125 -0.40625 3.328125 -1.078125 C 3.328125 -1.59375 3.015625 -1.9375 2.3125 -2.109375 L 1.75 -2.234375 C 1.296875 -2.34375 1.109375 -2.5 1.109375 -2.78125 C 1.109375 -3.09375 1.4375 -3.328125 1.890625 -3.328125 C 2.390625 -3.328125 2.609375 -3.0625 2.703125 -2.796875 L 3.265625 -2.9375 C 3.09375 -3.46875 2.671875 -3.859375 1.890625 -3.859375 C 1.078125 -3.859375 0.484375 -3.40625 0.484375 -2.75 C 0.484375 -2.203125 0.8125 -1.875 1.5 -1.703125 L 2.140625 -1.5625 C 2.515625 -1.46875 2.703125 -1.296875 2.703125 -1.03125 C 2.703125 -0.71875 2.359375 -0.453125 1.828125 -0.453125 C 1.375 -0.453125 1.0625 -0.640625 0.953125 -1.0625 L 0.375 -0.921875 C 0.5 -0.265625 1.046875 0.078125 1.828125 0.078125 Z M 1.828125 0.078125 "/>
</g>
<g id="glyph-1-6">
<path d="M 1.828125 0.046875 C 2.328125 0.046875 2.75 -0.15625 3 -0.71875 L 3 0 L 3.59375 0 L 3.59375 -3.8125 L 2.96875 -3.8125 L 2.96875 -1.53125 C 2.96875 -0.875 2.5625 -0.5 2.015625 -0.5 C 1.484375 -0.5 1.15625 -0.859375 1.15625 -1.4375 L 1.15625 -3.8125 L 0.53125 -3.8125 L 0.53125 -1.390625 C 0.53125 -0.421875 1.0625 0.046875 1.828125 0.046875 Z M 1.828125 0.046875 "/>
</g>
<g id="glyph-1-7">
<path d="M 1.15625 -2.28125 C 1.15625 -2.9375 1.5625 -3.296875 2.109375 -3.296875 C 2.640625 -3.296875 2.96875 -2.953125 2.96875 -2.375 L 2.96875 0 L 3.578125 0 L 3.578125 -2.421875 C 3.578125 -3.375 3.0625 -3.859375 2.296875 -3.859375 C 1.78125 -3.859375 1.375 -3.640625 1.125 -3.109375 L 1.125 -3.8125 L 0.53125 -3.8125 L 0.53125 0 L 1.15625 0 Z M 1.15625 -2.28125 "/>
</g>
<g id="glyph-1-8">
<path d="M 2.03125 -3.8125 L 1.25 -3.8125 L 1.25 -4.71875 L 0.640625 -4.71875 L 0.640625 -3.8125 L 0.0625 -3.8125 L 0.0625 -3.28125 L 0.640625 -3.28125 L 0.640625 -0.9375 C 0.640625 -0.3125 1.03125 0.046875 1.6875 0.046875 C 1.84375 0.046875 2.015625 0.03125 2.140625 -0.015625 L 2.015625 -0.53125 C 1.921875 -0.515625 1.78125 -0.5 1.703125 -0.5 C 1.375 -0.5 1.25 -0.640625 1.25 -0.984375 L 1.25 -3.28125 L 2.03125 -3.28125 Z M 2.03125 -3.8125 "/>
</g>
<g id="glyph-1-9">
<path d="M 1.15625 -2.28125 C 1.15625 -2.9375 1.5625 -3.296875 2.109375 -3.296875 C 2.640625 -3.296875 2.96875 -2.953125 2.96875 -2.375 L 2.96875 0 L 3.59375 0 L 3.59375 -2.421875 C 3.59375 -3.375 3.0625 -3.859375 2.296875 -3.859375 C 1.796875 -3.859375 1.40625 -3.65625 1.15625 -3.140625 L 1.15625 -5.078125 L 0.53125 -5.078125 L 0.53125 0 L 1.15625 0 Z M 1.15625 -2.28125 "/>
</g>
<g id="glyph-1-10">
<path d="M 2.09375 0.078125 C 2.828125 0.078125 3.4375 -0.328125 3.640625 -1 L 3.0625 -1.171875 C 2.953125 -0.75 2.59375 -0.46875 2.09375 -0.46875 C 1.328125 -0.46875 0.984375 -1.125 0.984375 -1.875 C 0.984375 -2.640625 1.328125 -3.3125 2.09375 -3.3125 C 2.59375 -3.3125 2.921875 -3.03125 3.046875 -2.640625 L 3.625 -2.796875 C 3.421875 -3.46875 2.828125 -3.859375 2.09375 -3.859375 C 1.046875 -3.859375 0.359375 -3.078125 0.359375 -1.875 C 0.359375 -0.703125 1.046875 0.078125 2.09375 0.078125 Z M 2.09375 0.078125 "/>
</g>
<g id="glyph-1-11">
<path d="M 2.09375 0.078125 C 3.125 0.078125 3.828125 -0.703125 3.828125 -1.875 C 3.828125 -3.078125 3.125 -3.859375 2.09375 -3.859375 C 1.046875 -3.859375 0.359375 -3.078125 0.359375 -1.875 C 0.359375 -0.703125 1.046875 0.078125 2.09375 0.078125 Z M 2.09375 -0.46875 C 1.328125 -0.46875 0.984375 -1.125 0.984375 -1.875 C 0.984375 -2.640625 1.328125 -3.3125 2.09375 -3.3125 C 2.859375 -3.3125 3.203125 -2.640625 3.203125 -1.875 C 3.203125 -1.125 2.859375 -0.46875 2.09375 -0.46875 Z M 2.09375 -0.46875 "/>
</g>
<g id="glyph-1-12">
<path d="M 1.96875 0.078125 C 2.6875 0.078125 2.953125 -0.375 3.078125 -0.59375 L 3.140625 -0.59375 L 3.140625 0 L 3.734375 0 L 3.734375 -5.078125 L 3.125 -5.078125 L 3.125 -3.203125 L 3.078125 -3.203125 C 2.953125 -3.40625 2.71875 -3.859375 1.96875 -3.859375 C 1.015625 -3.859375 0.359375 -3.09375 0.359375 -1.890625 C 0.359375 -0.6875 1.015625 0.078125 1.96875 0.078125 Z M 2.0625 -0.46875 C 1.34375 -0.46875 0.984375 -1.09375 0.984375 -1.90625 C 0.984375 -2.6875 1.328125 -3.3125 2.0625 -3.3125 C 2.765625 -3.3125 3.125 -2.734375 3.125 -1.90625 C 3.125 -1.046875 2.75 -0.46875 2.0625 -0.46875 Z M 2.0625 -0.46875 "/>
</g>
<g id="glyph-1-13">
<path d="M 0.53125 1.421875 L 1.15625 1.421875 L 1.15625 -0.59375 L 1.203125 -0.59375 C 1.328125 -0.375 1.578125 0.078125 2.3125 0.078125 C 3.25 0.078125 3.921875 -0.6875 3.921875 -1.890625 C 3.921875 -3.09375 3.25 -3.859375 2.296875 -3.859375 C 1.5625 -3.859375 1.328125 -3.40625 1.203125 -3.203125 L 1.125 -3.203125 L 1.125 -3.8125 L 0.53125 -3.8125 Z M 2.21875 -0.46875 C 1.515625 -0.46875 1.140625 -1.046875 1.140625 -1.90625 C 1.140625 -2.734375 1.515625 -3.3125 2.21875 -3.3125 C 2.9375 -3.3125 3.296875 -2.6875 3.296875 -1.90625 C 3.296875 -1.09375 2.921875 -0.46875 2.21875 -0.46875 Z M 2.21875 -0.46875 "/>
</g>
<g id="glyph-1-14">
<path d="M 0.53125 0 L 1.15625 0 L 1.15625 -3.8125 L 0.53125 -3.8125 Z M 0.84375 -4.4375 C 1.078125 -4.4375 1.28125 -4.609375 1.28125 -4.84375 C 1.28125 -5.0625 1.078125 -5.25 0.84375 -5.25 C 0.609375 -5.25 0.421875 -5.0625 0.421875 -4.84375 C 0.421875 -4.609375 0.609375 -4.4375 0.84375 -4.4375 Z M 0.84375 -4.4375 "/>
</g>
<g id="glyph-1-15">
<path d="M 1.640625 0 L 2.28125 0 L 3.734375 -3.8125 L 3.0625 -3.8125 L 2.25 -1.546875 C 2.140625 -1.21875 2.046875 -0.890625 1.96875 -0.5625 C 1.875 -0.890625 1.78125 -1.21875 1.671875 -1.546875 L 0.859375 -3.8125 L 0.1875 -3.8125 Z M 1.640625 0 "/>
</g>
<g id="glyph-1-16">
<path d="M 2.3125 -3.8125 L 1.4375 -3.8125 L 1.4375 -4.171875 C 1.4375 -4.546875 1.59375 -4.75 1.96875 -4.75 C 2.140625 -4.75 2.234375 -4.703125 2.296875 -4.6875 L 2.46875 -5.21875 C 2.375 -5.25 2.1875 -5.3125 1.90625 -5.3125 C 1.34375 -5.3125 0.8125 -4.984375 0.8125 -4.3125 L 0.8125 -3.8125 L 0.0625 -3.8125 L 0.0625 -3.28125 L 0.8125 -3.28125 L 0.8125 0 L 1.4375 0 L 1.4375 -3.28125 L 2.3125 -3.28125 Z M 2.3125 -3.8125 "/>
</g>
<g id="glyph-1-17">
<path d="M 0.421875 0 L 3.421875 0 L 3.421875 -0.5625 L 1.28125 -0.5625 L 1.28125 -0.609375 L 3.359375 -3.328125 L 3.359375 -3.8125 L 0.5 -3.8125 L 0.5 -3.234375 L 2.5625 -3.234375 L 2.5625 -3.203125 L 0.421875 -0.453125 Z M 0.421875 0 "/>
</g>
<g id="glyph-1-18">
<path d="M 1.15625 -5.078125 L 0.53125 -5.078125 L 0.53125 0 L 1.15625 0 Z M 1.15625 -5.078125 "/>
</g>
<g id="glyph-2-0">
<path d="M 1.21875 -2.265625 C 1.328125 -2.90625 1.8125 -3.296875 2.375 -3.296875 C 2.890625 -3.296875 3.15625 -2.984375 3.046875 -2.390625 L 2.65625 0 L 3.265625 0 L 3.671875 -2.390625 C 3.828125 -3.359375 3.375 -3.859375 2.578125 -3.859375 C 2.078125 -3.859375 1.65625 -3.65625 1.328125 -3.140625 L 1.4375 -3.8125 L 0.859375 -3.8125 L 0.21875 0 L 0.828125 0 Z M 1.21875 -2.265625 "/>
</g>
<g id="glyph-2-1">
<path d="M 1.796875 0.078125 C 3.0625 0.078125 3.859375 -1.078125 3.859375 -2.296875 C 3.859375 -3.25 3.296875 -3.859375 2.375 -3.859375 C 1.09375 -3.859375 0.3125 -2.6875 0.3125 -1.46875 C 0.3125 -0.53125 0.875 0.078125 1.796875 0.078125 Z M 1.8125 -0.46875 C 1.203125 -0.46875 0.9375 -0.90625 0.9375 -1.484375 C 0.9375 -2.328125 1.4375 -3.3125 2.359375 -3.3125 C 2.984375 -3.3125 3.25 -2.859375 3.25 -2.28125 C 3.25 -1.4375 2.75 -0.46875 1.8125 -0.46875 Z M 1.8125 -0.46875 "/>
</g>
<g id="glyph-2-2">
<path d="M 1.53125 0.078125 C 2.40625 0.078125 3.078125 -0.390625 3.1875 -1.03125 C 3.28125 -1.578125 3 -1.9375 2.328125 -2.09375 L 1.78125 -2.234375 C 1.34375 -2.34375 1.203125 -2.484375 1.234375 -2.734375 C 1.296875 -3.078125 1.703125 -3.328125 2.171875 -3.328125 C 2.640625 -3.328125 2.796875 -3.09375 2.859375 -2.8125 L 3.421875 -2.921875 C 3.421875 -2.96875 3.40625 -3.015625 3.390625 -3.0625 C 3.265625 -3.53125 2.90625 -3.859375 2.171875 -3.859375 C 1.390625 -3.859375 0.734375 -3.421875 0.625 -2.78125 C 0.53125 -2.234375 0.828125 -1.875 1.484375 -1.703125 L 2.09375 -1.5625 C 2.453125 -1.46875 2.59375 -1.3125 2.5625 -1.078125 C 2.5 -0.734375 2.09375 -0.453125 1.546875 -0.453125 C 1.109375 -0.453125 0.84375 -0.625 0.796875 -1.046875 L 0.203125 -0.9375 C 0.203125 -0.90625 0.21875 -0.875 0.21875 -0.859375 C 0.28125 -0.25 0.765625 0.078125 1.53125 0.078125 Z M 1.53125 0.078125 "/>
</g>
<g id="glyph-2-3">
<path d="M 1.21875 -2.28125 C 1.328125 -2.9375 1.796875 -3.296875 2.34375 -3.296875 C 2.875 -3.296875 3.140625 -2.953125 3.046875 -2.375 L 2.65625 0 L 3.265625 0 L 3.671875 -2.421875 C 3.828125 -3.375 3.359375 -3.859375 2.59375 -3.859375 C 2.109375 -3.859375 1.6875 -3.65625 1.359375 -3.15625 L 1.671875 -5.078125 L 1.0625 -5.078125 L 0.21875 0 L 0.828125 0 Z M 1.21875 -2.28125 "/>
</g>
<g id="glyph-2-4">
<path d="M 0.21875 0 L 0.84375 0 L 1.234375 -2.390625 C 1.3125 -2.90625 1.78125 -3.265625 2.328125 -3.265625 C 2.484375 -3.265625 2.640625 -3.25 2.6875 -3.234375 L 2.796875 -3.859375 C 2.71875 -3.859375 2.578125 -3.859375 2.484375 -3.859375 C 2.03125 -3.859375 1.59375 -3.609375 1.390625 -3.21875 L 1.359375 -3.21875 L 1.453125 -3.8125 L 0.859375 -3.8125 Z M 0.21875 0 "/>
</g>
<g id="glyph-2-5">
<path d="M 2.359375 -3.8125 L 1.578125 -3.8125 L 1.71875 -4.71875 L 1.109375 -4.71875 L 0.953125 -3.8125 L 0.390625 -3.8125 L 0.296875 -3.28125 L 0.875 -3.28125 L 0.484375 -0.9375 C 0.375 -0.328125 0.703125 0.046875 1.375 0.046875 C 1.53125 0.046875 1.703125 0.015625 1.828125 -0.015625 L 1.796875 -0.53125 C 1.6875 -0.515625 1.546875 -0.5 1.46875 -0.5 C 1.15625 -0.5 1.046875 -0.640625 1.109375 -0.984375 L 1.484375 -3.28125 L 2.265625 -3.28125 Z M 2.359375 -3.8125 "/>
</g>
<g id="glyph-2-6">
<path d="M 1.796875 0.078125 C 2.53125 0.078125 3.1875 -0.3125 3.5 -0.984375 L 2.9375 -1.1875 C 2.75 -0.765625 2.34375 -0.46875 1.8125 -0.46875 C 1.1875 -0.46875 0.9375 -0.90625 0.9375 -1.484375 C 0.9375 -2.328125 1.4375 -3.3125 2.359375 -3.3125 C 2.84375 -3.3125 3.125 -3.046875 3.171875 -2.65625 L 3.765625 -2.78125 C 3.671875 -3.453125 3.125 -3.859375 2.375 -3.859375 C 1.09375 -3.859375 0.3125 -2.6875 0.3125 -1.46875 C 0.3125 -0.53125 0.875 0.078125 1.796875 0.078125 Z M 1.796875 0.078125 "/>
</g>
<g id="glyph-2-7">
<path d="M 1.515625 0.046875 C 2.015625 0.046875 2.453125 -0.15625 2.796875 -0.71875 L 2.6875 0 L 3.28125 0 L 3.90625 -3.8125 L 3.28125 -3.8125 L 2.90625 -1.53125 C 2.796875 -0.859375 2.3125 -0.5 1.78125 -0.5 C 1.25 -0.5 0.984375 -0.859375 1.078125 -1.4375 L 1.46875 -3.8125 L 0.859375 -3.8125 L 0.453125 -1.390625 C 0.296875 -0.421875 0.75 0.046875 1.515625 0.046875 Z M 1.515625 0.046875 "/>
</g>
<g id="glyph-2-8">
<path d="M 1.828125 0.078125 C 2.578125 0.078125 3.21875 -0.296875 3.515625 -0.890625 L 2.9375 -1.046875 C 2.75 -0.6875 2.34375 -0.453125 1.859375 -0.453125 C 1.15625 -0.453125 0.90625 -0.90625 0.90625 -1.453125 C 0.90625 -1.515625 0.90625 -1.59375 0.921875 -1.65625 C 2.796875 -1.671875 3.609375 -2.015625 3.609375 -2.84375 C 3.609375 -3.484375 3.140625 -3.890625 2.390625 -3.890625 C 1.25 -3.890625 0.3125 -2.796875 0.3125 -1.453125 C 0.3125 -0.484375 0.875 0.078125 1.828125 0.078125 Z M 1 -2.125 C 1.171875 -2.734375 1.59375 -3.34375 2.34375 -3.34375 C 2.734375 -3.34375 3 -3.15625 3 -2.859375 C 3 -2.3125 2.53125 -2.140625 1 -2.125 Z M 1 -2.125 "/>
</g>
<g id="glyph-2-9">
<path d="M 1.640625 0.078125 C 2.359375 0.078125 2.6875 -0.359375 2.859375 -0.59375 L 2.921875 -0.59375 L 2.828125 0 L 3.421875 0 L 4.0625 -3.8125 L 3.4375 -3.8125 L 3.34375 -3.203125 L 3.296875 -3.203125 C 3.1875 -3.40625 3.03125 -3.859375 2.296875 -3.859375 C 1.359375 -3.859375 0.5625 -3.109375 0.359375 -1.890625 C 0.15625 -0.6875 0.6875 0.078125 1.640625 0.078125 Z M 1.828125 -0.46875 C 1.109375 -0.46875 0.84375 -1.109375 0.984375 -1.90625 C 1.109375 -2.6875 1.5625 -3.3125 2.296875 -3.3125 C 3 -3.3125 3.28125 -2.75 3.140625 -1.90625 C 3 -1.0625 2.53125 -0.46875 1.828125 -0.46875 Z M 1.828125 -0.46875 "/>
</g>
<g id="glyph-2-10">
<path d="M 1.671875 -5.078125 L 1.0625 -5.078125 L 0.21875 0 L 0.828125 0 Z M 1.671875 -5.078125 "/>
</g>
<g id="glyph-2-11">
<path d="M -0.015625 1.421875 L 0.59375 1.421875 L 0.9375 -0.609375 L 1 -0.609375 C 1.078125 -0.390625 1.265625 0.078125 2.015625 0.078125 C 3.234375 0.078125 3.953125 -1.140625 3.953125 -2.328125 C 3.953125 -3.28125 3.421875 -3.859375 2.578125 -3.859375 C 1.859375 -3.859375 1.53125 -3.4375 1.375 -3.203125 L 1.34375 -3.203125 L 1.453125 -3.8125 L 0.859375 -3.8125 Z M 1.9375 -0.46875 C 1.375 -0.46875 1.109375 -0.859375 1.109375 -1.46875 C 1.109375 -2.34375 1.5625 -3.3125 2.484375 -3.3125 C 3.0625 -3.3125 3.328125 -2.890625 3.328125 -2.3125 C 3.328125 -1.46875 2.84375 -0.46875 1.9375 -0.46875 Z M 1.9375 -0.46875 "/>
</g>
<g id="glyph-2-12">
<path d="M 0.21875 0 L 0.84375 0 L 1.46875 -3.8125 L 0.859375 -3.8125 Z M 1.265625 -4.4375 C 1.5 -4.4375 1.734375 -4.609375 1.765625 -4.84375 C 1.796875 -5.078125 1.625 -5.25 1.40625 -5.25 C 1.15625 -5.25 0.953125 -5.0625 0.90625 -4.84375 C 0.875 -4.625 1.03125 -4.4375 1.265625 -4.4375 Z M 1.265625 -4.4375 "/>
</g>
<g id="glyph-2-13">
<path d="M 2.65625 -3.8125 L 1.78125 -3.8125 L 1.8125 -4.078125 C 1.890625 -4.53125 2.09375 -4.75 2.46875 -4.75 C 2.59375 -4.75 2.796875 -4.734375 2.875 -4.71875 L 3.046875 -5.25 C 2.875 -5.28125 2.734375 -5.3125 2.546875 -5.3125 C 1.8125 -5.3125 1.328125 -4.875 1.203125 -4.078125 L 1.15625 -3.8125 L 0.390625 -3.8125 L 0.296875 -3.3125 L 1.078125 -3.3125 L 0.46875 0.40625 C 0.40625 0.796875 0.21875 0.953125 -0.109375 0.953125 C -0.171875 0.953125 -0.375 0.9375 -0.4375 0.921875 L -0.59375 1.46875 C -0.46875 1.515625 -0.34375 1.53125 -0.1875 1.53125 C 0.5 1.53125 0.953125 1.140625 1.078125 0.390625 L 1.6875 -3.3125 L 2.578125 -3.3125 Z M 2.65625 -3.8125 "/>
</g>
<g id="glyph-2-14">
<path d="M 0.71875 0.046875 C 0.953125 0.046875 1.171875 -0.15625 1.203125 -0.390625 C 1.25 -0.640625 1.0625 -0.875 0.796875 -0.875 C 0.5625 -0.875 0.34375 -0.6875 0.3125 -0.453125 C 0.265625 -0.171875 0.453125 0.046875 0.71875 0.046875 Z M 1.171875 -2.71875 C 1.40625 -2.71875 1.625 -2.90625 1.65625 -3.140625 C 1.703125 -3.40625 1.515625 -3.625 1.25 -3.625 C 1.015625 -3.625 0.796875 -3.453125 0.765625 -3.21875 C 0.71875 -2.9375 0.90625 -2.71875 1.171875 -2.71875 Z M 1.171875 -2.71875 "/>
</g>
<g id="glyph-2-15">
<path d="M 1.671875 0.078125 C 2.390625 0.078125 2.703125 -0.34375 2.859375 -0.59375 L 2.921875 -0.59375 L 2.828125 0 L 3.421875 0 L 4.265625 -5.078125 L 3.640625 -5.078125 L 3.328125 -3.1875 L 3.296875 -3.1875 C 3.1875 -3.390625 3.015625 -3.859375 2.265625 -3.859375 C 1.046875 -3.859375 0.3125 -2.640625 0.3125 -1.453125 C 0.3125 -0.5 0.84375 0.078125 1.671875 0.078125 Z M 1.78125 -0.46875 C 1.203125 -0.46875 0.9375 -0.890625 0.9375 -1.484375 C 0.9375 -2.34375 1.421875 -3.3125 2.328125 -3.3125 C 2.90625 -3.3125 3.171875 -2.9375 3.171875 -2.34375 C 3.171875 -1.46875 2.703125 -0.46875 1.78125 -0.46875 Z M 1.78125 -0.46875 "/>
</g>
<g id="glyph-2-16">
<path d="M -0.078125 1.21875 L 0.390625 1.21875 L 1.25 -0.703125 L 0.546875 -0.703125 Z M -0.078125 1.21875 "/>
</g>
<g id="glyph-2-17">
<path d="M 0.109375 0 L 3.109375 0 L 3.203125 -0.5625 L 1.09375 -0.5625 L 1.09375 -0.609375 L 3.59375 -3.328125 L 3.671875 -3.8125 L 0.8125 -3.8125 L 0.71875 -3.234375 L 2.765625 -3.234375 L 2.75 -3.203125 L 0.1875 -0.453125 Z M 0.109375 0 "/>
</g>
<g id="glyph-2-18">
<path d="M 1.328125 0 L 1.96875 0 L 4.046875 -3.8125 L 3.359375 -3.8125 L 2.171875 -1.546875 C 2 -1.21875 1.859375 -0.890625 1.71875 -0.5625 C 1.671875 -0.890625 1.640625 -1.21875 1.578125 -1.546875 L 1.140625 -3.8125 L 0.5 -3.8125 Z M 1.328125 0 "/>
</g>
<g id="glyph-2-19">
<path d="M 1.546875 1.5 C 2.46875 1.5 3.234375 1.09375 3.40625 0.125 L 4.0625 -3.8125 L 3.453125 -3.8125 L 3.359375 -3.203125 L 3.28125 -3.1875 C 3.1875 -3.375 3.015625 -3.859375 2.265625 -3.859375 C 1.0625 -3.859375 0.328125 -2.671875 0.328125 -1.515625 C 0.328125 -0.578125 0.890625 -0.0625 1.703125 -0.0625 C 2.40625 -0.0625 2.703125 -0.453125 2.875 -0.6875 L 2.921875 -0.703125 L 2.796875 0.046875 C 2.703125 0.671875 2.1875 0.96875 1.5625 0.96875 C 0.90625 0.96875 0.71875 0.625 0.609375 0.421875 L 0.078125 0.71875 C 0.25 1.109375 0.671875 1.5 1.546875 1.5 Z M 1.8125 -0.609375 C 1.21875 -0.609375 0.9375 -0.96875 0.9375 -1.546875 C 0.9375 -2.390625 1.453125 -3.3125 2.328125 -3.3125 C 2.90625 -3.3125 3.171875 -2.921875 3.171875 -2.34375 C 3.171875 -1.515625 2.734375 -0.609375 1.8125 -0.609375 Z M 1.8125 -0.609375 "/>
</g>
<g id="glyph-2-20">
<path d="M 0.71875 0.046875 C 0.953125 0.046875 1.171875 -0.15625 1.203125 -0.390625 C 1.25 -0.640625 1.0625 -0.875 0.796875 -0.875 C 0.5625 -0.875 0.34375 -0.6875 0.296875 -0.453125 C 0.25 -0.171875 0.453125 0.046875 0.71875 0.046875 Z M 0.71875 0.046875 "/>
</g>
<g id="glyph-2-21">
<path d="M 0.21875 0 L 0.828125 0 L 1.234375 -2.375 C 1.328125 -2.984375 1.8125 -3.3125 2.28125 -3.3125 C 2.671875 -3.3125 2.9375 -3.0625 2.875 -2.640625 L 2.4375 0 L 3.046875 0 L 3.453125 -2.46875 C 3.53125 -2.9375 3.921875 -3.3125 4.46875 -3.3125 C 4.84375 -3.3125 5.15625 -3.125 5.0625 -2.578125 L 4.640625 0 L 5.25 0 L 5.671875 -2.546875 C 5.828125 -3.4375 5.34375 -3.875 4.65625 -3.875 C 4.125 -3.875 3.625 -3.59375 3.359375 -3.09375 C 3.296875 -3.546875 3.015625 -3.875 2.5 -3.875 C 2.0625 -3.875 1.625 -3.640625 1.34375 -3.140625 L 1.453125 -3.8125 L 0.859375 -3.8125 Z M 0.21875 0 "/>
</g>
<g id="glyph-3-0">
<path d="M 3.78125 -0.234375 C 3.78125 -0.328125 3.71875 -0.40625 3.609375 -0.421875 C 3.5625 -0.4375 3.53125 -0.4375 3.53125 -0.5625 C 3.53125 -0.734375 3.578125 -0.890625 3.6875 -1.203125 C 3.828125 -1.578125 3.984375 -2.015625 3.984375 -2.375 C 3.984375 -2.84375 3.6875 -3.046875 3.40625 -3.046875 C 3.078125 -3.046875 2.8125 -2.859375 2.609375 -2.625 C 2.578125 -2.75 2.453125 -3.046875 2.0625 -3.046875 C 1.78125 -3.046875 1.578125 -2.90625 1.453125 -2.8125 C 1.4375 -2.984375 1.296875 -3 1.265625 -3 C 1.109375 -3 1.078125 -2.859375 1.046875 -2.78125 L 0.78125 -1.65625 C 0.78125 -1.65625 0.78125 -1.640625 0.703125 -1.453125 C 0.5625 -1 0.359375 -0.203125 0.359375 -0.15625 C 0.359375 0.046875 0.5625 0.046875 0.59375 0.046875 C 0.796875 0.046875 0.796875 0 0.90625 -0.390625 C 1.0625 -1.046875 1.453125 -2.625 2.0625 -2.625 C 2.21875 -2.625 2.25 -2.5 2.25 -2.34375 C 2.25 -2.109375 2.078125 -1.578125 2.0625 -1.484375 C 1.890625 -1 1.6875 -0.203125 1.6875 -0.15625 C 1.6875 0.046875 1.890625 0.046875 1.9375 0.046875 C 2.125 0.046875 2.140625 0 2.234375 -0.390625 C 2.40625 -1.046875 2.796875 -2.625 3.390625 -2.625 C 3.546875 -2.625 3.578125 -2.5 3.578125 -2.34375 C 3.578125 -2.109375 3.484375 -1.796875 3.265625 -1.140625 C 3.140625 -0.8125 3.125 -0.65625 3.125 -0.53125 C 3.125 0 3.546875 0 3.5625 0 C 3.75 0 3.78125 -0.15625 3.78125 -0.234375 Z M 3.78125 -0.234375 "/>
</g>
<g id="glyph-3-1">
<path d="M 3.78125 -1 C 3.78125 -1.03125 3.78125 -1.203125 3.546875 -1.203125 C 3.34375 -1.203125 3.328125 -1.109375 3.265625 -0.90625 C 3.234375 -0.78125 3.140625 -0.390625 3 -0.390625 C 2.859375 -0.390625 2.84375 -0.546875 2.84375 -0.578125 C 2.84375 -0.640625 2.859375 -0.703125 2.875 -0.75 L 3.328125 -2.578125 C 3.359375 -2.671875 3.359375 -2.6875 3.359375 -2.703125 C 3.359375 -2.84375 3.25 -2.9375 3.125 -2.9375 C 2.984375 -2.9375 2.90625 -2.828125 2.890625 -2.765625 C 2.65625 -3.015625 2.4375 -3.046875 2.296875 -3.046875 C 1.546875 -3.046875 0.8125 -2 0.8125 -1.03125 C 0.8125 -0.359375 1.15625 0.046875 1.625 0.046875 C 2.03125 0.046875 2.34375 -0.265625 2.421875 -0.328125 C 2.453125 -0.25 2.609375 0.046875 2.984375 0.046875 C 3.34375 0.046875 3.5 -0.25 3.546875 -0.328125 C 3.6875 -0.5625 3.78125 -0.953125 3.78125 -1 Z M 2.640625 -2 C 2.640625 -1.1875 2.0625 -0.390625 1.640625 -0.390625 C 1.328125 -0.390625 1.28125 -0.859375 1.28125 -1 C 1.28125 -1.796875 1.875 -2.625 2.28125 -2.625 C 2.546875 -2.625 2.640625 -2.3125 2.640625 -2 Z M 2.640625 -2 "/>
</g>
<g id="glyph-3-2">
<path d="M 3.859375 -1 C 3.859375 -1.03125 3.84375 -1.203125 3.609375 -1.203125 C 3.421875 -1.203125 3.390625 -1.09375 3.359375 -0.96875 C 3.328125 -0.875 3.203125 -0.390625 2.9375 -0.390625 C 2.875 -0.390625 2.71875 -0.40625 2.71875 -0.625 C 2.71875 -0.734375 2.765625 -0.734375 2.765625 -0.921875 C 2.765625 -1.359375 2.40625 -1.5625 2.046875 -1.65625 C 2.125 -1.734375 2.578125 -2.1875 2.59375 -2.21875 C 2.96875 -2.59375 3.171875 -2.609375 3.296875 -2.625 C 3.296875 -2.5 3.28125 -2.5 3.265625 -2.46875 C 3.171875 -2.40625 3.09375 -2.3125 3.09375 -2.1875 C 3.09375 -2.015625 3.234375 -1.90625 3.390625 -1.90625 C 3.734375 -1.90625 3.765625 -2.328125 3.765625 -2.5 C 3.765625 -2.8125 3.609375 -3.046875 3.296875 -3.046875 C 2.984375 -3.046875 2.640625 -2.875 2.203125 -2.40625 C 1.890625 -2.0625 1.734375 -1.921875 1.578125 -1.84375 L 2.109375 -3.9375 C 2.109375 -3.984375 2.125 -4.015625 2.125 -4.0625 C 2.125 -4.265625 1.9375 -4.265625 1.84375 -4.265625 L 1.1875 -4.265625 C 1.09375 -4.265625 0.90625 -4.265625 0.90625 -4.03125 C 0.90625 -3.828125 1.09375 -3.828125 1.1875 -3.828125 L 1.578125 -3.828125 L 0.703125 -0.328125 C 0.671875 -0.234375 0.671875 -0.21875 0.671875 -0.1875 C 0.671875 -0.046875 0.78125 0.046875 0.90625 0.046875 C 1.03125 0.046875 1.125 -0.046875 1.15625 -0.1875 L 1.4375 -1.3125 C 1.671875 -1.296875 2.28125 -1.234375 2.28125 -0.90625 C 2.28125 -0.796875 2.25 -0.796875 2.25 -0.625 C 2.25 -0.1875 2.59375 0.046875 2.9375 0.046875 C 3.609375 0.046875 3.859375 -0.921875 3.859375 -1 Z M 3.859375 -1 "/>
</g>
<g id="glyph-3-3">
<path d="M 3.6875 -0.515625 C 3.6875 -0.640625 3.546875 -0.765625 3.4375 -0.765625 C 3.359375 -0.765625 3.3125 -0.71875 3.296875 -0.703125 C 3.15625 -0.578125 2.921875 -0.390625 2.15625 -0.390625 C 2.015625 -0.390625 1.4375 -0.390625 1.4375 -1.140625 C 1.4375 -1.3125 1.453125 -1.3125 1.578125 -1.3125 L 1.8125 -1.3125 C 2.296875 -1.3125 2.734375 -1.375 3 -1.5 C 3.546875 -1.734375 3.59375 -2.171875 3.59375 -2.328125 C 3.59375 -2.734375 3.234375 -3.046875 2.734375 -3.046875 C 1.859375 -3.046875 0.96875 -2.15625 0.96875 -1.15625 C 0.96875 -0.75 1.09375 -0.453125 1.296875 -0.28125 C 1.609375 0.046875 1.921875 0.046875 2.1875 0.046875 C 2.421875 0.046875 2.78125 0.03125 3.09375 -0.0625 C 3.203125 -0.09375 3.6875 -0.28125 3.6875 -0.515625 Z M 3.109375 -2.328125 C 3.109375 -1.828125 2.390625 -1.734375 1.78125 -1.734375 L 1.578125 -1.734375 C 1.8125 -2.28125 2.328125 -2.625 2.71875 -2.625 C 2.953125 -2.625 3.109375 -2.5 3.109375 -2.328125 Z M 3.109375 -2.328125 "/>
</g>
<g id="glyph-3-4">
<path d="M 3.03125 0.921875 C 3.03125 0.671875 2.796875 0.671875 2.703125 0.671875 L 0.484375 0.671875 C 0.40625 0.671875 0.15625 0.671875 0.15625 0.921875 C 0.15625 1.15625 0.40625 1.15625 0.484375 1.15625 L 2.703125 1.15625 C 2.796875 1.15625 3.03125 1.15625 3.03125 0.921875 Z M 3.03125 0.921875 "/>
</g>
<g id="glyph-3-5">
<path d="M 3.734375 -2.515625 C 3.734375 -2.765625 3.6875 -3.046875 3.453125 -3.046875 C 3.328125 -3.046875 3.203125 -2.9375 3.203125 -2.796875 C 3.203125 -2.796875 3.203125 -2.75 3.21875 -2.6875 C 3.25 -2.625 3.25 -2.53125 3.25 -2.484375 C 3.25 -2.359375 2.96875 -0.390625 2.25 -0.390625 C 1.859375 -0.390625 1.75 -0.609375 1.75 -0.859375 C 1.75 -1.09375 1.859375 -1.421875 2.125 -2.109375 C 2.15625 -2.21875 2.1875 -2.3125 2.1875 -2.453125 C 2.1875 -2.78125 1.9375 -3.046875 1.578125 -3.046875 C 0.921875 -3.046875 0.5625 -2.203125 0.5625 -2 C 0.5625 -1.9375 0.578125 -1.8125 0.796875 -1.8125 C 0.953125 -1.8125 1 -1.859375 1.03125 -1.984375 C 1.203125 -2.515625 1.453125 -2.625 1.5625 -2.625 C 1.671875 -2.625 1.71875 -2.578125 1.71875 -2.453125 C 1.71875 -2.390625 1.703125 -2.375 1.65625 -2.25 C 1.40625 -1.546875 1.28125 -1.1875 1.28125 -0.859375 C 1.28125 -0.265625 1.703125 0.046875 2.234375 0.046875 C 3.40625 0.046875 3.734375 -2.1875 3.734375 -2.515625 Z M 3.734375 -2.515625 "/>
</g>
<g id="glyph-3-6">
<path d="M 3.421875 -1 C 3.421875 -1.03125 3.40625 -1.203125 3.171875 -1.203125 C 2.984375 -1.203125 2.953125 -1.09375 2.921875 -1.015625 C 2.8125 -0.609375 2.53125 -0.390625 2.328125 -0.390625 C 2.21875 -0.390625 2.109375 -0.4375 2.109375 -0.578125 C 2.109375 -0.625 2.203125 -0.875 2.265625 -1.015625 L 2.484375 -1.578125 L 2.65625 -2 C 2.765625 -2.265625 2.78125 -2.3125 2.78125 -2.4375 C 2.78125 -2.796875 2.484375 -3.046875 2.109375 -3.046875 C 1.390625 -3.046875 1 -2.234375 1 -2 C 1 -1.9375 1.03125 -1.8125 1.234375 -1.8125 C 1.40625 -1.8125 1.4375 -1.875 1.484375 -1.984375 C 1.640625 -2.5 1.953125 -2.625 2.09375 -2.625 C 2.21875 -2.625 2.296875 -2.546875 2.296875 -2.4375 C 2.296875 -2.375 2.265625 -2.3125 2.265625 -2.28125 L 1.6875 -0.84375 C 1.65625 -0.765625 1.625 -0.703125 1.625 -0.578125 C 1.625 -0.203125 1.9375 0.046875 2.3125 0.046875 C 3.015625 0.046875 3.421875 -0.78125 3.421875 -1 Z M 3.109375 -3.890625 C 3.109375 -4.078125 2.96875 -4.1875 2.828125 -4.1875 C 2.640625 -4.1875 2.484375 -4 2.484375 -3.84375 C 2.484375 -3.71875 2.578125 -3.5625 2.78125 -3.5625 C 2.921875 -3.5625 3.109375 -3.6875 3.109375 -3.890625 Z M 3.109375 -3.890625 "/>
</g>
<g id="glyph-3-7">
<path d="M 3.859375 -1 C 3.859375 -1.03125 3.84375 -1.203125 3.609375 -1.203125 C 3.421875 -1.203125 3.390625 -1.109375 3.34375 -0.90625 C 3.3125 -0.78125 3.203125 -0.390625 3.0625 -0.390625 C 2.921875 -0.390625 2.921875 -0.546875 2.921875 -0.578125 C 2.921875 -0.640625 2.9375 -0.703125 2.953125 -0.75 L 3.75 -3.9375 C 3.75 -3.984375 3.765625 -4.015625 3.765625 -4.0625 C 3.765625 -4.265625 3.578125 -4.265625 3.484375 -4.265625 L 2.921875 -4.265625 C 2.8125 -4.265625 2.625 -4.265625 2.625 -4.03125 C 2.625 -3.828125 2.828125 -3.828125 2.90625 -3.828125 L 3.21875 -3.828125 L 2.953125 -2.765625 C 2.734375 -3.015625 2.5 -3.046875 2.375 -3.046875 C 1.609375 -3.046875 0.875 -2 0.875 -1.03125 C 0.875 -0.359375 1.234375 0.046875 1.703125 0.046875 C 2.09375 0.046875 2.421875 -0.265625 2.484375 -0.328125 C 2.515625 -0.25 2.6875 0.046875 3.0625 0.046875 C 3.40625 0.046875 3.5625 -0.25 3.625 -0.328125 C 3.75 -0.5625 3.859375 -0.953125 3.859375 -1 Z M 2.703125 -2 C 2.703125 -1.1875 2.125 -0.390625 1.703125 -0.390625 C 1.40625 -0.390625 1.359375 -0.859375 1.359375 -1 C 1.359375 -1.796875 1.9375 -2.625 2.359375 -2.625 C 2.609375 -2.625 2.703125 -2.3125 2.703125 -2 Z M 2.703125 -2 "/>
</g>
<g id="glyph-3-8">
<path d="M 3.859375 -1 C 3.859375 -1.03125 3.84375 -1.203125 3.609375 -1.203125 C 3.421875 -1.203125 3.390625 -1.09375 3.359375 -0.96875 C 3.265625 -0.640625 3.109375 -0.390625 2.96875 -0.390625 C 2.921875 -0.390625 2.90625 -0.421875 2.90625 -0.5 C 2.90625 -0.578125 2.96875 -0.78125 3.015625 -0.90625 C 3.078125 -1.078125 3.375 -1.953125 3.375 -2.328125 C 3.375 -2.765625 3.109375 -3.046875 2.6875 -3.046875 C 2.390625 -3.046875 2.109375 -2.921875 1.84375 -2.65625 C 1.734375 -2.96875 1.484375 -3.046875 1.3125 -3.046875 C 1.078125 -3.046875 0.890625 -2.90625 0.765625 -2.671875 C 0.65625 -2.453125 0.5625 -2.0625 0.5625 -2 C 0.5625 -1.9375 0.578125 -1.8125 0.796875 -1.8125 C 1 -1.8125 1.015625 -1.890625 1.0625 -2.078125 C 1.09375 -2.1875 1.203125 -2.609375 1.3125 -2.609375 C 1.40625 -2.609375 1.40625 -2.5 1.40625 -2.4375 C 1.40625 -2.359375 1.40625 -2.328125 1.390625 -2.265625 L 0.90625 -0.328125 C 0.875 -0.234375 0.875 -0.21875 0.875 -0.1875 C 0.875 -0.046875 0.984375 0.046875 1.09375 0.046875 C 1.296875 0.046875 1.328125 -0.078125 1.421875 -0.421875 C 1.546875 -0.953125 1.71875 -1.546875 1.9375 -2 C 2.078125 -2.265625 2.328125 -2.625 2.671875 -2.625 C 2.8125 -2.625 2.90625 -2.5625 2.90625 -2.328125 C 2.90625 -2.015625 2.609375 -1.1875 2.5 -0.90625 C 2.453125 -0.78125 2.421875 -0.671875 2.421875 -0.515625 C 2.421875 -0.1875 2.640625 0.046875 2.953125 0.046875 C 3.59375 0.046875 3.859375 -0.890625 3.859375 -1 Z M 3.859375 -1 "/>
</g>
<g id="glyph-3-9">
<path d="M 3.6875 -0.515625 C 3.6875 -0.640625 3.546875 -0.765625 3.4375 -0.765625 C 3.359375 -0.765625 3.3125 -0.71875 3.296875 -0.703125 C 3.15625 -0.578125 2.921875 -0.390625 2.15625 -0.390625 C 2.015625 -0.390625 1.4375 -0.390625 1.4375 -1.125 C 1.4375 -1.890625 2.125 -2.625 2.71875 -2.625 C 2.84375 -2.625 2.96875 -2.59375 3.046875 -2.5 C 3 -2.453125 2.921875 -2.40625 2.921875 -2.234375 C 2.921875 -2.046875 3.0625 -1.953125 3.21875 -1.953125 C 3.421875 -1.953125 3.5625 -2.125 3.5625 -2.390625 C 3.5625 -2.75 3.234375 -3.046875 2.734375 -3.046875 C 1.828125 -3.046875 0.953125 -2.109375 0.953125 -1.140625 C 0.953125 -0.734375 1.09375 -0.453125 1.328125 -0.234375 C 1.609375 0.046875 1.96875 0.046875 2.1875 0.046875 C 2.421875 0.046875 2.78125 0.03125 3.09375 -0.0625 C 3.203125 -0.09375 3.6875 -0.28125 3.6875 -0.515625 Z M 3.6875 -0.515625 "/>
</g>
</g>
</defs>
<path fill-rule="nonzero" fill="rgb(39.216614%, 45.489502%, 54.508972%)" fill-opacity="1" stroke-width="0.3985" stroke-linecap="butt" stroke-linejoin="miter" stroke="rgb(39.216614%, 45.489502%, 54.508972%)" stroke-opacity="1" stroke-miterlimit="10" d="M 34.28175 14.883125 L -34.284656 14.883125 C -36.483875 14.883125 -38.269031 13.097969 -38.269031 10.89875 L -38.269031 -10.898125 C -38.269031 -13.097344 -36.483875 -14.8825 -34.284656 -14.8825 L 34.28175 -14.8825 C 36.484875 -14.8825 38.270031 -13.097344 38.270031 -10.898125 L 38.270031 10.89875 C 38.270031 13.097969 36.484875 14.883125 34.28175 14.883125 Z M 34.28175 14.883125 " transform="matrix(1, 0, 0, -1, 46.437, 131.555)"/>
<g fill="rgb(11.373901%, 11.764526%, 13.331604%)" fill-opacity="1">
<use xlink:href="#glyph-0-0" x="13.691" y="128.34"/>
</g>
<g fill="rgb(11.373901%, 11.764526%, 13.331604%)" fill-opacity="1">
<use xlink:href="#glyph-0-1" x="19.117667" y="128.34"/>
</g>
<g fill="rgb(11.373901%, 11.764526%, 13.331604%)" fill-opacity="1">
<use xlink:href="#glyph-0-2" x="25.569688" y="128.34"/>
</g>
<g fill="rgb(11.373901%, 11.764526%, 13.331604%)" fill-opacity="1">
<use xlink:href="#glyph-0-3" x="31.353171" y="128.34"/>
</g>
<g fill="rgb(11.373901%, 11.764526%, 13.331604%)" fill-opacity="1">
<use xlink:href="#glyph-0-4" x="36.170844" y="128.34"/>
</g>
<g fill="rgb(11.373901%, 11.764526%, 13.331604%)" fill-opacity="1">
<use xlink:href="#glyph-0-5" x="43.060238" y="128.34"/>
</g>
<g fill="rgb(11.373901%, 11.764526%, 13.331604%)" fill-opacity="1">
<use xlink:href="#glyph-0-6" x="48.910706" y="128.34"/>
</g>
<g fill="rgb(11.373901%, 11.764526%, 13.331604%)" fill-opacity="1">
<use xlink:href="#glyph-0-7" x="54.652597" y="128.34"/>
</g>
<g fill="rgb(11.373901%, 11.764526%, 13.331604%)" fill-opacity="1">
<use xlink:href="#glyph-0-4" x="60.2881" y="128.34"/>
</g>
<g fill="rgb(11.373901%, 11.764526%, 13.331604%)" fill-opacity="1">
<use xlink:href="#glyph-0-5" x="67.181872" y="128.34"/>
</g>
<g fill="rgb(11.373901%, 11.764526%, 13.331604%)" fill-opacity="1">
<use xlink:href="#glyph-0-8" x="72.782788" y="128.34"/>
</g>
<g fill="rgb(11.373901%, 11.764526%, 13.331604%)" fill-opacity="1">
<use xlink:href="#glyph-1-0" x="12.545" y="141.292"/>
</g>
<g fill="rgb(11.373901%, 11.764526%, 13.331604%)" fill-opacity="1">
<use xlink:href="#glyph-1-1" x="18.420673" y="141.292"/>
</g>
<g fill="rgb(11.373901%, 11.764526%, 13.331604%)" fill-opacity="1">
<use xlink:href="#glyph-1-0" x="22.759919" y="141.292"/>
</g>
<g fill="rgb(11.373901%, 11.764526%, 13.331604%)" fill-opacity="1">
<use xlink:href="#glyph-1-2" x="26.674196" y="141.292"/>
</g>
<g fill="rgb(11.373901%, 11.764526%, 13.331604%)" fill-opacity="1">
<use xlink:href="#glyph-1-3" x="29.185531" y="141.292"/>
</g>
<g fill="rgb(11.373901%, 11.764526%, 13.331604%)" fill-opacity="1">
<use xlink:href="#glyph-1-4" x="35.212735" y="141.292"/>
</g>
<g fill="rgb(11.373901%, 11.764526%, 13.331604%)" fill-opacity="1">
<use xlink:href="#glyph-1-3" x="41.321664" y="141.292"/>
</g>
<g fill="rgb(11.373901%, 11.764526%, 13.331604%)" fill-opacity="1">
<use xlink:href="#glyph-1-0" x="45.455577" y="141.292"/>
</g>
<g fill="rgb(11.373901%, 11.764526%, 13.331604%)" fill-opacity="1">
<use xlink:href="#glyph-1-5" x="49.369854" y="141.292"/>
</g>
<g fill="rgb(11.373901%, 11.764526%, 13.331604%)" fill-opacity="1">
<use xlink:href="#glyph-1-6" x="53.050195" y="141.292"/>
</g>
<g fill="rgb(11.373901%, 11.764526%, 13.331604%)" fill-opacity="1">
<use xlink:href="#glyph-1-2" x="57.174913" y="141.292"/>
</g>
<g fill="rgb(11.373901%, 11.764526%, 13.331604%)" fill-opacity="1">
<use xlink:href="#glyph-1-3" x="59.686248" y="141.292"/>
</g>
<g fill="rgb(11.373901%, 11.764526%, 13.331604%)" fill-opacity="1">
<use xlink:href="#glyph-1-4" x="63.752057" y="141.292"/>
</g>
<g fill="rgb(11.373901%, 11.764526%, 13.331604%)" fill-opacity="1">
<use xlink:href="#glyph-1-3" x="69.860986" y="141.292"/>
</g>
<g fill="rgb(11.373901%, 11.764526%, 13.331604%)" fill-opacity="1">
<use xlink:href="#glyph-1-7" x="73.926795" y="141.292"/>
</g>
<g fill="rgb(11.373901%, 11.764526%, 13.331604%)" fill-opacity="1">
<use xlink:href="#glyph-1-8" x="78.046406" y="141.292"/>
</g>
<path fill-rule="nonzero" fill="rgb(37.644958%, 64.704895%, 98.039246%)" fill-opacity="1" stroke-width="0.3985" stroke-linecap="butt" stroke-linejoin="miter" stroke="rgb(37.644958%, 64.704895%, 98.039246%)" stroke-opacity="1" stroke-miterlimit="10" d="M 151.922375 32.457344 L 83.355969 32.457344 C 81.15675 32.457344 79.371594 30.672188 79.371594 28.472969 L 79.371594 6.676094 C 79.371594 4.476875 81.15675 2.691719 83.355969 2.691719 L 151.922375 2.691719 C 154.121594 2.691719 155.90675 4.476875 155.90675 6.676094 L 155.90675 28.472969 C 155.90675 30.672188 154.121594 32.457344 151.922375 32.457344 Z M 151.922375 32.457344 " transform="matrix(1, 0, 0, -1, 46.437, 131.555)"/>
<g fill="rgb(11.373901%, 11.764526%, 13.331604%)" fill-opacity="1">
<use xlink:href="#glyph-0-9" x="136.184" y="110.766"/>
</g>
<g fill="rgb(11.373901%, 11.764526%, 13.331604%)" fill-opacity="1">
<use xlink:href="#glyph-0-6" x="142.566409" y="110.766"/>
</g>
<g fill="rgb(11.373901%, 11.764526%, 13.331604%)" fill-opacity="1">
<use xlink:href="#glyph-0-3" x="149.087604" y="110.766"/>
</g>
<g fill="rgb(11.373901%, 11.764526%, 13.331604%)" fill-opacity="1">
<use xlink:href="#glyph-0-10" x="154.159206" y="110.766"/>
</g>
<g fill="rgb(11.373901%, 11.764526%, 13.331604%)" fill-opacity="1">
<use xlink:href="#glyph-0-11" x="156.641157" y="110.766"/>
</g>
<g fill="rgb(11.373901%, 11.764526%, 13.331604%)" fill-opacity="1">
<use xlink:href="#glyph-0-5" x="162.552481" y="110.766"/>
</g>
<g fill="rgb(11.373901%, 11.764526%, 13.331604%)" fill-opacity="1">
<use xlink:href="#glyph-0-6" x="168.398571" y="110.766"/>
</g>
<g fill="rgb(11.373901%, 11.764526%, 13.331604%)" fill-opacity="1">
<use xlink:href="#glyph-0-7" x="174.140462" y="110.766"/>
</g>
<g fill="rgb(11.373901%, 11.764526%, 13.331604%)" fill-opacity="1">
<use xlink:href="#glyph-0-0" x="180.060543" y="110.766"/>
</g>
<g fill="rgb(11.373901%, 11.764526%, 13.331604%)" fill-opacity="1">
<use xlink:href="#glyph-0-12" x="185.48721" y="110.766"/>
</g>
<g fill="rgb(11.373901%, 11.764526%, 13.331604%)" fill-opacity="1">
<use xlink:href="#glyph-1-9" x="137.71" y="123.717"/>
</g>
<g fill="rgb(11.373901%, 11.764526%, 13.331604%)" fill-opacity="1">
<use xlink:href="#glyph-1-0" x="141.831314" y="123.717"/>
</g>
<g fill="rgb(11.373901%, 11.764526%, 13.331604%)" fill-opacity="1">
<use xlink:href="#glyph-1-5" x="145.748996" y="123.717"/>
</g>
<g fill="rgb(11.373901%, 11.764526%, 13.331604%)" fill-opacity="1">
<use xlink:href="#glyph-1-0" x="151.390732" y="123.717"/>
</g>
<g fill="rgb(11.373901%, 11.764526%, 13.331604%)" fill-opacity="1">
<use xlink:href="#glyph-1-5" x="157.266404" y="123.717"/>
</g>
<g fill="rgb(11.373901%, 11.764526%, 13.331604%)" fill-opacity="1">
<use xlink:href="#glyph-1-10" x="160.950149" y="123.717"/>
</g>
<g fill="rgb(11.373901%, 11.764526%, 13.331604%)" fill-opacity="1">
<use xlink:href="#glyph-1-11" x="164.93185" y="123.717"/>
</g>
<g fill="rgb(11.373901%, 11.764526%, 13.331604%)" fill-opacity="1">
<use xlink:href="#glyph-1-2" x="169.115479" y="123.717"/>
</g>
<g fill="rgb(11.373901%, 11.764526%, 13.331604%)" fill-opacity="1">
<use xlink:href="#glyph-1-3" x="171.623408" y="123.717"/>
</g>
<g fill="rgb(11.373901%, 11.764526%, 13.331604%)" fill-opacity="1">
<use xlink:href="#glyph-1-10" x="175.689217" y="123.717"/>
</g>
<g fill="rgb(11.373901%, 11.764526%, 13.331604%)" fill-opacity="1">
<use xlink:href="#glyph-1-0" x="179.742427" y="123.717"/>
</g>
<g fill="rgb(11.373901%, 11.764526%, 13.331604%)" fill-opacity="1">
<use xlink:href="#glyph-1-2" x="183.656704" y="123.717"/>
</g>
<g fill="rgb(11.373901%, 11.764526%, 13.331604%)" fill-opacity="1">
<use xlink:href="#glyph-1-12" x="186.168039" y="123.717"/>
</g>
<path fill-rule="nonzero" fill="rgb(65.489197%, 54.508972%, 98.039246%)" fill-opacity="1" stroke-width="0.3985" stroke-linecap="butt" stroke-linejoin="miter" stroke="rgb(65.489197%, 54.508972%, 98.039246%)" stroke-opacity="1" stroke-miterlimit="10" d="M 269.563 50.031563 L 200.996594 50.031563 C 198.793469 50.031563 197.008312 48.246406 197.008312 46.047188 L 197.008312 24.254219 C 197.008312 22.051094 198.793469 20.265938 200.996594 20.265938 L 269.563 20.265938 C 271.762219 20.265938 273.547375 22.051094 273.547375 24.254219 L 273.547375 46.047188 C 273.547375 48.246406 271.762219 50.031563 269.563 50.031563 Z M 269.563 50.031563 " transform="matrix(1, 0, 0, -1, 46.437, 131.555)"/>
<g fill="rgb(11.373901%, 11.764526%, 13.331604%)" fill-opacity="1">
<use xlink:href="#glyph-0-5" x="254.007" y="92.524"/>
</g>
<g fill="rgb(11.373901%, 11.764526%, 13.331604%)" fill-opacity="1">
<use xlink:href="#glyph-0-0" x="259.85309" y="92.524"/>
</g>
<g fill="rgb(11.373901%, 11.764526%, 13.331604%)" fill-opacity="1">
<use xlink:href="#glyph-0-13" x="265.284136" y="92.524"/>
</g>
<g fill="rgb(11.373901%, 11.764526%, 13.331604%)" fill-opacity="1">
<use xlink:href="#glyph-0-10" x="272.000156" y="92.524"/>
</g>
<g fill="rgb(11.373901%, 11.764526%, 13.331604%)" fill-opacity="1">
<use xlink:href="#glyph-0-14" x="274.482107" y="92.524"/>
</g>
<g fill="rgb(11.373901%, 11.764526%, 13.331604%)" fill-opacity="1">
<use xlink:href="#glyph-0-7" x="280.315501" y="92.524"/>
</g>
<g fill="rgb(11.373901%, 11.764526%, 13.331604%)" fill-opacity="1">
<use xlink:href="#glyph-0-0" x="286.231203" y="92.524"/>
</g>
<g fill="rgb(11.373901%, 11.764526%, 13.331604%)" fill-opacity="1">
<use xlink:href="#glyph-0-5" x="291.662248" y="92.524"/>
</g>
<g fill="rgb(11.373901%, 11.764526%, 13.331604%)" fill-opacity="1">
<use xlink:href="#glyph-0-0" x="297.512717" y="92.524"/>
</g>
<g fill="rgb(11.373901%, 11.764526%, 13.331604%)" fill-opacity="1">
<use xlink:href="#glyph-0-12" x="302.939384" y="92.524"/>
</g>
<g fill="rgb(11.373901%, 11.764526%, 13.331604%)" fill-opacity="1">
<use xlink:href="#glyph-1-13" x="247.081" y="105.475"/>
</g>
<g fill="rgb(11.373901%, 11.764526%, 13.331604%)" fill-opacity="1">
<use xlink:href="#glyph-1-2" x="251.348737" y="105.475"/>
</g>
<g fill="rgb(11.373901%, 11.764526%, 13.331604%)" fill-opacity="1">
<use xlink:href="#glyph-1-3" x="253.860072" y="105.475"/>
</g>
<g fill="rgb(11.373901%, 11.764526%, 13.331604%)" fill-opacity="1">
<use xlink:href="#glyph-1-12" x="257.925881" y="105.475"/>
</g>
<g fill="rgb(11.373901%, 11.764526%, 13.331604%)" fill-opacity="1">
<use xlink:href="#glyph-1-14" x="262.197023" y="105.475"/>
</g>
<g fill="rgb(11.373901%, 11.764526%, 13.331604%)" fill-opacity="1">
<use xlink:href="#glyph-1-10" x="263.883278" y="105.475"/>
</g>
<g fill="rgb(11.373901%, 11.764526%, 13.331604%)" fill-opacity="1">
<use xlink:href="#glyph-1-8" x="267.868384" y="105.475"/>
</g>
<g fill="rgb(11.373901%, 11.764526%, 13.331604%)" fill-opacity="1">
<use xlink:href="#glyph-1-3" x="270.082104" y="105.475"/>
</g>
<g fill="rgb(11.373901%, 11.764526%, 13.331604%)" fill-opacity="1">
<use xlink:href="#glyph-1-12" x="274.147913" y="105.475"/>
</g>
<g fill="rgb(11.373901%, 11.764526%, 13.331604%)" fill-opacity="1">
<use xlink:href="#glyph-1-14" x="280.380451" y="105.475"/>
</g>
<g fill="rgb(11.373901%, 11.764526%, 13.331604%)" fill-opacity="1">
<use xlink:href="#glyph-1-7" x="282.066706" y="105.475"/>
</g>
<g fill="rgb(11.373901%, 11.764526%, 13.331604%)" fill-opacity="1">
<use xlink:href="#glyph-1-0" x="288.151117" y="105.475"/>
</g>
<g fill="rgb(11.373901%, 11.764526%, 13.331604%)" fill-opacity="1">
<use xlink:href="#glyph-1-12" x="292.065395" y="105.475"/>
</g>
<g fill="rgb(11.373901%, 11.764526%, 13.331604%)" fill-opacity="1">
<use xlink:href="#glyph-1-15" x="296.370589" y="105.475"/>
</g>
<g fill="rgb(11.373901%, 11.764526%, 13.331604%)" fill-opacity="1">
<use xlink:href="#glyph-1-0" x="300.255922" y="105.475"/>
</g>
<g fill="rgb(11.373901%, 11.764526%, 13.331604%)" fill-opacity="1">
<use xlink:href="#glyph-1-7" x="304.1702" y="105.475"/>
</g>
<g fill="rgb(11.373901%, 11.764526%, 13.331604%)" fill-opacity="1">
<use xlink:href="#glyph-1-10" x="308.293216" y="105.475"/>
</g>
<g fill="rgb(11.373901%, 11.764526%, 13.331604%)" fill-opacity="1">
<use xlink:href="#glyph-1-3" x="312.274916" y="105.475"/>
</g>
<path fill-rule="nonzero" fill="rgb(13.331604%, 77.253723%, 36.863708%)" fill-opacity="1" stroke-width="0.3985" stroke-linecap="butt" stroke-linejoin="miter" stroke="rgb(13.331604%, 77.253723%, 36.863708%)" stroke-opacity="1" stroke-miterlimit="10" d="M 387.199719 67.605781 L 318.633312 67.605781 C 316.434094 67.605781 314.648937 65.824531 314.648937 63.621406 L 314.648937 41.828438 C 314.648937 39.625313 316.434094 37.844063 318.633312 37.844063 L 387.199719 37.844063 C 389.402844 37.844063 391.184094 39.625313 391.184094 41.828438 L 391.184094 63.621406 C 391.184094 65.824531 389.402844 67.605781 387.199719 67.605781 Z M 387.199719 67.605781 " transform="matrix(1, 0, 0, -1, 46.437, 131.555)"/>
<g fill="rgb(11.373901%, 11.764526%, 13.331604%)" fill-opacity="1">
<use xlink:href="#glyph-0-6" x="367.501" y="75.62"/>
</g>
<g fill="rgb(11.373901%, 11.764526%, 13.331604%)" fill-opacity="1">
<use xlink:href="#glyph-0-12" x="374.022195" y="75.62"/>
</g>
<g fill="rgb(11.373901%, 11.764526%, 13.331604%)" fill-opacity="1">
<use xlink:href="#glyph-0-15" x="380.498295" y="75.62"/>
</g>
<g fill="rgb(11.373901%, 11.764526%, 13.331604%)" fill-opacity="1">
<use xlink:href="#glyph-0-16" x="385.69336" y="75.62"/>
</g>
<g fill="rgb(11.373901%, 11.764526%, 13.331604%)" fill-opacity="1">
<use xlink:href="#glyph-0-12" x="392.290297" y="75.62"/>
</g>
<g fill="rgb(11.373901%, 11.764526%, 13.331604%)" fill-opacity="1">
<use xlink:href="#glyph-0-10" x="398.766397" y="75.62"/>
</g>
<g fill="rgb(11.373901%, 11.764526%, 13.331604%)" fill-opacity="1">
<use xlink:href="#glyph-0-9" x="401.248348" y="75.62"/>
</g>
<g fill="rgb(11.373901%, 11.764526%, 13.331604%)" fill-opacity="1">
<use xlink:href="#glyph-0-6" x="407.635134" y="75.62"/>
</g>
<g fill="rgb(11.373901%, 11.764526%, 13.331604%)" fill-opacity="1">
<use xlink:href="#glyph-0-7" x="413.372648" y="75.62"/>
</g>
<g fill="rgb(11.373901%, 11.764526%, 13.331604%)" fill-opacity="1">
<use xlink:href="#glyph-0-0" x="419.292728" y="75.62"/>
</g>
<g fill="rgb(11.373901%, 11.764526%, 13.331604%)" fill-opacity="1">
<use xlink:href="#glyph-0-12" x="424.719395" y="75.62"/>
</g>
<g fill="rgb(11.373901%, 11.764526%, 13.331604%)" fill-opacity="1">
<use xlink:href="#glyph-1-5" x="371.899" y="88.571"/>
</g>
<g fill="rgb(11.373901%, 11.764526%, 13.331604%)" fill-opacity="1">
<use xlink:href="#glyph-1-6" x="375.57934" y="88.571"/>
</g>
<g fill="rgb(11.373901%, 11.764526%, 13.331604%)" fill-opacity="1">
<use xlink:href="#glyph-1-2" x="379.700654" y="88.571"/>
</g>
<g fill="rgb(11.373901%, 11.764526%, 13.331604%)" fill-opacity="1">
<use xlink:href="#glyph-1-15" x="382.436732" y="88.571"/>
</g>
<g fill="rgb(11.373901%, 11.764526%, 13.331604%)" fill-opacity="1">
<use xlink:href="#glyph-1-14" x="386.356117" y="88.571"/>
</g>
<g fill="rgb(11.373901%, 11.764526%, 13.331604%)" fill-opacity="1">
<use xlink:href="#glyph-1-15" x="388.045777" y="88.571"/>
</g>
<g fill="rgb(11.373901%, 11.764526%, 13.331604%)" fill-opacity="1">
<use xlink:href="#glyph-1-3" x="391.828955" y="88.571"/>
</g>
<g fill="rgb(11.373901%, 11.764526%, 13.331604%)" fill-opacity="1">
<use xlink:href="#glyph-1-12" x="395.894763" y="88.571"/>
</g>
<g fill="rgb(11.373901%, 11.764526%, 13.331604%)" fill-opacity="1">
<use xlink:href="#glyph-1-8" x="402.123896" y="88.571"/>
</g>
<g fill="rgb(11.373901%, 11.764526%, 13.331604%)" fill-opacity="1">
<use xlink:href="#glyph-1-9" x="404.40572" y="88.571"/>
</g>
<g fill="rgb(11.373901%, 11.764526%, 13.331604%)" fill-opacity="1">
<use xlink:href="#glyph-1-3" x="408.530439" y="88.571"/>
</g>
<g fill="rgb(11.373901%, 11.764526%, 13.331604%)" fill-opacity="1">
<use xlink:href="#glyph-1-8" x="414.557643" y="88.571"/>
</g>
<g fill="rgb(11.373901%, 11.764526%, 13.331604%)" fill-opacity="1">
<use xlink:href="#glyph-1-3" x="416.771364" y="88.571"/>
</g>
<g fill="rgb(11.373901%, 11.764526%, 13.331604%)" fill-opacity="1">
<use xlink:href="#glyph-1-5" x="420.837172" y="88.571"/>
</g>
<g fill="rgb(11.373901%, 11.764526%, 13.331604%)" fill-opacity="1">
<use xlink:href="#glyph-1-8" x="424.517512" y="88.571"/>
</g>
<path fill="none" stroke-width="0.89664" stroke-linecap="butt" stroke-linejoin="miter" stroke="rgb(71.763611%, 74.116516%, 78.039551%)" stroke-opacity="1" stroke-miterlimit="10" d="M 38.46925 0.0003125 L 75.293469 15.902656 " transform="matrix(1, 0, 0, -1, 46.437, 131.555)"/>
<path fill-rule="nonzero" fill="rgb(71.763611%, 74.116516%, 78.039551%)" fill-opacity="1" stroke-width="0.89664" stroke-linecap="butt" stroke-linejoin="miter" stroke="rgb(71.763611%, 74.116516%, 78.039551%)" stroke-opacity="1" stroke-miterlimit="10" d="M 5.528029 0.0013023 L 1.450127 1.544932 L 2.803754 -0.00113514 L 1.44851 -1.543526 Z M 5.528029 0.0013023 " transform="matrix(0.91803, -0.39636, -0.39636, -0.91803, 119.36312, 116.67666)"/>
<path fill-rule="nonzero" fill="rgb(11.373901%, 11.764526%, 13.331604%)" fill-opacity="1" stroke-width="0.79701" stroke-linecap="butt" stroke-linejoin="miter" stroke="rgb(71.763611%, 74.116516%, 78.039551%)" stroke-opacity="1" stroke-miterlimit="10" d="M 63.914563 21.828438 L 53.727063 21.828438 C 52.6255 21.828438 51.730969 20.933906 51.730969 19.83625 L 51.730969 -2.261406 C 51.730969 -3.359062 52.6255 -4.253594 53.727063 -4.253594 L 63.914563 -4.253594 C 65.012219 -4.253594 65.90675 -3.359062 65.90675 -2.261406 L 65.90675 19.83625 C 65.90675 20.933906 65.012219 21.828438 63.914563 21.828438 Z M 63.914563 21.828438 " transform="matrix(1, 0, 0, -1, 46.437, 131.555)"/>
<path fill="none" stroke-width="0.59776" stroke-linecap="butt" stroke-linejoin="miter" stroke="rgb(71.763611%, 74.116516%, 78.039551%)" stroke-opacity="1" stroke-miterlimit="10" d="M 55.418469 -0.85125 L 55.418469 18.426094 " transform="matrix(1, 0, 0, -1, 46.437, 131.555)"/>
<path fill="none" stroke-width="0.59776" stroke-linecap="butt" stroke-linejoin="miter" stroke="rgb(71.763611%, 74.116516%, 78.039551%)" stroke-opacity="1" stroke-miterlimit="10" d="M 58.820813 -0.85125 L 58.820813 18.426094 " transform="matrix(1, 0, 0, -1, 46.437, 131.555)"/>
<path fill="none" stroke-width="0.59776" stroke-linecap="butt" stroke-linejoin="miter" stroke="rgb(71.763611%, 74.116516%, 78.039551%)" stroke-opacity="1" stroke-miterlimit="10" d="M 62.21925 -0.85125 L 62.21925 18.426094 " transform="matrix(1, 0, 0, -1, 46.437, 131.555)"/>
<g fill="rgb(71.763611%, 74.116516%, 78.039551%)" fill-opacity="1">
<use xlink:href="#glyph-1-0" x="85.732" y="104.304"/>
</g>
<g fill="rgb(71.763611%, 74.116516%, 78.039551%)" fill-opacity="1">
<use xlink:href="#glyph-1-5" x="91.607673" y="104.304"/>
</g>
<g fill="rgb(71.763611%, 74.116516%, 78.039551%)" fill-opacity="1">
<use xlink:href="#glyph-1-10" x="95.288013" y="104.304"/>
</g>
<g fill="rgb(71.763611%, 74.116516%, 78.039551%)" fill-opacity="1">
<use xlink:href="#glyph-1-11" x="99.273118" y="104.304"/>
</g>
<g fill="rgb(71.763611%, 74.116516%, 78.039551%)" fill-opacity="1">
<use xlink:href="#glyph-1-2" x="103.453342" y="104.304"/>
</g>
<g fill="rgb(71.763611%, 74.116516%, 78.039551%)" fill-opacity="1">
<use xlink:href="#glyph-1-3" x="105.964677" y="104.304"/>
</g>
<g fill="rgb(71.763611%, 74.116516%, 78.039551%)" fill-opacity="1">
<use xlink:href="#glyph-1-10" x="110.030486" y="104.304"/>
</g>
<g fill="rgb(71.763611%, 74.116516%, 78.039551%)" fill-opacity="1">
<use xlink:href="#glyph-1-0" x="114.083695" y="104.304"/>
</g>
<g fill="rgb(71.763611%, 74.116516%, 78.039551%)" fill-opacity="1">
<use xlink:href="#glyph-1-2" x="117.997973" y="104.304"/>
</g>
<g fill="rgb(71.763611%, 74.116516%, 78.039551%)" fill-opacity="1">
<use xlink:href="#glyph-1-12" x="120.509308" y="104.304"/>
</g>
<path fill="none" stroke-width="0.89664" stroke-linecap="butt" stroke-linejoin="miter" stroke="rgb(71.763611%, 74.116516%, 78.039551%)" stroke-opacity="1" stroke-miterlimit="10" d="M 156.105969 17.574531 L 192.934094 33.476875 " transform="matrix(1, 0, 0, -1, 46.437, 131.555)"/>
<path fill-rule="nonzero" fill="rgb(71.763611%, 74.116516%, 78.039551%)" fill-opacity="1" stroke-width="0.89664" stroke-linecap="butt" stroke-linejoin="miter" stroke="rgb(71.763611%, 74.116516%, 78.039551%)" stroke-opacity="1" stroke-miterlimit="10" d="M 5.525599 0.00163119 L 1.447697 1.545261 L 2.80491 -0.00235471 L 1.44608 -1.543197 Z M 5.525599 0.00163119 " transform="matrix(0.91803, -0.39636, -0.39636, -0.91803, 237.0022, 99.10178)"/>
<path fill-rule="nonzero" fill="rgb(11.373901%, 11.764526%, 13.331604%)" fill-opacity="1" stroke-width="0.79701" stroke-linecap="butt" stroke-linejoin="miter" stroke="rgb(71.763611%, 74.116516%, 78.039551%)" stroke-opacity="1" stroke-miterlimit="10" d="M 181.551281 39.402656 L 171.363781 39.402656 C 170.262219 39.402656 169.371594 38.508125 169.371594 37.410469 L 169.371594 15.316719 C 169.371594 14.215156 170.262219 13.324531 171.363781 13.324531 L 181.551281 13.324531 C 182.652844 13.324531 183.543469 14.215156 183.543469 15.316719 L 183.543469 37.410469 C 183.543469 38.508125 182.652844 39.402656 181.551281 39.402656 Z M 181.551281 39.402656 " transform="matrix(1, 0, 0, -1, 46.437, 131.555)"/>
<path fill="none" stroke-width="0.59776" stroke-linecap="butt" stroke-linejoin="miter" stroke="rgb(71.763611%, 74.116516%, 78.039551%)" stroke-opacity="1" stroke-miterlimit="10" d="M 173.055187 16.722969 L 173.055187 36.000313 " transform="matrix(1, 0, 0, -1, 46.437, 131.555)"/>
<path fill="none" stroke-width="0.59776" stroke-linecap="butt" stroke-linejoin="miter" stroke="rgb(71.763611%, 74.116516%, 78.039551%)" stroke-opacity="1" stroke-miterlimit="10" d="M 176.457531 16.722969 L 176.457531 36.000313 " transform="matrix(1, 0, 0, -1, 46.437, 131.555)"/>
<path fill="none" stroke-width="0.59776" stroke-linecap="butt" stroke-linejoin="miter" stroke="rgb(71.763611%, 74.116516%, 78.039551%)" stroke-opacity="1" stroke-miterlimit="10" d="M 179.859875 16.722969 L 179.859875 36.000313 " transform="matrix(1, 0, 0, -1, 46.437, 131.555)"/>
<g fill="rgb(71.763611%, 74.116516%, 78.039551%)" fill-opacity="1">
<use xlink:href="#glyph-1-0" x="200.421" y="85.395"/>
</g>
<g fill="rgb(71.763611%, 74.116516%, 78.039551%)" fill-opacity="1">
<use xlink:href="#glyph-1-16" x="206.296673" y="85.395"/>
</g>
<g fill="rgb(71.763611%, 74.116516%, 78.039551%)" fill-opacity="1">
<use xlink:href="#glyph-1-2" x="208.878155" y="85.395"/>
</g>
<g fill="rgb(71.763611%, 74.116516%, 78.039551%)" fill-opacity="1">
<use xlink:href="#glyph-1-11" x="211.386085" y="85.395"/>
</g>
<g fill="rgb(71.763611%, 74.116516%, 78.039551%)" fill-opacity="1">
<use xlink:href="#glyph-1-17" x="215.467557" y="85.395"/>
</g>
<g fill="rgb(71.763611%, 74.116516%, 78.039551%)" fill-opacity="1">
<use xlink:href="#glyph-1-3" x="219.217363" y="85.395"/>
</g>
<g fill="rgb(71.763611%, 74.116516%, 78.039551%)" fill-opacity="1">
<use xlink:href="#glyph-1-7" x="223.283172" y="85.395"/>
</g>
<g fill="rgb(71.763611%, 74.116516%, 78.039551%)" fill-opacity="1">
<use xlink:href="#glyph-1-5" x="229.364178" y="85.395"/>
</g>
<g fill="rgb(71.763611%, 74.116516%, 78.039551%)" fill-opacity="1">
<use xlink:href="#glyph-1-13" x="233.044519" y="85.395"/>
</g>
<g fill="rgb(71.763611%, 74.116516%, 78.039551%)" fill-opacity="1">
<use xlink:href="#glyph-1-3" x="237.315661" y="85.395"/>
</g>
<g fill="rgb(71.763611%, 74.116516%, 78.039551%)" fill-opacity="1">
<use xlink:href="#glyph-1-10" x="241.38147" y="85.395"/>
</g>
<path fill="none" stroke-width="0.89664" stroke-linecap="butt" stroke-linejoin="miter" stroke="rgb(71.763611%, 74.116516%, 78.039551%)" stroke-opacity="1" stroke-miterlimit="10" d="M 273.746594 35.14875 L 310.574719 51.051094 " transform="matrix(1, 0, 0, -1, 46.437, 131.555)"/>
<path fill-rule="nonzero" fill="rgb(71.763611%, 74.116516%, 78.039551%)" fill-opacity="1" stroke-width="0.89664" stroke-linecap="butt" stroke-linejoin="miter" stroke="rgb(71.763611%, 74.116516%, 78.039551%)" stroke-opacity="1" stroke-miterlimit="10" d="M 5.526737 0.000419553 L 1.448835 1.544049 L 2.80401 0.0015686 L 1.447218 -1.544408 Z M 5.526737 0.000419553 " transform="matrix(0.91803, -0.39636, -0.39636, -0.91803, 354.6413, 81.5269)"/>
<path fill-rule="nonzero" fill="rgb(11.373901%, 11.764526%, 13.331604%)" fill-opacity="1" stroke-width="0.79701" stroke-linecap="butt" stroke-linejoin="miter" stroke="rgb(71.763611%, 74.116516%, 78.039551%)" stroke-opacity="1" stroke-miterlimit="10" d="M 299.191906 56.976875 L 289.004406 56.976875 C 287.902844 56.976875 287.012219 56.08625 287.012219 54.984688 L 287.012219 32.890938 C 287.012219 31.789375 287.902844 30.89875 289.004406 30.89875 L 299.191906 30.89875 C 300.293469 30.89875 301.184094 31.789375 301.184094 32.890938 L 301.184094 54.984688 C 301.184094 56.08625 300.293469 56.976875 299.191906 56.976875 Z M 299.191906 56.976875 " transform="matrix(1, 0, 0, -1, 46.437, 131.555)"/>
<path fill="none" stroke-width="0.59776" stroke-linecap="butt" stroke-linejoin="miter" stroke="rgb(71.763611%, 74.116516%, 78.039551%)" stroke-opacity="1" stroke-miterlimit="10" d="M 290.695812 34.301094 L 290.695812 53.574531 " transform="matrix(1, 0, 0, -1, 46.437, 131.555)"/>
<path fill="none" stroke-width="0.59776" stroke-linecap="butt" stroke-linejoin="miter" stroke="rgb(71.763611%, 74.116516%, 78.039551%)" stroke-opacity="1" stroke-miterlimit="10" d="M 294.098156 34.301094 L 294.098156 53.574531 " transform="matrix(1, 0, 0, -1, 46.437, 131.555)"/>
<path fill="none" stroke-width="0.59776" stroke-linecap="butt" stroke-linejoin="miter" stroke="rgb(71.763611%, 74.116516%, 78.039551%)" stroke-opacity="1" stroke-miterlimit="10" d="M 297.5005 34.301094 L 297.5005 53.574531 " transform="matrix(1, 0, 0, -1, 46.437, 131.555)"/>
<g fill="rgb(71.763611%, 74.116516%, 78.039551%)" fill-opacity="1">
<use xlink:href="#glyph-1-14" x="325.313" y="67.82"/>
</g>
<g fill="rgb(71.763611%, 74.116516%, 78.039551%)" fill-opacity="1">
<use xlink:href="#glyph-1-8" x="326.999255" y="67.82"/>
</g>
<g fill="rgb(71.763611%, 74.116516%, 78.039551%)" fill-opacity="1">
<use xlink:href="#glyph-1-9" x="331.242475" y="67.82"/>
</g>
<g fill="rgb(71.763611%, 74.116516%, 78.039551%)" fill-opacity="1">
<use xlink:href="#glyph-1-3" x="335.367194" y="67.82"/>
</g>
<g fill="rgb(71.763611%, 74.116516%, 78.039551%)" fill-opacity="1">
<use xlink:href="#glyph-1-18" x="339.433002" y="67.82"/>
</g>
<g fill="rgb(71.763611%, 74.116516%, 78.039551%)" fill-opacity="1">
<use xlink:href="#glyph-1-12" x="341.122663" y="67.82"/>
</g>
<g fill="rgb(71.763611%, 74.116516%, 78.039551%)" fill-opacity="1">
<use xlink:href="#glyph-1-6" x="347.351795" y="67.82"/>
</g>
<g fill="rgb(71.763611%, 74.116516%, 78.039551%)" fill-opacity="1">
<use xlink:href="#glyph-1-13" x="351.476514" y="67.82"/>
</g>
<path fill="none" stroke-width="0.49814" stroke-linecap="butt" stroke-linejoin="miter" stroke="rgb(60.392761%, 62.745667%, 66.665649%)" stroke-opacity="1" stroke-dasharray="1.59404 1.59404" stroke-miterlimit="10" d="M 0.0005 15.082344 C 105.887219 105.508125 225.223156 123.33625 352.918469 67.805 " transform="matrix(1, 0, 0, -1, 46.437, 131.555)"/>
<path fill-rule="nonzero" fill="rgb(11.373901%, 11.764526%, 13.331604%)" fill-opacity="1" stroke-width="0.69739" stroke-linecap="butt" stroke-linejoin="miter" stroke="rgb(94.119263%, 44.314575%, 43.528748%)" stroke-opacity="1" stroke-miterlimit="10" d="M 177.066906 96.18 C 177.066906 101.031563 173.133312 104.965156 168.28175 104.965156 C 163.426281 104.965156 159.492687 101.031563 159.492687 96.18 C 159.492687 91.324531 163.426281 87.390938 168.28175 87.390938 C 173.133312 87.390938 177.066906 91.324531 177.066906 96.18 Z M 177.066906 96.18 " transform="matrix(1, 0, 0, -1, 46.437, 131.555)"/>
<path fill="none" stroke-width="1.0959" stroke-linecap="butt" stroke-linejoin="miter" stroke="rgb(94.119263%, 44.314575%, 43.528748%)" stroke-opacity="1" stroke-miterlimit="10" d="M 164.027844 91.926094 L 172.53175 100.43 " transform="matrix(1, 0, 0, -1, 46.437, 131.555)"/>
<path fill="none" stroke-width="1.0959" stroke-linecap="butt" stroke-linejoin="miter" stroke="rgb(94.119263%, 44.314575%, 43.528748%)" stroke-opacity="1" stroke-miterlimit="10" d="M 164.027844 100.43 L 172.53175 91.926094 " transform="matrix(1, 0, 0, -1, 46.437, 131.555)"/>
<g fill="rgb(94.119263%, 44.314575%, 43.528748%)" fill-opacity="1">
<use xlink:href="#glyph-2-0" x="195.908" y="22.139"/>
</g>
<g fill="rgb(94.119263%, 44.314575%, 43.528748%)" fill-opacity="1">
<use xlink:href="#glyph-2-1" x="200.029314" y="22.139"/>
</g>
<g fill="rgb(94.119263%, 44.314575%, 43.528748%)" fill-opacity="1">
<use xlink:href="#glyph-2-2" x="206.17604" y="22.139"/>
</g>
<g fill="rgb(94.119263%, 44.314575%, 43.528748%)" fill-opacity="1">
<use xlink:href="#glyph-2-3" x="209.854678" y="22.139"/>
</g>
<g fill="rgb(94.119263%, 44.314575%, 43.528748%)" fill-opacity="1">
<use xlink:href="#glyph-2-1" x="213.975991" y="22.139"/>
</g>
<g fill="rgb(94.119263%, 44.314575%, 43.528748%)" fill-opacity="1">
<use xlink:href="#glyph-2-4" x="218.161323" y="22.139"/>
</g>
<g fill="rgb(94.119263%, 44.314575%, 43.528748%)" fill-opacity="1">
<use xlink:href="#glyph-2-5" x="220.899103" y="22.139"/>
</g>
<g fill="rgb(94.119263%, 44.314575%, 43.528748%)" fill-opacity="1">
<use xlink:href="#glyph-2-6" x="223.119634" y="22.139"/>
</g>
<g fill="rgb(94.119263%, 44.314575%, 43.528748%)" fill-opacity="1">
<use xlink:href="#glyph-2-7" x="227.106442" y="22.139"/>
</g>
<g fill="rgb(94.119263%, 44.314575%, 43.528748%)" fill-opacity="1">
<use xlink:href="#glyph-2-5" x="231.236269" y="22.139"/>
</g>
<g fill="rgb(60.392761%, 62.745667%, 66.665649%)" fill-opacity="1">
<use xlink:href="#glyph-2-5" x="11.689" y="167.316"/>
</g>
<g fill="rgb(60.392761%, 62.745667%, 66.665649%)" fill-opacity="1">
<use xlink:href="#glyph-2-3" x="13.97423" y="167.316"/>
</g>
<g fill="rgb(60.392761%, 62.745667%, 66.665649%)" fill-opacity="1">
<use xlink:href="#glyph-2-8" x="18.098948" y="167.316"/>
</g>
<g fill="rgb(60.392761%, 62.745667%, 66.665649%)" fill-opacity="1">
<use xlink:href="#glyph-2-6" x="24.074053" y="167.316"/>
</g>
<g fill="rgb(60.392761%, 62.745667%, 66.665649%)" fill-opacity="1">
<use xlink:href="#glyph-2-9" x="28.064266" y="167.316"/>
</g>
<g fill="rgb(60.392761%, 62.745667%, 66.665649%)" fill-opacity="1">
<use xlink:href="#glyph-2-10" x="32.343922" y="167.316"/>
</g>
<g fill="rgb(60.392761%, 62.745667%, 66.665649%)" fill-opacity="1">
<use xlink:href="#glyph-2-10" x="34.033582" y="167.316"/>
</g>
<g fill="rgb(60.392761%, 62.745667%, 66.665649%)" fill-opacity="1">
<use xlink:href="#glyph-2-8" x="35.719837" y="167.316"/>
</g>
<g fill="rgb(60.392761%, 62.745667%, 66.665649%)" fill-opacity="1">
<use xlink:href="#glyph-2-4" x="39.736951" y="167.316"/>
</g>
<g fill="rgb(60.392761%, 62.745667%, 66.665649%)" fill-opacity="1">
<use xlink:href="#glyph-2-2" x="44.327161" y="167.316"/>
</g>
<g fill="rgb(60.392761%, 62.745667%, 66.665649%)" fill-opacity="1">
<use xlink:href="#glyph-2-7" x="48.002393" y="167.316"/>
</g>
<g fill="rgb(60.392761%, 62.745667%, 66.665649%)" fill-opacity="1">
<use xlink:href="#glyph-2-11" x="52.13222" y="167.316"/>
</g>
<g fill="rgb(60.392761%, 62.745667%, 66.665649%)" fill-opacity="1">
<use xlink:href="#glyph-2-11" x="56.405065" y="167.316"/>
</g>
<g fill="rgb(60.392761%, 62.745667%, 66.665649%)" fill-opacity="1">
<use xlink:href="#glyph-2-10" x="60.67791" y="167.316"/>
</g>
<g fill="rgb(60.392761%, 62.745667%, 66.665649%)" fill-opacity="1">
<use xlink:href="#glyph-2-12" x="62.36757" y="167.316"/>
</g>
<g fill="rgb(60.392761%, 62.745667%, 66.665649%)" fill-opacity="1">
<use xlink:href="#glyph-2-8" x="64.058933" y="167.316"/>
</g>
<g fill="rgb(60.392761%, 62.745667%, 66.665649%)" fill-opacity="1">
<use xlink:href="#glyph-2-2" x="68.072642" y="167.316"/>
</g>
<g fill="rgb(60.392761%, 62.745667%, 66.665649%)" fill-opacity="1">
<use xlink:href="#glyph-2-5" x="73.712675" y="167.316"/>
</g>
<g fill="rgb(60.392761%, 62.745667%, 66.665649%)" fill-opacity="1">
<use xlink:href="#glyph-2-3" x="76.00131" y="167.316"/>
</g>
<g fill="rgb(60.392761%, 62.745667%, 66.665649%)" fill-opacity="1">
<use xlink:href="#glyph-2-8" x="80.126029" y="167.316"/>
</g>
<g fill="rgb(60.392761%, 62.745667%, 66.665649%)" fill-opacity="1">
<use xlink:href="#glyph-2-13" x="86.101133" y="167.316"/>
</g>
<g fill="rgb(60.392761%, 62.745667%, 66.665649%)" fill-opacity="1">
<use xlink:href="#glyph-2-9" x="88.498394" y="167.316"/>
</g>
<g fill="rgb(60.392761%, 62.745667%, 66.665649%)" fill-opacity="1">
<use xlink:href="#glyph-2-6" x="92.778049" y="167.316"/>
</g>
<g fill="rgb(60.392761%, 62.745667%, 66.665649%)" fill-opacity="1">
<use xlink:href="#glyph-2-5" x="96.764857" y="167.316"/>
</g>
<g fill="rgb(60.392761%, 62.745667%, 66.665649%)" fill-opacity="1">
<use xlink:href="#glyph-2-2" x="98.985388" y="167.316"/>
</g>
<g fill="rgb(60.392761%, 62.745667%, 66.665649%)" fill-opacity="1">
<use xlink:href="#glyph-2-14" x="102.664026" y="167.316"/>
</g>
<g fill="rgb(60.392761%, 62.745667%, 66.665649%)" fill-opacity="1">
<use xlink:href="#glyph-2-9" x="107.288628" y="167.316"/>
</g>
<g fill="rgb(60.392761%, 62.745667%, 66.665649%)" fill-opacity="1">
<use xlink:href="#glyph-2-2" x="113.529678" y="167.316"/>
</g>
<g fill="rgb(60.392761%, 62.745667%, 66.665649%)" fill-opacity="1">
<use xlink:href="#glyph-2-6" x="117.208316" y="167.316"/>
</g>
<g fill="rgb(60.392761%, 62.745667%, 66.665649%)" fill-opacity="1">
<use xlink:href="#glyph-2-1" x="121.195124" y="167.316"/>
</g>
<g fill="rgb(60.392761%, 62.745667%, 66.665649%)" fill-opacity="1">
<use xlink:href="#glyph-2-4" x="125.380456" y="167.316"/>
</g>
<g fill="rgb(60.392761%, 62.745667%, 66.665649%)" fill-opacity="1">
<use xlink:href="#glyph-2-8" x="127.893493" y="167.316"/>
</g>
<g fill="rgb(60.392761%, 62.745667%, 66.665649%)" fill-opacity="1">
<use xlink:href="#glyph-2-6" x="131.907202" y="167.316"/>
</g>
<g fill="rgb(60.392761%, 62.745667%, 66.665649%)" fill-opacity="1">
<use xlink:href="#glyph-2-9" x="135.894011" y="167.316"/>
</g>
<g fill="rgb(60.392761%, 62.745667%, 66.665649%)" fill-opacity="1">
<use xlink:href="#glyph-2-4" x="140.177071" y="167.316"/>
</g>
<g fill="rgb(60.392761%, 62.745667%, 66.665649%)" fill-opacity="1">
<use xlink:href="#glyph-2-15" x="142.690109" y="167.316"/>
</g>
<g fill="rgb(60.392761%, 62.745667%, 66.665649%)" fill-opacity="1">
<use xlink:href="#glyph-2-16" x="146.962954" y="167.316"/>
</g>
<g fill="rgb(60.392761%, 62.745667%, 66.665649%)" fill-opacity="1">
<use xlink:href="#glyph-2-9" x="150.92865" y="167.316"/>
</g>
<g fill="rgb(60.392761%, 62.745667%, 66.665649%)" fill-opacity="1">
<use xlink:href="#glyph-2-13" x="157.1697" y="167.316"/>
</g>
<g fill="rgb(60.392761%, 62.745667%, 66.665649%)" fill-opacity="1">
<use xlink:href="#glyph-2-4" x="159.771273" y="167.316"/>
</g>
<g fill="rgb(60.392761%, 62.745667%, 66.665649%)" fill-opacity="1">
<use xlink:href="#glyph-2-1" x="162.284311" y="167.316"/>
</g>
<g fill="rgb(60.392761%, 62.745667%, 66.665649%)" fill-opacity="1">
<use xlink:href="#glyph-2-17" x="166.367486" y="167.316"/>
</g>
<g fill="rgb(60.392761%, 62.745667%, 66.665649%)" fill-opacity="1">
<use xlink:href="#glyph-2-8" x="170.117292" y="167.316"/>
</g>
<g fill="rgb(60.392761%, 62.745667%, 66.665649%)" fill-opacity="1">
<use xlink:href="#glyph-2-0" x="174.131001" y="167.316"/>
</g>
<g fill="rgb(60.392761%, 62.745667%, 66.665649%)" fill-opacity="1">
<use xlink:href="#glyph-2-2" x="180.217115" y="167.316"/>
</g>
<g fill="rgb(60.392761%, 62.745667%, 66.665649%)" fill-opacity="1">
<use xlink:href="#glyph-2-11" x="183.895753" y="167.316"/>
</g>
<g fill="rgb(60.392761%, 62.745667%, 66.665649%)" fill-opacity="1">
<use xlink:href="#glyph-2-8" x="188.168598" y="167.316"/>
</g>
<g fill="rgb(60.392761%, 62.745667%, 66.665649%)" fill-opacity="1">
<use xlink:href="#glyph-2-6" x="192.182307" y="167.316"/>
</g>
<g fill="rgb(60.392761%, 62.745667%, 66.665649%)" fill-opacity="1">
<use xlink:href="#glyph-2-16" x="196.17252" y="167.316"/>
</g>
<g fill="rgb(60.392761%, 62.745667%, 66.665649%)" fill-opacity="1">
<use xlink:href="#glyph-2-9" x="200.138216" y="167.316"/>
</g>
<g fill="rgb(60.392761%, 62.745667%, 66.665649%)" fill-opacity="1">
<use xlink:href="#glyph-2-2" x="206.379267" y="167.316"/>
</g>
<g fill="rgb(60.392761%, 62.745667%, 66.665649%)" fill-opacity="1">
<use xlink:href="#glyph-2-7" x="210.057904" y="167.316"/>
</g>
<g fill="rgb(60.392761%, 62.745667%, 66.665649%)" fill-opacity="1">
<use xlink:href="#glyph-2-4" x="214.184326" y="167.316"/>
</g>
<g fill="rgb(60.392761%, 62.745667%, 66.665649%)" fill-opacity="1">
<use xlink:href="#glyph-2-18" x="216.922107" y="167.316"/>
</g>
<g fill="rgb(60.392761%, 62.745667%, 66.665649%)" fill-opacity="1">
<use xlink:href="#glyph-2-12" x="220.841492" y="167.316"/>
</g>
<g fill="rgb(60.392761%, 62.745667%, 66.665649%)" fill-opacity="1">
<use xlink:href="#glyph-2-18" x="222.532855" y="167.316"/>
</g>
<g fill="rgb(60.392761%, 62.745667%, 66.665649%)" fill-opacity="1">
<use xlink:href="#glyph-2-12" x="226.45224" y="167.316"/>
</g>
<g fill="rgb(60.392761%, 62.745667%, 66.665649%)" fill-opacity="1">
<use xlink:href="#glyph-2-0" x="228.147008" y="167.316"/>
</g>
<g fill="rgb(60.392761%, 62.745667%, 66.665649%)" fill-opacity="1">
<use xlink:href="#glyph-2-19" x="232.268321" y="167.316"/>
</g>
<g fill="rgb(60.392761%, 62.745667%, 66.665649%)" fill-opacity="1">
<use xlink:href="#glyph-2-11" x="238.507669" y="167.316"/>
</g>
<g fill="rgb(60.392761%, 62.745667%, 66.665649%)" fill-opacity="1">
<use xlink:href="#glyph-2-4" x="242.780514" y="167.316"/>
</g>
<g fill="rgb(60.392761%, 62.745667%, 66.665649%)" fill-opacity="1">
<use xlink:href="#glyph-2-8" x="245.293552" y="167.316"/>
</g>
<g fill="rgb(60.392761%, 62.745667%, 66.665649%)" fill-opacity="1">
<use xlink:href="#glyph-2-15" x="249.310666" y="167.316"/>
</g>
<g fill="rgb(60.392761%, 62.745667%, 66.665649%)" fill-opacity="1">
<use xlink:href="#glyph-2-12" x="253.583511" y="167.316"/>
</g>
<g fill="rgb(60.392761%, 62.745667%, 66.665649%)" fill-opacity="1">
<use xlink:href="#glyph-2-6" x="255.274874" y="167.316"/>
</g>
<g fill="rgb(60.392761%, 62.745667%, 66.665649%)" fill-opacity="1">
<use xlink:href="#glyph-2-5" x="259.261682" y="167.316"/>
</g>
<g fill="rgb(60.392761%, 62.745667%, 66.665649%)" fill-opacity="1">
<use xlink:href="#glyph-2-12" x="261.550317" y="167.316"/>
</g>
<g fill="rgb(60.392761%, 62.745667%, 66.665649%)" fill-opacity="1">
<use xlink:href="#glyph-2-1" x="263.24168" y="167.316"/>
</g>
<g fill="rgb(60.392761%, 62.745667%, 66.665649%)" fill-opacity="1">
<use xlink:href="#glyph-2-0" x="267.427011" y="167.316"/>
</g>
<g fill="rgb(60.392761%, 62.745667%, 66.665649%)" fill-opacity="1">
<use xlink:href="#glyph-2-20" x="271.55173" y="167.316"/>
</g>
<g fill="rgb(60.392761%, 62.745667%, 66.665649%)" fill-opacity="1">
<use xlink:href="#glyph-2-5" x="11.689" y="175.286"/>
</g>
<g fill="rgb(60.392761%, 62.745667%, 66.665649%)" fill-opacity="1">
<use xlink:href="#glyph-2-3" x="13.97423" y="175.286"/>
</g>
<g fill="rgb(60.392761%, 62.745667%, 66.665649%)" fill-opacity="1">
<use xlink:href="#glyph-2-8" x="18.098948" y="175.286"/>
</g>
<g fill="rgb(60.392761%, 62.745667%, 66.665649%)" fill-opacity="1">
<use xlink:href="#glyph-2-4" x="24.074053" y="175.286"/>
</g>
<g fill="rgb(60.392761%, 62.745667%, 66.665649%)" fill-opacity="1">
<use xlink:href="#glyph-2-7" x="26.702867" y="175.286"/>
</g>
<g fill="rgb(60.392761%, 62.745667%, 66.665649%)" fill-opacity="1">
<use xlink:href="#glyph-2-0" x="30.832694" y="175.286"/>
</g>
<g fill="rgb(60.392761%, 62.745667%, 66.665649%)" fill-opacity="1">
<use xlink:href="#glyph-2-19" x="34.954007" y="175.286"/>
</g>
<g fill="rgb(60.392761%, 62.745667%, 66.665649%)" fill-opacity="1">
<use xlink:href="#glyph-2-12" x="41.193355" y="175.286"/>
</g>
<g fill="rgb(60.392761%, 62.745667%, 66.665649%)" fill-opacity="1">
<use xlink:href="#glyph-2-2" x="42.884718" y="175.286"/>
</g>
<g fill="rgb(60.392761%, 62.745667%, 66.665649%)" fill-opacity="1">
<use xlink:href="#glyph-2-6" x="48.524751" y="175.286"/>
</g>
<g fill="rgb(60.392761%, 62.745667%, 66.665649%)" fill-opacity="1">
<use xlink:href="#glyph-2-1" x="52.511559" y="175.286"/>
</g>
<g fill="rgb(60.392761%, 62.745667%, 66.665649%)" fill-opacity="1">
<use xlink:href="#glyph-2-21" x="56.69689" y="175.286"/>
</g>
<g fill="rgb(60.392761%, 62.745667%, 66.665649%)" fill-opacity="1">
<use xlink:href="#glyph-2-11" x="62.805819" y="175.286"/>
</g>
<g fill="rgb(60.392761%, 62.745667%, 66.665649%)" fill-opacity="1">
<use xlink:href="#glyph-2-7" x="67.078664" y="175.286"/>
</g>
<g fill="rgb(60.392761%, 62.745667%, 66.665649%)" fill-opacity="1">
<use xlink:href="#glyph-2-5" x="71.208491" y="175.286"/>
</g>
<g fill="rgb(60.392761%, 62.745667%, 66.665649%)" fill-opacity="1">
<use xlink:href="#glyph-2-8" x="73.425617" y="175.286"/>
</g>
<g fill="rgb(60.392761%, 62.745667%, 66.665649%)" fill-opacity="1">
<use xlink:href="#glyph-2-15" x="77.442731" y="175.286"/>
</g>
<g fill="rgb(60.392761%, 62.745667%, 66.665649%)" fill-opacity="1">
<use xlink:href="#glyph-2-13" x="83.676971" y="175.286"/>
</g>
<g fill="rgb(60.392761%, 62.745667%, 66.665649%)" fill-opacity="1">
<use xlink:href="#glyph-2-4" x="86.278544" y="175.286"/>
</g>
<g fill="rgb(60.392761%, 62.745667%, 66.665649%)" fill-opacity="1">
<use xlink:href="#glyph-2-1" x="88.791582" y="175.286"/>
</g>
<g fill="rgb(60.392761%, 62.745667%, 66.665649%)" fill-opacity="1">
<use xlink:href="#glyph-2-21" x="92.976913" y="175.286"/>
</g>
<g fill="rgb(60.392761%, 62.745667%, 66.665649%)" fill-opacity="1">
<use xlink:href="#glyph-2-5" x="101.047237" y="175.286"/>
</g>
<g fill="rgb(60.392761%, 62.745667%, 66.665649%)" fill-opacity="1">
<use xlink:href="#glyph-2-3" x="103.335872" y="175.286"/>
</g>
<g fill="rgb(60.392761%, 62.745667%, 66.665649%)" fill-opacity="1">
<use xlink:href="#glyph-2-8" x="107.457185" y="175.286"/>
</g>
<g fill="rgb(60.392761%, 62.745667%, 66.665649%)" fill-opacity="1">
<use xlink:href="#glyph-2-21" x="111.4743" y="175.286"/>
</g>
<g fill="rgb(60.392761%, 62.745667%, 66.665649%)" fill-opacity="1">
<use xlink:href="#glyph-2-20" x="117.583229" y="175.286"/>
</g>
<g fill="rgb(60.392761%, 62.745667%, 66.665649%)" fill-opacity="1">
<use xlink:href="#glyph-2-0" x="122.202723" y="175.286"/>
</g>
<g fill="rgb(60.392761%, 62.745667%, 66.665649%)" fill-opacity="1">
<use xlink:href="#glyph-2-1" x="126.327442" y="175.286"/>
</g>
<g fill="rgb(60.392761%, 62.745667%, 66.665649%)" fill-opacity="1">
<use xlink:href="#glyph-2-9" x="132.474168" y="175.286"/>
</g>
<g fill="rgb(60.392761%, 62.745667%, 66.665649%)" fill-opacity="1">
<use xlink:href="#glyph-2-4" x="136.753824" y="175.286"/>
</g>
<g fill="rgb(60.392761%, 62.745667%, 66.665649%)" fill-opacity="1">
<use xlink:href="#glyph-2-19" x="139.266861" y="175.286"/>
</g>
<g fill="rgb(60.392761%, 62.745667%, 66.665649%)" fill-opacity="1">
<use xlink:href="#glyph-2-7" x="143.544814" y="175.286"/>
</g>
<g fill="rgb(60.392761%, 62.745667%, 66.665649%)" fill-opacity="1">
<use xlink:href="#glyph-2-21" x="147.671235" y="175.286"/>
</g>
<g fill="rgb(60.392761%, 62.745667%, 66.665649%)" fill-opacity="1">
<use xlink:href="#glyph-2-8" x="153.780164" y="175.286"/>
</g>
<g fill="rgb(60.392761%, 62.745667%, 66.665649%)" fill-opacity="1">
<use xlink:href="#glyph-2-0" x="157.793873" y="175.286"/>
</g>
<g fill="rgb(60.392761%, 62.745667%, 66.665649%)" fill-opacity="1">
<use xlink:href="#glyph-2-5" x="161.918592" y="175.286"/>
</g>
<g fill="rgb(60.392761%, 62.745667%, 66.665649%)" fill-opacity="1">
<use xlink:href="#glyph-2-5" x="166.168622" y="175.286"/>
</g>
<g fill="rgb(60.392761%, 62.745667%, 66.665649%)" fill-opacity="1">
<use xlink:href="#glyph-2-1" x="168.389153" y="175.286"/>
</g>
<g fill="rgb(60.392761%, 62.745667%, 66.665649%)" fill-opacity="1">
<use xlink:href="#glyph-3-0" x="174.536" y="175.286"/>
<use xlink:href="#glyph-3-1" x="178.197271" y="175.286"/>
<use xlink:href="#glyph-3-2" x="181.858542" y="175.286"/>
<use xlink:href="#glyph-3-3" x="185.519814" y="175.286"/>
<use xlink:href="#glyph-3-4" x="189.181085" y="175.286"/>
<use xlink:href="#glyph-3-3" x="192.842356" y="175.286"/>
<use xlink:href="#glyph-3-5" x="196.503627" y="175.286"/>
<use xlink:href="#glyph-3-6" x="200.164899" y="175.286"/>
<use xlink:href="#glyph-3-7" x="203.82617" y="175.286"/>
<use xlink:href="#glyph-3-3" x="207.487441" y="175.286"/>
<use xlink:href="#glyph-3-8" x="211.148712" y="175.286"/>
<use xlink:href="#glyph-3-9" x="214.809984" y="175.286"/>
<use xlink:href="#glyph-3-3" x="218.471255" y="175.286"/>
</g>
<g fill="rgb(60.392761%, 62.745667%, 66.665649%)" fill-opacity="1">
<use xlink:href="#glyph-2-2" x="224.094" y="175.286"/>
</g>
<g fill="rgb(60.392761%, 62.745667%, 66.665649%)" fill-opacity="1">
<use xlink:href="#glyph-2-8" x="227.769232" y="175.286"/>
</g>
<g fill="rgb(60.392761%, 62.745667%, 66.665649%)" fill-opacity="1">
<use xlink:href="#glyph-2-5" x="231.782942" y="175.286"/>
</g>
<g fill="rgb(60.392761%, 62.745667%, 66.665649%)" fill-opacity="1">
<use xlink:href="#glyph-2-2" x="234.003473" y="175.286"/>
</g>
<g fill="rgb(60.392761%, 62.745667%, 66.665649%)" fill-opacity="1">
<use xlink:href="#glyph-2-12" x="239.643505" y="175.286"/>
</g>
<g fill="rgb(60.392761%, 62.745667%, 66.665649%)" fill-opacity="1">
<use xlink:href="#glyph-2-5" x="241.334868" y="175.286"/>
</g>
<g fill="rgb(60.392761%, 62.745667%, 66.665649%)" fill-opacity="1">
<use xlink:href="#glyph-2-20" x="243.623503" y="175.286"/>
</g>
</svg>
